<?xml version="1.0" encoding="UTF-8" ?>
<svg xmlns="http://www.w3.org/2000/svg" xmlns:xlink="http://www.w3.org/1999/xlink" width="1045pt" height="890pt" viewBox="0.00 0.00 1045.00 889.80">
<g id="graph0" class="graph" transform="scale(1 1) rotate(0) translate(4 885.8)">
<title>ds63_graph</title>
<polygon fill="#ffffff" stroke="transparent" points="-4,4 -4,-885.8 1041,-885.8 1041,4 -4,4"/>
<g id="clust1" class="cluster">
<title>cluster_main</title>
<g id="a_clust1"><a xlink:title="[DEMO_DATA_SUB]&#10;user_created=&quot;APP_DBCC_D&quot;&#10;date_created=&quot;05/03/25 15:17:56&quot;">
<polygon fill="none" stroke="#000000" points="8,-8 8,-853 823,-853 823,-8 8,-8"/>
<text text-anchor="start" x="269.501" y="-837.4" font-family="Times,serif" font-weight="bold" font-size="14.00" fill="#000000">Data Set: DEMO_DATA_SUB (id: 63 - type: SUB)</text>
</a>
</g>
</g>
<g id="clust2" class="cluster">
<title>cluster_legend</title>
<polygon fill="none" stroke="#000000" points="831,-141.4 831,-873.8 1029,-873.8 1029,-141.4 831,-141.4"/>
<text text-anchor="start" x="909.0091" y="-858.2" font-family="Times,serif" font-weight="bold" font-size="14.00" fill="#000000">Legend</text>
</g>
<!-- DEMO_COUNTRIES -->
<g id="node1" class="node">
<title>DEMO_COUNTRIES</title>
<g id="a_node1"><a xlink:title="[DEMO_COUNTRIES]&#10;source_count=27">
<path fill="#ff0000" stroke="#ffffff" d="M92.6241,-574.3C92.6241,-574.3 211.3759,-574.3 211.3759,-574.3 217.3759,-574.3 223.3759,-580.3 223.3759,-586.3 223.3759,-586.3 223.3759,-603.9 223.3759,-603.9 223.3759,-609.9 217.3759,-615.9 211.3759,-615.9 211.3759,-615.9 92.6241,-615.9 92.6241,-615.9 86.6241,-615.9 80.6241,-609.9 80.6241,-603.9 80.6241,-603.9 80.6241,-586.3 80.6241,-586.3 80.6241,-580.3 86.6241,-574.3 92.6241,-574.3"/>
<text text-anchor="middle" x="152" y="-599.3" font-family="Times,serif" font-size="14.00" fill="#ffffff">DEMO_COUNTRIES</text>
<text text-anchor="middle" x="152" y="-582.5" font-family="Times,serif" font-size="14.00" fill="#ffffff">@cnt #1</text>
</a>
</g>
</g>
<!-- DEMO_CREDIT_CARD_TYPES -->
<g id="node2" class="node">
<title>DEMO_CREDIT_CARD_TYPES</title>
<g id="a_node2"><a xlink:title="[DEMO_CREDIT_CARD_TYPES]&#10;source_count=4">
<path fill="#ff0000" stroke="#ffffff" d="M376.7903,-16.5C376.7903,-16.5 563.2097,-16.5 563.2097,-16.5 569.2097,-16.5 575.2097,-22.5 575.2097,-28.5 575.2097,-28.5 575.2097,-46.1 575.2097,-46.1 575.2097,-52.1 569.2097,-58.1 563.2097,-58.1 563.2097,-58.1 376.7903,-58.1 376.7903,-58.1 370.7903,-58.1 364.7903,-52.1 364.7903,-46.1 364.7903,-46.1 364.7903,-28.5 364.7903,-28.5 364.7903,-22.5 370.7903,-16.5 376.7903,-16.5"/>
<text text-anchor="middle" x="470" y="-41.5" font-family="Times,serif" font-size="14.00" fill="#ffffff">DEMO_CREDIT_CARD_TYPES</text>
<text text-anchor="middle" x="470" y="-24.7" font-family="Times,serif" font-size="14.00" fill="#ffffff">@cct #1</text>
</a>
</g>
</g>
<!-- DEMO_ORG_ENTITIES -->
<g id="node3" class="node">
<title>DEMO_ORG_ENTITIES</title>
<g id="a_node3"><a xlink:title="[DEMO_ORG_ENTITIES]&#10;source_count=1015">
<path fill="#0000ff" stroke="#ffffff" d="M601.9095,-374.5C601.9095,-374.5 740.0905,-374.5 740.0905,-374.5 746.0905,-374.5 752.0905,-380.5 752.0905,-386.5 752.0905,-386.5 752.0905,-404.1 752.0905,-404.1 752.0905,-410.1 746.0905,-416.1 740.0905,-416.1 740.0905,-416.1 601.9095,-416.1 601.9095,-416.1 595.9095,-416.1 589.9095,-410.1 589.9095,-404.1 589.9095,-404.1 589.9095,-386.5 589.9095,-386.5 589.9095,-380.5 595.9095,-374.5 601.9095,-374.5"/>
<text text-anchor="middle" x="671" y="-399.5" font-family="Times,serif" font-size="14.00" fill="#ffffff">DEMO_ORG_ENTITIES</text>
<text text-anchor="middle" x="671" y="-382.7" font-family="Times,serif" font-size="14.00" fill="#ffffff">@oen #1</text>
</a>
</g>
</g>
<!-- DEMO_ORG_ENTITIES&#45;&gt;DEMO_ORG_ENTITIES -->
<!-- DEMO_ORG_ENTITIES&#45;&gt;DEMO_ORG_ENTITIES -->
<!-- DEMO_ORG_ENTITIES&#45;&gt;DEMO_ORG_ENTITIES -->
<g id="edge3" class="edge">
<title>DEMO_ORG_ENTITIES-&gt;DEMO_ORG_ENTITIES</title>
<g id="a_edge3"><a xlink:title="[DEMO_OEN_OEN_FK]&#10;extract_count=0">
<path fill="none" stroke="#000000" d="M752.1087,-407.2817C781.7821,-407.6064 806.0905,-403.6125 806.0905,-395.3 806.0905,-388.4487 789.5769,-384.5311 767.1566,-383.5474"/>
<polygon fill="#0000ff" stroke="#000000" points="767.1869,-378.2974 752.1087,-383.3183 767.027,-388.7961 767.1869,-378.2974"/>
</a>
</g>
<text text-anchor="middle" x="807.8405" y="-391.1" font-family="Times,serif" font-size="14.00" fill="#000000"> </text>
</g>
<!-- DEMO_ORG_ENTITY_TYPES -->
<g id="node4" class="node">
<title>DEMO_ORG_ENTITY_TYPES</title>
<g id="a_node4"><a xlink:title="[DEMO_ORG_ENTITY_TYPES]&#10;source_count=5">
<path fill="#ff0000" stroke="#ffffff" d="M600.4656,-174.7C600.4656,-174.7 777.5344,-174.7 777.5344,-174.7 783.5344,-174.7 789.5344,-180.7 789.5344,-186.7 789.5344,-186.7 789.5344,-204.3 789.5344,-204.3 789.5344,-210.3 783.5344,-216.3 777.5344,-216.3 777.5344,-216.3 600.4656,-216.3 600.4656,-216.3 594.4656,-216.3 588.4656,-210.3 588.4656,-204.3 588.4656,-204.3 588.4656,-186.7 588.4656,-186.7 588.4656,-180.7 594.4656,-174.7 600.4656,-174.7"/>
<text text-anchor="middle" x="689" y="-199.7" font-family="Times,serif" font-size="14.00" fill="#ffffff">DEMO_ORG_ENTITY_TYPES</text>
<text text-anchor="middle" x="689" y="-182.9" font-family="Times,serif" font-size="14.00" fill="#ffffff">@oet #1</text>
</a>
</g>
</g>
<!-- DEMO_ORG_ENTITIES&#45;&gt;DEMO_ORG_ENTITY_TYPES -->
<g id="edge4" class="edge">
<title>DEMO_ORG_ENTITIES-&gt;DEMO_ORG_ENTITY_TYPES</title>
<g id="a_edge4"><a xlink:title="[DEMO_OEN_OET_FK]&#10;extract_count=0">
<path fill="none" stroke="#000000" d="M672.8923,-374.2955C675.9442,-340.4192 681.99,-273.3114 685.7444,-231.6371"/>
<polygon fill="#ff0000" stroke="#000000" points="690.9889,-231.9334 687.1061,-216.5228 680.5312,-230.9912 690.9889,-231.9334"/>
</a>
</g>
<text text-anchor="middle" x="682.75" y="-291.2" font-family="Times,serif" font-size="14.00" fill="#000000"> </text>
</g>
<!-- DEMO_PERSONS -->
<g id="node5" class="node">
<title>DEMO_PERSONS</title>
<g id="a_node5"><a xlink:title="[DEMO_PERSONS]&#10;source_count=50&#10;where_clause=&quot;per_id&lt;=10&quot;">
<path fill="#00ff00" stroke="#000000" d="M332.0358,-770.1C332.0358,-770.1 481.9642,-770.1 481.9642,-770.1 487.9642,-770.1 493.9642,-776.1 493.9642,-782.1 493.9642,-782.1 493.9642,-807.7 493.9642,-807.7 493.9642,-813.7 487.9642,-819.7 481.9642,-819.7 481.9642,-819.7 332.0358,-819.7 332.0358,-819.7 326.0358,-819.7 320.0358,-813.7 320.0358,-807.7 320.0358,-807.7 320.0358,-782.1 320.0358,-782.1 320.0358,-776.1 326.0358,-770.1 332.0358,-770.1"/>
<text text-anchor="middle" x="407" y="-803.1" font-family="Times,serif" font-size="14.00" fill="#000000">DEMO_PERSONS@per #1</text>
<polyline fill="none" stroke="#000000" points="320.0358,-794.9 493.9642,-794.9 "/>
<text text-anchor="middle" x="407" y="-778.3" font-family="Times,serif" font-size="14.00" fill="#000000">Config: filter</text>
</a>
</g>
</g>
<!-- DEMO_PERSONS&#45;&gt;DEMO_COUNTRIES -->
<g id="edge5" class="edge">
<title>DEMO_PERSONS-&gt;DEMO_COUNTRIES</title>
<g id="a_edge5"><a xlink:title="[DEMO_PER_CNT_FK]&#10;extract_count=0">
<path fill="none" stroke="#000000" d="M371.9342,-769.964C355.281,-758.1116 335.1046,-743.7376 317,-730.8 305.2089,-722.3741 301.9389,-720.6981 290.5,-711.8 254.3962,-683.7156 214.6014,-649.8655 186.9687,-625.8713"/>
<polygon fill="#ff0000" stroke="#000000" points="190.3081,-621.8175 175.5517,-615.9173 183.4078,-629.7319 190.3081,-621.8175"/>
</a>
</g>
<text text-anchor="middle" x="291.75" y="-690.8" font-family="Times,serif" font-size="14.00" fill="#000000"> </text>
</g>
<!-- DEMO_PERSONS&#45;&gt;DEMO_PERSONS -->
<!-- DEMO_PERSONS&#45;&gt;DEMO_PERSONS -->
<!-- DEMO_PERSONS&#45;&gt;DEMO_PERSONS -->
<g id="edge8" class="edge">
<title>DEMO_PERSONS-&gt;DEMO_PERSONS</title>
<g id="a_edge8"><a xlink:title="[DEMO_PER_PER_FK]&#10;extract_count=0">
<path fill="none" stroke="#000000" d="M494.0678,-800.8992C523.9163,-800.9466 547.9642,-798.9469 547.9642,-794.9 547.9642,-791.5645 531.6276,-789.6197 509.1714,-789.0656"/>
<polygon fill="#00ff00" stroke="#000000" points="509.1242,-783.8149 494.0678,-788.9008 509.0096,-794.3142 509.1242,-783.8149"/>
</a>
</g>
<text text-anchor="middle" x="549.7142" y="-790.7" font-family="Times,serif" font-size="14.00" fill="#000000"> </text>
</g>
<!-- DEMO_PERSONS&#45;&gt;DEMO_PERSONS -->
<!-- DEMO_PERSONS&#45;&gt;DEMO_PERSONS -->
<!-- DEMO_PERSONS&#45;&gt;DEMO_PERSONS -->
<g id="edge11" class="edge">
<title>DEMO_PERSONS-&gt;DEMO_PERSONS</title>
<g id="a_edge11"><a xlink:title="[DEMO_PER_PER_FK]&#10;extract_count=0">
<path fill="none" stroke="#000000" d="M494.2097,-806.0028C549.2705,-808.7884 601.9642,-805.0875 601.9642,-794.9 601.9642,-785.6477 558.5007,-781.7457 509.2741,-783.1941"/>
<polygon fill="#0000ff" stroke="#000000" points="508.9876,-777.9512 494.2097,-783.7972 509.4077,-788.4428 508.9876,-777.9512"/>
</a>
</g>
<text text-anchor="middle" x="603.7142" y="-790.7" font-family="Times,serif" font-size="14.00" fill="#000000"> </text>
</g>
<!-- DEMO_ORDERS -->
<g id="node8" class="node">
<title>DEMO_ORDERS</title>
<g id="a_node8"><a xlink:title="[DEMO_ORDERS]&#10;source_count=120">
<path fill="#0000ff" stroke="#ffffff" d="M253.284,-574.3C253.284,-574.3 348.716,-574.3 348.716,-574.3 354.716,-574.3 360.716,-580.3 360.716,-586.3 360.716,-586.3 360.716,-603.9 360.716,-603.9 360.716,-609.9 354.716,-615.9 348.716,-615.9 348.716,-615.9 253.284,-615.9 253.284,-615.9 247.284,-615.9 241.284,-609.9 241.284,-603.9 241.284,-603.9 241.284,-586.3 241.284,-586.3 241.284,-580.3 247.284,-574.3 253.284,-574.3"/>
<text text-anchor="middle" x="301" y="-599.3" font-family="Times,serif" font-size="14.00" fill="#ffffff">DEMO_ORDERS</text>
<text text-anchor="middle" x="301" y="-582.5" font-family="Times,serif" font-size="14.00" fill="#ffffff">@ord #2</text>
</a>
</g>
</g>
<!-- DEMO_PERSONS&#45;&gt;DEMO_ORDERS -->
<g id="edge12" class="edge">
<title>DEMO_PERSONS-&gt;DEMO_ORDERS</title>
<g id="a_edge12"><a xlink:title="[DEMO_ORD_PER_FK]&#10;extract_count=0">
<path fill="none" stroke="#000000" d="M364.317,-769.9961C343.9874,-755.7134 321.5043,-735.8341 309.3394,-711.8 296.8183,-687.0623 295.2789,-655.5266 296.57,-631.4754"/>
<polygon fill="#00ff00" stroke="#000000" points="301.8294,-631.5729 297.8159,-616.1958 291.3641,-630.7195 301.8294,-631.5729"/>
</a>
</g>
<g id="a_edge12-label"><a xlink:title=" 50% ">
<text text-anchor="middle" x="325.3303" y="-690.8" font-family="Times,serif" font-size="14.00" fill="#000000"> 50% </text>
</a>
</g>
</g>
<!-- DEMO_PER_ASSIGNMENTS -->
<g id="node9" class="node">
<title>DEMO_PER_ASSIGNMENTS</title>
<g id="a_node9"><a xlink:title="[DEMO_PER_ASSIGNMENTS]&#10;source_count=185">
<path fill="#0000ff" stroke="#ffffff" d="M632.5666,-574.3C632.5666,-574.3 803.4334,-574.3 803.4334,-574.3 809.4334,-574.3 815.4334,-580.3 815.4334,-586.3 815.4334,-586.3 815.4334,-603.9 815.4334,-603.9 815.4334,-609.9 809.4334,-615.9 803.4334,-615.9 803.4334,-615.9 632.5666,-615.9 632.5666,-615.9 626.5666,-615.9 620.5666,-609.9 620.5666,-603.9 620.5666,-603.9 620.5666,-586.3 620.5666,-586.3 620.5666,-580.3 626.5666,-574.3 632.5666,-574.3"/>
<text text-anchor="middle" x="718" y="-599.3" font-family="Times,serif" font-size="14.00" fill="#ffffff">DEMO_PER_ASSIGNMENTS</text>
<text text-anchor="middle" x="718" y="-582.5" font-family="Times,serif" font-size="14.00" fill="#ffffff">@pas #2</text>
</a>
</g>
</g>
<!-- DEMO_PERSONS&#45;&gt;DEMO_PER_ASSIGNMENTS -->
<g id="edge16" class="edge">
<title>DEMO_PERSONS-&gt;DEMO_PER_ASSIGNMENTS</title>
<g id="a_edge16"><a xlink:title="[DEMO_PAS_PER_FK]&#10;extract_count=0">
<path fill="none" stroke="#000000" d="M494.0277,-781.2614C534.1411,-771.8768 580.7706,-756.3165 617,-730.8 654.2069,-704.5951 683.3767,-660.394 700.6067,-629.5847"/>
<polygon fill="#00ff00" stroke="#000000" points="705.3899,-631.7752 707.8791,-616.0791 696.145,-626.7971 705.3899,-631.7752"/>
</a>
</g>
<text text-anchor="middle" x="669.75" y="-690.8" font-family="Times,serif" font-size="14.00" fill="#000000"> </text>
</g>
<!-- DEMO_PER_CLOCKINGS -->
<g id="node10" class="node">
<title>DEMO_PER_CLOCKINGS</title>
<g id="a_node10"><a xlink:title="[DEMO_PER_CLOCKINGS]&#10;source_count=5000">
<path fill="#0000ff" stroke="#ffffff" d="M437.5112,-574.3C437.5112,-574.3 590.4888,-574.3 590.4888,-574.3 596.4888,-574.3 602.4888,-580.3 602.4888,-586.3 602.4888,-586.3 602.4888,-603.9 602.4888,-603.9 602.4888,-609.9 596.4888,-615.9 590.4888,-615.9 590.4888,-615.9 437.5112,-615.9 437.5112,-615.9 431.5112,-615.9 425.5112,-609.9 425.5112,-603.9 425.5112,-603.9 425.5112,-586.3 425.5112,-586.3 425.5112,-580.3 431.5112,-574.3 437.5112,-574.3"/>
<text text-anchor="middle" x="514" y="-599.3" font-family="Times,serif" font-size="14.00" fill="#ffffff">DEMO_PER_CLOCKINGS</text>
<text text-anchor="middle" x="514" y="-582.5" font-family="Times,serif" font-size="14.00" fill="#ffffff">@pcl #2</text>
</a>
</g>
</g>
<!-- DEMO_PERSONS&#45;&gt;DEMO_PER_CLOCKINGS -->
<g id="edge18" class="edge">
<title>DEMO_PERSONS-&gt;DEMO_PER_CLOCKINGS</title>
<g id="a_edge18"><a xlink:title="[DEMO_PCL_PER_FK]&#10;extract_count=0">
<path fill="none" stroke="#000000" d="M433.255,-769.8444C443.8706,-758.6616 455.5788,-744.8508 464,-730.8 482.9699,-699.1484 496.6383,-659.1126 504.84,-630.752"/>
<polygon fill="#00ff00" stroke="#000000" points="509.9981,-631.7966 508.9346,-615.94 499.8777,-628.9989 509.9981,-631.7966"/>
</a>
</g>
<text text-anchor="middle" x="489.75" y="-690.8" font-family="Times,serif" font-size="14.00" fill="#000000"> </text>
</g>
<!-- DEMO_PER_CREDIT_CARDS -->
<g id="node11" class="node">
<title>DEMO_PER_CREDIT_CARDS</title>
<g id="a_node11"><a xlink:title="[DEMO_PER_CREDIT_CARDS]&#10;source_count=156">
<path fill="#0000ff" stroke="#ffffff" d="M381.4516,-174.7C381.4516,-174.7 558.5484,-174.7 558.5484,-174.7 564.5484,-174.7 570.5484,-180.7 570.5484,-186.7 570.5484,-186.7 570.5484,-204.3 570.5484,-204.3 570.5484,-210.3 564.5484,-216.3 558.5484,-216.3 558.5484,-216.3 381.4516,-216.3 381.4516,-216.3 375.4516,-216.3 369.4516,-210.3 369.4516,-204.3 369.4516,-204.3 369.4516,-186.7 369.4516,-186.7 369.4516,-180.7 375.4516,-174.7 381.4516,-174.7"/>
<text text-anchor="middle" x="470" y="-199.7" font-family="Times,serif" font-size="14.00" fill="#ffffff">DEMO_PER_CREDIT_CARDS</text>
<text text-anchor="middle" x="470" y="-182.9" font-family="Times,serif" font-size="14.00" fill="#ffffff">@pcc #2</text>
</a>
</g>
</g>
<!-- DEMO_PERSONS&#45;&gt;DEMO_PER_CREDIT_CARDS -->
<g id="edge21" class="edge">
<title>DEMO_PERSONS-&gt;DEMO_PER_CREDIT_CARDS</title>
<g id="a_edge21"><a xlink:title="[DEMO_PCC_PER_FK]&#10;extract_count=0">
<path fill="none" stroke="#000000" d="M400.1143,-769.9455C388.8132,-724.0942 370.5512,-624.2493 402,-549 419.2207,-507.7951 437.686,-505.0786 473.5,-478.4 500.9359,-457.9625 523.5668,-470.8364 541,-441.4 581.9638,-372.2315 529.5717,-278.0189 495.3135,-228.7028"/>
<polygon fill="#00ff00" stroke="#000000" points="499.4431,-225.4526 486.4339,-216.3243 490.9113,-231.5729 499.4431,-225.4526"/>
</a>
</g>
<text text-anchor="middle" x="474.75" y="-491" font-family="Times,serif" font-size="14.00" fill="#000000"> </text>
</g>
<!-- DEMO_PRODUCTS -->
<g id="node6" class="node">
<title>DEMO_PRODUCTS</title>
<g id="a_node6"><a xlink:title="[DEMO_PRODUCTS]&#10;source_count=50">
<path fill="#0000ff" stroke="#ffffff" d="M39.3394,-174.7C39.3394,-174.7 152.6606,-174.7 152.6606,-174.7 158.6606,-174.7 164.6606,-180.7 164.6606,-186.7 164.6606,-186.7 164.6606,-204.3 164.6606,-204.3 164.6606,-210.3 158.6606,-216.3 152.6606,-216.3 152.6606,-216.3 39.3394,-216.3 39.3394,-216.3 33.3394,-216.3 27.3394,-210.3 27.3394,-204.3 27.3394,-204.3 27.3394,-186.7 27.3394,-186.7 27.3394,-180.7 33.3394,-174.7 39.3394,-174.7"/>
<text text-anchor="middle" x="96" y="-199.7" font-family="Times,serif" font-size="14.00" fill="#ffffff">DEMO_PRODUCTS</text>
<text text-anchor="middle" x="96" y="-182.9" font-family="Times,serif" font-size="14.00" fill="#ffffff">@prd #1</text>
</a>
</g>
</g>
<!-- DEMO_STORES -->
<g id="node7" class="node">
<title>DEMO_STORES</title>
<g id="a_node7"><a xlink:title="[DEMO_STORES]&#10;source_count=10">
<path fill="#000000" stroke="#ffffff" d="M205.838,-374.5C205.838,-374.5 298.162,-374.5 298.162,-374.5 304.162,-374.5 310.162,-380.5 310.162,-386.5 310.162,-386.5 310.162,-404.1 310.162,-404.1 310.162,-410.1 304.162,-416.1 298.162,-416.1 298.162,-416.1 205.838,-416.1 205.838,-416.1 199.838,-416.1 193.838,-410.1 193.838,-404.1 193.838,-404.1 193.838,-386.5 193.838,-386.5 193.838,-380.5 199.838,-374.5 205.838,-374.5"/>
<text text-anchor="middle" x="252" y="-399.5" font-family="Times,serif" font-size="14.00" fill="#ffffff">DEMO_STORES</text>
<text text-anchor="middle" x="252" y="-382.7" font-family="Times,serif" font-size="14.00" fill="#ffffff">@sto #1</text>
</a>
</g>
</g>
<!-- DEMO_ORDERS&#45;&gt;DEMO_PERSONS -->
<g id="edge13" class="edge">
<title>DEMO_ORDERS-&gt;DEMO_PERSONS</title>
<g id="a_edge13"><a xlink:title="[DEMO_ORD_PER_FK]&#10;extract_count=0">
<path fill="none" stroke="#000000" d="M312.117,-616.0545C329.765,-649.3194 364.4603,-714.7166 386.6489,-756.54"/>
<polygon fill="#0000ff" stroke="#000000" points="382.1217,-759.209 393.7894,-769.9992 391.3971,-754.288 382.1217,-759.209"/>
</a>
</g>
<text text-anchor="middle" x="363.75" y="-690.8" font-family="Times,serif" font-size="14.00" fill="#000000"> </text>
</g>
<!-- DEMO_ORDERS&#45;&gt;DEMO_STORES -->
<g id="edge14" class="edge">
<title>DEMO_ORDERS-&gt;DEMO_STORES</title>
<g id="a_edge14"><a xlink:title="[DEMO_ORD_STO_FK]&#10;extract_count=0">
<path fill="none" stroke="#000000" d="M295.8488,-574.0955C287.5224,-540.1442 271.01,-472.8143 260.7947,-431.1609"/>
<polygon fill="#ff0000" stroke="#000000" points="265.8275,-429.6406 257.1558,-416.3228 255.6297,-432.1416 265.8275,-429.6406"/>
</a>
</g>
<text text-anchor="middle" x="281.75" y="-491" font-family="Times,serif" font-size="14.00" fill="#000000"> </text>
</g>
<!-- DEMO_ORDER_ITEMS -->
<g id="node12" class="node">
<title>DEMO_ORDER_ITEMS</title>
<g id="a_node12"><a xlink:title="[DEMO_ORDER_ITEMS]&#10;source_count=358">
<path fill="#0000ff" stroke="#ffffff" d="M27.6788,-374.5C27.6788,-374.5 164.3212,-374.5 164.3212,-374.5 170.3212,-374.5 176.3212,-380.5 176.3212,-386.5 176.3212,-386.5 176.3212,-404.1 176.3212,-404.1 176.3212,-410.1 170.3212,-416.1 164.3212,-416.1 164.3212,-416.1 27.6788,-416.1 27.6788,-416.1 21.6788,-416.1 15.6788,-410.1 15.6788,-404.1 15.6788,-404.1 15.6788,-386.5 15.6788,-386.5 15.6788,-380.5 21.6788,-374.5 27.6788,-374.5"/>
<text text-anchor="middle" x="96" y="-399.5" font-family="Times,serif" font-size="14.00" fill="#ffffff">DEMO_ORDER_ITEMS</text>
<text text-anchor="middle" x="96" y="-382.7" font-family="Times,serif" font-size="14.00" fill="#ffffff">@oit #3</text>
</a>
</g>
</g>
<!-- DEMO_ORDERS&#45;&gt;DEMO_ORDER_ITEMS -->
<g id="edge23" class="edge">
<title>DEMO_ORDERS-&gt;DEMO_ORDER_ITEMS</title>
<g id="a_edge23"><a xlink:title="[DEMO_OIT_ORD_FK]&#10;extract_count=0">
<path fill="none" stroke="#000000" d="M279.4489,-574.0955C243.3836,-538.9451 170.609,-468.0165 128.367,-426.846"/>
<polygon fill="#00ff00" stroke="#000000" points="131.9763,-423.0327 117.57,-416.3228 124.6476,-430.5521 131.9763,-423.0327"/>
</a>
</g>
<text text-anchor="middle" x="216.75" y="-491" font-family="Times,serif" font-size="14.00" fill="#000000"> </text>
</g>
<!-- DEMO_PER_TRANSACTIONS -->
<g id="node13" class="node">
<title>DEMO_PER_TRANSACTIONS</title>
<g id="a_node13"><a xlink:title="[DEMO_PER_TRANSACTIONS]&#10;source_count=120">
<path fill="#0000ff" stroke="#ffffff" d="M340.2903,-374.5C340.2903,-374.5 519.7097,-374.5 519.7097,-374.5 525.7097,-374.5 531.7097,-380.5 531.7097,-386.5 531.7097,-386.5 531.7097,-404.1 531.7097,-404.1 531.7097,-410.1 525.7097,-416.1 519.7097,-416.1 519.7097,-416.1 340.2903,-416.1 340.2903,-416.1 334.2903,-416.1 328.2903,-410.1 328.2903,-404.1 328.2903,-404.1 328.2903,-386.5 328.2903,-386.5 328.2903,-380.5 334.2903,-374.5 340.2903,-374.5"/>
<text text-anchor="middle" x="430" y="-399.5" font-family="Times,serif" font-size="14.00" fill="#ffffff">DEMO_PER_TRANSACTIONS</text>
<text text-anchor="middle" x="430" y="-382.7" font-family="Times,serif" font-size="14.00" fill="#ffffff">@ptr #3</text>
</a>
</g>
</g>
<!-- DEMO_ORDERS&#45;&gt;DEMO_PER_TRANSACTIONS -->
<g id="edge26" class="edge">
<title>DEMO_ORDERS-&gt;DEMO_PER_TRANSACTIONS</title>
<g id="a_edge26"><a xlink:title="[DEMO_PTR_ORD_FK]&#10;extract_count=0">
<path fill="none" stroke="#000000" d="M314.5614,-574.0955C336.8691,-539.5446 381.4953,-470.4258 408.2557,-428.9784"/>
<polygon fill="#00ff00" stroke="#000000" points="412.701,-431.7722 416.4267,-416.3228 403.8798,-426.0768 412.701,-431.7722"/>
</a>
</g>
<text text-anchor="middle" x="377.75" y="-491" font-family="Times,serif" font-size="14.00" fill="#000000"> </text>
</g>
<!-- DEMO_PER_ASSIGNMENTS&#45;&gt;DEMO_ORG_ENTITIES -->
<g id="edge15" class="edge">
<title>DEMO_PER_ASSIGNMENTS-&gt;DEMO_ORG_ENTITIES</title>
<g id="a_edge15"><a xlink:title="[DEMO_PAS_OEN_FK]&#10;extract_count=0">
<path fill="none" stroke="#000000" d="M713.059,-574.0955C705.0725,-540.1442 689.2341,-472.8143 679.4357,-431.1609"/>
<polygon fill="#0000ff" stroke="#000000" points="684.4907,-429.7221 675.9453,-416.3228 674.2697,-432.1265 684.4907,-429.7221"/>
</a>
</g>
<text text-anchor="middle" x="699.75" y="-491" font-family="Times,serif" font-size="14.00" fill="#000000"> </text>
</g>
<!-- DEMO_PER_ASSIGNMENTS&#45;&gt;DEMO_PERSONS -->
<g id="edge17" class="edge">
<title>DEMO_PER_ASSIGNMENTS-&gt;DEMO_PERSONS</title>
<g id="a_edge17"><a xlink:title="[DEMO_PAS_PER_FK]&#10;extract_count=0">
<path fill="none" stroke="#000000" d="M685.3831,-616.0545C631.3483,-650.7689 522.844,-720.4767 458.4158,-761.8682"/>
<polygon fill="#ff0000" stroke="#000000" points="455.5419,-757.4744 445.7595,-769.9992 461.2173,-766.3085 455.5419,-757.4744"/>
</a>
</g>
<text text-anchor="middle" x="589.75" y="-690.8" font-family="Times,serif" font-size="14.00" fill="#000000"> </text>
</g>
<!-- DEMO_PER_CLOCKINGS&#45;&gt;DEMO_PERSONS -->
<g id="edge19" class="edge">
<title>DEMO_PER_CLOCKINGS-&gt;DEMO_PERSONS</title>
<g id="a_edge19"><a xlink:title="[DEMO_PCL_PER_FK]&#10;extract_count=0">
<path fill="none" stroke="#000000" d="M501.615,-616.1204C491.8612,-632.8277 478.0334,-656.8549 466.5,-678.2 452.5996,-703.9258 437.6527,-733.2487 426.2171,-756.0658"/>
<polygon fill="#ff0000" stroke="#000000" points="421.4242,-753.9127 419.4238,-769.6786 430.8193,-758.6012 421.4242,-753.9127"/>
</a>
</g>
<text text-anchor="middle" x="467.75" y="-690.8" font-family="Times,serif" font-size="14.00" fill="#000000"> </text>
</g>
<!-- DEMO_PER_CREDIT_CARDS&#45;&gt;DEMO_CREDIT_CARD_TYPES -->
<g id="edge20" class="edge">
<title>DEMO_PER_CREDIT_CARDS-&gt;DEMO_CREDIT_CARD_TYPES</title>
<g id="a_edge20"><a xlink:title="[DEMO_PCC_CCT_FK]&#10;extract_count=0">
<path fill="none" stroke="#000000" d="M470,-174.4923C470,-148.8439 470,-105.0346 470,-73.8234"/>
<polygon fill="#ff0000" stroke="#000000" points="475.2501,-73.3946 470,-58.3946 464.7501,-73.3947 475.2501,-73.3946"/>
</a>
</g>
<text text-anchor="middle" x="471.75" y="-99.8" font-family="Times,serif" font-size="14.00" fill="#000000"> </text>
</g>
<!-- DEMO_PER_CREDIT_CARDS&#45;&gt;DEMO_PERSONS -->
<g id="edge22" class="edge">
<title>DEMO_PER_CREDIT_CARDS-&gt;DEMO_PERSONS</title>
<g id="a_edge22"><a xlink:title="[DEMO_PCC_PER_FK]&#10;extract_count=0">
<path fill="none" stroke="#000000" d="M491.5555,-216.5936C506.5637,-232.3939 525.9704,-255.2296 538,-278.6 571.2549,-343.2056 582.0376,-374.7923 553,-441.4 534.576,-483.6618 513.6857,-484.0776 477,-512 452.0702,-530.9746 432.8226,-521.9597 417,-549 397.2338,-582.7798 400.6371,-694.1458 404.171,-754.751"/>
<polygon fill="#0000ff" stroke="#000000" points="398.9512,-755.3992 405.1285,-770.0417 409.4306,-754.7428 398.9512,-755.3992"/>
</a>
</g>
<text text-anchor="middle" x="527.75" y="-491" font-family="Times,serif" font-size="14.00" fill="#000000"> </text>
</g>
<!-- DEMO_PER_CREDIT_CARDS&#45;&gt;DEMO_PER_TRANSACTIONS -->
<g id="edge28" class="edge">
<title>DEMO_PER_CREDIT_CARDS-&gt;DEMO_PER_TRANSACTIONS</title>
<g id="a_edge28"><a xlink:title="[DEMO_PTR_PCC_FK]&#10;extract_count=0">
<path fill="none" stroke="#000000" d="M465.7912,-216.5228C458.9918,-250.4862 445.512,-317.8175 437.1748,-359.4616"/>
<polygon fill="#00ff00" stroke="#000000" points="432.0019,-358.5568 434.2051,-374.2955 442.2976,-360.618 432.0019,-358.5568"/>
</a>
</g>
<text text-anchor="middle" x="454.75" y="-291.2" font-family="Times,serif" font-size="14.00" fill="#000000"> </text>
</g>
<!-- DEMO_ORDER_ITEMS&#45;&gt;DEMO_PRODUCTS -->
<g id="edge25" class="edge">
<title>DEMO_ORDER_ITEMS-&gt;DEMO_PRODUCTS</title>
<g id="a_edge25"><a xlink:title="[DEMO_OIT_PRD_FK]&#10;extract_count=0">
<path fill="none" stroke="#000000" d="M96,-374.2955C96,-340.4192 96,-273.3114 96,-231.6371"/>
<polygon fill="#0000ff" stroke="#000000" points="101.2501,-231.5228 96,-216.5228 90.7501,-231.5229 101.2501,-231.5228"/>
</a>
</g>
<text text-anchor="middle" x="97.75" y="-291.2" font-family="Times,serif" font-size="14.00" fill="#000000"> </text>
</g>
<!-- DEMO_ORDER_ITEMS&#45;&gt;DEMO_ORDERS -->
<g id="edge24" class="edge">
<title>DEMO_ORDER_ITEMS-&gt;DEMO_ORDERS</title>
<g id="a_edge24"><a xlink:title="[DEMO_OIT_ORD_FK]&#10;extract_count=0">
<path fill="none" stroke="#000000" d="M106.3545,-416.1741C119.4638,-441.1147 143.9404,-483.0912 173.5,-512 195.4942,-533.5099 206.208,-532.2313 232,-549 240.3417,-554.4234 249.2043,-560.2756 257.6998,-565.9307"/>
<polygon fill="#ff0000" stroke="#000000" points="254.8072,-570.3121 270.1959,-574.2807 260.6408,-561.5817 254.8072,-570.3121"/>
</a>
</g>
<text text-anchor="middle" x="174.75" y="-491" font-family="Times,serif" font-size="14.00" fill="#000000"> </text>
</g>
<!-- DEMO_PER_TRANSACTIONS&#45;&gt;DEMO_ORDERS -->
<g id="edge27" class="edge">
<title>DEMO_PER_TRANSACTIONS-&gt;DEMO_ORDERS</title>
<g id="a_edge27"><a xlink:title="[DEMO_PTR_ORD_FK]&#10;extract_count=0">
<path fill="none" stroke="#000000" d="M403.7661,-416.2693C385.6882,-431.8389 362.1863,-454.4461 346.5,-478.4 330.0821,-503.4712 318.1548,-535.3688 310.6412,-559.4775"/>
<polygon fill="#0000ff" stroke="#000000" points="305.5524,-558.1727 306.3382,-574.0456 315.6223,-561.1472 305.5524,-558.1727"/>
</a>
</g>
<text text-anchor="middle" x="347.75" y="-491" font-family="Times,serif" font-size="14.00" fill="#000000"> </text>
</g>
<!-- DEMO_PER_TRANSACTIONS&#45;&gt;DEMO_PER_CREDIT_CARDS -->
<g id="edge29" class="edge">
<title>DEMO_PER_TRANSACTIONS-&gt;DEMO_PER_CREDIT_CARDS</title>
<g id="a_edge29"><a xlink:title="[DEMO_PTR_PCC_FK]&#10;extract_count=0">
<path fill="none" stroke="#000000" d="M429.7147,-374.3795C429.8092,-350.8206 431.2227,-311.5268 438.5,-278.6 442.0833,-262.3872 448.2205,-245.1201 454.1312,-230.5503"/>
<polygon fill="#0000ff" stroke="#000000" points="459.0665,-232.3597 460.0923,-216.5005 449.4005,-228.2585 459.0665,-232.3597"/>
</a>
</g>
<text text-anchor="middle" x="439.75" y="-291.2" font-family="Times,serif" font-size="14.00" fill="#000000"> </text>
</g>
<!-- BTABLE -->
<g id="node14" class="node">
<title>BTABLE</title>
<path fill="#00ff00" stroke="#000000" d="M851.1304,-749.3C851.1304,-749.3 1008.8696,-749.3 1008.8696,-749.3 1014.8696,-749.3 1020.8696,-755.3 1020.8696,-761.3 1020.8696,-761.3 1020.8696,-828.5 1020.8696,-828.5 1020.8696,-834.5 1014.8696,-840.5 1008.8696,-840.5 1008.8696,-840.5 851.1304,-840.5 851.1304,-840.5 845.1304,-840.5 839.1304,-834.5 839.1304,-828.5 839.1304,-828.5 839.1304,-761.3 839.1304,-761.3 839.1304,-755.3 845.1304,-749.3 851.1304,-749.3"/>
<text text-anchor="middle" x="930" y="-823.9" font-family="Times,serif" font-size="14.00" fill="#000000">B-TABLE</text>
<text text-anchor="middle" x="930" y="-807.1" font-family="Times,serif" font-size="14.00" fill="#000000">Base/driving table</text>
<polyline fill="none" stroke="#000000" points="839.1304,-798.9 1020.8696,-798.9 "/>
<text text-anchor="middle" x="859.96" y="-782.3" font-family="Times,serif" font-size="14.00" fill="#000000">keys</text>
<polyline fill="none" stroke="#000000" points="880.7896,-774.1 880.7896,-798.9 "/>
<text text-anchor="middle" x="914.2521" y="-782.3" font-family="Times,serif" font-size="14.00" fill="#000000">col name</text>
<polyline fill="none" stroke="#000000" points="947.7146,-774.1 947.7146,-798.9 "/>
<text text-anchor="middle" x="984.2921" y="-782.3" font-family="Times,serif" font-size="14.00" fill="#000000">mask type</text>
<polyline fill="none" stroke="#000000" points="839.1304,-774.1 1020.8696,-774.1 "/>
<text text-anchor="middle" x="930" y="-757.5" font-family="Times,serif" font-size="14.00" fill="#000000">Configuration</text>
</g>
<!-- PTABLE -->
<g id="node15" class="node">
<title>PTABLE</title>
<path fill="#0000ff" stroke="#ffffff" d="M851.1304,-549.5C851.1304,-549.5 1008.8696,-549.5 1008.8696,-549.5 1014.8696,-549.5 1020.8696,-555.5 1020.8696,-561.5 1020.8696,-561.5 1020.8696,-628.7 1020.8696,-628.7 1020.8696,-634.7 1014.8696,-640.7 1008.8696,-640.7 1008.8696,-640.7 851.1304,-640.7 851.1304,-640.7 845.1304,-640.7 839.1304,-634.7 839.1304,-628.7 839.1304,-628.7 839.1304,-561.5 839.1304,-561.5 839.1304,-555.5 845.1304,-549.5 851.1304,-549.5"/>
<text text-anchor="middle" x="930" y="-624.1" font-family="Times,serif" font-size="14.00" fill="#ffffff">P-TABLE</text>
<text text-anchor="middle" x="930" y="-607.3" font-family="Times,serif" font-size="14.00" fill="#ffffff">Partially extracted</text>
<polyline fill="none" stroke="#ffffff" points="839.1304,-599.1 1020.8696,-599.1 "/>
<text text-anchor="middle" x="859.96" y="-582.5" font-family="Times,serif" font-size="14.00" fill="#ffffff">keys</text>
<polyline fill="none" stroke="#ffffff" points="880.7896,-574.3 880.7896,-599.1 "/>
<text text-anchor="middle" x="914.2521" y="-582.5" font-family="Times,serif" font-size="14.00" fill="#ffffff">col name</text>
<polyline fill="none" stroke="#ffffff" points="947.7146,-574.3 947.7146,-599.1 "/>
<text text-anchor="middle" x="984.2921" y="-582.5" font-family="Times,serif" font-size="14.00" fill="#ffffff">mask type</text>
<polyline fill="none" stroke="#ffffff" points="839.1304,-574.3 1020.8696,-574.3 "/>
<text text-anchor="middle" x="930" y="-557.7" font-family="Times,serif" font-size="14.00" fill="#ffffff">Configuration</text>
</g>
<!-- BTABLE&#45;&gt;PTABLE -->
<g id="edge30" class="edge">
<title>BTABLE-&gt;PTABLE</title>
<path fill="none" stroke="#000000" d="M930,-749.0618C930,-721.3951 930,-685.812 930,-655.8247"/>
<polygon fill="#00ff00" stroke="#000000" points="935.2501,-655.7248 930,-640.7249 924.7501,-655.7249 935.2501,-655.7248"/>
<text text-anchor="middle" x="956.6315" y="-699.2" font-family="Times,serif" font-size="14.00" fill="#000000"> B-Cons</text>
<text text-anchor="middle" x="956.6315" y="-682.4" font-family="Times,serif" font-size="14.00" fill="#000000"> (driving)</text>
</g>
<!-- NTABLE -->
<g id="node16" class="node">
<title>NTABLE</title>
<path fill="#ff0000" stroke="#ffffff" d="M851.1304,-349.7C851.1304,-349.7 1008.8696,-349.7 1008.8696,-349.7 1014.8696,-349.7 1020.8696,-355.7 1020.8696,-361.7 1020.8696,-361.7 1020.8696,-428.9 1020.8696,-428.9 1020.8696,-434.9 1014.8696,-440.9 1008.8696,-440.9 1008.8696,-440.9 851.1304,-440.9 851.1304,-440.9 845.1304,-440.9 839.1304,-434.9 839.1304,-428.9 839.1304,-428.9 839.1304,-361.7 839.1304,-361.7 839.1304,-355.7 845.1304,-349.7 851.1304,-349.7"/>
<text text-anchor="middle" x="930" y="-424.3" font-family="Times,serif" font-size="14.00" fill="#ffffff">N-TABLE</text>
<text text-anchor="middle" x="930" y="-407.5" font-family="Times,serif" font-size="14.00" fill="#ffffff"> Not extracted</text>
<polyline fill="none" stroke="#ffffff" points="839.1304,-399.3 1020.8696,-399.3 "/>
<text text-anchor="middle" x="859.96" y="-382.7" font-family="Times,serif" font-size="14.00" fill="#ffffff">keys</text>
<polyline fill="none" stroke="#ffffff" points="880.7896,-374.5 880.7896,-399.3 "/>
<text text-anchor="middle" x="914.2521" y="-382.7" font-family="Times,serif" font-size="14.00" fill="#ffffff">col name</text>
<polyline fill="none" stroke="#ffffff" points="947.7146,-374.5 947.7146,-399.3 "/>
<text text-anchor="middle" x="984.2921" y="-382.7" font-family="Times,serif" font-size="14.00" fill="#ffffff">mask type</text>
<polyline fill="none" stroke="#ffffff" points="839.1304,-374.5 1020.8696,-374.5 "/>
<text text-anchor="middle" x="930" y="-357.9" font-family="Times,serif" font-size="14.00" fill="#ffffff">Configuration</text>
</g>
<!-- PTABLE&#45;&gt;NTABLE -->
<g id="edge31" class="edge">
<title>PTABLE-&gt;NTABLE</title>
<path fill="none" stroke="#000000" d="M930,-549.2618C930,-521.5951 930,-486.012 930,-456.0247"/>
<polygon fill="#0000ff" stroke="#000000" points="935.2501,-455.9248 930,-440.9249 924.7501,-455.9249 935.2501,-455.9248"/>
<text text-anchor="middle" x="961.8794" y="-499.4" font-family="Times,serif" font-size="14.00" fill="#000000"> P-Cons</text>
<text text-anchor="middle" x="961.8794" y="-482.6" font-family="Times,serif" font-size="14.00" fill="#000000"> (integrity) </text>
</g>
<!-- FTABLE -->
<g id="node17" class="node">
<title>FTABLE</title>
<path fill="#000000" stroke="#ffffff" d="M851.1304,-149.9C851.1304,-149.9 1008.8696,-149.9 1008.8696,-149.9 1014.8696,-149.9 1020.8696,-155.9 1020.8696,-161.9 1020.8696,-161.9 1020.8696,-229.1 1020.8696,-229.1 1020.8696,-235.1 1014.8696,-241.1 1008.8696,-241.1 1008.8696,-241.1 851.1304,-241.1 851.1304,-241.1 845.1304,-241.1 839.1304,-235.1 839.1304,-229.1 839.1304,-229.1 839.1304,-161.9 839.1304,-161.9 839.1304,-155.9 845.1304,-149.9 851.1304,-149.9"/>
<text text-anchor="middle" x="930" y="-224.5" font-family="Times,serif" font-size="14.00" fill="#ffffff">F-TABLE</text>
<text text-anchor="middle" x="930" y="-207.7" font-family="Times,serif" font-size="14.00" fill="#ffffff"> Fully extracted</text>
<polyline fill="none" stroke="#ffffff" points="839.1304,-199.5 1020.8696,-199.5 "/>
<text text-anchor="middle" x="859.96" y="-182.9" font-family="Times,serif" font-size="14.00" fill="#ffffff">keys</text>
<polyline fill="none" stroke="#ffffff" points="880.7896,-174.7 880.7896,-199.5 "/>
<text text-anchor="middle" x="914.2521" y="-182.9" font-family="Times,serif" font-size="14.00" fill="#ffffff">col name</text>
<polyline fill="none" stroke="#ffffff" points="947.7146,-174.7 947.7146,-199.5 "/>
<text text-anchor="middle" x="984.2921" y="-182.9" font-family="Times,serif" font-size="14.00" fill="#ffffff">mask type</text>
<polyline fill="none" stroke="#ffffff" points="839.1304,-174.7 1020.8696,-174.7 "/>
<text text-anchor="middle" x="930" y="-158.1" font-family="Times,serif" font-size="14.00" fill="#ffffff">Configuration</text>
</g>
<!-- NTABLE&#45;&gt;FTABLE -->
<g id="edge32" class="edge">
<title>NTABLE-&gt;FTABLE</title>
<path fill="none" stroke="#000000" d="M930,-349.4618C930,-321.7951 930,-286.212 930,-256.2247"/>
<polygon fill="#ff0000" stroke="#000000" points="935.2501,-256.1248 930,-241.1249 924.7501,-256.1249 935.2501,-256.1248"/>
<text text-anchor="middle" x="959.9355" y="-299.6" font-family="Times,serif" font-size="14.00" fill="#000000"> N-Cons</text>
<text text-anchor="middle" x="959.9355" y="-282.8" font-family="Times,serif" font-size="14.00" fill="#000000"> (not used)</text>
</g>
</g>
</svg>