<?xml version="1.0" encoding="UTF-8" ?>
<svg xmlns="http://www.w3.org/2000/svg" xmlns:xlink="http://www.w3.org/1999/xlink" width="741pt" height="494pt" viewBox="0.00 0.00 741.39 494.00">
<g id="graph0" class="graph" transform="scale(1 1) rotate(0) translate(4 490)">
<title>demo_graph</title>
<polygon fill="#ffffff" stroke="transparent" points="-4,4 -4,-490 737.3942,-490 737.3942,4 -4,4"/>
<!-- INIT -->
<g id="node1" class="node">
<title>INIT</title>
<path fill="#d3d3d3" stroke="#000000" d="M364.6613,-449.5C364.6613,-449.5 496.6249,-449.5 496.6249,-449.5 502.6249,-449.5 508.6249,-455.5 508.6249,-461.5 508.6249,-461.5 508.6249,-473.5 508.6249,-473.5 508.6249,-479.5 502.6249,-485.5 496.6249,-485.5 496.6249,-485.5 364.6613,-485.5 364.6613,-485.5 358.6613,-485.5 352.6613,-479.5 352.6613,-473.5 352.6613,-473.5 352.6613,-461.5 352.6613,-461.5 352.6613,-455.5 358.6613,-449.5 364.6613,-449.5"/>
<text text-anchor="middle" x="430.6431" y="-463.3" font-family="Times,serif" font-size="14.00" fill="#000000">10. Initialise Data Model</text>
</g>
<!-- GEN -->
<g id="node2" class="node">
<title>GEN</title>
<path fill="#d3d3d3" stroke="#000000" d="M145.892,-359.7C145.892,-359.7 307.3942,-359.7 307.3942,-359.7 313.3942,-359.7 319.3942,-365.7 319.3942,-371.7 319.3942,-371.7 319.3942,-383.7 319.3942,-383.7 319.3942,-389.7 313.3942,-395.7 307.3942,-395.7 307.3942,-395.7 145.892,-395.7 145.892,-395.7 139.892,-395.7 133.892,-389.7 133.892,-383.7 133.892,-383.7 133.892,-371.7 133.892,-371.7 133.892,-365.7 139.892,-359.7 145.892,-359.7"/>
<text text-anchor="middle" x="226.6431" y="-373.5" font-family="Times,serif" font-size="14.00" fill="#000000">20. Synthetic Data Generation</text>
</g>
<!-- INIT&#45;&gt;GEN -->
<g id="edge1" class="edge">
<title>INIT-&gt;GEN</title>
<path fill="none" stroke="#000000" d="M389.3607,-449.3276C358.3917,-435.6952 315.6819,-416.8945 281.7896,-401.9753"/>
<polygon fill="#000000" stroke="#000000" points="283.7081,-397.0837 267.8641,-395.8453 279.4777,-406.6938 283.7081,-397.0837"/>
<text text-anchor="middle" x="349.3931" y="-418.4" font-family="Times,serif" font-size="14.00" fill="#000000"> </text>
</g>
<!-- DIS2 -->
<g id="node6" class="node">
<title>DIS2</title>
<path fill="#d3d3d3" stroke="#000000" d="M353,-359.7C353,-359.7 508.2862,-359.7 508.2862,-359.7 514.2862,-359.7 520.2862,-365.7 520.2862,-371.7 520.2862,-371.7 520.2862,-383.7 520.2862,-383.7 520.2862,-389.7 514.2862,-395.7 508.2862,-395.7 508.2862,-395.7 353,-395.7 353,-395.7 347,-395.7 341,-389.7 341,-383.7 341,-383.7 341,-371.7 341,-371.7 341,-365.7 347,-359.7 353,-359.7"/>
<text text-anchor="middle" x="430.6431" y="-373.5" font-family="Times,serif" font-size="14.00" fill="#000000">40. Sensitive Data Discovery</text>
</g>
<!-- INIT&#45;&gt;DIS2 -->
<g id="edge10" class="edge">
<title>INIT-&gt;DIS2</title>
<path fill="none" stroke="#000000" d="M430.6431,-449.3276C430.6431,-438.373 430.6431,-424.0811 430.6431,-411.1477"/>
<polygon fill="#000000" stroke="#000000" points="435.8932,-410.8453 430.6431,-395.8453 425.3932,-410.8454 435.8932,-410.8453"/>
<text text-anchor="middle" x="432.3931" y="-418.4" font-family="Times,serif" font-size="14.00" fill="#000000"> </text>
</g>
<!-- CDC -->
<g id="node10" class="node">
<title>CDC</title>
<path fill="#d3d3d3" stroke="#000000" d="M561.8885,-359.7C561.8885,-359.7 695.3977,-359.7 695.3977,-359.7 701.3977,-359.7 707.3977,-365.7 707.3977,-371.7 707.3977,-371.7 707.3977,-383.7 707.3977,-383.7 707.3977,-389.7 701.3977,-395.7 695.3977,-395.7 695.3977,-395.7 561.8885,-395.7 561.8885,-395.7 555.8885,-395.7 549.8885,-389.7 549.8885,-383.7 549.8885,-383.7 549.8885,-371.7 549.8885,-371.7 549.8885,-365.7 555.8885,-359.7 561.8885,-359.7"/>
<text text-anchor="middle" x="628.6431" y="-373.5" font-family="Times,serif" font-size="14.00" fill="#000000">70. Change Data Capture</text>
</g>
<!-- INIT&#45;&gt;CDC -->
<g id="edge8" class="edge">
<title>INIT-&gt;CDC</title>
<path fill="none" stroke="#000000" d="M470.7114,-449.3276C500.6353,-435.7561 541.8532,-417.0623 574.6775,-402.1753"/>
<polygon fill="#000000" stroke="#000000" points="577.1422,-406.8223 588.6344,-395.8453 572.8053,-397.2598 577.1422,-406.8223"/>
<text text-anchor="middle" x="549.3931" y="-418.4" font-family="Times,serif" font-size="14.00" fill="#000000"> </text>
</g>
<!-- SUB -->
<g id="node4" class="node">
<title>SUB</title>
<path fill="#d3d3d3" stroke="#000000" d="M130.2244,-269.9C130.2244,-269.9 301.0618,-269.9 301.0618,-269.9 307.0618,-269.9 313.0618,-275.9 313.0618,-281.9 313.0618,-281.9 313.0618,-293.9 313.0618,-293.9 313.0618,-299.9 307.0618,-305.9 301.0618,-305.9 301.0618,-305.9 130.2244,-305.9 130.2244,-305.9 124.2244,-305.9 118.2244,-299.9 118.2244,-293.9 118.2244,-293.9 118.2244,-281.9 118.2244,-281.9 118.2244,-275.9 124.2244,-269.9 130.2244,-269.9"/>
<text text-anchor="middle" x="215.6431" y="-283.7" font-family="Times,serif" font-size="14.00" fill="#000000">30. Data Subsetting (extraction)</text>
</g>
<!-- GEN&#45;&gt;SUB -->
<g id="edge2" class="edge">
<title>GEN-&gt;SUB</title>
<path fill="none" stroke="#000000" d="M224.4171,-359.5276C223.0752,-348.573 221.3245,-334.2811 219.7403,-321.3477"/>
<polygon fill="#000000" stroke="#000000" points="224.9007,-320.2957 217.8658,-306.0453 214.4786,-321.5724 224.9007,-320.2957"/>
<text text-anchor="middle" x="224.3931" y="-328.6" font-family="Times,serif" font-size="14.00" fill="#000000"> </text>
</g>
<!-- GEN2 -->
<g id="node3" class="node">
<title>GEN2</title>
<path fill="#d3d3d3" stroke="#000000" d="M559.892,-269.9C559.892,-269.9 721.3942,-269.9 721.3942,-269.9 727.3942,-269.9 733.3942,-275.9 733.3942,-281.9 733.3942,-281.9 733.3942,-293.9 733.3942,-293.9 733.3942,-299.9 727.3942,-305.9 721.3942,-305.9 721.3942,-305.9 559.892,-305.9 559.892,-305.9 553.892,-305.9 547.892,-299.9 547.892,-293.9 547.892,-293.9 547.892,-281.9 547.892,-281.9 547.892,-275.9 553.892,-269.9 559.892,-269.9"/>
<text text-anchor="middle" x="640.6431" y="-283.7" font-family="Times,serif" font-size="14.00" fill="#000000">20. Synthetic Data Generation</text>
</g>
<!-- DIS -->
<g id="node5" class="node">
<title>DIS</title>
<path fill="#d3d3d3" stroke="#000000" d="M12,-180.1C12,-180.1 167.2862,-180.1 167.2862,-180.1 173.2862,-180.1 179.2862,-186.1 179.2862,-192.1 179.2862,-192.1 179.2862,-204.1 179.2862,-204.1 179.2862,-210.1 173.2862,-216.1 167.2862,-216.1 167.2862,-216.1 12,-216.1 12,-216.1 6,-216.1 0,-210.1 0,-204.1 0,-204.1 0,-192.1 0,-192.1 0,-186.1 6,-180.1 12,-180.1"/>
<text text-anchor="middle" x="89.6431" y="-193.9" font-family="Times,serif" font-size="14.00" fill="#000000">40. Sensitive Data Discovery</text>
</g>
<!-- SUB&#45;&gt;DIS -->
<g id="edge3" class="edge">
<title>SUB-&gt;DIS</title>
<path fill="none" stroke="#000000" d="M190.1451,-269.7276C172.1273,-256.8864 147.6751,-239.4593 127.4014,-225.0103"/>
<polygon fill="#000000" stroke="#000000" points="130.3654,-220.6758 115.1032,-216.2453 124.2713,-229.2264 130.3654,-220.6758"/>
<text text-anchor="middle" x="166.3931" y="-238.8" font-family="Times,serif" font-size="14.00" fill="#000000"> </text>
</g>
<!-- MSK -->
<g id="node7" class="node">
<title>MSK</title>
<path fill="#d3d3d3" stroke="#000000" d="M62.2686,-90.3C62.2686,-90.3 209.0176,-90.3 209.0176,-90.3 215.0176,-90.3 221.0176,-96.3 221.0176,-102.3 221.0176,-102.3 221.0176,-114.3 221.0176,-114.3 221.0176,-120.3 215.0176,-126.3 209.0176,-126.3 209.0176,-126.3 62.2686,-126.3 62.2686,-126.3 56.2686,-126.3 50.2686,-120.3 50.2686,-114.3 50.2686,-114.3 50.2686,-102.3 50.2686,-102.3 50.2686,-96.3 56.2686,-90.3 62.2686,-90.3"/>
<text text-anchor="middle" x="135.6431" y="-104.1" font-family="Times,serif" font-size="14.00" fill="#000000">50. Sensitive Data Masking</text>
</g>
<!-- SUB&#45;&gt;MSK -->
<g id="edge6" class="edge">
<title>SUB-&gt;MSK</title>
<path fill="none" stroke="#000000" d="M213.3175,-269.5276C210.0123,-247.366 202.7272,-209.3793 188.6431,-179.6 181.6933,-164.9054 171.4831,-150.2257 161.875,-138.0392"/>
<polygon fill="#000000" stroke="#000000" points="165.8317,-134.5852 152.2421,-126.3459 157.7274,-141.2614 165.8317,-134.5852"/>
<text text-anchor="middle" x="204.3931" y="-193.9" font-family="Times,serif" font-size="14.00" fill="#000000"> </text>
</g>
<!-- TRA -->
<g id="node8" class="node">
<title>TRA</title>
<path fill="#d3d3d3" stroke="#000000" d="M128.9702,-.5C128.9702,-.5 254.316,-.5 254.316,-.5 260.316,-.5 266.316,-6.5 266.316,-12.5 266.316,-12.5 266.316,-24.5 266.316,-24.5 266.316,-30.5 260.316,-36.5 254.316,-36.5 254.316,-36.5 128.9702,-36.5 128.9702,-36.5 122.9702,-36.5 116.9702,-30.5 116.9702,-24.5 116.9702,-24.5 116.9702,-12.5 116.9702,-12.5 116.9702,-6.5 122.9702,-.5 128.9702,-.5"/>
<text text-anchor="middle" x="191.6431" y="-14.3" font-family="Times,serif" font-size="14.00" fill="#000000">60. Data Transportation</text>
</g>
<!-- SUB&#45;&gt;TRA -->
<g id="edge7" class="edge">
<title>SUB-&gt;TRA</title>
<path fill="none" stroke="#000000" d="M220.6307,-269.8163C229.5408,-234.5835 245.8145,-154.5256 229.6431,-89.8 226.1485,-75.8131 219.3347,-61.5642 212.4301,-49.5184"/>
<polygon fill="#000000" stroke="#000000" points="216.7898,-46.5847 204.4766,-36.5373 207.8366,-52.0703 216.7898,-46.5847"/>
<text text-anchor="middle" x="238.3931" y="-149" font-family="Times,serif" font-size="14.00" fill="#000000"> </text>
</g>
<!-- DIS&#45;&gt;MSK -->
<g id="edge4" class="edge">
<title>DIS-&gt;MSK</title>
<path fill="none" stroke="#000000" d="M98.9519,-179.9276C104.8128,-168.4861 112.5385,-153.4041 119.3886,-140.0317"/>
<polygon fill="#000000" stroke="#000000" points="124.182,-142.1893 126.3482,-126.4453 114.8368,-137.4021 124.182,-142.1893"/>
<text text-anchor="middle" x="119.3931" y="-149" font-family="Times,serif" font-size="14.00" fill="#000000"> </text>
</g>
<!-- TDE -->
<g id="node9" class="node">
<title>TDE</title>
<path fill="#d3d3d3" stroke="#000000" d="M342.899,-269.9C342.899,-269.9 518.3872,-269.9 518.3872,-269.9 524.3872,-269.9 530.3872,-275.9 530.3872,-281.9 530.3872,-281.9 530.3872,-293.9 530.3872,-293.9 530.3872,-299.9 524.3872,-305.9 518.3872,-305.9 518.3872,-305.9 342.899,-305.9 342.899,-305.9 336.899,-305.9 330.899,-299.9 330.899,-293.9 330.899,-293.9 330.899,-281.9 330.899,-281.9 330.899,-275.9 336.899,-269.9 342.899,-269.9"/>
<text text-anchor="middle" x="430.6431" y="-283.7" font-family="Times,serif" font-size="14.00" fill="#000000">75. Transparent Data Encryption</text>
</g>
<!-- DIS2&#45;&gt;TDE -->
<g id="edge11" class="edge">
<title>DIS2-&gt;TDE</title>
<path fill="none" stroke="#000000" d="M430.6431,-359.5276C430.6431,-348.573 430.6431,-334.2811 430.6431,-321.3477"/>
<polygon fill="#000000" stroke="#000000" points="435.8932,-321.0453 430.6431,-306.0453 425.3932,-321.0454 435.8932,-321.0453"/>
<text text-anchor="middle" x="432.3931" y="-328.6" font-family="Times,serif" font-size="14.00" fill="#000000"> </text>
</g>
<!-- MSK&#45;&gt;TRA -->
<g id="edge5" class="edge">
<title>MSK-&gt;TRA</title>
<path fill="none" stroke="#000000" d="M146.9755,-90.1276C154.2623,-78.4427 163.9171,-62.9607 172.3858,-49.3805"/>
<polygon fill="#000000" stroke="#000000" points="176.845,-52.1513 180.3275,-36.6453 167.9355,-46.5952 176.845,-52.1513"/>
<text text-anchor="middle" x="171.3931" y="-59.2" font-family="Times,serif" font-size="14.00" fill="#000000"> </text>
</g>
<!-- CDC&#45;&gt;GEN2 -->
<g id="edge9" class="edge">
<title>CDC-&gt;GEN2</title>
<path fill="none" stroke="#000000" d="M631.0715,-359.5276C632.5516,-348.4513 634.4877,-333.9631 636.231,-320.9171"/>
<polygon fill="#000000" stroke="#000000" points="641.4352,-321.6086 638.2183,-306.0453 631.0277,-320.2178 641.4352,-321.6086"/>
<text text-anchor="middle" x="638.3931" y="-328.6" font-family="Times,serif" font-size="14.00" fill="#000000"> </text>
</g>
</g>
</svg>