<?xml version="1.0" encoding="UTF-8" standalone="no"?><!DOCTYPE svg PUBLIC "-//W3C//DTD SVG 1.1//EN" "http://www.w3.org/Graphics/SVG/1.1/DTD/svg11.dtd"><!-- Generated by graphviz version 2.40.1 (20161225.0304)
 --><!-- Title: demo_graph Pages: 1 --><svg xmlns="http://www.w3.org/2000/svg" xmlns:xlink="http://www.w3.org/1999/xlink" width="290pt" height="584pt" viewBox="0.00 0.00 289.65 583.80">
<g id="graph0" class="graph" transform="scale(1 1) rotate(0) translate(4 579.8)">
<title>demo_graph</title>
<polygon fill="#ffffff" stroke="transparent" points="-4,4 -4,-579.8 285.6505,-579.8 285.6505,4 -4,4"/>
<!-- INIT -->
<g id="node1" class="node">
<title>INIT</title>
<path fill="#d3d3d3" stroke="#000000" d="M138.6613,-539.3C138.6613,-539.3 249.6249,-539.3 249.6249,-539.3 255.6249,-539.3 261.6249,-545.3 261.6249,-551.3 261.6249,-551.3 261.6249,-563.3 261.6249,-563.3 261.6249,-569.3 255.6249,-575.3 249.6249,-575.3 249.6249,-575.3 138.6613,-575.3 138.6613,-575.3 132.6613,-575.3 126.6613,-569.3 126.6613,-563.3 126.6613,-563.3 126.6613,-551.3 126.6613,-551.3 126.6613,-545.3 132.6613,-539.3 138.6613,-539.3"/>
<text text-anchor="middle" x="194.1431" y="-553.1" font-family="Times,serif" font-size="14.00" fill="#000000">Initialise Data Model</text>
</g>
<!-- GEN -->
<g id="node2" class="node">
<title>GEN</title>
<path fill="#d3d3d3" stroke="#000000" d="M123.892,-449.5C123.892,-449.5 264.3942,-449.5 264.3942,-449.5 270.3942,-449.5 276.3942,-455.5 276.3942,-461.5 276.3942,-461.5 276.3942,-473.5 276.3942,-473.5 276.3942,-479.5 270.3942,-485.5 264.3942,-485.5 264.3942,-485.5 123.892,-485.5 123.892,-485.5 117.892,-485.5 111.892,-479.5 111.892,-473.5 111.892,-473.5 111.892,-461.5 111.892,-461.5 111.892,-455.5 117.892,-449.5 123.892,-449.5"/>
<text text-anchor="middle" x="194.1431" y="-463.3" font-family="Times,serif" font-size="14.00" fill="#000000">Synthetic Data Generation</text>
</g>
<!-- INIT&#45;&gt;GEN -->
<g id="edge1" class="edge">
<title>INIT-&gt;GEN</title>
<path fill="none" stroke="#000000" d="M194.1431,-539.1276C194.1431,-528.173 194.1431,-513.8811 194.1431,-500.9477"/>
<polygon fill="#000000" stroke="#000000" points="199.3932,-500.6453 194.1431,-485.6453 188.8932,-500.6454 199.3932,-500.6453"/>
<text text-anchor="middle" x="195.8931" y="-508.2" font-family="Times,serif" font-size="14.00" fill="#000000"> </text>
</g>
<!-- SUB -->
<g id="node3" class="node">
<title>SUB</title>
<path fill="#d3d3d3" stroke="#000000" d="M118.6357,-359.7C118.6357,-359.7 269.6505,-359.7 269.6505,-359.7 275.6505,-359.7 281.6505,-365.7 281.6505,-371.7 281.6505,-371.7 281.6505,-383.7 281.6505,-383.7 281.6505,-389.7 275.6505,-395.7 269.6505,-395.7 269.6505,-395.7 118.6357,-395.7 118.6357,-395.7 112.6357,-395.7 106.6357,-389.7 106.6357,-383.7 106.6357,-383.7 106.6357,-371.7 106.6357,-371.7 106.6357,-365.7 112.6357,-359.7 118.6357,-359.7"/>
<text text-anchor="middle" x="194.1431" y="-373.5" font-family="Times,serif" font-size="14.00" fill="#000000">Data Subsetting - Extraction</text>
</g>
<!-- GEN&#45;&gt;SUB -->
<g id="edge2" class="edge">
<title>GEN-&gt;SUB</title>
<path fill="none" stroke="#000000" d="M194.1431,-449.3276C194.1431,-438.373 194.1431,-424.0811 194.1431,-411.1477"/>
<polygon fill="#000000" stroke="#000000" points="199.3932,-410.8453 194.1431,-395.8453 188.8932,-410.8454 199.3932,-410.8453"/>
<text text-anchor="middle" x="195.8931" y="-418.4" font-family="Times,serif" font-size="14.00" fill="#000000"> </text>
</g>
<!-- DIS -->
<g id="node4" class="node">
<title>DIS</title>
<path fill="#d3d3d3" stroke="#000000" d="M12,-269.9C12,-269.9 146.2862,-269.9 146.2862,-269.9 152.2862,-269.9 158.2862,-275.9 158.2862,-281.9 158.2862,-281.9 158.2862,-293.9 158.2862,-293.9 158.2862,-299.9 152.2862,-305.9 146.2862,-305.9 146.2862,-305.9 12,-305.9 12,-305.9 6,-305.9 0,-299.9 0,-293.9 0,-293.9 0,-281.9 0,-281.9 0,-275.9 6,-269.9 12,-269.9"/>
<text text-anchor="middle" x="79.1431" y="-283.7" font-family="Times,serif" font-size="14.00" fill="#000000">Sensitive Data Discovery</text>
</g>
<!-- SUB&#45;&gt;DIS -->
<g id="edge3" class="edge">
<title>SUB-&gt;DIS</title>
<path fill="none" stroke="#000000" d="M170.8711,-359.5276C154.6601,-346.869 132.7423,-329.754 114.3966,-315.4284"/>
<polygon fill="#000000" stroke="#000000" points="117.4342,-311.1394 102.3805,-306.0453 110.9719,-319.4151 117.4342,-311.1394"/>
<text text-anchor="middle" x="148.8931" y="-328.6" font-family="Times,serif" font-size="14.00" fill="#000000"> </text>
</g>
<!-- MSK -->
<g id="node5" class="node">
<title>MSK</title>
<path fill="#d3d3d3" stroke="#000000" d="M61.2686,-180.1C61.2686,-180.1 187.0176,-180.1 187.0176,-180.1 193.0176,-180.1 199.0176,-186.1 199.0176,-192.1 199.0176,-192.1 199.0176,-204.1 199.0176,-204.1 199.0176,-210.1 193.0176,-216.1 187.0176,-216.1 187.0176,-216.1 61.2686,-216.1 61.2686,-216.1 55.2686,-216.1 49.2686,-210.1 49.2686,-204.1 49.2686,-204.1 49.2686,-192.1 49.2686,-192.1 49.2686,-186.1 55.2686,-180.1 61.2686,-180.1"/>
<text text-anchor="middle" x="124.1431" y="-193.9" font-family="Times,serif" font-size="14.00" fill="#000000">Sensitive Data Masking</text>
</g>
<!-- SUB&#45;&gt;MSK -->
<g id="edge7" class="edge">
<title>SUB-&gt;MSK</title>
<path fill="none" stroke="#000000" d="M191.3255,-359.5459C187.5359,-337.5993 179.774,-299.8242 167.1431,-269.4 161.3844,-255.529 153.2173,-241.1729 145.5452,-229.0102"/>
<polygon fill="#000000" stroke="#000000" points="149.8624,-226.0197 137.2483,-216.3529 141.0809,-231.7761 149.8624,-226.0197"/>
<text text-anchor="middle" x="181.8931" y="-283.7" font-family="Times,serif" font-size="14.00" fill="#000000"> </text>
</g>
<!-- TRA -->
<g id="node6" class="node">
<title>TRA</title>
<path fill="#d3d3d3" stroke="#000000" d="M87.5831,-90.3C87.5831,-90.3 262.7031,-90.3 262.7031,-90.3 268.7031,-90.3 274.7031,-96.3 274.7031,-102.3 274.7031,-102.3 274.7031,-114.3 274.7031,-114.3 274.7031,-120.3 268.7031,-126.3 262.7031,-126.3 262.7031,-126.3 87.5831,-126.3 87.5831,-126.3 81.5831,-126.3 75.5831,-120.3 75.5831,-114.3 75.5831,-114.3 75.5831,-102.3 75.5831,-102.3 75.5831,-96.3 81.5831,-90.3 87.5831,-90.3"/>
<text text-anchor="middle" x="175.1431" y="-104.1" font-family="Times,serif" font-size="14.00" fill="#000000">Data Subsetting - Transportation</text>
</g>
<!-- SUB&#45;&gt;TRA -->
<g id="edge8" class="edge">
<title>SUB-&gt;TRA</title>
<path fill="none" stroke="#000000" d="M198.8044,-359.6929C207.1498,-324.5928 222.4898,-244.7543 208.1431,-179.6 205.1611,-166.0574 199.3432,-152.0264 193.412,-140.0307"/>
<polygon fill="#000000" stroke="#000000" points="197.9534,-137.3878 186.3042,-126.5777 188.6695,-142.2929 197.9534,-137.3878"/>
<text text-anchor="middle" x="214.8931" y="-238.8" font-family="Times,serif" font-size="14.00" fill="#000000"> </text>
</g>
<!-- DIS&#45;&gt;MSK -->
<g id="edge4" class="edge">
<title>DIS-&gt;MSK</title>
<path fill="none" stroke="#000000" d="M88.2495,-269.7276C93.983,-258.2861 101.5408,-243.2041 108.2419,-229.8317"/>
<polygon fill="#000000" stroke="#000000" points="113.0237,-232.0079 115.0502,-216.2453 103.6364,-227.3037 113.0237,-232.0079"/>
<text text-anchor="middle" x="107.8931" y="-238.8" font-family="Times,serif" font-size="14.00" fill="#000000"> </text>
</g>
<!-- MSK&#45;&gt;TRA -->
<g id="edge5" class="edge">
<title>MSK-&gt;TRA</title>
<path fill="none" stroke="#000000" d="M134.4637,-179.9276C141.0308,-168.3644 149.7097,-153.0828 157.3638,-139.6055"/>
<polygon fill="#000000" stroke="#000000" points="161.9953,-142.0813 164.8378,-126.4453 152.865,-136.8959 161.9953,-142.0813"/>
<text text-anchor="middle" x="156.8931" y="-149" font-family="Times,serif" font-size="14.00" fill="#000000"> </text>
</g>
<!-- CDC -->
<g id="node7" class="node">
<title>CDC</title>
<path fill="#d3d3d3" stroke="#000000" d="M118.8885,-.5C118.8885,-.5 231.3977,-.5 231.3977,-.5 237.3977,-.5 243.3977,-6.5 243.3977,-12.5 243.3977,-12.5 243.3977,-24.5 243.3977,-24.5 243.3977,-30.5 237.3977,-36.5 231.3977,-36.5 231.3977,-36.5 118.8885,-36.5 118.8885,-36.5 112.8885,-36.5 106.8885,-30.5 106.8885,-24.5 106.8885,-24.5 106.8885,-12.5 106.8885,-12.5 106.8885,-6.5 112.8885,-.5 118.8885,-.5"/>
<text text-anchor="middle" x="175.1431" y="-14.3" font-family="Times,serif" font-size="14.00" fill="#000000">Change Data Capture</text>
</g>
<!-- TRA&#45;&gt;CDC -->
<g id="edge6" class="edge">
<title>TRA-&gt;CDC</title>
<path fill="none" stroke="#000000" d="M175.1431,-90.1276C175.1431,-79.173 175.1431,-64.8811 175.1431,-51.9477"/>
<polygon fill="#000000" stroke="#000000" points="180.3932,-51.6453 175.1431,-36.6453 169.8932,-51.6454 180.3932,-51.6453"/>
<text text-anchor="middle" x="176.8931" y="-59.2" font-family="Times,serif" font-size="14.00" fill="#000000"> </text>
</g>
</g>
</svg>