<?xml version="1.0" encoding="UTF-8" standalone="no"?><!DOCTYPE svg PUBLIC "-//W3C//DTD SVG 1.1//EN" "http://www.w3.org/Graphics/SVG/1.1/DTD/svg11.dtd"><!-- Generated by graphviz version 2.40.1 (20161225.0304)
 --><!-- Title: ds161_graph Pages: 1 --><svg xmlns="http://www.w3.org/2000/svg" xmlns:xlink="http://www.w3.org/1999/xlink" width="1271pt" height="540pt" viewBox="0.00 0.00 1271.00 539.60">
<g id="graph0" class="graph" transform="scale(1 1) rotate(0) translate(4 535.6)">
<title>ds161_graph</title>
<polygon fill="#ffffff" stroke="transparent" points="-4,4 -4,-535.6 1267,-535.6 1267,4 -4,4"/>
<g id="clust1" class="cluster">
<title>cluster_main</title>
<g id="a_clust1"><a xlink:title="[DEMO_DATA_CAPTURE]&#10;capture_mode=SYNC&#10;user_created=&quot;APP_DBCC_D&quot;&#10;date_created=&quot;17/01/24&quot;">
<polygon fill="none" stroke="#000000" points="8,-8 8,-523.6 1255,-523.6 1255,-8 8,-8"/>
<text text-anchor="start" x="463.7268" y="-508" font-family="Times,serif" font-weight="bold" font-size="14.00" fill="#000000">Data Set: DEMO_DATA_CAPTURE (id: 161 - type: CAP)</text>
</a>
</g>
</g>
<!-- DEMO_COUNTRIES -->
<g id="node1" class="node">
<title>DEMO_COUNTRIES</title>
<g id="a_node1"><a xlink:title="[DEMO_COUNTRIES]&#10;target_db_link=DBCC_DIGIT_01_T.CC.CEC.EU.INT">
<path fill="#00ff00" stroke="#000000" d="M250.7037,-440.7C250.7037,-440.7 431.2963,-440.7 431.2963,-440.7 437.2963,-440.7 443.2963,-446.7 443.2963,-452.7 443.2963,-452.7 443.2963,-478.3 443.2963,-478.3 443.2963,-484.3 437.2963,-490.3 431.2963,-490.3 431.2963,-490.3 250.7037,-490.3 250.7037,-490.3 244.7037,-490.3 238.7037,-484.3 238.7037,-478.3 238.7037,-478.3 238.7037,-452.7 238.7037,-452.7 238.7037,-446.7 244.7037,-440.7 250.7037,-440.7"/>
<text text-anchor="middle" x="341" y="-473.7" font-family="Times,serif" font-size="14.00" fill="#000000">DEMO_COUNTRIES@cnt</text>
<polyline fill="none" stroke="#000000" points="238.7037,-465.5 443.2963,-465.5 "/>
<text text-anchor="middle" x="341" y="-448.9" font-family="Times,serif" font-size="14.00" fill="#000000">ARIUD post_iud_ds161_tab8965</text>
</a>
</g>
</g>
<!-- DEMO_PERSONS -->
<g id="node5" class="node">
<title>DEMO_PERSONS</title>
<g id="a_node5"><a xlink:title="[DEMO_PERSONS]&#10;target_db_link=DBCC_DIGIT_01_T.CC.CEC.EU.INT">
<path fill="#00ff00" stroke="#000000" d="M250.7037,-299.3C250.7037,-299.3 431.2963,-299.3 431.2963,-299.3 437.2963,-299.3 443.2963,-305.3 443.2963,-311.3 443.2963,-311.3 443.2963,-336.9 443.2963,-336.9 443.2963,-342.9 437.2963,-348.9 431.2963,-348.9 431.2963,-348.9 250.7037,-348.9 250.7037,-348.9 244.7037,-348.9 238.7037,-342.9 238.7037,-336.9 238.7037,-336.9 238.7037,-311.3 238.7037,-311.3 238.7037,-305.3 244.7037,-299.3 250.7037,-299.3"/>
<text text-anchor="middle" x="341" y="-332.3" font-family="Times,serif" font-size="14.00" fill="#000000">DEMO_PERSONS@per</text>
<polyline fill="none" stroke="#000000" points="238.7037,-324.1 443.2963,-324.1 "/>
<text text-anchor="middle" x="341" y="-307.5" font-family="Times,serif" font-size="14.00" fill="#000000">ARIUD post_iud_ds161_tab8972</text>
</a>
</g>
</g>
<!-- DEMO_COUNTRIES&#45;&gt;DEMO_PERSONS -->
<g id="edge9" class="edge">
<title>DEMO_COUNTRIES-&gt;DEMO_PERSONS</title>
<g id="a_edge9"><a xlink:title="[DEMO_PER_CNT_FK]">
<path fill="none" stroke="#000000" d="M341,-440.546C341,-419.4739 341,-388.9005 341,-364.3683"/>
<polygon fill="#000000" stroke="#000000" points="341.0001,-364.2802 347.75,-349.2801 341,-356.7802 341,-349.2802 341,-349.2802 341,-349.2802 341,-356.7802 334.25,-349.2802 341.0001,-364.2802 341.0001,-364.2802"/>
</a>
</g>
<text text-anchor="middle" x="390.3731" y="-390.6" font-family="Times,serif" font-size="14.00" fill="#000000">demo_per_cnt_fk</text>
</g>
<!-- DEMO_CREDIT_CARD_TYPES -->
<g id="node2" class="node">
<title>DEMO_CREDIT_CARD_TYPES</title>
<g id="a_node2"><a xlink:title="[DEMO_CREDIT_CARD_TYPES]&#10;target_db_link=DBCC_DIGIT_01_T.CC.CEC.EU.INT">
<path fill="#00ff00" stroke="#000000" d="M1019.1841,-299.3C1019.1841,-299.3 1234.8159,-299.3 1234.8159,-299.3 1240.8159,-299.3 1246.8159,-305.3 1246.8159,-311.3 1246.8159,-311.3 1246.8159,-336.9 1246.8159,-336.9 1246.8159,-342.9 1240.8159,-348.9 1234.8159,-348.9 1234.8159,-348.9 1019.1841,-348.9 1019.1841,-348.9 1013.1841,-348.9 1007.1841,-342.9 1007.1841,-336.9 1007.1841,-336.9 1007.1841,-311.3 1007.1841,-311.3 1007.1841,-305.3 1013.1841,-299.3 1019.1841,-299.3"/>
<text text-anchor="middle" x="1127" y="-332.3" font-family="Times,serif" font-size="14.00" fill="#000000">DEMO_CREDIT_CARD_TYPES@cct</text>
<polyline fill="none" stroke="#000000" points="1007.1841,-324.1 1246.8159,-324.1 "/>
<text text-anchor="middle" x="1127" y="-307.5" font-family="Times,serif" font-size="14.00" fill="#000000">ARIUD post_iud_ds161_tab8966</text>
</a>
</g>
</g>
<!-- DEMO_PER_CREDIT_CARDS -->
<g id="node13" class="node">
<title>DEMO_PER_CREDIT_CARDS</title>
<g id="a_node13"><a xlink:title="[DEMO_PER_CREDIT_CARDS]&#10;target_db_link=DBCC_DIGIT_01_T.CC.CEC.EU.INT">
<path fill="#00ff00" stroke="#000000" d="M943.2907,-157.9C943.2907,-157.9 1152.7093,-157.9 1152.7093,-157.9 1158.7093,-157.9 1164.7093,-163.9 1164.7093,-169.9 1164.7093,-169.9 1164.7093,-195.5 1164.7093,-195.5 1164.7093,-201.5 1158.7093,-207.5 1152.7093,-207.5 1152.7093,-207.5 943.2907,-207.5 943.2907,-207.5 937.2907,-207.5 931.2907,-201.5 931.2907,-195.5 931.2907,-195.5 931.2907,-169.9 931.2907,-169.9 931.2907,-163.9 937.2907,-157.9 943.2907,-157.9"/>
<text text-anchor="middle" x="1048" y="-190.9" font-family="Times,serif" font-size="14.00" fill="#000000">DEMO_PER_CREDIT_CARDS@pcc</text>
<polyline fill="none" stroke="#000000" points="931.2907,-182.7 1164.7093,-182.7 "/>
<text text-anchor="middle" x="1048" y="-166.1" font-family="Times,serif" font-size="14.00" fill="#000000">ARIUD post_iud_ds161_tab8975</text>
</a>
</g>
</g>
<!-- DEMO_CREDIT_CARD_TYPES&#45;&gt;DEMO_PER_CREDIT_CARDS -->
<g id="edge16" class="edge">
<title>DEMO_CREDIT_CARD_TYPES-&gt;DEMO_PER_CREDIT_CARDS</title>
<g id="a_edge16"><a xlink:title="[DEMO_PCC_CCT_FK]">
<path fill="none" stroke="#000000" d="M1113.0582,-299.146C1101.005,-277.5722 1083.3875,-246.0392 1069.5247,-221.2265"/>
<polygon fill="#000000" stroke="#000000" points="1069.3842,-220.975 1067.9608,-204.5879 1065.7262,-214.4276 1062.0681,-207.8802 1062.0681,-207.8802 1062.0681,-207.8802 1065.7262,-214.4276 1056.1754,-211.1724 1069.3842,-220.975 1069.3842,-220.975"/>
</a>
</g>
<text text-anchor="middle" x="1141.7574" y="-249.2" font-family="Times,serif" font-size="14.00" fill="#000000">demo_pcc_cct_fk</text>
</g>
<!-- DEMO_DUAL -->
<g id="node3" class="node">
<title>DEMO_DUAL</title>
<g id="a_node3"><a xlink:title="[DEMO_DUAL]">
<path fill="#d3d3d3" stroke="#000000" d="M486.4586,-447.5C486.4586,-447.5 565.5414,-447.5 565.5414,-447.5 571.5414,-447.5 577.5414,-453.5 577.5414,-459.5 577.5414,-459.5 577.5414,-471.5 577.5414,-471.5 577.5414,-477.5 571.5414,-483.5 565.5414,-483.5 565.5414,-483.5 486.4586,-483.5 486.4586,-483.5 480.4586,-483.5 474.4586,-477.5 474.4586,-471.5 474.4586,-471.5 474.4586,-459.5 474.4586,-459.5 474.4586,-453.5 480.4586,-447.5 486.4586,-447.5"/>
<text text-anchor="middle" x="526" y="-461.4" font-family="Times,serif" font-size="14.00" fill="#000000">DEMO_DUAL</text>
</a>
</g>
</g>
<!-- DEMO_ORDERS -->
<g id="node4" class="node">
<title>DEMO_ORDERS</title>
<g id="a_node4"><a xlink:title="[DEMO_ORDERS]&#10;target_db_link=DBCC_DIGIT_01_T.CC.CEC.EU.INT">
<path fill="#00ff00" stroke="#000000" d="M250.7037,-157.9C250.7037,-157.9 431.2963,-157.9 431.2963,-157.9 437.2963,-157.9 443.2963,-163.9 443.2963,-169.9 443.2963,-169.9 443.2963,-195.5 443.2963,-195.5 443.2963,-201.5 437.2963,-207.5 431.2963,-207.5 431.2963,-207.5 250.7037,-207.5 250.7037,-207.5 244.7037,-207.5 238.7037,-201.5 238.7037,-195.5 238.7037,-195.5 238.7037,-169.9 238.7037,-169.9 238.7037,-163.9 244.7037,-157.9 250.7037,-157.9"/>
<text text-anchor="middle" x="341" y="-190.9" font-family="Times,serif" font-size="14.00" fill="#000000">DEMO_ORDERS@ord</text>
<polyline fill="none" stroke="#000000" points="238.7037,-182.7 443.2963,-182.7 "/>
<text text-anchor="middle" x="341" y="-166.1" font-family="Times,serif" font-size="14.00" fill="#000000">ARIUD post_iud_ds161_tab8968</text>
</a>
</g>
</g>
<!-- DEMO_ORDER_ITEMS -->
<g id="node7" class="node">
<title>DEMO_ORDER_ITEMS</title>
<g id="a_node7"><a xlink:title="[DEMO_ORDER_ITEMS]&#10;target_db_link=DBCC_DIGIT_01_T.CC.CEC.EU.INT">
<path fill="#00ff00" stroke="#000000" d="M138.7037,-16.5C138.7037,-16.5 319.2963,-16.5 319.2963,-16.5 325.2963,-16.5 331.2963,-22.5 331.2963,-28.5 331.2963,-28.5 331.2963,-54.1 331.2963,-54.1 331.2963,-60.1 325.2963,-66.1 319.2963,-66.1 319.2963,-66.1 138.7037,-66.1 138.7037,-66.1 132.7037,-66.1 126.7037,-60.1 126.7037,-54.1 126.7037,-54.1 126.7037,-28.5 126.7037,-28.5 126.7037,-22.5 132.7037,-16.5 138.7037,-16.5"/>
<text text-anchor="middle" x="229" y="-49.5" font-family="Times,serif" font-size="14.00" fill="#000000">DEMO_ORDER_ITEMS@oit</text>
<polyline fill="none" stroke="#000000" points="126.7037,-41.3 331.2963,-41.3 "/>
<text text-anchor="middle" x="229" y="-24.7" font-family="Times,serif" font-size="14.00" fill="#000000">ARIUD post_iud_ds161_tab8969</text>
</a>
</g>
</g>
<!-- DEMO_ORDERS&#45;&gt;DEMO_ORDER_ITEMS -->
<g id="edge3" class="edge">
<title>DEMO_ORDERS-&gt;DEMO_ORDER_ITEMS</title>
<g id="a_edge3"><a xlink:title="[DEMO_OIT_ORD_FK]">
<path fill="none" stroke="#000000" d="M321.953,-157.6178C310.0142,-141.9921 294.2412,-121.522 280,-103.6 273.3978,-95.2915 266.226,-86.4315 259.4032,-78.078"/>
<polygon fill="#000000" stroke="#000000" points="259.2759,-77.9228 254.9827,-62.0442 254.5197,-72.1238 249.7635,-66.3248 249.7635,-66.3248 249.7635,-66.3248 254.5197,-72.1238 244.5444,-70.6053 259.2759,-77.9228 259.2759,-77.9228"/>
</a>
</g>
<text text-anchor="middle" x="341.6038" y="-107.8" font-family="Times,serif" font-size="14.00" fill="#000000">demo_oit_ord_fk</text>
</g>
<!-- DEMO_PER_TRANSACTIONS -->
<g id="node14" class="node">
<title>DEMO_PER_TRANSACTIONS</title>
<g id="a_node14"><a xlink:title="[DEMO_PER_TRANSACTIONS]&#10;target_db_link=DBCC_DIGIT_01_T.CC.CEC.EU.INT">
<path fill="#00ff00" stroke="#000000" d="M717.0684,-16.5C717.0684,-16.5 924.9316,-16.5 924.9316,-16.5 930.9316,-16.5 936.9316,-22.5 936.9316,-28.5 936.9316,-28.5 936.9316,-54.1 936.9316,-54.1 936.9316,-60.1 930.9316,-66.1 924.9316,-66.1 924.9316,-66.1 717.0684,-66.1 717.0684,-66.1 711.0684,-66.1 705.0684,-60.1 705.0684,-54.1 705.0684,-54.1 705.0684,-28.5 705.0684,-28.5 705.0684,-22.5 711.0684,-16.5 717.0684,-16.5"/>
<text text-anchor="middle" x="821" y="-49.5" font-family="Times,serif" font-size="14.00" fill="#000000">DEMO_PER_TRANSACTIONS@ptr</text>
<polyline fill="none" stroke="#000000" points="705.0684,-41.3 936.9316,-41.3 "/>
<text text-anchor="middle" x="821" y="-24.7" font-family="Times,serif" font-size="14.00" fill="#000000">ARIUD post_iud_ds161_tab8976</text>
</a>
</g>
</g>
<!-- DEMO_ORDERS&#45;&gt;DEMO_PER_TRANSACTIONS -->
<g id="edge18" class="edge">
<title>DEMO_ORDERS-&gt;DEMO_PER_TRANSACTIONS</title>
<g id="a_edge18"><a xlink:title="[DEMO_PTR_ORD_FK]">
<path fill="none" stroke="#000000" d="M425.434,-157.8271C508.2921,-133.4185 634.6183,-96.2049 722.1244,-70.4271"/>
<polygon fill="#000000" stroke="#000000" points="722.2459,-70.3914 738.542,-72.6276 729.4402,-68.272 736.6345,-66.1527 736.6345,-66.1527 736.6345,-66.1527 729.4402,-68.272 734.7271,-59.6778 722.2459,-70.3914 722.2459,-70.3914"/>
</a>
</g>
<text text-anchor="middle" x="656.9888" y="-107.8" font-family="Times,serif" font-size="14.00" fill="#000000">demo_ptr_ord_fk</text>
</g>
<!-- DEMO_PERSONS&#45;&gt;DEMO_ORDERS -->
<g id="edge1" class="edge">
<title>DEMO_PERSONS-&gt;DEMO_ORDERS</title>
<g id="a_edge1"><a xlink:title="[DEMO_ORD_PER_FK]">
<path fill="none" stroke="#000000" d="M323.6757,-298.9797C315.1681,-283.6873 307.5472,-263.5799 311.6984,-245 313.4839,-237.0086 316.4122,-228.8328 319.7437,-221.1435"/>
<polygon fill="#000000" stroke="#000000" points="319.7678,-221.093 332.323,-210.4662 322.9999,-214.3252 326.232,-207.5573 326.232,-207.5573 326.232,-207.5573 322.9999,-214.3252 320.1409,-204.6484 319.7678,-221.093 319.7678,-221.093"/>
</a>
</g>
<text text-anchor="middle" x="361.1508" y="-249.2" font-family="Times,serif" font-size="14.00" fill="#000000">demo_ord_per_fk</text>
</g>
<!-- DEMO_PERSONS&#45;&gt;DEMO_PERSONS -->
<!-- DEMO_PERSONS&#45;&gt;DEMO_PERSONS -->
<!-- DEMO_PERSONS&#45;&gt;DEMO_PERSONS -->
<g id="edge12" class="edge">
<title>DEMO_PERSONS-&gt;DEMO_PERSONS</title>
<g id="a_edge12"><a xlink:title="[DEMO_PER_PER_FK]">
<path fill="none" stroke="#000000" d="M443.5928,-331.9547C473.8254,-331.7016 497.2963,-329.0834 497.2963,-324.1 497.2963,-319.9926 481.3516,-317.4919 458.8182,-316.598"/>
<polygon fill="#000000" stroke="#000000" points="458.5888,-316.5928 443.7492,-309.4971 451.0908,-316.419 443.5928,-316.2453 443.5928,-316.2453 443.5928,-316.2453 451.0908,-316.419 443.4365,-322.9935 458.5888,-316.5928 458.5888,-316.5928"/>
</a>
</g>
<text text-anchor="middle" x="547.0544" y="-319.9" font-family="Times,serif" font-size="14.00" fill="#000000">demo_per_per_fk</text>
</g>
<!-- DEMO_PER_ASSIGNMENTS -->
<g id="node11" class="node">
<title>DEMO_PER_ASSIGNMENTS</title>
<g id="a_node11"><a xlink:title="[DEMO_PER_ASSIGNMENTS]&#10;target_db_link=DBCC_DIGIT_01_T.CC.CEC.EU.INT">
<path fill="#00ff00" stroke="#000000" d="M698.7907,-157.9C698.7907,-157.9 901.2093,-157.9 901.2093,-157.9 907.2093,-157.9 913.2093,-163.9 913.2093,-169.9 913.2093,-169.9 913.2093,-195.5 913.2093,-195.5 913.2093,-201.5 907.2093,-207.5 901.2093,-207.5 901.2093,-207.5 698.7907,-207.5 698.7907,-207.5 692.7907,-207.5 686.7907,-201.5 686.7907,-195.5 686.7907,-195.5 686.7907,-169.9 686.7907,-169.9 686.7907,-163.9 692.7907,-157.9 698.7907,-157.9"/>
<text text-anchor="middle" x="800" y="-190.9" font-family="Times,serif" font-size="14.00" fill="#000000">DEMO_PER_ASSIGNMENTS@pas</text>
<polyline fill="none" stroke="#000000" points="686.7907,-182.7 913.2093,-182.7 "/>
<text text-anchor="middle" x="800" y="-166.1" font-family="Times,serif" font-size="14.00" fill="#000000">ARIUD post_iud_ds161_tab8973</text>
</a>
</g>
</g>
<!-- DEMO_PERSONS&#45;&gt;DEMO_PER_ASSIGNMENTS -->
<g id="edge14" class="edge">
<title>DEMO_PERSONS-&gt;DEMO_PER_ASSIGNMENTS</title>
<g id="a_edge14"><a xlink:title="[DEMO_PAS_PER_FK]">
<path fill="none" stroke="#000000" d="M433.4947,-299.2536C469.3381,-288.8149 510.4646,-275.8349 547,-261.8 563.3694,-255.5118 566.2853,-251.1696 582.6998,-245 615.7406,-232.5811 652.3869,-221.1987 686.027,-211.6572"/>
<polygon fill="#000000" stroke="#000000" points="686.2959,-211.5821 702.5592,-214.0458 693.5192,-209.5635 700.7424,-207.5449 700.7424,-207.5449 700.7424,-207.5449 693.5192,-209.5635 698.9257,-201.044 686.2959,-211.5821 686.2959,-211.5821"/>
</a>
</g>
<text text-anchor="middle" x="632.1501" y="-249.2" font-family="Times,serif" font-size="14.00" fill="#000000">demo_pas_per_fk</text>
</g>
<!-- DEMO_PER_CLOCKINGS -->
<g id="node12" class="node">
<title>DEMO_PER_CLOCKINGS</title>
<g id="a_node12"><a xlink:title="[DEMO_PER_CLOCKINGS]&#10;target_db_link=DBCC_DIGIT_01_T.CC.CEC.EU.INT">
<path fill="#00ff00" stroke="#000000" d="M473.5123,-157.9C473.5123,-157.9 656.4877,-157.9 656.4877,-157.9 662.4877,-157.9 668.4877,-163.9 668.4877,-169.9 668.4877,-169.9 668.4877,-195.5 668.4877,-195.5 668.4877,-201.5 662.4877,-207.5 656.4877,-207.5 656.4877,-207.5 473.5123,-207.5 473.5123,-207.5 467.5123,-207.5 461.5123,-201.5 461.5123,-195.5 461.5123,-195.5 461.5123,-169.9 461.5123,-169.9 461.5123,-163.9 467.5123,-157.9 473.5123,-157.9"/>
<text text-anchor="middle" x="565" y="-190.9" font-family="Times,serif" font-size="14.00" fill="#000000">DEMO_PER_CLOCKINGS@pcl</text>
<polyline fill="none" stroke="#000000" points="461.5123,-182.7 668.4877,-182.7 "/>
<text text-anchor="middle" x="565" y="-166.1" font-family="Times,serif" font-size="14.00" fill="#000000">ARIUD post_iud_ds161_tab8974</text>
</a>
</g>
</g>
<!-- DEMO_PERSONS&#45;&gt;DEMO_PER_CLOCKINGS -->
<g id="edge15" class="edge">
<title>DEMO_PERSONS-&gt;DEMO_PER_CLOCKINGS</title>
<g id="a_edge15"><a xlink:title="[DEMO_PCL_PER_FK]">
<path fill="none" stroke="#000000" d="M372.5274,-298.9609C393.4554,-282.7516 421.8371,-261.666 448.2538,-245 465.0479,-234.4047 483.8101,-223.8622 501.2969,-214.5445"/>
<polygon fill="#000000" stroke="#000000" points="501.3953,-214.4929 517.8137,-213.4937 508.0351,-211.0054 514.6749,-207.5178 514.6749,-207.5178 514.6749,-207.5178 508.0351,-211.0054 511.5361,-201.542 501.3953,-214.4929 501.3953,-214.4929"/>
</a>
</g>
<text text-anchor="middle" x="497.3731" y="-249.2" font-family="Times,serif" font-size="14.00" fill="#000000">demo_pcl_per_fk</text>
</g>
<!-- DEMO_PERSONS&#45;&gt;DEMO_PER_CREDIT_CARDS -->
<g id="edge17" class="edge">
<title>DEMO_PERSONS-&gt;DEMO_PER_CREDIT_CARDS</title>
<g id="a_edge17"><a xlink:title="[DEMO_PCC_PER_FK]">
<path fill="none" stroke="#000000" d="M443.7056,-310.8052C528.357,-298.8555 641.062,-280.3752 683,-261.8 694.226,-256.8278 693.6757,-249.9084 704.9298,-245 790.2559,-207.7856 822.5952,-224.0469 916.0891,-208.908"/>
<polygon fill="#000000" stroke="#000000" points="916.2083,-208.8874 932.1431,-212.967 923.5973,-207.6021 930.9864,-206.3169 930.9864,-206.3169 930.9864,-206.3169 923.5973,-207.6021 929.8297,-199.6667 916.2083,-208.8874 916.2083,-208.8874"/>
</a>
</g>
<text text-anchor="middle" x="754.5351" y="-249.2" font-family="Times,serif" font-size="14.00" fill="#000000">demo_pcc_per_fk</text>
</g>
<!-- DEMO_STORES -->
<g id="node6" class="node">
<title>DEMO_STORES</title>
<g id="a_node6"><a xlink:title="[DEMO_STORES]&#10;target_db_link=DBCC_DIGIT_01_T.CC.CEC.EU.INT">
<path fill="#00ff00" stroke="#000000" d="M27.7037,-299.3C27.7037,-299.3 208.2963,-299.3 208.2963,-299.3 214.2963,-299.3 220.2963,-305.3 220.2963,-311.3 220.2963,-311.3 220.2963,-336.9 220.2963,-336.9 220.2963,-342.9 214.2963,-348.9 208.2963,-348.9 208.2963,-348.9 27.7037,-348.9 27.7037,-348.9 21.7037,-348.9 15.7037,-342.9 15.7037,-336.9 15.7037,-336.9 15.7037,-311.3 15.7037,-311.3 15.7037,-305.3 21.7037,-299.3 27.7037,-299.3"/>
<text text-anchor="middle" x="118" y="-332.3" font-family="Times,serif" font-size="14.00" fill="#000000">DEMO_STORES@sto</text>
<polyline fill="none" stroke="#000000" points="15.7037,-324.1 220.2963,-324.1 "/>
<text text-anchor="middle" x="118" y="-307.5" font-family="Times,serif" font-size="14.00" fill="#000000">ARIUD post_iud_ds161_tab8978</text>
</a>
</g>
</g>
<!-- DEMO_STORES&#45;&gt;DEMO_ORDERS -->
<g id="edge2" class="edge">
<title>DEMO_STORES-&gt;DEMO_ORDERS</title>
<g id="a_edge2"><a xlink:title="[DEMO_ORD_STO_FK]">
<path fill="none" stroke="#000000" d="M142.1744,-299.1635C159.2841,-282.4318 183.3494,-260.6705 207.2384,-245 224.9061,-233.4105 245.0743,-222.822 264.2978,-213.7924"/>
<polygon fill="#000000" stroke="#000000" points="264.4339,-213.7303 280.8825,-213.6414 271.2566,-210.6156 278.0793,-207.501 278.0793,-207.501 278.0793,-207.501 271.2566,-210.6156 275.2761,-201.3605 264.4339,-213.7303 264.4339,-213.7303"/>
</a>
</g>
<text text-anchor="middle" x="256.3808" y="-249.2" font-family="Times,serif" font-size="14.00" fill="#000000">demo_ord_sto_fk</text>
</g>
<!-- DEMO_PRODUCTS -->
<g id="node8" class="node">
<title>DEMO_PRODUCTS</title>
<g id="a_node8"><a xlink:title="[DEMO_PRODUCTS]&#10;target_db_link=DBCC_DIGIT_01_T.CC.CEC.EU.INT">
<path fill="#00ff00" stroke="#000000" d="M27.7037,-157.9C27.7037,-157.9 208.2963,-157.9 208.2963,-157.9 214.2963,-157.9 220.2963,-163.9 220.2963,-169.9 220.2963,-169.9 220.2963,-195.5 220.2963,-195.5 220.2963,-201.5 214.2963,-207.5 208.2963,-207.5 208.2963,-207.5 27.7037,-207.5 27.7037,-207.5 21.7037,-207.5 15.7037,-201.5 15.7037,-195.5 15.7037,-195.5 15.7037,-169.9 15.7037,-169.9 15.7037,-163.9 21.7037,-157.9 27.7037,-157.9"/>
<text text-anchor="middle" x="118" y="-190.9" font-family="Times,serif" font-size="14.00" fill="#000000">DEMO_PRODUCTS@prd</text>
<polyline fill="none" stroke="#000000" points="15.7037,-182.7 220.2963,-182.7 "/>
<text text-anchor="middle" x="118" y="-166.1" font-family="Times,serif" font-size="14.00" fill="#000000">ARIUD post_iud_ds161_tab8977</text>
</a>
</g>
</g>
<!-- DEMO_PRODUCTS&#45;&gt;DEMO_ORDER_ITEMS -->
<g id="edge4" class="edge">
<title>DEMO_PRODUCTS-&gt;DEMO_ORDER_ITEMS</title>
<g id="a_edge4"><a xlink:title="[DEMO_OIT_PRD_FK]">
<path fill="none" stroke="#000000" d="M137.5891,-157.746C154.8397,-135.7709 180.202,-103.4624 199.838,-78.4487"/>
<polygon fill="#000000" stroke="#000000" points="199.9712,-78.279 214.5429,-70.6481 204.6023,-72.3796 209.2334,-66.4802 209.2334,-66.4802 209.2334,-66.4802 204.6023,-72.3796 203.9239,-62.3122 199.9712,-78.279 199.9712,-78.279"/>
</a>
</g>
<text text-anchor="middle" x="227.6038" y="-107.8" font-family="Times,serif" font-size="14.00" fill="#000000">demo_oit_prd_fk</text>
</g>
<!-- DEMO_ORG_ENTITIES -->
<g id="node9" class="node">
<title>DEMO_ORG_ENTITIES</title>
<g id="a_node9"><a xlink:title="[DEMO_ORG_ENTITIES]&#10;target_db_link=DBCC_DIGIT_01_T.CC.CEC.EU.INT">
<path fill="#00ff00" stroke="#000000" d="M632.7037,-299.3C632.7037,-299.3 813.2963,-299.3 813.2963,-299.3 819.2963,-299.3 825.2963,-305.3 825.2963,-311.3 825.2963,-311.3 825.2963,-336.9 825.2963,-336.9 825.2963,-342.9 819.2963,-348.9 813.2963,-348.9 813.2963,-348.9 632.7037,-348.9 632.7037,-348.9 626.7037,-348.9 620.7037,-342.9 620.7037,-336.9 620.7037,-336.9 620.7037,-311.3 620.7037,-311.3 620.7037,-305.3 626.7037,-299.3 632.7037,-299.3"/>
<text text-anchor="middle" x="723" y="-332.3" font-family="Times,serif" font-size="14.00" fill="#000000">DEMO_ORG_ENTITIES@oen</text>
<polyline fill="none" stroke="#000000" points="620.7037,-324.1 825.2963,-324.1 "/>
<text text-anchor="middle" x="723" y="-307.5" font-family="Times,serif" font-size="14.00" fill="#000000">ARIUD post_iud_ds161_tab8970</text>
</a>
</g>
</g>
<!-- DEMO_ORG_ENTITIES&#45;&gt;DEMO_ORG_ENTITIES -->
<!-- DEMO_ORG_ENTITIES&#45;&gt;DEMO_ORG_ENTITIES -->
<!-- DEMO_ORG_ENTITIES&#45;&gt;DEMO_ORG_ENTITIES -->
<g id="edge7" class="edge">
<title>DEMO_ORG_ENTITIES-&gt;DEMO_ORG_ENTITIES</title>
<g id="a_edge7"><a xlink:title="[DEMO_OEN_OEN_FK]">
<path fill="none" stroke="#000000" d="M825.5928,-331.9547C855.8254,-331.7016 879.2963,-329.0834 879.2963,-324.1 879.2963,-319.9926 863.3516,-317.4919 840.8182,-316.598"/>
<polygon fill="#000000" stroke="#000000" points="840.5888,-316.5928 825.7492,-309.4971 833.0908,-316.419 825.5928,-316.2453 825.5928,-316.2453 825.5928,-316.2453 833.0908,-316.419 825.4365,-322.9935 840.5888,-316.5928 840.5888,-316.5928"/>
</a>
</g>
<text text-anchor="middle" x="931.3938" y="-319.9" font-family="Times,serif" font-size="14.00" fill="#000000">demo_oen_oen_fk</text>
</g>
<!-- DEMO_ORG_ENTITIES&#45;&gt;DEMO_PER_ASSIGNMENTS -->
<g id="edge13" class="edge">
<title>DEMO_ORG_ENTITIES-&gt;DEMO_PER_ASSIGNMENTS</title>
<g id="a_edge13"><a xlink:title="[DEMO_PAS_OEN_FK]">
<path fill="none" stroke="#000000" d="M774.2932,-299.1818C788.4627,-289.5907 802.1035,-277.1669 810,-261.8 816.1841,-249.7654 816.1876,-235.3886 813.8288,-222.2129"/>
<polygon fill="#000000" stroke="#000000" points="813.7946,-222.0737 816.7572,-205.8939 811.999,-214.7918 810.2034,-207.5099 810.2034,-207.5099 810.2034,-207.5099 811.999,-214.7918 803.6497,-209.1259 813.7946,-222.0737 813.7946,-222.0737"/>
</a>
</g>
<text text-anchor="middle" x="865.3198" y="-249.2" font-family="Times,serif" font-size="14.00" fill="#000000">demo_pas_oen_fk</text>
</g>
<!-- DEMO_ORG_ENTITY_TYPES -->
<g id="node10" class="node">
<title>DEMO_ORG_ENTITY_TYPES</title>
<g id="a_node10"><a xlink:title="[DEMO_ORG_ENTITY_TYPES]&#10;target_db_link=DBCC_DIGIT_01_T.CC.CEC.EU.INT">
<path fill="#00ff00" stroke="#000000" d="M619.4667,-440.7C619.4667,-440.7 826.5333,-440.7 826.5333,-440.7 832.5333,-440.7 838.5333,-446.7 838.5333,-452.7 838.5333,-452.7 838.5333,-478.3 838.5333,-478.3 838.5333,-484.3 832.5333,-490.3 826.5333,-490.3 826.5333,-490.3 619.4667,-490.3 619.4667,-490.3 613.4667,-490.3 607.4667,-484.3 607.4667,-478.3 607.4667,-478.3 607.4667,-452.7 607.4667,-452.7 607.4667,-446.7 613.4667,-440.7 619.4667,-440.7"/>
<text text-anchor="middle" x="723" y="-473.7" font-family="Times,serif" font-size="14.00" fill="#000000">DEMO_ORG_ENTITY_TYPES@oet</text>
<polyline fill="none" stroke="#000000" points="607.4667,-465.5 838.5333,-465.5 "/>
<text text-anchor="middle" x="723" y="-448.9" font-family="Times,serif" font-size="14.00" fill="#000000">ARIUD post_iud_ds161_tab8971</text>
</a>
</g>
</g>
<!-- DEMO_ORG_ENTITY_TYPES&#45;&gt;DEMO_ORG_ENTITIES -->
<g id="edge8" class="edge">
<title>DEMO_ORG_ENTITY_TYPES-&gt;DEMO_ORG_ENTITIES</title>
<g id="a_edge8"><a xlink:title="[DEMO_OEN_OET_FK]">
<path fill="none" stroke="#000000" d="M723,-440.546C723,-419.4739 723,-388.9005 723,-364.3683"/>
<polygon fill="#000000" stroke="#000000" points="723.0001,-364.2802 729.75,-349.2801 723,-356.7802 723,-349.2802 723,-349.2802 723,-349.2802 723,-356.7802 716.25,-349.2802 723.0001,-364.2802 723.0001,-364.2802"/>
</a>
</g>
<text text-anchor="middle" x="773.5428" y="-390.6" font-family="Times,serif" font-size="14.00" fill="#000000">demo_oen_oet_fk</text>
</g>
<!-- DEMO_PER_CREDIT_CARDS&#45;&gt;DEMO_PER_TRANSACTIONS -->
<g id="edge19" class="edge">
<title>DEMO_PER_CREDIT_CARDS-&gt;DEMO_PER_TRANSACTIONS</title>
<g id="a_edge19"><a xlink:title="[DEMO_PTR_PCC_FK]">
<path fill="none" stroke="#000000" d="M1007.9395,-157.746C970.694,-134.5455 914.9582,-99.8273 874.0344,-74.3355"/>
<polygon fill="#000000" stroke="#000000" points="873.7731,-74.1728 864.6101,-60.5126 867.4071,-70.2074 861.0412,-66.2419 861.0412,-66.2419 861.0412,-66.2419 867.4071,-70.2074 857.4723,-71.9713 873.7731,-74.1728 873.7731,-74.1728"/>
</a>
</g>
<text text-anchor="middle" x="996.3731" y="-107.8" font-family="Times,serif" font-size="14.00" fill="#000000">demo_ptr_pcc_fk</text>
</g>
</g>
</svg>