<?xml version="1.0" encoding="UTF-8" standalone="no"?><!DOCTYPE svg PUBLIC "-//W3C//DTD SVG 1.1//EN" "http://www.w3.org/Graphics/SVG/1.1/DTD/svg11.dtd"><!-- Generated by graphviz version 2.40.1 (20161225.0304)
 --><!-- Title: ds_graph Pages: 1 --><svg xmlns="http://www.w3.org/2000/svg" xmlns:xlink="http://www.w3.org/1999/xlink" width="1309pt" height="1242pt" viewBox="0.00 0.00 1309.00 1242.00">
<g id="graph0" class="graph" transform="scale(1 1) rotate(0) translate(4 1238)">
<title>ds_graph</title>
<polygon fill="#ffffff" stroke="transparent" points="-4,4 -4,-1238 1305,-1238 1305,4 -4,4"/>
<g id="clust1" class="cluster">
<title>cluster_main</title>
<polygon fill="none" stroke="#000000" points="8,-8 8,-1226 1293,-1226 1293,-8 8,-8"/>
<text text-anchor="start" x="563.0189" y="-1210.4" font-family="Times,serif" font-weight="bold" font-size="14.00" fill="#000000">All tables and masked columns</text>
</g>
<!-- DEMO_COUNTRIES -->
<g id="node1" class="node">
<title>DEMO_COUNTRIES</title>
<polygon fill="#d3d3d3" stroke="#000000" points="266.8797,-1059.9 266.8797,-1192.7 427.1203,-1192.7 427.1203,-1059.9 266.8797,-1059.9"/>
<text text-anchor="middle" x="347" y="-1176.1" font-family="Times,serif" font-size="14.00" fill="#000000">DEMO_COUNTRIES</text>
<polyline fill="none" stroke="#000000" points="266.8797,-1167.9 427.1203,-1167.9 "/>
<text text-anchor="middle" x="282.1013" y="-1151.3" font-family="Times,serif" font-size="14.00" fill="#000000">PI</text>
<text text-anchor="middle" x="282.1013" y="-1134.5" font-family="Times,serif" font-size="14.00" fill="#000000">-</text>
<text text-anchor="middle" x="282.1013" y="-1117.7" font-family="Times,serif" font-size="14.00" fill="#000000">-</text>
<polyline fill="none" stroke="#000000" points="297.3229,-1109.5 297.3229,-1167.9 "/>
<text text-anchor="middle" x="337.5354" y="-1151.3" font-family="Times,serif" font-size="14.00" fill="#000000">*cnt_cd</text>
<text text-anchor="middle" x="337.5354" y="-1134.5" font-family="Times,serif" font-size="14.00" fill="#000000">*cnt_name</text>
<text text-anchor="middle" x="337.5354" y="-1117.7" font-family="Times,serif" font-size="14.00" fill="#000000">population</text>
<polyline fill="none" stroke="#000000" points="377.7479,-1109.5 377.7479,-1167.9 "/>
<text text-anchor="middle" x="402.4162" y="-1151.3" font-family="Times,serif" font-size="14.00" fill="#000000">C3</text>
<text text-anchor="middle" x="402.4162" y="-1134.5" font-family="Times,serif" font-size="14.00" fill="#000000">C100</text>
<text text-anchor="middle" x="402.4162" y="-1117.7" font-family="Times,serif" font-size="14.00" fill="#000000">N9,0</text>
<polyline fill="none" stroke="#000000" points="266.8797,-1109.5 427.1203,-1109.5 "/>
<text text-anchor="middle" x="347" y="-1092.9" font-family="Times,serif" font-size="14.00" fill="#000000">PK demo_cnt_pk(cnt_cd)</text>
<polyline fill="none" stroke="#000000" points="266.8797,-1084.7 427.1203,-1084.7 "/>
<text text-anchor="middle" x="347" y="-1068.1" font-family="Times,serif" font-size="14.00" fill="#000000">UI demo_cnt_pk(cnt_cd)</text>
</g>
<!-- DEMO_PERSONS -->
<g id="node5" class="node">
<title>DEMO_PERSONS</title>
<polygon fill="#d3d3d3" stroke="#000000" points="221.799,-650.5 221.799,-968.1 472.201,-968.1 472.201,-650.5 221.799,-650.5"/>
<text text-anchor="middle" x="347" y="-951.5" font-family="Times,serif" font-size="14.00" fill="#000000">DEMO_PERSONS</text>
<polyline fill="none" stroke="#000000" points="221.799,-943.3 472.201,-943.3 "/>
<text text-anchor="middle" x="247.5206" y="-926.7" font-family="Times,serif" font-size="14.00" fill="#000000">PI</text>
<text text-anchor="middle" x="247.5206" y="-909.9" font-family="Times,serif" font-size="14.00" fill="#000000">-</text>
<text text-anchor="middle" x="247.5206" y="-893.1" font-family="Times,serif" font-size="14.00" fill="#000000">-</text>
<text text-anchor="middle" x="247.5206" y="-876.3" font-family="Times,serif" font-size="14.00" fill="#000000">-</text>
<text text-anchor="middle" x="247.5206" y="-859.5" font-family="Times,serif" font-size="14.00" fill="#000000">-</text>
<text text-anchor="middle" x="247.5206" y="-842.7" font-family="Times,serif" font-size="14.00" fill="#000000">-</text>
<text text-anchor="middle" x="247.5206" y="-825.9" font-family="Times,serif" font-size="14.00" fill="#000000">FI</text>
<text text-anchor="middle" x="247.5206" y="-809.1" font-family="Times,serif" font-size="14.00" fill="#000000">-</text>
<text text-anchor="middle" x="247.5206" y="-792.3" font-family="Times,serif" font-size="14.00" fill="#000000">-</text>
<text text-anchor="middle" x="247.5206" y="-775.5" font-family="Times,serif" font-size="14.00" fill="#000000">FI</text>
<polyline fill="none" stroke="#000000" points="273.2422,-767.3 273.2422,-943.3 "/>
<text text-anchor="middle" x="338.7226" y="-926.7" font-family="Times,serif" font-size="14.00" fill="#000000">*per_id</text>
<text text-anchor="middle" x="338.7226" y="-909.9" font-family="Times,serif" font-size="14.00" fill="#000000">*first_name</text>
<text text-anchor="middle" x="338.7226" y="-893.1" font-family="Times,serif" font-size="14.00" fill="#000000">*last_name</text>
<text text-anchor="middle" x="338.7226" y="-876.3" font-family="Times,serif" font-size="14.00" fill="#000000">*full_name</text>
<text text-anchor="middle" x="338.7226" y="-859.5" font-family="Times,serif" font-size="14.00" fill="#000000">*gender</text>
<text text-anchor="middle" x="338.7226" y="-842.7" font-family="Times,serif" font-size="14.00" fill="#000000">*birth_date</text>
<text text-anchor="middle" x="338.7226" y="-825.9" font-family="Times,serif" font-size="14.00" fill="#000000">*nationality</text>
<text text-anchor="middle" x="338.7226" y="-809.1" font-family="Times,serif" font-size="14.00" fill="#000000">title</text>
<text text-anchor="middle" x="338.7226" y="-792.3" font-family="Times,serif" font-size="14.00" fill="#000000">manager_flag</text>
<text text-anchor="middle" x="338.7226" y="-775.5" font-family="Times,serif" font-size="14.00" fill="#000000">per_id_manager</text>
<polyline fill="none" stroke="#000000" points="404.203,-767.3 404.203,-943.3 "/>
<text text-anchor="middle" x="438.0063" y="-926.7" font-family="Times,serif" font-size="14.00" fill="#000000">N9,0</text>
<text text-anchor="middle" x="438.0063" y="-909.9" font-family="Times,serif" font-size="14.00" fill="#000000">C30</text>
<text text-anchor="middle" x="438.0063" y="-893.1" font-family="Times,serif" font-size="14.00" fill="#000000">C30</text>
<text text-anchor="middle" x="438.0063" y="-876.3" font-family="Times,serif" font-size="14.00" fill="#000000">C61</text>
<text text-anchor="middle" x="438.0063" y="-859.5" font-family="Times,serif" font-size="14.00" fill="#000000">C1</text>
<text text-anchor="middle" x="438.0063" y="-842.7" font-family="Times,serif" font-size="14.00" fill="#000000">D</text>
<text text-anchor="middle" x="438.0063" y="-825.9" font-family="Times,serif" font-size="14.00" fill="#000000">C3</text>
<text text-anchor="middle" x="438.0063" y="-809.1" font-family="Times,serif" font-size="14.00" fill="#000000">C4</text>
<text text-anchor="middle" x="438.0063" y="-792.3" font-family="Times,serif" font-size="14.00" fill="#000000">C1</text>
<text text-anchor="middle" x="438.0063" y="-775.5" font-family="Times,serif" font-size="14.00" fill="#000000">N9,0</text>
<polyline fill="none" stroke="#000000" points="221.799,-767.3 472.201,-767.3 "/>
<text text-anchor="middle" x="347" y="-750.7" font-family="Times,serif" font-size="14.00" fill="#000000">PK demo_per_pk(per_id)</text>
<text text-anchor="middle" x="347" y="-733.9" font-family="Times,serif" font-size="14.00" fill="#000000">FK demo_per_cnt_fk(nationality)</text>
<text text-anchor="middle" x="347" y="-717.1" font-family="Times,serif" font-size="14.00" fill="#000000">FK demo_per_per_fk(per_id_manager)</text>
<polyline fill="none" stroke="#000000" points="221.799,-708.9 472.201,-708.9 "/>
<text text-anchor="middle" x="347" y="-692.3" font-family="Times,serif" font-size="14.00" fill="#000000">UI demo_per_pk(per_id)</text>
<text text-anchor="middle" x="347" y="-675.5" font-family="Times,serif" font-size="14.00" fill="#000000">NU demo_per_per_fk_i(per_id_manager)</text>
<text text-anchor="middle" x="347" y="-658.7" font-family="Times,serif" font-size="14.00" fill="#000000">NU demo_per_cnt_fk_i(nationality)</text>
</g>
<!-- DEMO_COUNTRIES&#45;&gt;DEMO_PERSONS -->
<g id="edge9" class="edge">
<title>DEMO_COUNTRIES-&gt;DEMO_PERSONS</title>
<path fill="none" stroke="#000000" d="M347,-1059.8464C347,-1037.1751 347,-1010.6588 347,-983.5218"/>
<polygon fill="#000000" stroke="#000000" points="347.0001,-983.4022 353.75,-968.4022 347,-975.9022 347,-968.4022 347,-968.4022 347,-968.4022 347,-975.9022 340.25,-968.4023 347.0001,-983.4022 347.0001,-983.4022"/>
<text text-anchor="middle" x="396.3731" y="-1009.8" font-family="Times,serif" font-size="14.00" fill="#000000">demo_per_cnt_fk</text>
</g>
<!-- DEMO_CREDIT_CARD_TYPES -->
<g id="node2" class="node">
<title>DEMO_CREDIT_CARD_TYPES</title>
<polygon fill="#d3d3d3" stroke="#000000" points="1074.7903,-751.3 1074.7903,-867.3 1285.2097,-867.3 1285.2097,-751.3 1074.7903,-751.3"/>
<text text-anchor="middle" x="1180" y="-850.7" font-family="Times,serif" font-size="14.00" fill="#000000">DEMO_CREDIT_CARD_TYPES</text>
<polyline fill="none" stroke="#000000" points="1074.7903,-842.5 1285.2097,-842.5 "/>
<text text-anchor="middle" x="1098.5119" y="-825.9" font-family="Times,serif" font-size="14.00" fill="#000000">PI</text>
<text text-anchor="middle" x="1098.5119" y="-809.1" font-family="Times,serif" font-size="14.00" fill="#000000">-</text>
<polyline fill="none" stroke="#000000" points="1122.2335,-800.9 1122.2335,-842.5 "/>
<text text-anchor="middle" x="1170.5533" y="-825.9" font-family="Times,serif" font-size="14.00" fill="#000000">*cct_cd</text>
<text text-anchor="middle" x="1170.5533" y="-809.1" font-family="Times,serif" font-size="14.00" fill="#000000">*cct_name</text>
<polyline fill="none" stroke="#000000" points="1218.8731,-800.9 1218.8731,-842.5 "/>
<text text-anchor="middle" x="1251.5414" y="-825.9" font-family="Times,serif" font-size="14.00" fill="#000000">C10</text>
<text text-anchor="middle" x="1251.5414" y="-809.1" font-family="Times,serif" font-size="14.00" fill="#000000">C100</text>
<polyline fill="none" stroke="#000000" points="1074.7903,-800.9 1285.2097,-800.9 "/>
<text text-anchor="middle" x="1180" y="-784.3" font-family="Times,serif" font-size="14.00" fill="#000000">PK demo_cct_pk(cct_cd)</text>
<polyline fill="none" stroke="#000000" points="1074.7903,-776.1 1285.2097,-776.1 "/>
<text text-anchor="middle" x="1180" y="-759.5" font-family="Times,serif" font-size="14.00" fill="#000000">UI demo_cct_pk(cct_cd)</text>
</g>
<!-- DEMO_PER_CREDIT_CARDS -->
<g id="node13" class="node">
<title>DEMO_PER_CREDIT_CARDS</title>
<polygon fill="#d3d3d3" stroke="#000000" points="1007.3814,-341.9 1007.3814,-541.9 1284.6186,-541.9 1284.6186,-341.9 1007.3814,-341.9"/>
<text text-anchor="middle" x="1146" y="-525.3" font-family="Times,serif" font-size="14.00" fill="#000000">DEMO_PER_CREDIT_CARDS</text>
<polyline fill="none" stroke="#000000" points="1007.3814,-517.1 1284.6186,-517.1 "/>
<text text-anchor="middle" x="1035.4943" y="-500.5" font-family="Times,serif" font-size="14.00" fill="#000000">PFI</text>
<text text-anchor="middle" x="1035.4943" y="-483.7" font-family="Times,serif" font-size="14.00" fill="#000000">FI</text>
<text text-anchor="middle" x="1035.4943" y="-466.9" font-family="Times,serif" font-size="14.00" fill="#000000">PI</text>
<text text-anchor="middle" x="1035.4943" y="-450.1" font-family="Times,serif" font-size="14.00" fill="#000000">-</text>
<polyline fill="none" stroke="#000000" points="1063.6072,-441.9 1063.6072,-517.1 "/>
<text text-anchor="middle" x="1141.9705" y="-500.5" font-family="Times,serif" font-size="14.00" fill="#000000">*per_id</text>
<text text-anchor="middle" x="1141.9705" y="-483.7" font-family="Times,serif" font-size="14.00" fill="#000000">*cct_cd</text>
<text text-anchor="middle" x="1141.9705" y="-466.9" font-family="Times,serif" font-size="14.00" fill="#000000">*credit_card_number</text>
<text text-anchor="middle" x="1141.9705" y="-450.1" font-family="Times,serif" font-size="14.00" fill="#000000">*expiry_date</text>
<polyline fill="none" stroke="#000000" points="1220.3338,-441.9 1220.3338,-517.1 "/>
<text text-anchor="middle" x="1252.1371" y="-500.5" font-family="Times,serif" font-size="14.00" fill="#000000">N9,0</text>
<text text-anchor="middle" x="1252.1371" y="-483.7" font-family="Times,serif" font-size="14.00" fill="#000000">C40</text>
<text text-anchor="middle" x="1252.1371" y="-466.9" font-family="Times,serif" font-size="14.00" fill="#000000">C40</text>
<text text-anchor="middle" x="1252.1371" y="-450.1" font-family="Times,serif" font-size="14.00" fill="#000000">D</text>
<polyline fill="none" stroke="#000000" points="1007.3814,-441.9 1284.6186,-441.9 "/>
<text text-anchor="middle" x="1146" y="-425.3" font-family="Times,serif" font-size="14.00" fill="#000000">PK demo_pcc_pk(per_id,credit_card_number)</text>
<text text-anchor="middle" x="1146" y="-408.5" font-family="Times,serif" font-size="14.00" fill="#000000">FK demo_pcc_cct_fk(cct_cd)</text>
<text text-anchor="middle" x="1146" y="-391.7" font-family="Times,serif" font-size="14.00" fill="#000000">FK demo_pcc_per_fk(per_id)</text>
<polyline fill="none" stroke="#000000" points="1007.3814,-383.5 1284.6186,-383.5 "/>
<text text-anchor="middle" x="1146" y="-366.9" font-family="Times,serif" font-size="14.00" fill="#000000">UI demo_pcc_pk(per_id,credit_card_number)</text>
<text text-anchor="middle" x="1146" y="-350.1" font-family="Times,serif" font-size="14.00" fill="#000000">NU demo_pcc_cct_fk_i(cct_cd)</text>
</g>
<!-- DEMO_CREDIT_CARD_TYPES&#45;&gt;DEMO_PER_CREDIT_CARDS -->
<g id="edge16" class="edge">
<title>DEMO_CREDIT_CARD_TYPES-&gt;DEMO_PER_CREDIT_CARDS</title>
<path fill="none" stroke="#000000" d="M1174.6126,-751.0844C1169.8108,-699.1966 1162.6412,-621.7232 1156.6804,-557.3106"/>
<polygon fill="#000000" stroke="#000000" points="1156.6542,-557.0269 1161.9932,-541.4687 1155.963,-549.5588 1155.2719,-542.0907 1155.2719,-542.0907 1155.2719,-542.0907 1155.963,-549.5588 1148.5506,-542.7128 1156.6542,-557.0269 1156.6542,-557.0269"/>
<text text-anchor="middle" x="1210.7574" y="-600.4" font-family="Times,serif" font-size="14.00" fill="#000000">demo_pcc_cct_fk</text>
</g>
<!-- DEMO_DUAL -->
<g id="node3" class="node">
<title>DEMO_DUAL</title>
<polygon fill="#d3d3d3" stroke="#000000" points="493.1108,-1101.5 493.1108,-1151.1 604.8892,-1151.1 604.8892,-1101.5 493.1108,-1101.5"/>
<text text-anchor="middle" x="549" y="-1134.5" font-family="Times,serif" font-size="14.00" fill="#000000">DEMO_DUAL</text>
<polyline fill="none" stroke="#000000" points="493.1108,-1126.3 604.8892,-1126.3 "/>
<text text-anchor="middle" x="503.4411" y="-1109.7" font-family="Times,serif" font-size="14.00" fill="#000000">-</text>
<polyline fill="none" stroke="#000000" points="513.7714,-1101.5 513.7714,-1126.3 "/>
<text text-anchor="middle" x="543.162" y="-1109.7" font-family="Times,serif" font-size="14.00" fill="#000000">dummy</text>
<polyline fill="none" stroke="#000000" points="572.5526,-1101.5 572.5526,-1126.3 "/>
<text text-anchor="middle" x="588.7209" y="-1109.7" font-family="Times,serif" font-size="14.00" fill="#000000">C1</text>
</g>
<!-- DEMO_ORDERS -->
<g id="node4" class="node">
<title>DEMO_ORDERS</title>
<polygon fill="#d3d3d3" stroke="#000000" points="212.0038,-325.1 212.0038,-558.7 407.9962,-558.7 407.9962,-325.1 212.0038,-325.1"/>
<text text-anchor="middle" x="310" y="-542.1" font-family="Times,serif" font-size="14.00" fill="#000000">DEMO_ORDERS</text>
<polyline fill="none" stroke="#000000" points="212.0038,-533.9 407.9962,-533.9 "/>
<text text-anchor="middle" x="232.7254" y="-517.3" font-family="Times,serif" font-size="14.00" fill="#000000">PI</text>
<text text-anchor="middle" x="232.7254" y="-500.5" font-family="Times,serif" font-size="14.00" fill="#000000">FI</text>
<text text-anchor="middle" x="232.7254" y="-483.7" font-family="Times,serif" font-size="14.00" fill="#000000">FI</text>
<text text-anchor="middle" x="232.7254" y="-466.9" font-family="Times,serif" font-size="14.00" fill="#000000">-</text>
<text text-anchor="middle" x="232.7254" y="-450.1" font-family="Times,serif" font-size="14.00" fill="#000000">-</text>
<polyline fill="none" stroke="#000000" points="253.447,-441.9 253.447,-533.9 "/>
<text text-anchor="middle" x="301.8804" y="-517.3" font-family="Times,serif" font-size="14.00" fill="#000000">*ord_id</text>
<text text-anchor="middle" x="301.8804" y="-500.5" font-family="Times,serif" font-size="14.00" fill="#000000">*per_id</text>
<text text-anchor="middle" x="301.8804" y="-483.7" font-family="Times,serif" font-size="14.00" fill="#000000">*sto_id</text>
<text text-anchor="middle" x="301.8804" y="-466.9" font-family="Times,serif" font-size="14.00" fill="#000000">*order_date</text>
<text text-anchor="middle" x="301.8804" y="-450.1" font-family="Times,serif" font-size="14.00" fill="#000000">*total_price</text>
<polyline fill="none" stroke="#000000" points="350.3138,-441.9 350.3138,-533.9 "/>
<text text-anchor="middle" x="379.1171" y="-517.3" font-family="Times,serif" font-size="14.00" fill="#000000">N9,0</text>
<text text-anchor="middle" x="379.1171" y="-500.5" font-family="Times,serif" font-size="14.00" fill="#000000">N9,0</text>
<text text-anchor="middle" x="379.1171" y="-483.7" font-family="Times,serif" font-size="14.00" fill="#000000">N9,0</text>
<text text-anchor="middle" x="379.1171" y="-466.9" font-family="Times,serif" font-size="14.00" fill="#000000">D</text>
<text text-anchor="middle" x="379.1171" y="-450.1" font-family="Times,serif" font-size="14.00" fill="#000000">N9,0</text>
<polyline fill="none" stroke="#000000" points="212.0038,-441.9 407.9962,-441.9 "/>
<text text-anchor="middle" x="310" y="-425.3" font-family="Times,serif" font-size="14.00" fill="#000000">PK demo_ord_pk(ord_id)</text>
<text text-anchor="middle" x="310" y="-408.5" font-family="Times,serif" font-size="14.00" fill="#000000">FK demo_ord_per_fk(per_id)</text>
<text text-anchor="middle" x="310" y="-391.7" font-family="Times,serif" font-size="14.00" fill="#000000">FK demo_ord_sto_fk(sto_id)</text>
<polyline fill="none" stroke="#000000" points="212.0038,-383.5 407.9962,-383.5 "/>
<text text-anchor="middle" x="310" y="-366.9" font-family="Times,serif" font-size="14.00" fill="#000000">UI demo_ord_pk(ord_id)</text>
<text text-anchor="middle" x="310" y="-350.1" font-family="Times,serif" font-size="14.00" fill="#000000">NU demo_ord_sto_fk_i(sto_id)</text>
<text text-anchor="middle" x="310" y="-333.3" font-family="Times,serif" font-size="14.00" fill="#000000">NU demo_ord_per_fk_i(per_id)</text>
</g>
<!-- DEMO_ORDER_ITEMS -->
<g id="node7" class="node">
<title>DEMO_ORDER_ITEMS</title>
<polygon fill="#d3d3d3" stroke="#000000" points="67.9102,-16.5 67.9102,-233.3 286.0898,-233.3 286.0898,-16.5 67.9102,-16.5"/>
<text text-anchor="middle" x="177" y="-216.7" font-family="Times,serif" font-size="14.00" fill="#000000">DEMO_ORDER_ITEMS</text>
<polyline fill="none" stroke="#000000" points="67.9102,-208.5 286.0898,-208.5 "/>
<text text-anchor="middle" x="95.5231" y="-191.9" font-family="Times,serif" font-size="14.00" fill="#000000">PFI</text>
<text text-anchor="middle" x="95.5231" y="-175.1" font-family="Times,serif" font-size="14.00" fill="#000000">PI</text>
<text text-anchor="middle" x="95.5231" y="-158.3" font-family="Times,serif" font-size="14.00" fill="#000000">FI</text>
<text text-anchor="middle" x="95.5231" y="-141.5" font-family="Times,serif" font-size="14.00" fill="#000000">-</text>
<text text-anchor="middle" x="95.5231" y="-124.7" font-family="Times,serif" font-size="14.00" fill="#000000">-</text>
<polyline fill="none" stroke="#000000" points="123.136,-116.5 123.136,-208.5 "/>
<text text-anchor="middle" x="172.9018" y="-191.9" font-family="Times,serif" font-size="14.00" fill="#000000">*ord_id</text>
<text text-anchor="middle" x="172.9018" y="-175.1" font-family="Times,serif" font-size="14.00" fill="#000000">*order_line</text>
<text text-anchor="middle" x="172.9018" y="-158.3" font-family="Times,serif" font-size="14.00" fill="#000000">*prd_id</text>
<text text-anchor="middle" x="172.9018" y="-141.5" font-family="Times,serif" font-size="14.00" fill="#000000">*quantity</text>
<text text-anchor="middle" x="172.9018" y="-124.7" font-family="Times,serif" font-size="14.00" fill="#000000">*price</text>
<polyline fill="none" stroke="#000000" points="222.6676,-116.5 222.6676,-208.5 "/>
<text text-anchor="middle" x="253.9709" y="-191.9" font-family="Times,serif" font-size="14.00" fill="#000000">N9,0</text>
<text text-anchor="middle" x="253.9709" y="-175.1" font-family="Times,serif" font-size="14.00" fill="#000000">N3,0</text>
<text text-anchor="middle" x="253.9709" y="-158.3" font-family="Times,serif" font-size="14.00" fill="#000000">N9,0</text>
<text text-anchor="middle" x="253.9709" y="-141.5" font-family="Times,serif" font-size="14.00" fill="#000000">N9,0</text>
<text text-anchor="middle" x="253.9709" y="-124.7" font-family="Times,serif" font-size="14.00" fill="#000000">N9,0</text>
<polyline fill="none" stroke="#000000" points="67.9102,-116.5 286.0898,-116.5 "/>
<text text-anchor="middle" x="177" y="-99.9" font-family="Times,serif" font-size="14.00" fill="#000000">PK demo_oit_pk(ord_id,order_line)</text>
<text text-anchor="middle" x="177" y="-83.1" font-family="Times,serif" font-size="14.00" fill="#000000">FK demo_oit_ord_fk(ord_id)</text>
<text text-anchor="middle" x="177" y="-66.3" font-family="Times,serif" font-size="14.00" fill="#000000">FK demo_oit_prd_fk(prd_id)</text>
<polyline fill="none" stroke="#000000" points="67.9102,-58.1 286.0898,-58.1 "/>
<text text-anchor="middle" x="177" y="-41.5" font-family="Times,serif" font-size="14.00" fill="#000000">UI demo_oit_pk(ord_id,order_line)</text>
<text text-anchor="middle" x="177" y="-24.7" font-family="Times,serif" font-size="14.00" fill="#000000">NU demo_oit_prd_fk_i(prd_id)</text>
</g>
<!-- DEMO_ORDERS&#45;&gt;DEMO_ORDER_ITEMS -->
<g id="edge3" class="edge">
<title>DEMO_ORDERS-&gt;DEMO_ORDER_ITEMS</title>
<path fill="none" stroke="#000000" d="M266.0569,-325.0812C258.8721,-306.8364 251.3652,-288.2533 244,-270.8 240.7426,-263.0809 237.3264,-255.1631 233.8337,-247.1996"/>
<polygon fill="#000000" stroke="#000000" points="233.7623,-247.038 233.8652,-230.5895 230.7274,-240.1795 227.6925,-233.3209 227.6925,-233.3209 227.6925,-233.3209 230.7274,-240.1795 221.5198,-236.0523 233.7623,-247.038 233.7623,-247.038"/>
<text text-anchor="middle" x="298.6038" y="-275" font-family="Times,serif" font-size="14.00" fill="#000000">demo_oit_ord_fk</text>
</g>
<!-- DEMO_PER_TRANSACTIONS -->
<g id="node14" class="node">
<title>DEMO_PER_TRANSACTIONS</title>
<polygon fill="#d3d3d3" stroke="#000000" points="372.2492,-16.5 372.2492,-233.3 751.7508,-233.3 751.7508,-16.5 372.2492,-16.5"/>
<text text-anchor="middle" x="562" y="-216.7" font-family="Times,serif" font-size="14.00" fill="#000000">DEMO_PER_TRANSACTIONS</text>
<polyline fill="none" stroke="#000000" points="372.2492,-208.5 751.7508,-208.5 "/>
<text text-anchor="middle" x="414.8621" y="-191.9" font-family="Times,serif" font-size="14.00" fill="#000000">PFI</text>
<text text-anchor="middle" x="414.8621" y="-175.1" font-family="Times,serif" font-size="14.00" fill="#000000">FI</text>
<text text-anchor="middle" x="414.8621" y="-158.3" font-family="Times,serif" font-size="14.00" fill="#000000">PFI</text>
<text text-anchor="middle" x="414.8621" y="-141.5" font-family="Times,serif" font-size="14.00" fill="#000000">PI</text>
<text text-anchor="middle" x="414.8621" y="-124.7" font-family="Times,serif" font-size="14.00" fill="#000000">-</text>
<polyline fill="none" stroke="#000000" points="457.475,-116.5 457.475,-208.5 "/>
<text text-anchor="middle" x="557.3488" y="-191.9" font-family="Times,serif" font-size="14.00" fill="#000000">*per_id</text>
<text text-anchor="middle" x="557.3488" y="-175.1" font-family="Times,serif" font-size="14.00" fill="#000000">*ord_id</text>
<text text-anchor="middle" x="557.3488" y="-158.3" font-family="Times,serif" font-size="14.00" fill="#000000">*credit_card_nbr</text>
<text text-anchor="middle" x="557.3488" y="-141.5" font-family="Times,serif" font-size="14.00" fill="#000000">*transaction_timestamp</text>
<text text-anchor="middle" x="557.3488" y="-124.7" font-family="Times,serif" font-size="14.00" fill="#000000">*transaction_amount</text>
<polyline fill="none" stroke="#000000" points="657.2226,-116.5 657.2226,-208.5 "/>
<text text-anchor="middle" x="704.0259" y="-191.9" font-family="Times,serif" font-size="14.00" fill="#000000">N9,0</text>
<text text-anchor="middle" x="704.0259" y="-175.1" font-family="Times,serif" font-size="14.00" fill="#000000">N9,0</text>
<text text-anchor="middle" x="704.0259" y="-158.3" font-family="Times,serif" font-size="14.00" fill="#000000">C40</text>
<text text-anchor="middle" x="704.0259" y="-141.5" font-family="Times,serif" font-size="14.00" fill="#000000">T</text>
<text text-anchor="middle" x="704.0259" y="-124.7" font-family="Times,serif" font-size="14.00" fill="#000000">N</text>
<polyline fill="none" stroke="#000000" points="372.2492,-116.5 751.7508,-116.5 "/>
<text text-anchor="middle" x="562" y="-99.9" font-family="Times,serif" font-size="14.00" fill="#000000">PK demo_ptr_pk(per_id,credit_card_nbr,transaction_timestamp)</text>
<text text-anchor="middle" x="562" y="-83.1" font-family="Times,serif" font-size="14.00" fill="#000000">FK demo_ptr_ord_fk(ord_id)</text>
<text text-anchor="middle" x="562" y="-66.3" font-family="Times,serif" font-size="14.00" fill="#000000">FK demo_ptr_pcc_fk(per_id,credit_card_nbr)</text>
<polyline fill="none" stroke="#000000" points="372.2492,-58.1 751.7508,-58.1 "/>
<text text-anchor="middle" x="562" y="-41.5" font-family="Times,serif" font-size="14.00" fill="#000000">UI demo_ptr_pk(per_id,credit_card_nbr,transaction_timestamp)</text>
<text text-anchor="middle" x="562" y="-24.7" font-family="Times,serif" font-size="14.00" fill="#000000">NU demo_ptr_ord_fk_i(ord_id)</text>
</g>
<!-- DEMO_ORDERS&#45;&gt;DEMO_PER_TRANSACTIONS -->
<g id="edge18" class="edge">
<title>DEMO_ORDERS-&gt;DEMO_PER_TRANSACTIONS</title>
<path fill="none" stroke="#000000" d="M403.1195,-324.7615C423.7281,-298.8372 445.5986,-271.3256 466.3078,-245.2748"/>
<polygon fill="#000000" stroke="#000000" points="466.3981,-245.1611 481.0162,-237.6196 471.0652,-239.2901 475.7324,-233.4192 475.7324,-233.4192 475.7324,-233.4192 471.0652,-239.2901 470.4485,-229.2188 466.3981,-245.1611 466.3981,-245.1611"/>
<text text-anchor="middle" x="493.9888" y="-275" font-family="Times,serif" font-size="14.00" fill="#000000">demo_ptr_ord_fk</text>
</g>
<!-- DEMO_PERSONS&#45;&gt;DEMO_ORDERS -->
<g id="edge1" class="edge">
<title>DEMO_PERSONS-&gt;DEMO_ORDERS</title>
<path fill="none" stroke="#000000" d="M329.5399,-650.4937C328.2147,-637.8106 326.9193,-625.1941 325.6984,-613 324.4244,-600.2765 323.137,-587.0165 321.8762,-573.7565"/>
<polygon fill="#000000" stroke="#000000" points="321.8755,-573.7478 327.1864,-558.18 321.1709,-566.281 320.4663,-558.8142 320.4663,-558.8142 320.4663,-558.8142 321.1709,-566.281 313.7461,-559.4483 321.8755,-573.7478 321.8755,-573.7478"/>
<text text-anchor="middle" x="375.1508" y="-600.4" font-family="Times,serif" font-size="14.00" fill="#000000">demo_ord_per_fk</text>
</g>
<!-- DEMO_PERSONS&#45;&gt;DEMO_PERSONS -->
<!-- DEMO_PERSONS&#45;&gt;DEMO_PERSONS -->
<!-- DEMO_PERSONS&#45;&gt;DEMO_PERSONS -->
<g id="edge12" class="edge">
<title>DEMO_PERSONS-&gt;DEMO_PERSONS</title>
<path fill="none" stroke="#000000" d="M472.607,-841.7844C503.3342,-839.3781 526.201,-828.55 526.201,-809.3 526.201,-793.3586 510.5192,-783.1928 487.6779,-778.8027"/>
<polygon fill="#000000" stroke="#000000" points="487.4782,-778.7765 473.4893,-770.1235 480.0426,-777.7961 472.607,-776.8156 472.607,-776.8156 472.607,-776.8156 480.0426,-777.7961 471.7246,-783.5077 487.4782,-778.7765 487.4782,-778.7765"/>
<text text-anchor="middle" x="575.9591" y="-805.1" font-family="Times,serif" font-size="14.00" fill="#000000">demo_per_per_fk</text>
</g>
<!-- DEMO_PER_ASSIGNMENTS -->
<g id="node11" class="node">
<title>DEMO_PER_ASSIGNMENTS</title>
<polygon fill="#d3d3d3" stroke="#000000" points="768.3639,-341.9 768.3639,-541.9 989.6361,-541.9 989.6361,-341.9 768.3639,-341.9"/>
<text text-anchor="middle" x="879" y="-525.3" font-family="Times,serif" font-size="14.00" fill="#000000">DEMO_PER_ASSIGNMENTS</text>
<polyline fill="none" stroke="#000000" points="768.3639,-517.1 989.6361,-517.1 "/>
<text text-anchor="middle" x="796.4768" y="-500.5" font-family="Times,serif" font-size="14.00" fill="#000000">PFI</text>
<text text-anchor="middle" x="796.4768" y="-483.7" font-family="Times,serif" font-size="14.00" fill="#000000">PI</text>
<text text-anchor="middle" x="796.4768" y="-466.9" font-family="Times,serif" font-size="14.00" fill="#000000">-</text>
<text text-anchor="middle" x="796.4768" y="-450.1" font-family="Times,serif" font-size="14.00" fill="#000000">FI</text>
<polyline fill="none" stroke="#000000" points="824.5897,-441.9 824.5897,-517.1 "/>
<text text-anchor="middle" x="874.8555" y="-500.5" font-family="Times,serif" font-size="14.00" fill="#000000">*per_id</text>
<text text-anchor="middle" x="874.8555" y="-483.7" font-family="Times,serif" font-size="14.00" fill="#000000">*date_from</text>
<text text-anchor="middle" x="874.8555" y="-466.9" font-family="Times,serif" font-size="14.00" fill="#000000">*date_to</text>
<text text-anchor="middle" x="874.8555" y="-450.1" font-family="Times,serif" font-size="14.00" fill="#000000">*oen_id</text>
<polyline fill="none" stroke="#000000" points="925.1213,-441.9 925.1213,-517.1 "/>
<text text-anchor="middle" x="956.9246" y="-500.5" font-family="Times,serif" font-size="14.00" fill="#000000">N9,0</text>
<text text-anchor="middle" x="956.9246" y="-483.7" font-family="Times,serif" font-size="14.00" fill="#000000">D</text>
<text text-anchor="middle" x="956.9246" y="-466.9" font-family="Times,serif" font-size="14.00" fill="#000000">D</text>
<text text-anchor="middle" x="956.9246" y="-450.1" font-family="Times,serif" font-size="14.00" fill="#000000">N9,0</text>
<polyline fill="none" stroke="#000000" points="768.3639,-441.9 989.6361,-441.9 "/>
<text text-anchor="middle" x="879" y="-425.3" font-family="Times,serif" font-size="14.00" fill="#000000">PK demo_pas_pk(per_id,date_from)</text>
<text text-anchor="middle" x="879" y="-408.5" font-family="Times,serif" font-size="14.00" fill="#000000">FK demo_pas_oen_fk(oen_id)</text>
<text text-anchor="middle" x="879" y="-391.7" font-family="Times,serif" font-size="14.00" fill="#000000">FK demo_pas_per_fk(per_id)</text>
<polyline fill="none" stroke="#000000" points="768.3639,-383.5 989.6361,-383.5 "/>
<text text-anchor="middle" x="879" y="-366.9" font-family="Times,serif" font-size="14.00" fill="#000000">UI demo_pas_pk(per_id,date_from)</text>
<text text-anchor="middle" x="879" y="-350.1" font-family="Times,serif" font-size="14.00" fill="#000000">NU demo_pas_oen_fk_i(oen_id)</text>
</g>
<!-- DEMO_PERSONS&#45;&gt;DEMO_PER_ASSIGNMENTS -->
<g id="edge14" class="edge">
<title>DEMO_PERSONS-&gt;DEMO_PER_ASSIGNMENTS</title>
<path fill="none" stroke="#000000" d="M472.489,-686.7524C512.4471,-653.2388 558.5818,-619.7172 605.6998,-596.2 668.4123,-564.8994 697.6736,-593.136 759,-559.2 763.666,-556.618 768.2782,-553.8055 772.8206,-550.8087"/>
<polygon fill="#000000" stroke="#000000" points="773.1683,-550.5634 789.3156,-547.4283 779.2957,-546.2385 785.4232,-541.9136 785.4232,-541.9136 785.4232,-541.9136 779.2957,-546.2385 781.5308,-536.3989 773.1683,-550.5634 773.1683,-550.5634"/>
<text text-anchor="middle" x="655.1501" y="-600.4" font-family="Times,serif" font-size="14.00" fill="#000000">demo_pas_per_fk</text>
</g>
<!-- DEMO_PER_CLOCKINGS -->
<g id="node12" class="node">
<title>DEMO_PER_CLOCKINGS</title>
<polygon fill="#d3d3d3" stroke="#000000" points="425.8432,-358.7 425.8432,-525.1 750.1568,-525.1 750.1568,-358.7 425.8432,-358.7"/>
<text text-anchor="middle" x="588" y="-508.5" font-family="Times,serif" font-size="14.00" fill="#000000">DEMO_PER_CLOCKINGS</text>
<polyline fill="none" stroke="#000000" points="425.8432,-500.3 750.1568,-500.3 "/>
<text text-anchor="middle" x="467.4561" y="-483.7" font-family="Times,serif" font-size="14.00" fill="#000000">PFI</text>
<text text-anchor="middle" x="467.4561" y="-466.9" font-family="Times,serif" font-size="14.00" fill="#000000">PI</text>
<text text-anchor="middle" x="467.4561" y="-450.1" font-family="Times,serif" font-size="14.00" fill="#000000">PI</text>
<text text-anchor="middle" x="467.4561" y="-433.3" font-family="Times,serif" font-size="14.00" fill="#000000">-</text>
<polyline fill="none" stroke="#000000" points="509.069,-425.1 509.069,-500.3 "/>
<text text-anchor="middle" x="584.1174" y="-483.7" font-family="Times,serif" font-size="14.00" fill="#000000">*per_id</text>
<text text-anchor="middle" x="584.1174" y="-466.9" font-family="Times,serif" font-size="14.00" fill="#000000">*clocking_date</text>
<text text-anchor="middle" x="584.1174" y="-450.1" font-family="Times,serif" font-size="14.00" fill="#000000">*clocking_time</text>
<text text-anchor="middle" x="584.1174" y="-433.3" font-family="Times,serif" font-size="14.00" fill="#000000">*clocking_type</text>
<polyline fill="none" stroke="#000000" points="659.1658,-425.1 659.1658,-500.3 "/>
<text text-anchor="middle" x="704.4691" y="-483.7" font-family="Times,serif" font-size="14.00" fill="#000000">N9,0</text>
<text text-anchor="middle" x="704.4691" y="-466.9" font-family="Times,serif" font-size="14.00" fill="#000000">D</text>
<text text-anchor="middle" x="704.4691" y="-450.1" font-family="Times,serif" font-size="14.00" fill="#000000">C8</text>
<text text-anchor="middle" x="704.4691" y="-433.3" font-family="Times,serif" font-size="14.00" fill="#000000">C3</text>
<polyline fill="none" stroke="#000000" points="425.8432,-425.1 750.1568,-425.1 "/>
<text text-anchor="middle" x="588" y="-408.5" font-family="Times,serif" font-size="14.00" fill="#000000">PK demo_pcl_pk(per_id,clocking_date,clocking_time)</text>
<text text-anchor="middle" x="588" y="-391.7" font-family="Times,serif" font-size="14.00" fill="#000000">FK demo_pcl_per_fk(per_id)</text>
<polyline fill="none" stroke="#000000" points="425.8432,-383.5 750.1568,-383.5 "/>
<text text-anchor="middle" x="588" y="-366.9" font-family="Times,serif" font-size="14.00" fill="#000000">UI demo_pcl_pk(per_id,clocking_date,clocking_time)</text>
</g>
<!-- DEMO_PERSONS&#45;&gt;DEMO_PER_CLOCKINGS -->
<g id="edge15" class="edge">
<title>DEMO_PERSONS-&gt;DEMO_PER_CLOCKINGS</title>
<path fill="none" stroke="#000000" d="M434.0832,-650.374C445.2015,-631.8718 456.7321,-613.4586 468.2538,-596.2 481.2887,-576.6747 496.0315,-556.4248 510.6051,-537.2703"/>
<polygon fill="#000000" stroke="#000000" points="510.752,-537.079 525.2416,-529.2935 515.32,-531.1306 519.8881,-525.1822 519.8881,-525.1822 519.8881,-525.1822 515.32,-531.1306 514.5345,-521.071 510.752,-537.079 510.752,-537.079"/>
<text text-anchor="middle" x="517.3731" y="-600.4" font-family="Times,serif" font-size="14.00" fill="#000000">demo_pcl_per_fk</text>
</g>
<!-- DEMO_PERSONS&#45;&gt;DEMO_PER_CREDIT_CARDS -->
<g id="edge17" class="edge">
<title>DEMO_PERSONS-&gt;DEMO_PER_CREDIT_CARDS</title>
<path fill="none" stroke="#000000" d="M472.4777,-741.2781C571.4733,-687.5181 694.7445,-620.3268 706,-613 716.2898,-606.3018 716.5959,-600.9211 727.9298,-596.2 840.1742,-549.4454 887.2235,-607.0625 999,-559.2 1005.5938,-556.3766 1012.1384,-553.1739 1018.5937,-549.6779"/>
<polygon fill="#000000" stroke="#000000" points="1018.7113,-549.6101 1035.0777,-547.9648 1025.2086,-545.8637 1031.7059,-542.1173 1031.7059,-542.1173 1031.7059,-542.1173 1025.2086,-545.8637 1028.3342,-536.2697 1018.7113,-549.6101 1018.7113,-549.6101"/>
<text text-anchor="middle" x="777.5351" y="-600.4" font-family="Times,serif" font-size="14.00" fill="#000000">demo_pcc_per_fk</text>
</g>
<!-- DEMO_STORES -->
<g id="node6" class="node">
<title>DEMO_STORES</title>
<polygon fill="#d3d3d3" stroke="#000000" points="41.845,-751.3 41.845,-867.3 204.155,-867.3 204.155,-751.3 41.845,-751.3"/>
<text text-anchor="middle" x="123" y="-850.7" font-family="Times,serif" font-size="14.00" fill="#000000">DEMO_STORES</text>
<polyline fill="none" stroke="#000000" points="41.845,-842.5 204.155,-842.5 "/>
<text text-anchor="middle" x="56.0666" y="-825.9" font-family="Times,serif" font-size="14.00" fill="#000000">PI</text>
<text text-anchor="middle" x="56.0666" y="-809.1" font-family="Times,serif" font-size="14.00" fill="#000000">-</text>
<polyline fill="none" stroke="#000000" points="70.2882,-800.9 70.2882,-842.5 "/>
<text text-anchor="middle" x="114.0533" y="-825.9" font-family="Times,serif" font-size="14.00" fill="#000000">*sto_id</text>
<text text-anchor="middle" x="114.0533" y="-809.1" font-family="Times,serif" font-size="14.00" fill="#000000">*store_name</text>
<polyline fill="none" stroke="#000000" points="157.8184,-800.9 157.8184,-842.5 "/>
<text text-anchor="middle" x="180.9867" y="-825.9" font-family="Times,serif" font-size="14.00" fill="#000000">N9,0</text>
<text text-anchor="middle" x="180.9867" y="-809.1" font-family="Times,serif" font-size="14.00" fill="#000000">C100</text>
<polyline fill="none" stroke="#000000" points="41.845,-800.9 204.155,-800.9 "/>
<text text-anchor="middle" x="123" y="-784.3" font-family="Times,serif" font-size="14.00" fill="#000000">PK demo_sto_pk(sto_id)</text>
<polyline fill="none" stroke="#000000" points="41.845,-776.1 204.155,-776.1 "/>
<text text-anchor="middle" x="123" y="-759.5" font-family="Times,serif" font-size="14.00" fill="#000000">UI demo_sto_pk(sto_id)</text>
</g>
<!-- DEMO_STORES&#45;&gt;DEMO_ORDERS -->
<g id="edge2" class="edge">
<title>DEMO_STORES-&gt;DEMO_ORDERS</title>
<path fill="none" stroke="#000000" d="M148.0915,-751.1902C167.1662,-707.9591 194.586,-647.7725 221.2384,-596.2 225.3325,-588.2778 229.6315,-580.1811 234.037,-572.05"/>
<polygon fill="#000000" stroke="#000000" points="234.0784,-571.9743 247.2018,-562.0577 237.6796,-565.3954 241.2809,-558.8166 241.2809,-558.8166 241.2809,-558.8166 237.6796,-565.3954 235.3599,-555.5754 234.0784,-571.9743 234.0784,-571.9743"/>
<text text-anchor="middle" x="270.3808" y="-600.4" font-family="Times,serif" font-size="14.00" fill="#000000">demo_ord_sto_fk</text>
</g>
<!-- DEMO_PRODUCTS -->
<g id="node8" class="node">
<title>DEMO_PRODUCTS</title>
<polygon fill="#d3d3d3" stroke="#000000" points="16.0673,-375.5 16.0673,-508.3 193.9327,-508.3 193.9327,-375.5 16.0673,-375.5"/>
<text text-anchor="middle" x="105" y="-491.7" font-family="Times,serif" font-size="14.00" fill="#000000">DEMO_PRODUCTS</text>
<polyline fill="none" stroke="#000000" points="16.0673,-483.5 193.9327,-483.5 "/>
<text text-anchor="middle" x="30.2889" y="-466.9" font-family="Times,serif" font-size="14.00" fill="#000000">PI</text>
<text text-anchor="middle" x="30.2889" y="-450.1" font-family="Times,serif" font-size="14.00" fill="#000000">-</text>
<text text-anchor="middle" x="30.2889" y="-433.3" font-family="Times,serif" font-size="14.00" fill="#000000">-</text>
<polyline fill="none" stroke="#000000" points="44.5105,-425.1 44.5105,-483.5 "/>
<text text-anchor="middle" x="96.0533" y="-466.9" font-family="Times,serif" font-size="14.00" fill="#000000">*prd_id</text>
<text text-anchor="middle" x="96.0533" y="-450.1" font-family="Times,serif" font-size="14.00" fill="#000000">*product_name</text>
<text text-anchor="middle" x="96.0533" y="-433.3" font-family="Times,serif" font-size="14.00" fill="#000000">unit_price</text>
<polyline fill="none" stroke="#000000" points="147.5961,-425.1 147.5961,-483.5 "/>
<text text-anchor="middle" x="170.7644" y="-466.9" font-family="Times,serif" font-size="14.00" fill="#000000">N9,0</text>
<text text-anchor="middle" x="170.7644" y="-450.1" font-family="Times,serif" font-size="14.00" fill="#000000">C100</text>
<text text-anchor="middle" x="170.7644" y="-433.3" font-family="Times,serif" font-size="14.00" fill="#000000">N9,0</text>
<polyline fill="none" stroke="#000000" points="16.0673,-425.1 193.9327,-425.1 "/>
<text text-anchor="middle" x="105" y="-408.5" font-family="Times,serif" font-size="14.00" fill="#000000">PK demo_prd_pk(prd_id)</text>
<polyline fill="none" stroke="#000000" points="16.0673,-400.3 193.9327,-400.3 "/>
<text text-anchor="middle" x="105" y="-383.7" font-family="Times,serif" font-size="14.00" fill="#000000">UI demo_prd_pk(prd_id)</text>
</g>
<!-- DEMO_PRODUCTS&#45;&gt;DEMO_ORDER_ITEMS -->
<g id="edge4" class="edge">
<title>DEMO_PRODUCTS-&gt;DEMO_ORDER_ITEMS</title>
<path fill="none" stroke="#000000" d="M120.0936,-375.4464C128.4666,-338.5816 139.1488,-291.5505 148.9916,-248.2149"/>
<polygon fill="#000000" stroke="#000000" points="149.0403,-247.9999 158.9451,-234.8675 150.7015,-240.6862 152.3627,-233.3724 152.3627,-233.3724 152.3627,-233.3724 150.7015,-240.6862 145.7804,-231.8774 149.0403,-247.9999 149.0403,-247.9999"/>
<text text-anchor="middle" x="191.6038" y="-275" font-family="Times,serif" font-size="14.00" fill="#000000">demo_oit_prd_fk</text>
</g>
<!-- DEMO_ORG_ENTITIES -->
<g id="node9" class="node">
<title>DEMO_ORG_ENTITIES</title>
<polygon fill="#d3d3d3" stroke="#000000" points="648.8972,-692.5 648.8972,-926.1 893.1028,-926.1 893.1028,-692.5 648.8972,-692.5"/>
<text text-anchor="middle" x="771" y="-909.5" font-family="Times,serif" font-size="14.00" fill="#000000">DEMO_ORG_ENTITIES</text>
<polyline fill="none" stroke="#000000" points="648.8972,-901.3 893.1028,-901.3 "/>
<text text-anchor="middle" x="675.6188" y="-884.7" font-family="Times,serif" font-size="14.00" fill="#000000">PI</text>
<text text-anchor="middle" x="675.6188" y="-867.9" font-family="Times,serif" font-size="14.00" fill="#000000">-</text>
<text text-anchor="middle" x="675.6188" y="-851.1" font-family="Times,serif" font-size="14.00" fill="#000000">-</text>
<text text-anchor="middle" x="675.6188" y="-834.3" font-family="Times,serif" font-size="14.00" fill="#000000">FI</text>
<text text-anchor="middle" x="675.6188" y="-817.5" font-family="Times,serif" font-size="14.00" fill="#000000">FI</text>
<polyline fill="none" stroke="#000000" points="702.3404,-809.3 702.3404,-901.3 "/>
<text text-anchor="middle" x="762.8832" y="-884.7" font-family="Times,serif" font-size="14.00" fill="#000000">*oen_id</text>
<text text-anchor="middle" x="762.8832" y="-867.9" font-family="Times,serif" font-size="14.00" fill="#000000">*oen_cd</text>
<text text-anchor="middle" x="762.8832" y="-851.1" font-family="Times,serif" font-size="14.00" fill="#000000">*oen_name</text>
<text text-anchor="middle" x="762.8832" y="-834.3" font-family="Times,serif" font-size="14.00" fill="#000000">*oet_cd</text>
<text text-anchor="middle" x="762.8832" y="-817.5" font-family="Times,serif" font-size="14.00" fill="#000000">oen_id_parent</text>
<polyline fill="none" stroke="#000000" points="823.426,-809.3 823.426,-901.3 "/>
<text text-anchor="middle" x="858.2293" y="-884.7" font-family="Times,serif" font-size="14.00" fill="#000000">N9,0</text>
<text text-anchor="middle" x="858.2293" y="-867.9" font-family="Times,serif" font-size="14.00" fill="#000000">C30</text>
<text text-anchor="middle" x="858.2293" y="-851.1" font-family="Times,serif" font-size="14.00" fill="#000000">C60</text>
<text text-anchor="middle" x="858.2293" y="-834.3" font-family="Times,serif" font-size="14.00" fill="#000000">C10</text>
<text text-anchor="middle" x="858.2293" y="-817.5" font-family="Times,serif" font-size="14.00" fill="#000000">N9,0</text>
<polyline fill="none" stroke="#000000" points="648.8972,-809.3 893.1028,-809.3 "/>
<text text-anchor="middle" x="771" y="-792.7" font-family="Times,serif" font-size="14.00" fill="#000000">PK demo_oen_pk(oen_id)</text>
<text text-anchor="middle" x="771" y="-775.9" font-family="Times,serif" font-size="14.00" fill="#000000">FK demo_oen_oen_fk(oen_id_parent)</text>
<text text-anchor="middle" x="771" y="-759.1" font-family="Times,serif" font-size="14.00" fill="#000000">FK demo_oen_oet_fk(oet_cd)</text>
<polyline fill="none" stroke="#000000" points="648.8972,-750.9 893.1028,-750.9 "/>
<text text-anchor="middle" x="771" y="-734.3" font-family="Times,serif" font-size="14.00" fill="#000000">UI demo_oen_pk(oen_id)</text>
<text text-anchor="middle" x="771" y="-717.5" font-family="Times,serif" font-size="14.00" fill="#000000">NU demo_oen_oet_fk_i(oet_cd)</text>
<text text-anchor="middle" x="771" y="-700.7" font-family="Times,serif" font-size="14.00" fill="#000000">NU demo_oen_oen_fk_i(oen_id_parent)</text>
</g>
<!-- DEMO_ORG_ENTITIES&#45;&gt;DEMO_ORG_ENTITIES -->
<!-- DEMO_ORG_ENTITIES&#45;&gt;DEMO_ORG_ENTITIES -->
<!-- DEMO_ORG_ENTITIES&#45;&gt;DEMO_ORG_ENTITIES -->
<g id="edge7" class="edge">
<title>DEMO_ORG_ENTITIES-&gt;DEMO_ORG_ENTITIES</title>
<path fill="none" stroke="#000000" d="M893.218,-841.8765C924.0254,-839.6667 947.1028,-828.8078 947.1028,-809.3 947.1028,-793.1451 931.2765,-782.9216 908.3401,-778.6294"/>
<polygon fill="#000000" stroke="#000000" points="908.1002,-778.5993 894.0621,-770.0265 900.6591,-777.6614 893.218,-776.7235 893.218,-776.7235 893.218,-776.7235 900.6591,-777.6614 892.3739,-783.4205 908.1002,-778.5993 908.1002,-778.5993"/>
<text text-anchor="middle" x="999.2003" y="-805.1" font-family="Times,serif" font-size="14.00" fill="#000000">demo_oen_oen_fk</text>
</g>
<!-- DEMO_ORG_ENTITIES&#45;&gt;DEMO_PER_ASSIGNMENTS -->
<g id="edge13" class="edge">
<title>DEMO_ORG_ENTITIES-&gt;DEMO_PER_ASSIGNMENTS</title>
<path fill="none" stroke="#000000" d="M808.8792,-692.2582C817.0478,-666.2305 825.4822,-638.7286 833,-613 838.3018,-594.8554 843.709,-575.5621 848.8655,-556.7173"/>
<polygon fill="#000000" stroke="#000000" points="848.9105,-556.5516 859.3602,-543.8485 850.8786,-549.3144 852.8467,-542.0772 852.8467,-542.0772 852.8467,-542.0772 850.8786,-549.3144 846.3333,-540.3059 848.9105,-556.5516 848.9105,-556.5516"/>
<text text-anchor="middle" x="888.3198" y="-600.4" font-family="Times,serif" font-size="14.00" fill="#000000">demo_pas_oen_fk</text>
</g>
<!-- DEMO_ORG_ENTITY_TYPES -->
<g id="node10" class="node">
<title>DEMO_ORG_ENTITY_TYPES</title>
<polygon fill="#d3d3d3" stroke="#000000" points="670.4656,-1059.9 670.4656,-1192.7 871.5344,-1192.7 871.5344,-1059.9 670.4656,-1059.9"/>
<text text-anchor="middle" x="771" y="-1176.1" font-family="Times,serif" font-size="14.00" fill="#000000">DEMO_ORG_ENTITY_TYPES</text>
<polyline fill="none" stroke="#000000" points="670.4656,-1167.9 871.5344,-1167.9 "/>
<text text-anchor="middle" x="693.1872" y="-1151.3" font-family="Times,serif" font-size="14.00" fill="#000000">PI</text>
<text text-anchor="middle" x="693.1872" y="-1134.5" font-family="Times,serif" font-size="14.00" fill="#000000">-</text>
<text text-anchor="middle" x="693.1872" y="-1117.7" font-family="Times,serif" font-size="14.00" fill="#000000">-</text>
<polyline fill="none" stroke="#000000" points="715.9088,-1109.5 715.9088,-1167.9 "/>
<text text-anchor="middle" x="763.1213" y="-1151.3" font-family="Times,serif" font-size="14.00" fill="#000000">*oet_cd</text>
<text text-anchor="middle" x="763.1213" y="-1134.5" font-family="Times,serif" font-size="14.00" fill="#000000">*oet_name</text>
<text text-anchor="middle" x="763.1213" y="-1117.7" font-family="Times,serif" font-size="14.00" fill="#000000">*oet_level</text>
<polyline fill="none" stroke="#000000" points="810.3338,-1109.5 810.3338,-1167.9 "/>
<text text-anchor="middle" x="840.6371" y="-1151.3" font-family="Times,serif" font-size="14.00" fill="#000000">C10</text>
<text text-anchor="middle" x="840.6371" y="-1134.5" font-family="Times,serif" font-size="14.00" fill="#000000">C30</text>
<text text-anchor="middle" x="840.6371" y="-1117.7" font-family="Times,serif" font-size="14.00" fill="#000000">N2,0</text>
<polyline fill="none" stroke="#000000" points="670.4656,-1109.5 871.5344,-1109.5 "/>
<text text-anchor="middle" x="771" y="-1092.9" font-family="Times,serif" font-size="14.00" fill="#000000">PK demo_oet_pk(oet_cd)</text>
<polyline fill="none" stroke="#000000" points="670.4656,-1084.7 871.5344,-1084.7 "/>
<text text-anchor="middle" x="771" y="-1068.1" font-family="Times,serif" font-size="14.00" fill="#000000">UI demo_oet_pk(oet_cd)</text>
</g>
<!-- DEMO_ORG_ENTITY_TYPES&#45;&gt;DEMO_ORG_ENTITIES -->
<g id="edge8" class="edge">
<title>DEMO_ORG_ENTITY_TYPES-&gt;DEMO_ORG_ENTITIES</title>
<path fill="none" stroke="#000000" d="M771,-1059.8464C771,-1025.481 771,-982.281 771,-941.4758"/>
<polygon fill="#000000" stroke="#000000" points="771.0001,-941.275 777.75,-926.2749 771,-933.775 771,-926.275 771,-926.275 771,-926.275 771,-933.775 764.25,-926.275 771.0001,-941.275 771.0001,-941.275"/>
<text text-anchor="middle" x="821.5428" y="-1009.8" font-family="Times,serif" font-size="14.00" fill="#000000">demo_oen_oet_fk</text>
</g>
<!-- DEMO_PER_CREDIT_CARDS&#45;&gt;DEMO_PER_TRANSACTIONS -->
<g id="edge19" class="edge">
<title>DEMO_PER_CREDIT_CARDS-&gt;DEMO_PER_TRANSACTIONS</title>
<path fill="none" stroke="#000000" d="M1024.9283,-341.6251C1016.3135,-335.6358 1007.6232,-329.8996 999,-324.6 925.9929,-279.7315 841.2076,-238.715 765.8538,-205.6843"/>
<polygon fill="#000000" stroke="#000000" points="765.6522,-205.5966 754.5921,-193.4213 758.7753,-202.6036 751.8983,-199.6105 751.8983,-199.6105 751.8983,-199.6105 758.7753,-202.6036 749.2046,-205.7998 765.6522,-205.5966 765.6522,-205.5966"/>
<text text-anchor="middle" x="981.3731" y="-275" font-family="Times,serif" font-size="14.00" fill="#000000">demo_ptr_pcc_fk</text>
</g>
</g>
</svg>