<?xml version="1.0" encoding="UTF-8" standalone="no"?><!DOCTYPE svg PUBLIC "-//W3C//DTD SVG 1.1//EN" "http://www.w3.org/Graphics/SVG/1.1/DTD/svg11.dtd"><!-- Generated by graphviz version 2.40.1 (20161225.0304)
 --><!-- Title: ds_graph Pages: 1 --><svg xmlns="http://www.w3.org/2000/svg" xmlns:xlink="http://www.w3.org/1999/xlink" width="1131pt" height="740pt" viewBox="0.00 0.00 1131.00 739.60">
<g id="graph0" class="graph" transform="scale(1 1) rotate(0) translate(4 735.6)">
<title>ds_graph</title>
<polygon fill="#ffffff" stroke="transparent" points="-4,4 -4,-735.6 1127,-735.6 1127,4 -4,4"/>
<g id="clust1" class="cluster">
<title>cluster_main</title>
<polygon fill="none" stroke="#000000" points="8,-8 8,-723.6 1115,-723.6 1115,-8 8,-8"/>
<text text-anchor="start" x="474.0189" y="-708" font-family="Times,serif" font-weight="bold" font-size="14.00" fill="#000000">All tables and masked columns</text>
</g>
<!-- DEMO_COUNTRIES -->
<g id="node1" class="node">
<title>DEMO_COUNTRIES</title>
<path fill="#d3d3d3" stroke="#000000" d="M181.6041,-615.9C181.6041,-615.9 344.3959,-615.9 344.3959,-615.9 350.3959,-615.9 356.3959,-621.9 356.3959,-627.9 356.3959,-627.9 356.3959,-678.3 356.3959,-678.3 356.3959,-684.3 350.3959,-690.3 344.3959,-690.3 344.3959,-690.3 181.6041,-690.3 181.6041,-690.3 175.6041,-690.3 169.6041,-684.3 169.6041,-678.3 169.6041,-678.3 169.6041,-627.9 169.6041,-627.9 169.6041,-621.9 175.6041,-615.9 181.6041,-615.9"/>
<text text-anchor="middle" x="263" y="-673.7" font-family="Times,serif" font-size="14.00" fill="#000000">DEMO_COUNTRIES</text>
<polyline fill="none" stroke="#000000" points="169.6041,-665.5 356.3959,-665.5 "/>
<text text-anchor="middle" x="183.8257" y="-648.9" font-family="Times,serif" font-size="14.00" fill="#000000">PI</text>
<polyline fill="none" stroke="#000000" points="198.0473,-640.7 198.0473,-665.5 "/>
<text text-anchor="middle" x="228.2072" y="-648.9" font-family="Times,serif" font-size="14.00" fill="#000000">*cnt_cd</text>
<polyline fill="none" stroke="#000000" points="258.3671,-640.7 258.3671,-665.5 "/>
<text text-anchor="middle" x="307.3815" y="-648.9" font-family="Times,serif" font-size="14.00" fill="#000000">SQL (random)</text>
<polyline fill="none" stroke="#000000" points="169.6041,-640.7 356.3959,-640.7 "/>
<text text-anchor="middle" x="263" y="-624.1" font-family="Times,serif" font-size="14.00" fill="#000000">Stats: 27 rows</text>
</g>
<!-- DEMO_PERSONS -->
<g id="node5" class="node">
<title>DEMO_PERSONS</title>
<path fill="#d3d3d3" stroke="#000000" d="M161.771,-365.7C161.771,-365.7 364.229,-365.7 364.229,-365.7 370.229,-365.7 376.229,-371.7 376.229,-377.7 376.229,-377.7 376.229,-512.1 376.229,-512.1 376.229,-518.1 370.229,-524.1 364.229,-524.1 364.229,-524.1 161.771,-524.1 161.771,-524.1 155.771,-524.1 149.771,-518.1 149.771,-512.1 149.771,-512.1 149.771,-377.7 149.771,-377.7 149.771,-371.7 155.771,-365.7 161.771,-365.7"/>
<text text-anchor="middle" x="263" y="-507.5" font-family="Times,serif" font-size="14.00" fill="#000000">DEMO_PERSONS</text>
<polyline fill="none" stroke="#000000" points="149.771,-499.3 376.229,-499.3 "/>
<text text-anchor="middle" x="163.9926" y="-482.7" font-family="Times,serif" font-size="14.00" fill="#000000">-</text>
<text text-anchor="middle" x="163.9926" y="-465.9" font-family="Times,serif" font-size="14.00" fill="#000000">-</text>
<text text-anchor="middle" x="163.9926" y="-449.1" font-family="Times,serif" font-size="14.00" fill="#000000">-</text>
<text text-anchor="middle" x="163.9926" y="-432.3" font-family="Times,serif" font-size="14.00" fill="#000000">-</text>
<text text-anchor="middle" x="163.9926" y="-415.5" font-family="Times,serif" font-size="14.00" fill="#000000">-</text>
<text text-anchor="middle" x="163.9926" y="-398.7" font-family="Times,serif" font-size="14.00" fill="#000000">FI</text>
<polyline fill="none" stroke="#000000" points="178.2142,-390.5 178.2142,-499.3 "/>
<text text-anchor="middle" x="219.6553" y="-482.7" font-family="Times,serif" font-size="14.00" fill="#000000">*first_name</text>
<text text-anchor="middle" x="219.6553" y="-465.9" font-family="Times,serif" font-size="14.00" fill="#000000">*last_name</text>
<text text-anchor="middle" x="219.6553" y="-449.1" font-family="Times,serif" font-size="14.00" fill="#000000">*full_name</text>
<text text-anchor="middle" x="219.6553" y="-432.3" font-family="Times,serif" font-size="14.00" fill="#000000">*gender</text>
<text text-anchor="middle" x="219.6553" y="-415.5" font-family="Times,serif" font-size="14.00" fill="#000000">*birth_date</text>
<text text-anchor="middle" x="219.6553" y="-398.7" font-family="Times,serif" font-size="14.00" fill="#000000">*nationality</text>
<polyline fill="none" stroke="#000000" points="261.0964,-390.5 261.0964,-499.3 "/>
<text text-anchor="middle" x="318.6627" y="-482.7" font-family="Times,serif" font-size="14.00" fill="#000000">SQL (random)</text>
<text text-anchor="middle" x="318.6627" y="-465.9" font-family="Times,serif" font-size="14.00" fill="#000000">SQL (random)</text>
<text text-anchor="middle" x="318.6627" y="-449.1" font-family="Times,serif" font-size="14.00" fill="#000000">SQL (expression)</text>
<text text-anchor="middle" x="318.6627" y="-432.3" font-family="Times,serif" font-size="14.00" fill="#000000">SQL (expression)</text>
<text text-anchor="middle" x="318.6627" y="-415.5" font-family="Times,serif" font-size="14.00" fill="#000000">SQL (random)</text>
<text text-anchor="middle" x="318.6627" y="-398.7" font-family="Times,serif" font-size="14.00" fill="#000000">SQL (random)</text>
<polyline fill="none" stroke="#000000" points="149.771,-390.5 376.229,-390.5 "/>
<text text-anchor="middle" x="263" y="-373.9" font-family="Times,serif" font-size="14.00" fill="#000000">Stats: 50 rows</text>
</g>
<!-- DEMO_COUNTRIES&#45;&gt;DEMO_PERSONS -->
<g id="edge9" class="edge">
<title>DEMO_COUNTRIES-&gt;DEMO_PERSONS</title>
<path fill="none" stroke="#000000" d="M263,-615.878C263,-594.5617 263,-566.7576 263,-539.785"/>
<polygon fill="#000000" stroke="#000000" points="263.0001,-539.4957 269.75,-524.4957 263,-531.9957 263,-524.4957 263,-524.4957 263,-524.4957 263,-531.9957 256.25,-524.4958 263.0001,-539.4957 263.0001,-539.4957"/>
<text text-anchor="middle" x="312.3731" y="-565.8" font-family="Times,serif" font-size="14.00" fill="#000000">demo_per_cnt_fk</text>
</g>
<!-- DEMO_CREDIT_CARD_TYPES -->
<g id="node2" class="node">
<title>DEMO_CREDIT_CARD_TYPES</title>
<path fill="#d3d3d3" stroke="#000000" d="M908.7903,-420.1C908.7903,-420.1 1095.2097,-420.1 1095.2097,-420.1 1101.2097,-420.1 1107.2097,-426.1 1107.2097,-432.1 1107.2097,-432.1 1107.2097,-457.7 1107.2097,-457.7 1107.2097,-463.7 1101.2097,-469.7 1095.2097,-469.7 1095.2097,-469.7 908.7903,-469.7 908.7903,-469.7 902.7903,-469.7 896.7903,-463.7 896.7903,-457.7 896.7903,-457.7 896.7903,-432.1 896.7903,-432.1 896.7903,-426.1 902.7903,-420.1 908.7903,-420.1"/>
<text text-anchor="middle" x="1002" y="-453.1" font-family="Times,serif" font-size="14.00" fill="#000000">DEMO_CREDIT_CARD_TYPES</text>
<polyline fill="none" stroke="#000000" points="896.7903,-444.9 1107.2097,-444.9 "/>
<text text-anchor="middle" x="1002" y="-428.3" font-family="Times,serif" font-size="14.00" fill="#000000">Stats: 4 rows</text>
</g>
<!-- DEMO_PER_CREDIT_CARDS -->
<g id="node13" class="node">
<title>DEMO_PER_CREDIT_CARDS</title>
<path fill="#d3d3d3" stroke="#000000" d="M728.4638,-182.7C728.4638,-182.7 977.5362,-182.7 977.5362,-182.7 983.5362,-182.7 989.5362,-188.7 989.5362,-194.7 989.5362,-194.7 989.5362,-261.9 989.5362,-261.9 989.5362,-267.9 983.5362,-273.9 977.5362,-273.9 977.5362,-273.9 728.4638,-273.9 728.4638,-273.9 722.4638,-273.9 716.4638,-267.9 716.4638,-261.9 716.4638,-261.9 716.4638,-194.7 716.4638,-194.7 716.4638,-188.7 722.4638,-182.7 728.4638,-182.7"/>
<text text-anchor="middle" x="853" y="-257.3" font-family="Times,serif" font-size="14.00" fill="#000000">DEMO_PER_CREDIT_CARDS</text>
<polyline fill="none" stroke="#000000" points="716.4638,-249.1 989.5362,-249.1 "/>
<text text-anchor="middle" x="730.6854" y="-232.5" font-family="Times,serif" font-size="14.00" fill="#000000">PI</text>
<text text-anchor="middle" x="730.6854" y="-215.7" font-family="Times,serif" font-size="14.00" fill="#000000">-</text>
<polyline fill="none" stroke="#000000" points="744.907,-207.5 744.907,-249.1 "/>
<text text-anchor="middle" x="812.7703" y="-232.5" font-family="Times,serif" font-size="14.00" fill="#000000">*credit_card_number</text>
<text text-anchor="middle" x="812.7703" y="-215.7" font-family="Times,serif" font-size="14.00" fill="#000000">*expiry_date</text>
<polyline fill="none" stroke="#000000" points="880.6336,-207.5 880.6336,-249.1 "/>
<text text-anchor="middle" x="935.0849" y="-232.5" font-family="Times,serif" font-size="14.00" fill="#000000">SQL (obfuscate)</text>
<text text-anchor="middle" x="935.0849" y="-215.7" font-family="Times,serif" font-size="14.00" fill="#000000">SQL (random)</text>
<polyline fill="none" stroke="#000000" points="716.4638,-207.5 989.5362,-207.5 "/>
<text text-anchor="middle" x="853" y="-190.9" font-family="Times,serif" font-size="14.00" fill="#000000">Stats: 159 rows</text>
</g>
<!-- DEMO_CREDIT_CARD_TYPES&#45;&gt;DEMO_PER_CREDIT_CARDS -->
<g id="edge16" class="edge">
<title>DEMO_CREDIT_CARD_TYPES-&gt;DEMO_PER_CREDIT_CARDS</title>
<path fill="none" stroke="#000000" d="M984.9078,-420.0532C962.6445,-387.6893 923.0264,-330.0967 893.002,-286.4505"/>
<polygon fill="#000000" stroke="#000000" points="892.9184,-286.3289 889.9782,-270.145 888.6677,-280.1498 884.417,-273.9706 884.417,-273.9706 884.417,-273.9706 888.6677,-280.1498 878.8558,-277.7962 892.9184,-286.3289 892.9184,-286.3289"/>
<text text-anchor="middle" x="970.7574" y="-315.6" font-family="Times,serif" font-size="14.00" fill="#000000">demo_pcc_cct_fk</text>
</g>
<!-- DEMO_DUAL -->
<g id="node3" class="node">
<title>DEMO_DUAL</title>
<path fill="#d3d3d3" stroke="#000000" d="M405.4586,-628.3C405.4586,-628.3 484.5414,-628.3 484.5414,-628.3 490.5414,-628.3 496.5414,-634.3 496.5414,-640.3 496.5414,-640.3 496.5414,-665.9 496.5414,-665.9 496.5414,-671.9 490.5414,-677.9 484.5414,-677.9 484.5414,-677.9 405.4586,-677.9 405.4586,-677.9 399.4586,-677.9 393.4586,-671.9 393.4586,-665.9 393.4586,-665.9 393.4586,-640.3 393.4586,-640.3 393.4586,-634.3 399.4586,-628.3 405.4586,-628.3"/>
<text text-anchor="middle" x="445" y="-661.3" font-family="Times,serif" font-size="14.00" fill="#000000">DEMO_DUAL</text>
<polyline fill="none" stroke="#000000" points="393.4586,-653.1 496.5414,-653.1 "/>
<text text-anchor="middle" x="445" y="-636.5" font-family="Times,serif" font-size="14.00" fill="#000000">Stats: 1 row</text>
</g>
<!-- DEMO_ORDERS -->
<g id="node4" class="node">
<title>DEMO_ORDERS</title>
<path fill="#d3d3d3" stroke="#000000" d="M183.284,-203.5C183.284,-203.5 278.716,-203.5 278.716,-203.5 284.716,-203.5 290.716,-209.5 290.716,-215.5 290.716,-215.5 290.716,-241.1 290.716,-241.1 290.716,-247.1 284.716,-253.1 278.716,-253.1 278.716,-253.1 183.284,-253.1 183.284,-253.1 177.284,-253.1 171.284,-247.1 171.284,-241.1 171.284,-241.1 171.284,-215.5 171.284,-215.5 171.284,-209.5 177.284,-203.5 183.284,-203.5"/>
<text text-anchor="middle" x="231" y="-236.5" font-family="Times,serif" font-size="14.00" fill="#000000">DEMO_ORDERS</text>
<polyline fill="none" stroke="#000000" points="171.284,-228.3 290.716,-228.3 "/>
<text text-anchor="middle" x="231" y="-211.7" font-family="Times,serif" font-size="14.00" fill="#000000">Stats: 110 rows</text>
</g>
<!-- DEMO_ORDER_ITEMS -->
<g id="node7" class="node">
<title>DEMO_ORDER_ITEMS</title>
<path fill="#d3d3d3" stroke="#000000" d="M94.6788,-28.9C94.6788,-28.9 231.3212,-28.9 231.3212,-28.9 237.3212,-28.9 243.3212,-34.9 243.3212,-40.9 243.3212,-40.9 243.3212,-66.5 243.3212,-66.5 243.3212,-72.5 237.3212,-78.5 231.3212,-78.5 231.3212,-78.5 94.6788,-78.5 94.6788,-78.5 88.6788,-78.5 82.6788,-72.5 82.6788,-66.5 82.6788,-66.5 82.6788,-40.9 82.6788,-40.9 82.6788,-34.9 88.6788,-28.9 94.6788,-28.9"/>
<text text-anchor="middle" x="163" y="-61.9" font-family="Times,serif" font-size="14.00" fill="#000000">DEMO_ORDER_ITEMS</text>
<polyline fill="none" stroke="#000000" points="82.6788,-53.7 243.3212,-53.7 "/>
<text text-anchor="middle" x="163" y="-37.1" font-family="Times,serif" font-size="14.00" fill="#000000">Stats: 324 rows</text>
</g>
<!-- DEMO_ORDERS&#45;&gt;DEMO_ORDER_ITEMS -->
<g id="edge3" class="edge">
<title>DEMO_ORDERS-&gt;DEMO_ORDER_ITEMS</title>
<path fill="none" stroke="#000000" d="M221.2573,-203.2841C210.0473,-174.5009 191.4967,-126.8695 178.3428,-93.095"/>
<polygon fill="#000000" stroke="#000000" points="178.1684,-92.6469 179.0145,-76.2198 175.4465,-85.6582 172.7247,-78.6695 172.7247,-78.6695 172.7247,-78.6695 175.4465,-85.6582 166.4349,-81.1192 178.1684,-92.6469 178.1684,-92.6469"/>
<text text-anchor="middle" x="246.6038" y="-132.6" font-family="Times,serif" font-size="14.00" fill="#000000">demo_oit_ord_fk</text>
</g>
<!-- DEMO_PER_TRANSACTIONS -->
<g id="node14" class="node">
<title>DEMO_PER_TRANSACTIONS</title>
<path fill="#d3d3d3" stroke="#000000" d="M555.0883,-16.5C555.0883,-16.5 750.9117,-16.5 750.9117,-16.5 756.9117,-16.5 762.9117,-22.5 762.9117,-28.5 762.9117,-28.5 762.9117,-78.9 762.9117,-78.9 762.9117,-84.9 756.9117,-90.9 750.9117,-90.9 750.9117,-90.9 555.0883,-90.9 555.0883,-90.9 549.0883,-90.9 543.0883,-84.9 543.0883,-78.9 543.0883,-78.9 543.0883,-28.5 543.0883,-28.5 543.0883,-22.5 549.0883,-16.5 555.0883,-16.5"/>
<text text-anchor="middle" x="653" y="-74.3" font-family="Times,serif" font-size="14.00" fill="#000000">DEMO_PER_TRANSACTIONS</text>
<polyline fill="none" stroke="#000000" points="543.0883,-66.1 762.9117,-66.1 "/>
<text text-anchor="middle" x="561.2012" y="-49.5" font-family="Times,serif" font-size="14.00" fill="#000000">PFI</text>
<polyline fill="none" stroke="#000000" points="579.3141,-41.3 579.3141,-66.1 "/>
<text text-anchor="middle" x="635.1248" y="-49.5" font-family="Times,serif" font-size="14.00" fill="#000000">*credit_card_nbr</text>
<polyline fill="none" stroke="#000000" points="690.9355,-41.3 690.9355,-66.1 "/>
<text text-anchor="middle" x="726.9236" y="-49.5" font-family="Times,serif" font-size="14.00" fill="#000000">INHERIT</text>
<polyline fill="none" stroke="#000000" points="543.0883,-41.3 762.9117,-41.3 "/>
<text text-anchor="middle" x="653" y="-24.7" font-family="Times,serif" font-size="14.00" fill="#000000">Stats: 118 rows</text>
</g>
<!-- DEMO_ORDERS&#45;&gt;DEMO_PER_TRANSACTIONS -->
<g id="edge18" class="edge">
<title>DEMO_ORDERS-&gt;DEMO_PER_TRANSACTIONS</title>
<path fill="none" stroke="#000000" d="M264.7623,-203.3978C275.6747,-195.9968 288.0488,-188.2567 300,-182.2 373.0493,-145.1799 459.3659,-113.5606 528.3594,-90.9506"/>
<polygon fill="#000000" stroke="#000000" points="528.5398,-90.8922 544.8907,-92.6846 535.6739,-88.5781 542.808,-86.264 542.808,-86.264 542.808,-86.264 535.6739,-88.5781 540.7253,-79.8433 528.5398,-90.8922 528.5398,-90.8922"/>
<text text-anchor="middle" x="468.9888" y="-132.6" font-family="Times,serif" font-size="14.00" fill="#000000">demo_ptr_ord_fk</text>
</g>
<!-- DEMO_PERSONS&#45;&gt;DEMO_ORDERS -->
<g id="edge1" class="edge">
<title>DEMO_PERSONS-&gt;DEMO_ORDERS</title>
<path fill="none" stroke="#000000" d="M245.0265,-365.4147C242.6321,-353.0039 240.4156,-340.2887 238.6984,-328.2 235.9169,-308.6191 234.0876,-286.7261 232.9133,-268.4369"/>
<polygon fill="#000000" stroke="#000000" points="232.9122,-268.4158 238.7812,-253.0497 232.4774,-260.9284 232.0425,-253.441 232.0425,-253.441 232.0425,-253.441 232.4774,-260.9284 225.3039,-253.8323 232.9122,-268.4158 232.9122,-268.4158"/>
<text text-anchor="middle" x="288.1508" y="-315.6" font-family="Times,serif" font-size="14.00" fill="#000000">demo_ord_per_fk</text>
</g>
<!-- DEMO_PERSONS&#45;&gt;DEMO_PERSONS -->
<!-- DEMO_PERSONS&#45;&gt;DEMO_PERSONS -->
<!-- DEMO_PERSONS&#45;&gt;DEMO_PERSONS -->
<g id="edge12" class="edge">
<title>DEMO_PERSONS-&gt;DEMO_PERSONS</title>
<path fill="none" stroke="#000000" d="M376.3325,-463.1393C406.9421,-462.177 430.229,-456.0973 430.229,-444.9 430.229,-435.6273 414.259,-429.8641 391.3856,-427.6104"/>
<polygon fill="#000000" stroke="#000000" points="391.3027,-427.6053 376.7576,-419.9241 383.8176,-427.133 376.3325,-426.6607 376.3325,-426.6607 376.3325,-426.6607 383.8176,-427.133 375.9075,-433.3973 391.3027,-427.6053 391.3027,-427.6053"/>
<text text-anchor="middle" x="479.9871" y="-440.7" font-family="Times,serif" font-size="14.00" fill="#000000">demo_per_per_fk</text>
</g>
<!-- DEMO_PER_ASSIGNMENTS -->
<g id="node11" class="node">
<title>DEMO_PER_ASSIGNMENTS</title>
<path fill="#d3d3d3" stroke="#000000" d="M515.5666,-203.5C515.5666,-203.5 686.4334,-203.5 686.4334,-203.5 692.4334,-203.5 698.4334,-209.5 698.4334,-215.5 698.4334,-215.5 698.4334,-241.1 698.4334,-241.1 698.4334,-247.1 692.4334,-253.1 686.4334,-253.1 686.4334,-253.1 515.5666,-253.1 515.5666,-253.1 509.5666,-253.1 503.5666,-247.1 503.5666,-241.1 503.5666,-241.1 503.5666,-215.5 503.5666,-215.5 503.5666,-209.5 509.5666,-203.5 515.5666,-203.5"/>
<text text-anchor="middle" x="601" y="-236.5" font-family="Times,serif" font-size="14.00" fill="#000000">DEMO_PER_ASSIGNMENTS</text>
<polyline fill="none" stroke="#000000" points="503.5666,-228.3 698.4334,-228.3 "/>
<text text-anchor="middle" x="601" y="-211.7" font-family="Times,serif" font-size="14.00" fill="#000000">Stats: 199 rows</text>
</g>
<!-- DEMO_PERSONS&#45;&gt;DEMO_PER_ASSIGNMENTS -->
<g id="edge14" class="edge">
<title>DEMO_PERSONS-&gt;DEMO_PER_ASSIGNMENTS</title>
<path fill="none" stroke="#000000" d="M376.7011,-375.1325C401.2946,-359.8157 427.0902,-343.5773 451,-328.2 484.7748,-306.4781 522.3858,-281.4271 551.4973,-261.8447"/>
<polygon fill="#000000" stroke="#000000" points="551.7914,-261.6466 568.0028,-258.8615 558.011,-257.4552 564.2305,-253.2639 564.2305,-253.2639 564.2305,-253.2639 558.011,-257.4552 560.4583,-247.6663 551.7914,-261.6466 551.7914,-261.6466"/>
<text text-anchor="middle" x="526.1501" y="-315.6" font-family="Times,serif" font-size="14.00" fill="#000000">demo_pas_per_fk</text>
</g>
<!-- DEMO_PER_CLOCKINGS -->
<g id="node12" class="node">
<title>DEMO_PER_CLOCKINGS</title>
<path fill="#d3d3d3" stroke="#000000" d="M320.5112,-203.5C320.5112,-203.5 473.4888,-203.5 473.4888,-203.5 479.4888,-203.5 485.4888,-209.5 485.4888,-215.5 485.4888,-215.5 485.4888,-241.1 485.4888,-241.1 485.4888,-247.1 479.4888,-253.1 473.4888,-253.1 473.4888,-253.1 320.5112,-253.1 320.5112,-253.1 314.5112,-253.1 308.5112,-247.1 308.5112,-241.1 308.5112,-241.1 308.5112,-215.5 308.5112,-215.5 308.5112,-209.5 314.5112,-203.5 320.5112,-203.5"/>
<text text-anchor="middle" x="397" y="-236.5" font-family="Times,serif" font-size="14.00" fill="#000000">DEMO_PER_CLOCKINGS</text>
<polyline fill="none" stroke="#000000" points="308.5112,-228.3 485.4888,-228.3 "/>
<text text-anchor="middle" x="397" y="-211.7" font-family="Times,serif" font-size="14.00" fill="#000000">Stats: 5000 rows</text>
</g>
<!-- DEMO_PERSONS&#45;&gt;DEMO_PER_CLOCKINGS -->
<g id="edge15" class="edge">
<title>DEMO_PERSONS-&gt;DEMO_PER_CLOCKINGS</title>
<path fill="none" stroke="#000000" d="M315.4689,-365.522C323.4572,-353.0969 331.524,-340.3491 339,-328.2 351.4564,-307.9573 364.8102,-285.0464 375.5608,-266.2763"/>
<polygon fill="#000000" stroke="#000000" points="375.6196,-266.1731 388.9115,-256.4835 379.3333,-259.6571 383.0471,-253.1411 383.0471,-253.1411 383.0471,-253.1411 379.3333,-259.6571 377.1827,-249.7987 375.6196,-266.1731 375.6196,-266.1731"/>
<text text-anchor="middle" x="397.3731" y="-315.6" font-family="Times,serif" font-size="14.00" fill="#000000">demo_pcl_per_fk</text>
</g>
<!-- DEMO_PERSONS&#45;&gt;DEMO_PER_CREDIT_CARDS -->
<g id="edge17" class="edge">
<title>DEMO_PERSONS-&gt;DEMO_PER_CREDIT_CARDS</title>
<path fill="none" stroke="#000000" d="M376.4087,-403.2656C472.7964,-367.8798 611.515,-316.9537 714.461,-279.1602"/>
<polygon fill="#000000" stroke="#000000" points="714.6605,-279.0871 731.0679,-280.2541 721.7011,-276.5023 728.7416,-273.9176 728.7416,-273.9176 728.7416,-273.9176 721.7011,-276.5023 726.4154,-267.5811 714.6605,-279.0871 714.6605,-279.0871"/>
<text text-anchor="middle" x="676.5351" y="-315.6" font-family="Times,serif" font-size="14.00" fill="#000000">demo_pcc_per_fk</text>
</g>
<!-- DEMO_STORES -->
<g id="node6" class="node">
<title>DEMO_STORES</title>
<path fill="#d3d3d3" stroke="#000000" d="M27.838,-420.1C27.838,-420.1 120.162,-420.1 120.162,-420.1 126.162,-420.1 132.162,-426.1 132.162,-432.1 132.162,-432.1 132.162,-457.7 132.162,-457.7 132.162,-463.7 126.162,-469.7 120.162,-469.7 120.162,-469.7 27.838,-469.7 27.838,-469.7 21.838,-469.7 15.838,-463.7 15.838,-457.7 15.838,-457.7 15.838,-432.1 15.838,-432.1 15.838,-426.1 21.838,-420.1 27.838,-420.1"/>
<text text-anchor="middle" x="74" y="-453.1" font-family="Times,serif" font-size="14.00" fill="#000000">DEMO_STORES</text>
<polyline fill="none" stroke="#000000" points="15.838,-444.9 132.162,-444.9 "/>
<text text-anchor="middle" x="74" y="-428.3" font-family="Times,serif" font-size="14.00" fill="#000000">Stats: 10 rows</text>
</g>
<!-- DEMO_STORES&#45;&gt;DEMO_ORDERS -->
<g id="edge2" class="edge">
<title>DEMO_STORES-&gt;DEMO_ORDERS</title>
<path fill="none" stroke="#000000" d="M81.3077,-420.0103C90.3998,-391.793 107.8836,-345.3153 133.2384,-311.4 146.7618,-293.3107 164.9081,-276.5151 181.8942,-262.8258"/>
<polygon fill="#000000" stroke="#000000" points="182.1331,-262.6401 198.1182,-258.7617 188.054,-258.0365 193.9749,-253.4329 193.9749,-253.4329 193.9749,-253.4329 188.054,-258.0365 189.8317,-248.1041 182.1331,-262.6401 182.1331,-262.6401"/>
<text text-anchor="middle" x="182.3808" y="-315.6" font-family="Times,serif" font-size="14.00" fill="#000000">demo_ord_sto_fk</text>
</g>
<!-- DEMO_PRODUCTS -->
<g id="node8" class="node">
<title>DEMO_PRODUCTS</title>
<path fill="#d3d3d3" stroke="#000000" d="M28.3394,-203.5C28.3394,-203.5 141.6606,-203.5 141.6606,-203.5 147.6606,-203.5 153.6606,-209.5 153.6606,-215.5 153.6606,-215.5 153.6606,-241.1 153.6606,-241.1 153.6606,-247.1 147.6606,-253.1 141.6606,-253.1 141.6606,-253.1 28.3394,-253.1 28.3394,-253.1 22.3394,-253.1 16.3394,-247.1 16.3394,-241.1 16.3394,-241.1 16.3394,-215.5 16.3394,-215.5 16.3394,-209.5 22.3394,-203.5 28.3394,-203.5"/>
<text text-anchor="middle" x="85" y="-236.5" font-family="Times,serif" font-size="14.00" fill="#000000">DEMO_PRODUCTS</text>
<polyline fill="none" stroke="#000000" points="16.3394,-228.3 153.6606,-228.3 "/>
<text text-anchor="middle" x="85" y="-211.7" font-family="Times,serif" font-size="14.00" fill="#000000">Stats: 50 rows</text>
</g>
<!-- DEMO_PRODUCTS&#45;&gt;DEMO_ORDER_ITEMS -->
<g id="edge4" class="edge">
<title>DEMO_PRODUCTS-&gt;DEMO_ORDER_ITEMS</title>
<path fill="none" stroke="#000000" d="M81.7751,-203.3765C80.1388,-182.4623 80.3291,-152.2664 90.7924,-128.4 97.1475,-113.9042 107.6298,-100.5692 118.6633,-89.3024"/>
<polygon fill="#000000" stroke="#000000" points="118.8795,-89.0967 134.4002,-83.6493 124.3138,-83.9276 129.748,-78.7585 129.748,-78.7585 129.748,-78.7585 124.3138,-83.9276 125.0958,-73.8677 118.8795,-89.0967 118.8795,-89.0967"/>
<text text-anchor="middle" x="138.6038" y="-132.6" font-family="Times,serif" font-size="14.00" fill="#000000">demo_oit_prd_fk</text>
</g>
<!-- DEMO_ORG_ENTITIES -->
<g id="node9" class="node">
<title>DEMO_ORG_ENTITIES</title>
<path fill="#d3d3d3" stroke="#000000" d="M564.9095,-420.1C564.9095,-420.1 703.0905,-420.1 703.0905,-420.1 709.0905,-420.1 715.0905,-426.1 715.0905,-432.1 715.0905,-432.1 715.0905,-457.7 715.0905,-457.7 715.0905,-463.7 709.0905,-469.7 703.0905,-469.7 703.0905,-469.7 564.9095,-469.7 564.9095,-469.7 558.9095,-469.7 552.9095,-463.7 552.9095,-457.7 552.9095,-457.7 552.9095,-432.1 552.9095,-432.1 552.9095,-426.1 558.9095,-420.1 564.9095,-420.1"/>
<text text-anchor="middle" x="634" y="-453.1" font-family="Times,serif" font-size="14.00" fill="#000000">DEMO_ORG_ENTITIES</text>
<polyline fill="none" stroke="#000000" points="552.9095,-444.9 715.0905,-444.9 "/>
<text text-anchor="middle" x="634" y="-428.3" font-family="Times,serif" font-size="14.00" fill="#000000">Stats: 767 rows</text>
</g>
<!-- DEMO_ORG_ENTITIES&#45;&gt;DEMO_ORG_ENTITIES -->
<!-- DEMO_ORG_ENTITIES&#45;&gt;DEMO_ORG_ENTITIES -->
<!-- DEMO_ORG_ENTITIES&#45;&gt;DEMO_ORG_ENTITIES -->
<g id="edge7" class="edge">
<title>DEMO_ORG_ENTITIES-&gt;DEMO_ORG_ENTITIES</title>
<path fill="none" stroke="#000000" d="M715.1087,-463.247C744.7821,-463.7442 769.0905,-457.6285 769.0905,-444.9 769.0905,-434.4089 752.5769,-428.4102 730.1566,-426.9038"/>
<polygon fill="#000000" stroke="#000000" points="730.1046,-426.9027 715.2661,-419.8049 722.6067,-426.7279 715.1087,-426.553 715.1087,-426.553 715.1087,-426.553 722.6067,-426.7279 714.9513,-433.3012 730.1046,-426.9027 730.1046,-426.9027"/>
<text text-anchor="middle" x="821.188" y="-440.7" font-family="Times,serif" font-size="14.00" fill="#000000">demo_oen_oen_fk</text>
</g>
<!-- DEMO_ORG_ENTITIES&#45;&gt;DEMO_PER_ASSIGNMENTS -->
<g id="edge13" class="edge">
<title>DEMO_ORG_ENTITIES-&gt;DEMO_PER_ASSIGNMENTS</title>
<path fill="none" stroke="#000000" d="M676.2559,-419.8938C713.9498,-394.1866 759.9122,-352.2509 737,-311.4 724.838,-289.716 704.4596,-273.0164 683.1307,-260.4735"/>
<polygon fill="#000000" stroke="#000000" points="682.9591,-260.3799 673.0264,-247.2687 676.3758,-256.7868 669.7925,-253.1936 669.7925,-253.1936 669.7925,-253.1936 676.3758,-256.7868 666.5587,-259.1186 682.9591,-260.3799 682.9591,-260.3799"/>
<text text-anchor="middle" x="793.3198" y="-315.6" font-family="Times,serif" font-size="14.00" fill="#000000">demo_pas_oen_fk</text>
</g>
<!-- DEMO_ORG_ENTITY_TYPES -->
<g id="node10" class="node">
<title>DEMO_ORG_ENTITY_TYPES</title>
<path fill="#d3d3d3" stroke="#000000" d="M545.4656,-628.3C545.4656,-628.3 722.5344,-628.3 722.5344,-628.3 728.5344,-628.3 734.5344,-634.3 734.5344,-640.3 734.5344,-640.3 734.5344,-665.9 734.5344,-665.9 734.5344,-671.9 728.5344,-677.9 722.5344,-677.9 722.5344,-677.9 545.4656,-677.9 545.4656,-677.9 539.4656,-677.9 533.4656,-671.9 533.4656,-665.9 533.4656,-665.9 533.4656,-640.3 533.4656,-640.3 533.4656,-634.3 539.4656,-628.3 545.4656,-628.3"/>
<text text-anchor="middle" x="634" y="-661.3" font-family="Times,serif" font-size="14.00" fill="#000000">DEMO_ORG_ENTITY_TYPES</text>
<polyline fill="none" stroke="#000000" points="533.4656,-653.1 734.5344,-653.1 "/>
<text text-anchor="middle" x="634" y="-636.5" font-family="Times,serif" font-size="14.00" fill="#000000">Stats: 5 rows</text>
</g>
<!-- DEMO_ORG_ENTITY_TYPES&#45;&gt;DEMO_ORG_ENTITIES -->
<g id="edge8" class="edge">
<title>DEMO_ORG_ENTITY_TYPES-&gt;DEMO_ORG_ENTITIES</title>
<path fill="none" stroke="#000000" d="M634,-627.9862C634,-592.4849 634,-527.2517 634,-485.0012"/>
<polygon fill="#000000" stroke="#000000" points="634.0001,-484.7788 640.75,-469.7787 634,-477.2788 634,-469.7788 634,-469.7788 634,-469.7788 634,-477.2788 627.25,-469.7788 634.0001,-484.7788 634.0001,-484.7788"/>
<text text-anchor="middle" x="684.5428" y="-565.8" font-family="Times,serif" font-size="14.00" fill="#000000">demo_oen_oet_fk</text>
</g>
<!-- DEMO_PER_CREDIT_CARDS&#45;&gt;DEMO_PER_TRANSACTIONS -->
<g id="edge19" class="edge">
<title>DEMO_PER_CREDIT_CARDS-&gt;DEMO_PER_TRANSACTIONS</title>
<path fill="none" stroke="#000000" d="M800.7136,-182.654C772.0276,-157.6111 736.4995,-126.5951 707.476,-101.2575"/>
<polygon fill="#000000" stroke="#000000" points="707.1847,-101.0033 700.324,-86.0536 701.5348,-96.0709 695.8849,-91.1385 695.8849,-91.1385 695.8849,-91.1385 701.5348,-96.0709 691.4457,-96.2234 707.1847,-101.0033 707.1847,-101.0033"/>
<text text-anchor="middle" x="805.3731" y="-132.6" font-family="Times,serif" font-size="14.00" fill="#000000">demo_ptr_pcc_fk</text>
</g>
</g>
</svg>