<?xml version="1.0" encoding="UTF-8" standalone="no"?><!DOCTYPE svg PUBLIC "-//W3C//DTD SVG 1.1//EN" "http://www.w3.org/Graphics/SVG/1.1/DTD/svg11.dtd"><!-- Generated by graphviz version 2.40.1 (20161225.0304)
 --><!-- Title: ds10_graph Pages: 1 --><svg xmlns="http://www.w3.org/2000/svg" xmlns:xlink="http://www.w3.org/1999/xlink" width="1185pt" height="540pt" viewBox="0.00 0.00 1185.00 539.60">
<g id="graph0" class="graph" transform="scale(1 1) rotate(0) translate(4 535.6)">
<title>ds10_graph</title>
<polygon fill="#ffffff" stroke="transparent" points="-4,4 -4,-535.6 1181,-535.6 1181,4 -4,4"/>
<g id="clust1" class="cluster">
<title>cluster_main</title>
<g id="a_clust1"><a xlink:title="[DEMO_DATA_GEN]&#10;user_created=&quot;APP_DBCC_D&quot;&#10;date_created=&quot;25/10/23&quot;">
<polygon fill="none" stroke="#000000" points="8,-8 8,-523.6 1169,-523.6 1169,-8 8,-8"/>
<text text-anchor="start" x="440.961" y="-508" font-family="Times,serif" font-weight="bold" font-size="14.00" fill="#000000">Data Set: DEMO_DATA_GEN (id: 10 - type: GEN)</text>
</a>
</g>
</g>
<!-- DEMO_COUNTRIES -->
<g id="node1" class="node">
<title>DEMO_COUNTRIES</title>
<g id="a_node1"><a xlink:title="[DEMO_COUNTRIES]">
<path fill="#ff0000" stroke="#ffffff" d="M415.8752,-440.7C415.8752,-440.7 582.1248,-440.7 582.1248,-440.7 588.1248,-440.7 594.1248,-446.7 594.1248,-452.7 594.1248,-452.7 594.1248,-478.3 594.1248,-478.3 594.1248,-484.3 588.1248,-490.3 582.1248,-490.3 582.1248,-490.3 415.8752,-490.3 415.8752,-490.3 409.8752,-490.3 403.8752,-484.3 403.8752,-478.3 403.8752,-478.3 403.8752,-452.7 403.8752,-452.7 403.8752,-446.7 409.8752,-440.7 415.8752,-440.7"/>
<text text-anchor="middle" x="499" y="-473.7" font-family="Times,serif" font-size="14.00" fill="#ffffff">DEMO_COUNTRIES@cnt #1</text>
<polyline fill="none" stroke="#ffffff" points="403.8752,-465.5 594.1248,-465.5 "/>
<text text-anchor="middle" x="499" y="-448.9" font-family="Times,serif" font-size="14.00" fill="#ffffff">Stats: 0 / 27 row generated</text>
</a>
</g>
</g>
<!-- DEMO_PERSONS -->
<g id="node7" class="node">
<title>DEMO_PERSONS</title>
<g id="a_node7"><a xlink:title="[DEMO_PERSONS]&#10;row_count=50">
<path fill="#00ff00" stroke="#000000" d="M417.0358,-299.3C417.0358,-299.3 566.9642,-299.3 566.9642,-299.3 572.9642,-299.3 578.9642,-305.3 578.9642,-311.3 578.9642,-311.3 578.9642,-336.9 578.9642,-336.9 578.9642,-342.9 572.9642,-348.9 566.9642,-348.9 566.9642,-348.9 417.0358,-348.9 417.0358,-348.9 411.0358,-348.9 405.0358,-342.9 405.0358,-336.9 405.0358,-336.9 405.0358,-311.3 405.0358,-311.3 405.0358,-305.3 411.0358,-299.3 417.0358,-299.3"/>
<text text-anchor="middle" x="492" y="-332.3" font-family="Times,serif" font-size="14.00" fill="#000000">DEMO_PERSONS@per #2</text>
<polyline fill="none" stroke="#000000" points="405.0358,-324.1 578.9642,-324.1 "/>
<text text-anchor="middle" x="492" y="-307.5" font-family="Times,serif" font-size="14.00" fill="#000000">Stats: 50 rows generated</text>
</a>
</g>
</g>
<!-- DEMO_COUNTRIES&#45;&gt;DEMO_PERSONS -->
<g id="edge8" class="edge">
<title>DEMO_COUNTRIES-&gt;DEMO_PERSONS</title>
<g id="a_edge8"><a xlink:title="[DEMO_PER_CNT_FK]">
<path fill="none" stroke="#000000" d="M497.7647,-440.546C496.7215,-419.4739 495.2079,-388.9005 493.9935,-364.3683"/>
<polygon fill="#000000" stroke="#000000" points="493.9883,-364.2618 499.9883,-348.9464 493.6174,-356.771 493.2465,-349.2802 493.2465,-349.2802 493.2465,-349.2802 493.6174,-356.771 486.5048,-349.6139 493.9883,-364.2618 493.9883,-364.2618"/>
</a>
</g>
<text text-anchor="middle" x="496.75" y="-390.6" font-family="Times,serif" font-size="14.00" fill="#000000"> </text>
<g id="a_edge8-headlabel"><a xlink:title=" &#10;13&#10; ">
<text text-anchor="middle" x="486.2465" y="-387.0802" font-family="Times,serif" font-size="14.00" fill="#000000"> </text>
<text text-anchor="middle" x="486.2465" y="-370.2802" font-family="Times,serif" font-size="14.00" fill="#000000">13</text>
<text text-anchor="middle" x="486.2465" y="-353.4802" font-family="Times,serif" font-size="14.00" fill="#000000"> </text>
</a>
</g>
</g>
<!-- DEMO_CREDIT_CARD_TYPES -->
<g id="node2" class="node">
<title>DEMO_CREDIT_CARD_TYPES</title>
<g id="a_node2"><a xlink:title="[DEMO_CREDIT_CARD_TYPES]">
<path fill="#ff0000" stroke="#ffffff" d="M915.4341,-299.3C915.4341,-299.3 1148.5659,-299.3 1148.5659,-299.3 1154.5659,-299.3 1160.5659,-305.3 1160.5659,-311.3 1160.5659,-311.3 1160.5659,-336.9 1160.5659,-336.9 1160.5659,-342.9 1154.5659,-348.9 1148.5659,-348.9 1148.5659,-348.9 915.4341,-348.9 915.4341,-348.9 909.4341,-348.9 903.4341,-342.9 903.4341,-336.9 903.4341,-336.9 903.4341,-311.3 903.4341,-311.3 903.4341,-305.3 909.4341,-299.3 915.4341,-299.3"/>
<text text-anchor="middle" x="1032" y="-332.3" font-family="Times,serif" font-size="14.00" fill="#ffffff">DEMO_CREDIT_CARD_TYPES@cct #1</text>
<polyline fill="none" stroke="#ffffff" points="903.4341,-324.1 1160.5659,-324.1 "/>
<text text-anchor="middle" x="1032" y="-307.5" font-family="Times,serif" font-size="14.00" fill="#ffffff">Stats: 0 / 4 row generated</text>
</a>
</g>
</g>
<!-- DEMO_PER_CREDIT_CARDS -->
<g id="node11" class="node">
<title>DEMO_PER_CREDIT_CARDS</title>
<g id="a_node11"><a xlink:title="[DEMO_PER_CREDIT_CARDS]">
<path fill="#0000ff" stroke="#ffffff" d="M922.5407,-157.9C922.5407,-157.9 1149.4593,-157.9 1149.4593,-157.9 1155.4593,-157.9 1161.4593,-163.9 1161.4593,-169.9 1161.4593,-169.9 1161.4593,-195.5 1161.4593,-195.5 1161.4593,-201.5 1155.4593,-207.5 1149.4593,-207.5 1149.4593,-207.5 922.5407,-207.5 922.5407,-207.5 916.5407,-207.5 910.5407,-201.5 910.5407,-195.5 910.5407,-195.5 910.5407,-169.9 910.5407,-169.9 910.5407,-163.9 916.5407,-157.9 922.5407,-157.9"/>
<text text-anchor="middle" x="1036" y="-190.9" font-family="Times,serif" font-size="14.00" fill="#ffffff">DEMO_PER_CREDIT_CARDS@pcc #3</text>
<polyline fill="none" stroke="#ffffff" points="910.5407,-182.7 1161.4593,-182.7 "/>
<text text-anchor="middle" x="1036" y="-166.1" font-family="Times,serif" font-size="14.00" fill="#ffffff">Stats: 143 rows generated</text>
</a>
</g>
</g>
<!-- DEMO_CREDIT_CARD_TYPES&#45;&gt;DEMO_PER_CREDIT_CARDS -->
<g id="edge24" class="edge">
<title>DEMO_CREDIT_CARD_TYPES-&gt;DEMO_PER_CREDIT_CARDS</title>
<g id="a_edge24"><a xlink:title="[DEMO_PCC_CCT_FK]">
<path fill="none" stroke="#000000" d="M1032.7059,-299.146C1033.302,-278.0739 1034.1669,-247.5005 1034.8609,-222.9683"/>
<polygon fill="#000000" stroke="#000000" points="1034.8634,-222.8742 1042.035,-208.0711 1035.0756,-215.3772 1035.2877,-207.8802 1035.2877,-207.8802 1035.2877,-207.8802 1035.0756,-215.3772 1028.5404,-207.6892 1034.8634,-222.8742 1034.8634,-222.8742"/>
</a>
</g>
<text text-anchor="middle" x="1035.75" y="-249.2" font-family="Times,serif" font-size="14.00" fill="#000000"> </text>
<g id="a_edge24-headlabel"><a xlink:title=" &#10;4&#10; ">
<text text-anchor="middle" x="1031.7877" y="-245.6802" font-family="Times,serif" font-size="14.00" fill="#000000"> </text>
<text text-anchor="middle" x="1031.7877" y="-228.8802" font-family="Times,serif" font-size="14.00" fill="#000000">4</text>
<text text-anchor="middle" x="1031.7877" y="-212.0802" font-family="Times,serif" font-size="14.00" fill="#000000"> </text>
</a>
</g>
</g>
<!-- DEMO_ORG_ENTITY_TYPES -->
<g id="node3" class="node">
<title>DEMO_ORG_ENTITY_TYPES</title>
<g id="a_node3"><a xlink:title="[DEMO_ORG_ENTITY_TYPES]">
<path fill="#ff0000" stroke="#ffffff" d="M149.7167,-440.7C149.7167,-440.7 374.2833,-440.7 374.2833,-440.7 380.2833,-440.7 386.2833,-446.7 386.2833,-452.7 386.2833,-452.7 386.2833,-478.3 386.2833,-478.3 386.2833,-484.3 380.2833,-490.3 374.2833,-490.3 374.2833,-490.3 149.7167,-490.3 149.7167,-490.3 143.7167,-490.3 137.7167,-484.3 137.7167,-478.3 137.7167,-478.3 137.7167,-452.7 137.7167,-452.7 137.7167,-446.7 143.7167,-440.7 149.7167,-440.7"/>
<text text-anchor="middle" x="262" y="-473.7" font-family="Times,serif" font-size="14.00" fill="#ffffff">DEMO_ORG_ENTITY_TYPES@oet #1</text>
<polyline fill="none" stroke="#ffffff" points="137.7167,-465.5 386.2833,-465.5 "/>
<text text-anchor="middle" x="262" y="-448.9" font-family="Times,serif" font-size="14.00" fill="#ffffff">Stats: 0 / 5 row generated</text>
</a>
</g>
</g>
<!-- DEMO_ORG_ENTITIES -->
<g id="node6" class="node">
<title>DEMO_ORG_ENTITIES</title>
<g id="a_node6"><a xlink:title="[DEMO_ORG_ENTITIES]&#10;row_count=1">
<path fill="#00ff00" stroke="#000000" d="M60.6059,-299.3C60.6059,-299.3 249.3941,-299.3 249.3941,-299.3 255.3941,-299.3 261.3941,-305.3 261.3941,-311.3 261.3941,-311.3 261.3941,-336.9 261.3941,-336.9 261.3941,-342.9 255.3941,-348.9 249.3941,-348.9 249.3941,-348.9 60.6059,-348.9 60.6059,-348.9 54.6059,-348.9 48.6059,-342.9 48.6059,-336.9 48.6059,-336.9 48.6059,-311.3 48.6059,-311.3 48.6059,-305.3 54.6059,-299.3 60.6059,-299.3"/>
<text text-anchor="middle" x="155" y="-332.3" font-family="Times,serif" font-size="14.00" fill="#000000">DEMO_ORG_ENTITIES@oen #2</text>
<polyline fill="none" stroke="#000000" points="48.6059,-324.1 261.3941,-324.1 "/>
<text text-anchor="middle" x="155" y="-307.5" font-family="Times,serif" font-size="14.00" fill="#000000">Stats: 1015 rows generated</text>
</a>
</g>
</g>
<!-- DEMO_ORG_ENTITY_TYPES&#45;&gt;DEMO_ORG_ENTITIES -->
<g id="edge7" class="edge">
<title>DEMO_ORG_ENTITY_TYPES-&gt;DEMO_ORG_ENTITIES</title>
<g id="a_edge7"><a xlink:title="[DEMO_OEN_OET_FK]&#10;where_clause=&quot;oet_level=LEVEL&quot;">
<path fill="none" stroke="#000000" d="M243.1169,-440.546C226.4879,-418.5709 202.0395,-386.2624 183.1111,-361.2487"/>
<polygon fill="#000000" stroke="#000000" points="183.1057,-361.2415 179.4369,-345.207 178.58,-355.2608 174.0543,-349.2802 174.0543,-349.2802 174.0543,-349.2802 178.58,-355.2608 168.6717,-353.3533 183.1057,-361.2415 183.1057,-361.2415"/>
</a>
</g>
<text text-anchor="middle" x="215.75" y="-390.6" font-family="Times,serif" font-size="14.00" fill="#000000"> </text>
<g id="a_edge7-headlabel"><a xlink:title=" &#10;5&#10; ">
<text text-anchor="middle" x="170.5543" y="-387.0802" font-family="Times,serif" font-size="14.00" fill="#000000"> </text>
<text text-anchor="middle" x="170.5543" y="-370.2802" font-family="Times,serif" font-size="14.00" fill="#000000">5</text>
<text text-anchor="middle" x="170.5543" y="-353.4802" font-family="Times,serif" font-size="14.00" fill="#000000"> </text>
</a>
</g>
</g>
<!-- DEMO_PRODUCTS -->
<g id="node4" class="node">
<title>DEMO_PRODUCTS</title>
<g id="a_node4"><a xlink:title="[DEMO_PRODUCTS]&#10;row_count=50">
<path fill="#00ff00" stroke="#000000" d="M289.8128,-157.9C289.8128,-157.9 452.1872,-157.9 452.1872,-157.9 458.1872,-157.9 464.1872,-163.9 464.1872,-169.9 464.1872,-169.9 464.1872,-195.5 464.1872,-195.5 464.1872,-201.5 458.1872,-207.5 452.1872,-207.5 452.1872,-207.5 289.8128,-207.5 289.8128,-207.5 283.8128,-207.5 277.8128,-201.5 277.8128,-195.5 277.8128,-195.5 277.8128,-169.9 277.8128,-169.9 277.8128,-163.9 283.8128,-157.9 289.8128,-157.9"/>
<text text-anchor="middle" x="371" y="-190.9" font-family="Times,serif" font-size="14.00" fill="#000000">DEMO_PRODUCTS@prd #1</text>
<polyline fill="none" stroke="#000000" points="277.8128,-182.7 464.1872,-182.7 "/>
<text text-anchor="middle" x="371" y="-166.1" font-family="Times,serif" font-size="14.00" fill="#000000">Stats: 50 rows generated</text>
</a>
</g>
</g>
<!-- DEMO_ORDER_ITEMS -->
<g id="node12" class="node">
<title>DEMO_ORDER_ITEMS</title>
<g id="a_node12"><a xlink:title="[DEMO_ORDER_ITEMS]">
<path fill="#0000ff" stroke="#ffffff" d="M643.8419,-16.5C643.8419,-16.5 836.1581,-16.5 836.1581,-16.5 842.1581,-16.5 848.1581,-22.5 848.1581,-28.5 848.1581,-28.5 848.1581,-54.1 848.1581,-54.1 848.1581,-60.1 842.1581,-66.1 836.1581,-66.1 836.1581,-66.1 643.8419,-66.1 643.8419,-66.1 637.8419,-66.1 631.8419,-60.1 631.8419,-54.1 631.8419,-54.1 631.8419,-28.5 631.8419,-28.5 631.8419,-22.5 637.8419,-16.5 643.8419,-16.5"/>
<text text-anchor="middle" x="740" y="-49.5" font-family="Times,serif" font-size="14.00" fill="#ffffff">DEMO_ORDER_ITEMS@oit #4,1</text>
<polyline fill="none" stroke="#ffffff" points="631.8419,-41.3 848.1581,-41.3 "/>
<text text-anchor="middle" x="740" y="-24.7" font-family="Times,serif" font-size="14.00" fill="#ffffff">Stats: 317 rows generated</text>
</a>
</g>
</g>
<!-- DEMO_PRODUCTS&#45;&gt;DEMO_ORDER_ITEMS -->
<g id="edge29" class="edge">
<title>DEMO_PRODUCTS-&gt;DEMO_ORDER_ITEMS</title>
<g id="a_edge29"><a xlink:title="[DEMO_OIT_PRD_FK]">
<path fill="none" stroke="#000000" d="M436.1204,-157.746C498.8625,-133.7034 593.8832,-97.2916 660.9365,-71.597"/>
<polygon fill="#000000" stroke="#000000" points="661.2143,-71.4906 677.6364,-72.4262 668.2177,-68.8069 675.2211,-66.1231 675.2211,-66.1231 675.2211,-66.1231 668.2177,-68.8069 672.8057,-59.8201 661.2143,-71.4906 661.2143,-71.4906"/>
</a>
</g>
<text text-anchor="middle" x="577.75" y="-107.8" font-family="Times,serif" font-size="14.00" fill="#000000"> </text>
<g id="a_edge29-headlabel"><a xlink:title=" &#10;50&#10; ">
<text text-anchor="middle" x="668.2211" y="-103.9231" font-family="Times,serif" font-size="14.00" fill="#000000"> </text>
<text text-anchor="middle" x="668.2211" y="-87.1231" font-family="Times,serif" font-size="14.00" fill="#000000">50</text>
<text text-anchor="middle" x="668.2211" y="-70.3231" font-family="Times,serif" font-size="14.00" fill="#000000"> </text>
</a>
</g>
</g>
<!-- DEMO_STORES -->
<g id="node5" class="node">
<title>DEMO_STORES</title>
<g id="a_node5"><a xlink:title="[DEMO_STORES]&#10;row_count=10">
<path fill="#00ff00" stroke="#000000" d="M734.4741,-299.3C734.4741,-299.3 873.5259,-299.3 873.5259,-299.3 879.5259,-299.3 885.5259,-305.3 885.5259,-311.3 885.5259,-311.3 885.5259,-336.9 885.5259,-336.9 885.5259,-342.9 879.5259,-348.9 873.5259,-348.9 873.5259,-348.9 734.4741,-348.9 734.4741,-348.9 728.4741,-348.9 722.4741,-342.9 722.4741,-336.9 722.4741,-336.9 722.4741,-311.3 722.4741,-311.3 722.4741,-305.3 728.4741,-299.3 734.4741,-299.3"/>
<text text-anchor="middle" x="804" y="-332.3" font-family="Times,serif" font-size="14.00" fill="#000000">DEMO_STORES@sto #1</text>
<polyline fill="none" stroke="#000000" points="722.4741,-324.1 885.5259,-324.1 "/>
<text text-anchor="middle" x="804" y="-307.5" font-family="Times,serif" font-size="14.00" fill="#000000">Stats: 10 rows generated</text>
</a>
</g>
</g>
<!-- DEMO_ORDERS -->
<g id="node8" class="node">
<title>DEMO_ORDERS</title>
<g id="a_node8"><a xlink:title="[DEMO_ORDERS]">
<path fill="#0000ff" stroke="#ffffff" d="M735.7574,-157.9C735.7574,-157.9 880.2426,-157.9 880.2426,-157.9 886.2426,-157.9 892.2426,-163.9 892.2426,-169.9 892.2426,-169.9 892.2426,-195.5 892.2426,-195.5 892.2426,-201.5 886.2426,-207.5 880.2426,-207.5 880.2426,-207.5 735.7574,-207.5 735.7574,-207.5 729.7574,-207.5 723.7574,-201.5 723.7574,-195.5 723.7574,-195.5 723.7574,-169.9 723.7574,-169.9 723.7574,-163.9 729.7574,-157.9 735.7574,-157.9"/>
<text text-anchor="middle" x="808" y="-190.9" font-family="Times,serif" font-size="14.00" fill="#ffffff">DEMO_ORDERS@ord #3</text>
<polyline fill="none" stroke="#ffffff" points="723.7574,-182.7 892.2426,-182.7 "/>
<text text-anchor="middle" x="808" y="-166.1" font-family="Times,serif" font-size="14.00" fill="#ffffff">Stats: 109 rows generated</text>
</a>
</g>
</g>
<!-- DEMO_STORES&#45;&gt;DEMO_ORDERS -->
<g id="edge17" class="edge">
<title>DEMO_STORES-&gt;DEMO_ORDERS</title>
<g id="a_edge17"><a xlink:title="[DEMO_ORD_STO_FK]">
<path fill="none" stroke="#000000" d="M804.7059,-299.146C805.302,-278.0739 806.1669,-247.5005 806.8609,-222.9683"/>
<polygon fill="#000000" stroke="#000000" points="806.8634,-222.8742 814.035,-208.0711 807.0756,-215.3772 807.2877,-207.8802 807.2877,-207.8802 807.2877,-207.8802 807.0756,-215.3772 800.5404,-207.6892 806.8634,-222.8742 806.8634,-222.8742"/>
</a>
</g>
<text text-anchor="middle" x="807.75" y="-249.2" font-family="Times,serif" font-size="14.00" fill="#000000"> </text>
<g id="a_edge17-headlabel"><a xlink:title=" &#10;10&#10; ">
<text text-anchor="middle" x="814.2877" y="-245.6802" font-family="Times,serif" font-size="14.00" fill="#000000"> </text>
<text text-anchor="middle" x="814.2877" y="-228.8802" font-family="Times,serif" font-size="14.00" fill="#000000">10</text>
<text text-anchor="middle" x="814.2877" y="-212.0802" font-family="Times,serif" font-size="14.00" fill="#000000"> </text>
</a>
</g>
</g>
<!-- DEMO_ORG_ENTITIES&#45;&gt;DEMO_ORG_ENTITIES -->
<!-- DEMO_ORG_ENTITIES&#45;&gt;DEMO_ORG_ENTITIES -->
<!-- DEMO_ORG_ENTITIES&#45;&gt;DEMO_ORG_ENTITIES -->
<g id="edge3" class="edge">
<title>DEMO_ORG_ENTITIES-&gt;DEMO_ORG_ENTITIES</title>
<g id="a_edge3"><a xlink:title="[DEMO_OEN_OEN_FK]&#10;min_rows=4&#10;max_rows=6&#10;level_count=5">
<path fill="none" stroke="#000000" d="M261.4285,-328.5824C291.8989,-328.4066 315.3941,-326.9125 315.3941,-324.1 315.3941,-321.7709 299.2813,-320.3459 276.4377,-319.8251"/>
<polygon fill="#00ff00" stroke="#000000" points="276.4997,-314.5755 261.4285,-319.6176 276.3545,-325.0745 276.4997,-314.5755"/>
</a>
</g>
<text text-anchor="middle" x="317.1441" y="-319.9" font-family="Times,serif" font-size="14.00" fill="#000000"> </text>
<g id="a_edge3-headlabel"><a xlink:title=" &#10;1014&#10; ">
<text text-anchor="middle" x="275.4285" y="-307.0176" font-family="Times,serif" font-size="14.00" fill="#000000"> </text>
<text text-anchor="middle" x="275.4285" y="-290.2176" font-family="Times,serif" font-size="14.00" fill="#000000">1014</text>
<text text-anchor="middle" x="275.4285" y="-273.4176" font-family="Times,serif" font-size="14.00" fill="#000000"> </text>
</a>
</g>
</g>
<!-- DEMO_ORG_ENTITIES&#45;&gt;DEMO_ORG_ENTITIES -->
<!-- DEMO_ORG_ENTITIES&#45;&gt;DEMO_ORG_ENTITIES -->
<!-- DEMO_ORG_ENTITIES&#45;&gt;DEMO_ORG_ENTITIES -->
<g id="edge6" class="edge">
<title>DEMO_ORG_ENTITIES-&gt;DEMO_ORG_ENTITIES</title>
<g id="a_edge6"><a xlink:title="[DEMO_OEN_OEN_FK]">
<path fill="none" stroke="#000000" d="M261.45,-332.7428C318.0065,-334.1762 369.3941,-331.2953 369.3941,-324.1 369.3941,-317.5511 326.8254,-314.5762 276.5351,-315.1753"/>
<polygon fill="#000000" stroke="#000000" points="276.4474,-315.1769 261.3239,-308.7084 268.9487,-315.317 261.45,-315.4572 261.45,-315.4572 261.45,-315.4572 268.9487,-315.317 261.5762,-322.206 276.4474,-315.1769 276.4474,-315.1769"/>
</a>
</g>
<text text-anchor="middle" x="371.1441" y="-319.9" font-family="Times,serif" font-size="14.00" fill="#000000"> </text>
</g>
<!-- DEMO_PER_ASSIGNMENTS -->
<g id="node9" class="node">
<title>DEMO_PER_ASSIGNMENTS</title>
<g id="a_node9"><a xlink:title="[DEMO_PER_ASSIGNMENTS]">
<path fill="#0000ff" stroke="#ffffff" d="M28.0407,-157.9C28.0407,-157.9 247.9593,-157.9 247.9593,-157.9 253.9593,-157.9 259.9593,-163.9 259.9593,-169.9 259.9593,-169.9 259.9593,-195.5 259.9593,-195.5 259.9593,-201.5 253.9593,-207.5 247.9593,-207.5 247.9593,-207.5 28.0407,-207.5 28.0407,-207.5 22.0407,-207.5 16.0407,-201.5 16.0407,-195.5 16.0407,-195.5 16.0407,-169.9 16.0407,-169.9 16.0407,-163.9 22.0407,-157.9 28.0407,-157.9"/>
<text text-anchor="middle" x="138" y="-190.9" font-family="Times,serif" font-size="14.00" fill="#ffffff">DEMO_PER_ASSIGNMENTS@pas #3</text>
<polyline fill="none" stroke="#ffffff" points="16.0407,-182.7 259.9593,-182.7 "/>
<text text-anchor="middle" x="138" y="-166.1" font-family="Times,serif" font-size="14.00" fill="#ffffff">Stats: 199 rows generated</text>
</a>
</g>
</g>
<!-- DEMO_ORG_ENTITIES&#45;&gt;DEMO_PER_ASSIGNMENTS -->
<g id="edge18" class="edge">
<title>DEMO_ORG_ENTITIES-&gt;DEMO_PER_ASSIGNMENTS</title>
<g id="a_edge18"><a xlink:title="[DEMO_PAS_OEN_FK]">
<path fill="none" stroke="#000000" d="M151.9999,-299.146C149.4665,-278.0739 145.7907,-247.5005 142.8413,-222.9683"/>
<polygon fill="#ff0000" stroke="#000000" points="148.0304,-222.1462 141.0273,-207.8802 137.6054,-223.3996 148.0304,-222.1462"/>
</a>
</g>
<text text-anchor="middle" x="148.75" y="-249.2" font-family="Times,serif" font-size="14.00" fill="#000000"> </text>
</g>
<!-- DEMO_ORG_ENTITIES&#45;&gt;DEMO_PER_ASSIGNMENTS -->
<g id="edge19" class="edge">
<title>DEMO_ORG_ENTITIES-&gt;DEMO_PER_ASSIGNMENTS</title>
<g id="a_edge19"><a xlink:title="[DEMO_PAS_OEN_FK]&#10;where_clause=&quot;oet_cd != 'INST'&quot;">
<path fill="none" stroke="#000000" d="M146.341,-299.2719C142.8456,-287.9885 139.2328,-274.3763 137.5,-261.8 135.7603,-249.1734 135.3477,-235.3053 135.5287,-222.7556"/>
<polygon fill="#000000" stroke="#000000" points="135.5288,-222.7489 142.7666,-207.9781 135.7745,-215.253 136.0202,-207.757 136.0202,-207.757 136.0202,-207.757 135.7745,-215.253 129.2738,-207.5359 135.5288,-222.7489 135.5288,-222.7489"/>
</a>
</g>
<text text-anchor="middle" x="138.75" y="-249.2" font-family="Times,serif" font-size="14.00" fill="#000000"> </text>
<g id="a_edge19-headlabel"><a xlink:title=" &#10;199&#10; ">
<text text-anchor="middle" x="125.5202" y="-245.557" font-family="Times,serif" font-size="14.00" fill="#000000"> </text>
<text text-anchor="middle" x="125.5202" y="-228.757" font-family="Times,serif" font-size="14.00" fill="#000000">199</text>
<text text-anchor="middle" x="125.5202" y="-211.957" font-family="Times,serif" font-size="14.00" fill="#000000"> </text>
</a>
</g>
</g>
<!-- DEMO_PERSONS&#45;&gt;DEMO_PERSONS -->
<!-- DEMO_PERSONS&#45;&gt;DEMO_PERSONS -->
<!-- DEMO_PERSONS&#45;&gt;DEMO_PERSONS -->
<g id="edge11" class="edge">
<title>DEMO_PERSONS-&gt;DEMO_PERSONS</title>
<g id="a_edge11"><a xlink:title="[DEMO_PER_PER_FK]">
<path fill="none" stroke="#000000" d="M579.0678,-328.5994C608.9163,-328.635 632.9642,-327.1352 632.9642,-324.1 632.9642,-321.5984 616.6276,-320.1398 594.1714,-319.7242"/>
<polygon fill="#ff0000" stroke="#000000" points="594.1103,-314.4736 579.0678,-319.6006 594.0243,-324.9733 594.1103,-314.4736"/>
</a>
</g>
<text text-anchor="middle" x="634.7142" y="-319.9" font-family="Times,serif" font-size="14.00" fill="#000000"> </text>
</g>
<!-- DEMO_PERSONS&#45;&gt;DEMO_PERSONS -->
<!-- DEMO_PERSONS&#45;&gt;DEMO_PERSONS -->
<!-- DEMO_PERSONS&#45;&gt;DEMO_PERSONS -->
<g id="edge14" class="edge">
<title>DEMO_PERSONS-&gt;DEMO_PERSONS</title>
<g id="a_edge14"><a xlink:title="[DEMO_PER_PER_FK]&#10;where_clause=&quot;manager_flag='Y'&quot;&#10;src_filter=&quot;manager_flag IS NULL&quot;">
<path fill="none" stroke="#000000" d="M579.2097,-332.4271C634.2705,-334.5163 686.9642,-331.7406 686.9642,-324.1 686.9642,-317.1608 643.5007,-314.2343 594.2741,-315.3205"/>
<polygon fill="#000000" stroke="#000000" points="594.2029,-315.3226 579.007,-309.026 586.7063,-315.5477 579.2097,-315.7729 579.2097,-315.7729 579.2097,-315.7729 586.7063,-315.5477 579.4123,-322.5199 594.2029,-315.3226 594.2029,-315.3226"/>
</a>
</g>
<text text-anchor="middle" x="688.7142" y="-319.9" font-family="Times,serif" font-size="14.00" fill="#000000"> </text>
<g id="a_edge14-headlabel"><a xlink:title=" &#10;6&#10; ">
<text text-anchor="middle" x="582.7097" y="-353.5729" font-family="Times,serif" font-size="14.00" fill="#000000"> </text>
<text text-anchor="middle" x="582.7097" y="-336.7729" font-family="Times,serif" font-size="14.00" fill="#000000">6</text>
<text text-anchor="middle" x="582.7097" y="-319.9729" font-family="Times,serif" font-size="14.00" fill="#000000"> </text>
</a>
</g>
</g>
<!-- DEMO_PERSONS&#45;&gt;DEMO_ORDERS -->
<g id="edge15" class="edge">
<title>DEMO_PERSONS-&gt;DEMO_ORDERS</title>
<g id="a_edge15"><a xlink:title="[DEMO_ORD_PER_FK]&#10;min_rows=0&#10;max_rows=5">
<path fill="none" stroke="#000000" d="M529.4013,-299.2698C563.1995,-277.6638 614.8813,-246.658 663,-226 672.4703,-221.9343 689.755,-216.2937 709.1749,-210.4253"/>
<polygon fill="#00ff00" stroke="#000000" points="710.7309,-215.4399 723.6117,-206.1313 707.7374,-205.3756 710.7309,-215.4399"/>
</a>
</g>
<text text-anchor="middle" x="623.75" y="-249.2" font-family="Times,serif" font-size="14.00" fill="#000000"> </text>
<g id="a_edge15-headlabel"><a xlink:title=" &#10;109&#10; ">
<text text-anchor="middle" x="734.1117" y="-243.9313" font-family="Times,serif" font-size="14.00" fill="#000000"> </text>
<text text-anchor="middle" x="734.1117" y="-227.1313" font-family="Times,serif" font-size="14.00" fill="#000000">109</text>
<text text-anchor="middle" x="734.1117" y="-210.3313" font-family="Times,serif" font-size="14.00" fill="#000000"> </text>
</a>
</g>
</g>
<!-- DEMO_PERSONS&#45;&gt;DEMO_ORDERS -->
<g id="edge16" class="edge">
<title>DEMO_PERSONS-&gt;DEMO_ORDERS</title>
<g id="a_edge16"><a xlink:title="[DEMO_ORD_PER_FK]">
<path fill="none" stroke="#000000" d="M547.7671,-299.146C600.9342,-275.3554 681.1673,-239.4536 738.4789,-213.8085"/>
<polygon fill="#000000" stroke="#000000" points="738.8336,-213.6498 755.2824,-213.6844 745.6795,-210.5865 752.5254,-207.5231 752.5254,-207.5231 752.5254,-207.5231 745.6795,-210.5865 749.7684,-201.3618 738.8336,-213.6498 738.8336,-213.6498"/>
</a>
</g>
<text text-anchor="middle" x="669.75" y="-249.2" font-family="Times,serif" font-size="14.00" fill="#000000"> </text>
<g id="a_edge16-headlabel"><a xlink:title=" &#10;39&#10; ">
<text text-anchor="middle" x="759.5254" y="-245.3231" font-family="Times,serif" font-size="14.00" fill="#000000"> </text>
<text text-anchor="middle" x="759.5254" y="-228.5231" font-family="Times,serif" font-size="14.00" fill="#000000">39</text>
<text text-anchor="middle" x="759.5254" y="-211.7231" font-family="Times,serif" font-size="14.00" fill="#000000"> </text>
</a>
</g>
</g>
<!-- DEMO_PERSONS&#45;&gt;DEMO_PER_ASSIGNMENTS -->
<g id="edge20" class="edge">
<title>DEMO_PERSONS-&gt;DEMO_PER_ASSIGNMENTS</title>
<g id="a_edge20"><a xlink:title="[DEMO_PAS_PER_FK]&#10;gen_view_name=DEMO_RANDOM_DATE_HISTORY">
<path fill="none" stroke="#000000" d="M429.5268,-299.146C369.4614,-275.1538 278.5592,-238.8443 214.2545,-213.1587"/>
<polygon fill="#00ff00" stroke="#000000" points="216.0229,-208.2118 200.1456,-207.5231 212.128,-217.9627 216.0229,-208.2118"/>
</a>
</g>
<text text-anchor="middle" x="336.75" y="-249.2" font-family="Times,serif" font-size="14.00" fill="#000000"> </text>
<g id="a_edge20-headlabel"><a xlink:title=" &#10;199&#10; ">
<text text-anchor="middle" x="189.6456" y="-245.3231" font-family="Times,serif" font-size="14.00" fill="#000000"> </text>
<text text-anchor="middle" x="189.6456" y="-228.5231" font-family="Times,serif" font-size="14.00" fill="#000000">199</text>
<text text-anchor="middle" x="189.6456" y="-211.7231" font-family="Times,serif" font-size="14.00" fill="#000000"> </text>
</a>
</g>
</g>
<!-- DEMO_PERSONS&#45;&gt;DEMO_PER_ASSIGNMENTS -->
<g id="edge21" class="edge">
<title>DEMO_PERSONS-&gt;DEMO_PER_ASSIGNMENTS</title>
<g id="a_edge21"><a xlink:title="[DEMO_PAS_PER_FK]">
<path fill="none" stroke="#000000" d="M450.3421,-299.1884C421.0295,-282.3618 380.4932,-260.4791 343,-245 312.7988,-232.5314 279.1879,-221.2845 248.0628,-211.889"/>
<polygon fill="#000000" stroke="#000000" points="247.8665,-211.8309 235.4041,-201.0953 240.6759,-209.6989 233.4853,-207.5669 233.4853,-207.5669 233.4853,-207.5669 240.6759,-209.6989 231.5665,-214.0384 247.8665,-211.8309 247.8665,-211.8309"/>
</a>
</g>
<text text-anchor="middle" x="379.75" y="-249.2" font-family="Times,serif" font-size="14.00" fill="#000000"> </text>
<g id="a_edge21-headlabel"><a xlink:title=" &#10;50&#10; ">
<text text-anchor="middle" x="226.4853" y="-245.3669" font-family="Times,serif" font-size="14.00" fill="#000000"> </text>
<text text-anchor="middle" x="226.4853" y="-228.5669" font-family="Times,serif" font-size="14.00" fill="#000000">50</text>
<text text-anchor="middle" x="226.4853" y="-211.7669" font-family="Times,serif" font-size="14.00" fill="#000000"> </text>
</a>
</g>
</g>
<!-- DEMO_PER_CLOCKINGS -->
<g id="node10" class="node">
<title>DEMO_PER_CLOCKINGS</title>
<g id="a_node10"><a xlink:title="[DEMO_PER_CLOCKINGS]">
<path fill="#0000ff" stroke="#ffffff" d="M493.7623,-157.9C493.7623,-157.9 694.2377,-157.9 694.2377,-157.9 700.2377,-157.9 706.2377,-163.9 706.2377,-169.9 706.2377,-169.9 706.2377,-195.5 706.2377,-195.5 706.2377,-201.5 700.2377,-207.5 694.2377,-207.5 694.2377,-207.5 493.7623,-207.5 493.7623,-207.5 487.7623,-207.5 481.7623,-201.5 481.7623,-195.5 481.7623,-195.5 481.7623,-169.9 481.7623,-169.9 481.7623,-163.9 487.7623,-157.9 493.7623,-157.9"/>
<text text-anchor="middle" x="594" y="-190.9" font-family="Times,serif" font-size="14.00" fill="#ffffff">DEMO_PER_CLOCKINGS@pcl #3</text>
<polyline fill="none" stroke="#ffffff" points="481.7623,-182.7 706.2377,-182.7 "/>
<text text-anchor="middle" x="594" y="-166.1" font-family="Times,serif" font-size="14.00" fill="#ffffff">Stats: 5000 rows generated</text>
</a>
</g>
</g>
<!-- DEMO_PERSONS&#45;&gt;DEMO_PER_CLOCKINGS -->
<g id="edge22" class="edge">
<title>DEMO_PERSONS-&gt;DEMO_PER_CLOCKINGS</title>
<g id="a_edge22"><a xlink:title="[DEMO_PCL_PER_FK]&#10;gen_view_name=DEMO_RANDOM_TIME_CLOCKINGS">
<path fill="none" stroke="#000000" d="M505.0529,-299.084C513.78,-283.1168 525.9312,-262.2532 538.5,-245 544.9349,-236.1668 552.3973,-227.1291 559.7227,-218.7746"/>
<polygon fill="#00ff00" stroke="#000000" points="563.7293,-222.1708 569.8661,-207.5112 555.9269,-215.1443 563.7293,-222.1708"/>
</a>
</g>
<text text-anchor="middle" x="539.75" y="-249.2" font-family="Times,serif" font-size="14.00" fill="#000000"> </text>
<g id="a_edge22-headlabel"><a xlink:title=" &#10;5000&#10; ">
<text text-anchor="middle" x="583.8661" y="-245.3112" font-family="Times,serif" font-size="14.00" fill="#000000"> </text>
<text text-anchor="middle" x="583.8661" y="-228.5112" font-family="Times,serif" font-size="14.00" fill="#000000">5000</text>
<text text-anchor="middle" x="583.8661" y="-211.7112" font-family="Times,serif" font-size="14.00" fill="#000000"> </text>
</a>
</g>
</g>
<!-- DEMO_PERSONS&#45;&gt;DEMO_PER_CLOCKINGS -->
<g id="edge23" class="edge">
<title>DEMO_PERSONS-&gt;DEMO_PER_CLOCKINGS</title>
<g id="a_edge23"><a xlink:title="[DEMO_PCL_PER_FK]">
<path fill="none" stroke="#000000" d="M512.9895,-299.0627C522.1498,-287.8554 532.8624,-274.3607 542,-261.8 551.6438,-248.5435 561.6672,-233.6083 570.3101,-220.3153"/>
<polygon fill="#000000" stroke="#000000" points="570.3142,-220.309 584.1051,-211.3439 574.371,-214.0009 578.4278,-207.6927 578.4278,-207.6927 578.4278,-207.6927 574.371,-214.0009 572.7504,-204.0416 570.3142,-220.309 570.3142,-220.309"/>
</a>
</g>
<text text-anchor="middle" x="554.75" y="-249.2" font-family="Times,serif" font-size="14.00" fill="#000000"> </text>
<g id="a_edge23-headlabel"><a xlink:title=" &#10;50&#10; ">
<text text-anchor="middle" x="571.4278" y="-245.4927" font-family="Times,serif" font-size="14.00" fill="#000000"> </text>
<text text-anchor="middle" x="571.4278" y="-228.6927" font-family="Times,serif" font-size="14.00" fill="#000000">50</text>
<text text-anchor="middle" x="571.4278" y="-211.8927" font-family="Times,serif" font-size="14.00" fill="#000000"> </text>
</a>
</g>
</g>
<!-- DEMO_PERSONS&#45;&gt;DEMO_PER_CREDIT_CARDS -->
<g id="edge25" class="edge">
<title>DEMO_PERSONS-&gt;DEMO_PER_CREDIT_CARDS</title>
<g id="a_edge25"><a xlink:title="[DEMO_PCC_PER_FK]&#10;min_rows=2&#10;max_rows=4">
<path fill="none" stroke="#000000" d="M570.4189,-299.1828C603.2674,-288.3239 641.714,-275.0611 676,-261.8 713.0888,-247.4549 719.6578,-236.5467 758,-226 815.2998,-210.2387 834.8901,-216.754 895.3723,-208.6841"/>
<polygon fill="#00ff00" stroke="#000000" points="896.199,-213.8692 910.2875,-206.5154 894.6881,-203.4784 896.199,-213.8692"/>
</a>
</g>
<text text-anchor="middle" x="712.75" y="-249.2" font-family="Times,serif" font-size="14.00" fill="#000000"> </text>
<g id="a_edge25-headlabel"><a xlink:title=" &#10;143&#10; ">
<text text-anchor="middle" x="899.7875" y="-244.3154" font-family="Times,serif" font-size="14.00" fill="#000000"> </text>
<text text-anchor="middle" x="899.7875" y="-227.5154" font-family="Times,serif" font-size="14.00" fill="#000000">143</text>
<text text-anchor="middle" x="899.7875" y="-210.7154" font-family="Times,serif" font-size="14.00" fill="#000000"> </text>
</a>
</g>
</g>
<!-- DEMO_PERSONS&#45;&gt;DEMO_PER_CREDIT_CARDS -->
<g id="edge26" class="edge">
<title>DEMO_PERSONS-&gt;DEMO_PER_CREDIT_CARDS</title>
<g id="a_edge26"><a xlink:title="[DEMO_PCC_PER_FK]">
<path fill="none" stroke="#000000" d="M579.1013,-301.4601C673.2246,-276.9949 823.4394,-237.9501 925.7324,-211.3615"/>
<polygon fill="#000000" stroke="#000000" points="925.9471,-211.3057 942.1628,-214.0651 933.2059,-209.419 940.4647,-207.5322 940.4647,-207.5322 940.4647,-207.5322 933.2059,-209.419 938.7666,-200.9992 925.9471,-211.3057 925.9471,-211.3057"/>
</a>
</g>
<text text-anchor="middle" x="796.75" y="-249.2" font-family="Times,serif" font-size="14.00" fill="#000000"> </text>
<g id="a_edge26-headlabel"><a xlink:title=" &#10;50&#10; ">
<text text-anchor="middle" x="933.4647" y="-245.3322" font-family="Times,serif" font-size="14.00" fill="#000000"> </text>
<text text-anchor="middle" x="933.4647" y="-228.5322" font-family="Times,serif" font-size="14.00" fill="#000000">50</text>
<text text-anchor="middle" x="933.4647" y="-211.7322" font-family="Times,serif" font-size="14.00" fill="#000000"> </text>
</a>
</g>
</g>
<!-- DEMO_ORDERS&#45;&gt;DEMO_ORDER_ITEMS -->
<g id="edge27" class="edge">
<title>DEMO_ORDERS-&gt;DEMO_ORDER_ITEMS</title>
<g id="a_edge27"><a xlink:title="[DEMO_OIT_ORD_FK]&#10;min_rows=1&#10;max_rows=5&#10;post_gen_code=&quot;UPDATE demo_orders ord SET total_price = (SELECT NVL(SUM(oit.price),0) FROM demo_order_items oit WHERE oit.ord_id = ord.ord_id)&quot;">
<path fill="none" stroke="#000000" d="M794.535,-157.7113C788.5496,-146.3969 781.5127,-132.8047 775.5,-120.4 769.2034,-107.4095 762.6421,-93.0507 756.8983,-80.172"/>
<polygon fill="#00ff00" stroke="#000000" points="761.683,-78.0106 750.8184,-66.4122 752.0788,-82.2544 761.683,-78.0106"/>
</a>
</g>
<text text-anchor="middle" x="776.75" y="-107.8" font-family="Times,serif" font-size="14.00" fill="#000000"> </text>
<g id="a_edge27-headlabel"><a xlink:title=" &#10;317&#10; ">
<text text-anchor="middle" x="740.3184" y="-104.2122" font-family="Times,serif" font-size="14.00" fill="#000000"> </text>
<text text-anchor="middle" x="740.3184" y="-87.4122" font-family="Times,serif" font-size="14.00" fill="#000000">317</text>
<text text-anchor="middle" x="740.3184" y="-70.6122" font-family="Times,serif" font-size="14.00" fill="#000000"> </text>
</a>
</g>
</g>
<!-- DEMO_ORDERS&#45;&gt;DEMO_ORDER_ITEMS -->
<g id="edge28" class="edge">
<title>DEMO_ORDERS-&gt;DEMO_ORDER_ITEMS</title>
<g id="a_edge28"><a xlink:title="[DEMO_OIT_ORD_FK]">
<path fill="none" stroke="#000000" d="M800.2742,-157.5657C795.0486,-141.7386 787.5553,-121.0709 779,-103.6 775.0094,-95.4507 770.2266,-87.0219 765.3997,-79.0975"/>
<polygon fill="#000000" stroke="#000000" points="765.3755,-79.0591 763.074,-62.7721 761.371,-72.7176 757.3666,-66.3761 757.3666,-66.3761 757.3666,-66.3761 761.371,-72.7176 751.6593,-69.98 765.3755,-79.0591 765.3755,-79.0591"/>
</a>
</g>
<text text-anchor="middle" x="787.75" y="-107.8" font-family="Times,serif" font-size="14.00" fill="#000000"> </text>
<g id="a_edge28-headlabel"><a xlink:title=" &#10;109&#10; ">
<text text-anchor="middle" x="767.8666" y="-104.1761" font-family="Times,serif" font-size="14.00" fill="#000000"> </text>
<text text-anchor="middle" x="767.8666" y="-87.3761" font-family="Times,serif" font-size="14.00" fill="#000000">109</text>
<text text-anchor="middle" x="767.8666" y="-70.5761" font-family="Times,serif" font-size="14.00" fill="#000000"> </text>
</a>
</g>
</g>
<!-- DEMO_PER_TRANSACTIONS -->
<g id="node13" class="node">
<title>DEMO_PER_TRANSACTIONS</title>
<g id="a_node13"><a xlink:title="[DEMO_PER_TRANSACTIONS]">
<path fill="#0000ff" stroke="#ffffff" d="M878.0684,-16.5C878.0684,-16.5 1113.9316,-16.5 1113.9316,-16.5 1119.9316,-16.5 1125.9316,-22.5 1125.9316,-28.5 1125.9316,-28.5 1125.9316,-54.1 1125.9316,-54.1 1125.9316,-60.1 1119.9316,-66.1 1113.9316,-66.1 1113.9316,-66.1 878.0684,-66.1 878.0684,-66.1 872.0684,-66.1 866.0684,-60.1 866.0684,-54.1 866.0684,-54.1 866.0684,-28.5 866.0684,-28.5 866.0684,-22.5 872.0684,-16.5 878.0684,-16.5"/>
<text text-anchor="middle" x="996" y="-49.5" font-family="Times,serif" font-size="14.00" fill="#ffffff">DEMO_PER_TRANSACTIONS@ptr #4,2</text>
<polyline fill="none" stroke="#ffffff" points="866.0684,-41.3 1125.9316,-41.3 "/>
<text text-anchor="middle" x="996" y="-24.7" font-family="Times,serif" font-size="14.00" fill="#ffffff">Stats: 101 rows generated</text>
</a>
</g>
</g>
<!-- DEMO_ORDERS&#45;&gt;DEMO_PER_TRANSACTIONS -->
<g id="edge30" class="edge">
<title>DEMO_ORDERS-&gt;DEMO_PER_TRANSACTIONS</title>
<g id="a_edge30"><a xlink:title="[DEMO_PTR_ORD_FK]&#10;min_rows=0&#10;max_rows=2">
<path fill="none" stroke="#000000" d="M838.9819,-157.8538C864.2779,-137.744 901.0935,-108.8755 934,-84.6 938.2492,-81.4653 942.6935,-78.2468 947.1668,-75.0483"/>
<polygon fill="#00ff00" stroke="#000000" points="950.4989,-79.122 959.7122,-66.1729 944.4347,-70.5502 950.4989,-79.122"/>
</a>
</g>
<text text-anchor="middle" x="907.75" y="-107.8" font-family="Times,serif" font-size="14.00" fill="#000000"> </text>
<g id="a_edge30-headlabel"><a xlink:title=" &#10;101&#10; ">
<text text-anchor="middle" x="949.2122" y="-103.9729" font-family="Times,serif" font-size="14.00" fill="#000000"> </text>
<text text-anchor="middle" x="949.2122" y="-87.1729" font-family="Times,serif" font-size="14.00" fill="#000000">101</text>
<text text-anchor="middle" x="949.2122" y="-70.3729" font-family="Times,serif" font-size="14.00" fill="#000000"> </text>
</a>
</g>
</g>
<!-- DEMO_ORDERS&#45;&gt;DEMO_PER_TRANSACTIONS -->
<g id="edge31" class="edge">
<title>DEMO_ORDERS-&gt;DEMO_PER_TRANSACTIONS</title>
<g id="a_edge31"><a xlink:title="[DEMO_PTR_ORD_FK]">
<path fill="none" stroke="#000000" d="M855.7032,-157.8398C874.5071,-147.2378 895.8937,-134.1466 914,-120.4 930.9061,-107.5645 948.0475,-91.5906 962.2562,-77.3649"/>
<polygon fill="#000000" stroke="#000000" points="962.4711,-77.1454 977.7865,-71.1453 967.7165,-71.7848 972.962,-66.4243 972.962,-66.4243 972.962,-66.4243 967.7165,-71.7848 968.1376,-61.7034 962.4711,-77.1454 962.4711,-77.1454"/>
</a>
</g>
<text text-anchor="middle" x="935.75" y="-107.8" font-family="Times,serif" font-size="14.00" fill="#000000"> </text>
<g id="a_edge31-headlabel"><a xlink:title=" &#10;69&#10; ">
<text text-anchor="middle" x="979.962" y="-104.2243" font-family="Times,serif" font-size="14.00" fill="#000000"> </text>
<text text-anchor="middle" x="979.962" y="-87.4243" font-family="Times,serif" font-size="14.00" fill="#000000">69</text>
<text text-anchor="middle" x="979.962" y="-70.6243" font-family="Times,serif" font-size="14.00" fill="#000000"> </text>
</a>
</g>
</g>
<!-- DEMO_PER_CREDIT_CARDS&#45;&gt;DEMO_PER_TRANSACTIONS -->
<g id="edge32" class="edge">
<title>DEMO_PER_CREDIT_CARDS-&gt;DEMO_PER_TRANSACTIONS</title>
<g id="a_edge32"><a xlink:title="[DEMO_PTR_PCC_FK]">
<path fill="none" stroke="#000000" d="M1024.364,-157.6636C1019.5197,-146.4565 1014.179,-132.9617 1010.5,-120.4 1006.8304,-107.8702 1003.9069,-93.9393 1001.674,-81.3031"/>
<polygon fill="#ff0000" stroke="#000000" points="1006.8058,-80.1524 999.211,-66.1924 996.4426,-81.8416 1006.8058,-80.1524"/>
</a>
</g>
<text text-anchor="middle" x="1011.75" y="-107.8" font-family="Times,serif" font-size="14.00" fill="#000000"> </text>
</g>
<!-- DEMO_PER_CREDIT_CARDS&#45;&gt;DEMO_PER_TRANSACTIONS -->
<g id="edge33" class="edge">
<title>DEMO_PER_CREDIT_CARDS-&gt;DEMO_PER_TRANSACTIONS</title>
<g id="a_edge33"><a xlink:title="[DEMO_PTR_PCC_FK]&#10;where_clause=&quot;per_id=PARENT per_id&quot;">
<path fill="none" stroke="#000000" d="M1029.1278,-157.7443C1024.8209,-142.1662 1019.1322,-121.7017 1014,-103.6 1011.894,-96.172 1009.6246,-88.2529 1007.4305,-80.6389"/>
<polygon fill="#000000" stroke="#000000" points="1007.4056,-80.5525 1009.7237,-64.2678 1005.3224,-73.3476 1003.2393,-66.1427 1003.2393,-66.1427 1003.2393,-66.1427 1005.3224,-73.3476 996.7549,-68.0175 1007.4056,-80.5525 1007.4056,-80.5525"/>
</a>
</g>
<text text-anchor="middle" x="1019.75" y="-107.8" font-family="Times,serif" font-size="14.00" fill="#000000"> </text>
<g id="a_edge33-headlabel"><a xlink:title=" &#10;68&#10; ">
<text text-anchor="middle" x="996.2393" y="-103.9427" font-family="Times,serif" font-size="14.00" fill="#000000"> </text>
<text text-anchor="middle" x="996.2393" y="-87.1427" font-family="Times,serif" font-size="14.00" fill="#000000">68</text>
<text text-anchor="middle" x="996.2393" y="-70.3427" font-family="Times,serif" font-size="14.00" fill="#000000"> </text>
</a>
</g>
</g>
<!-- DEMO_DUAL -->
<g id="node14" class="node">
<title>DEMO_DUAL</title>
<g id="a_node14"><a xlink:title="[DEMO_DUAL]">
<path fill="#d3d3d3" stroke="#000000" d="M28.4586,-447.5C28.4586,-447.5 107.5414,-447.5 107.5414,-447.5 113.5414,-447.5 119.5414,-453.5 119.5414,-459.5 119.5414,-459.5 119.5414,-471.5 119.5414,-471.5 119.5414,-477.5 113.5414,-483.5 107.5414,-483.5 107.5414,-483.5 28.4586,-483.5 28.4586,-483.5 22.4586,-483.5 16.4586,-477.5 16.4586,-471.5 16.4586,-471.5 16.4586,-459.5 16.4586,-459.5 16.4586,-453.5 22.4586,-447.5 28.4586,-447.5"/>
<text text-anchor="middle" x="68" y="-461.4" font-family="Times,serif" font-size="14.00" fill="#000000">DEMO_DUAL</text>
</a>
</g>
</g>
</g>
</svg>