<?xml version="1.0" encoding="UTF-8" standalone="no"?><!DOCTYPE svg PUBLIC "-//W3C//DTD SVG 1.1//EN" "http://www.w3.org/Graphics/SVG/1.1/DTD/svg11.dtd"><!-- Generated by graphviz version 2.40.1 (20161225.0304)
 --><!-- Title: ds10_graph Pages: 1 --><svg xmlns="http://www.w3.org/2000/svg" xmlns:xlink="http://www.w3.org/1999/xlink" width="1130pt" height="558pt" viewBox="0.00 0.00 1130.00 558.00">
<g id="graph0" class="graph" transform="scale(1 1) rotate(0) translate(4 554)">
<title>ds10_graph</title>
<polygon fill="#ffffff" stroke="transparent" points="-4,4 -4,-554 1126,-554 1126,4 -4,4"/>
<g id="clust1" class="cluster">
<title>cluster_main</title>
<g id="a_clust1"><a xlink:title="[DEMO_DATA_GEN]&#10;user_created=&quot;APP_DBCC_D&quot;&#10;date_created=&quot;25/10/23&quot;">
<polygon fill="none" stroke="#000000" points="8,-8 8,-542 944,-542 944,-8 8,-8"/>
<text text-anchor="start" x="328.461" y="-526.4" font-family="Times,serif" font-weight="bold" font-size="14.00" fill="#000000">Data Set: DEMO_DATA_GEN (id: 10 - type: GEN)</text>
</a>
</g>
</g>
<g id="clust2" class="cluster">
<title>cluster_legend</title>
<polygon fill="none" stroke="#000000" points="952,-8 952,-542 1114,-542 1114,-8 952,-8"/>
<text text-anchor="start" x="1012.0091" y="-526.4" font-family="Times,serif" font-weight="bold" font-size="14.00" fill="#000000">Legend</text>
</g>
<!-- DEMO_COUNTRIES -->
<g id="node1" class="node">
<title>DEMO_COUNTRIES</title>
<g id="a_node1"><a xlink:title="[DEMO_COUNTRIES]&#10;source_count=27&#10;extract_count=0">
<path fill="#ff0000" stroke="#ffffff" d="M368.6241,-467.1C368.6241,-467.1 487.3759,-467.1 487.3759,-467.1 493.3759,-467.1 499.3759,-473.1 499.3759,-479.1 499.3759,-479.1 499.3759,-496.7 499.3759,-496.7 499.3759,-502.7 493.3759,-508.7 487.3759,-508.7 487.3759,-508.7 368.6241,-508.7 368.6241,-508.7 362.6241,-508.7 356.6241,-502.7 356.6241,-496.7 356.6241,-496.7 356.6241,-479.1 356.6241,-479.1 356.6241,-473.1 362.6241,-467.1 368.6241,-467.1"/>
<text text-anchor="middle" x="428" y="-492.1" font-family="Times,serif" font-size="14.00" fill="#ffffff">DEMO_COUNTRIES</text>
<text text-anchor="middle" x="428" y="-475.3" font-family="Times,serif" font-size="14.00" fill="#ffffff">@cnt #1</text>
</a>
</g>
</g>
<!-- DEMO_PERSONS -->
<g id="node7" class="node">
<title>DEMO_PERSONS</title>
<g id="a_node7"><a xlink:title="[DEMO_PERSONS]&#10;row_count=50&#10;source_count=50&#10;extract_count=50">
<path fill="#00ff00" stroke="#000000" d="M334.1697,-316.9C334.1697,-316.9 435.8303,-316.9 435.8303,-316.9 441.8303,-316.9 447.8303,-322.9 447.8303,-328.9 447.8303,-328.9 447.8303,-346.5 447.8303,-346.5 447.8303,-352.5 441.8303,-358.5 435.8303,-358.5 435.8303,-358.5 334.1697,-358.5 334.1697,-358.5 328.1697,-358.5 322.1697,-352.5 322.1697,-346.5 322.1697,-346.5 322.1697,-328.9 322.1697,-328.9 322.1697,-322.9 328.1697,-316.9 334.1697,-316.9"/>
<text text-anchor="middle" x="385" y="-341.9" font-family="Times,serif" font-size="14.00" fill="#000000">DEMO_PERSONS</text>
<text text-anchor="middle" x="385" y="-325.1" font-family="Times,serif" font-size="14.00" fill="#000000">@per #2</text>
</a>
</g>
</g>
<!-- DEMO_COUNTRIES&#45;&gt;DEMO_PERSONS -->
<g id="edge8" class="edge">
<title>DEMO_COUNTRIES-&gt;DEMO_PERSONS</title>
<g id="a_edge8"><a xlink:title="[DEMO_PER_CNT_FK]&#10;extract_count=17">
<path fill="none" stroke="#000000" d="M422.021,-467.0153C415.0964,-442.8275 403.5724,-402.5737 395.2186,-373.3938"/>
<polygon fill="#000000" stroke="#000000" points="395.1953,-373.3122 397.5561,-357.0337 393.1311,-366.1018 391.0668,-358.8915 391.0668,-358.8915 391.0668,-358.8915 393.1311,-366.1018 384.5775,-360.7493 395.1953,-373.3122 395.1953,-373.3122"/>
</a>
</g>
<text text-anchor="middle" x="412.75" y="-408.6" font-family="Times,serif" font-size="14.00" fill="#000000"> </text>
</g>
<!-- DEMO_CREDIT_CARD_TYPES -->
<g id="node2" class="node">
<title>DEMO_CREDIT_CARD_TYPES</title>
<g id="a_node2"><a xlink:title="[DEMO_CREDIT_CARD_TYPES]&#10;source_count=4&#10;extract_count=0">
<path fill="#ff0000" stroke="#ffffff" d="M737.7903,-316.9C737.7903,-316.9 924.2097,-316.9 924.2097,-316.9 930.2097,-316.9 936.2097,-322.9 936.2097,-328.9 936.2097,-328.9 936.2097,-346.5 936.2097,-346.5 936.2097,-352.5 930.2097,-358.5 924.2097,-358.5 924.2097,-358.5 737.7903,-358.5 737.7903,-358.5 731.7903,-358.5 725.7903,-352.5 725.7903,-346.5 725.7903,-346.5 725.7903,-328.9 725.7903,-328.9 725.7903,-322.9 731.7903,-316.9 737.7903,-316.9"/>
<text text-anchor="middle" x="831" y="-341.9" font-family="Times,serif" font-size="14.00" fill="#ffffff">DEMO_CREDIT_CARD_TYPES</text>
<text text-anchor="middle" x="831" y="-325.1" font-family="Times,serif" font-size="14.00" fill="#ffffff">@cct #1</text>
</a>
</g>
</g>
<!-- DEMO_PER_CREDIT_CARDS -->
<g id="node11" class="node">
<title>DEMO_PER_CREDIT_CARDS</title>
<g id="a_node11"><a xlink:title="[DEMO_PER_CREDIT_CARDS]&#10;source_count=145&#10;extract_count=145">
<path fill="#0000ff" stroke="#ffffff" d="M727.4516,-166.7C727.4516,-166.7 904.5484,-166.7 904.5484,-166.7 910.5484,-166.7 916.5484,-172.7 916.5484,-178.7 916.5484,-178.7 916.5484,-196.3 916.5484,-196.3 916.5484,-202.3 910.5484,-208.3 904.5484,-208.3 904.5484,-208.3 727.4516,-208.3 727.4516,-208.3 721.4516,-208.3 715.4516,-202.3 715.4516,-196.3 715.4516,-196.3 715.4516,-178.7 715.4516,-178.7 715.4516,-172.7 721.4516,-166.7 727.4516,-166.7"/>
<text text-anchor="middle" x="816" y="-191.7" font-family="Times,serif" font-size="14.00" fill="#ffffff">DEMO_PER_CREDIT_CARDS</text>
<text text-anchor="middle" x="816" y="-174.9" font-family="Times,serif" font-size="14.00" fill="#ffffff">@pcc #3</text>
</a>
</g>
</g>
<!-- DEMO_CREDIT_CARD_TYPES&#45;&gt;DEMO_PER_CREDIT_CARDS -->
<g id="edge24" class="edge">
<title>DEMO_CREDIT_CARD_TYPES-&gt;DEMO_PER_CREDIT_CARDS</title>
<g id="a_edge24"><a xlink:title="[DEMO_PCC_CCT_FK]&#10;extract_count=4">
<path fill="none" stroke="#000000" d="M828.9143,-316.8153C826.521,-292.8505 822.5527,-253.1144 819.6455,-224.0034"/>
<polygon fill="#000000" stroke="#000000" points="819.607,-223.6173 824.8329,-208.0207 818.8617,-216.1544 818.1163,-208.6915 818.1163,-208.6915 818.1163,-208.6915 818.8617,-216.1544 811.3997,-209.3623 819.607,-223.6173 819.607,-223.6173"/>
</a>
</g>
<text text-anchor="middle" x="826.75" y="-258.4" font-family="Times,serif" font-size="14.00" fill="#000000"> </text>
</g>
<!-- DEMO_ORG_ENTITY_TYPES -->
<g id="node3" class="node">
<title>DEMO_ORG_ENTITY_TYPES</title>
<g id="a_node3"><a xlink:title="[DEMO_ORG_ENTITY_TYPES]&#10;source_count=5&#10;extract_count=0">
<path fill="#ff0000" stroke="#ffffff" d="M149.4656,-467.1C149.4656,-467.1 326.5344,-467.1 326.5344,-467.1 332.5344,-467.1 338.5344,-473.1 338.5344,-479.1 338.5344,-479.1 338.5344,-496.7 338.5344,-496.7 338.5344,-502.7 332.5344,-508.7 326.5344,-508.7 326.5344,-508.7 149.4656,-508.7 149.4656,-508.7 143.4656,-508.7 137.4656,-502.7 137.4656,-496.7 137.4656,-496.7 137.4656,-479.1 137.4656,-479.1 137.4656,-473.1 143.4656,-467.1 149.4656,-467.1"/>
<text text-anchor="middle" x="238" y="-492.1" font-family="Times,serif" font-size="14.00" fill="#ffffff">DEMO_ORG_ENTITY_TYPES</text>
<text text-anchor="middle" x="238" y="-475.3" font-family="Times,serif" font-size="14.00" fill="#ffffff">@oet #1</text>
</a>
</g>
</g>
<!-- DEMO_ORG_ENTITIES -->
<g id="node6" class="node">
<title>DEMO_ORG_ENTITIES</title>
<g id="a_node6"><a xlink:title="[DEMO_ORG_ENTITIES]&#10;row_count=1&#10;source_count=907&#10;extract_count=907">
<path fill="#00ff00" stroke="#000000" d="M27.9095,-316.9C27.9095,-316.9 166.0905,-316.9 166.0905,-316.9 172.0905,-316.9 178.0905,-322.9 178.0905,-328.9 178.0905,-328.9 178.0905,-346.5 178.0905,-346.5 178.0905,-352.5 172.0905,-358.5 166.0905,-358.5 166.0905,-358.5 27.9095,-358.5 27.9095,-358.5 21.9095,-358.5 15.9095,-352.5 15.9095,-346.5 15.9095,-346.5 15.9095,-328.9 15.9095,-328.9 15.9095,-322.9 21.9095,-316.9 27.9095,-316.9"/>
<text text-anchor="middle" x="97" y="-341.9" font-family="Times,serif" font-size="14.00" fill="#000000">DEMO_ORG_ENTITIES</text>
<text text-anchor="middle" x="97" y="-325.1" font-family="Times,serif" font-size="14.00" fill="#000000">@oen #2</text>
</a>
</g>
</g>
<!-- DEMO_ORG_ENTITY_TYPES&#45;&gt;DEMO_ORG_ENTITIES -->
<g id="edge7" class="edge">
<title>DEMO_ORG_ENTITY_TYPES-&gt;DEMO_ORG_ENTITIES</title>
<g id="a_edge7"><a xlink:title="[DEMO_OEN_OET_FK]&#10;extract_count=5&#10;where_clause=&quot;oet_level=LEVEL&quot;">
<path fill="none" stroke="#000000" d="M218.3946,-467.0153C194.8512,-441.9358 155.0934,-399.5839 127.5216,-370.2131"/>
<polygon fill="#000000" stroke="#000000" points="127.1599,-369.8278 121.8148,-354.2716 122.0267,-364.3596 116.8935,-358.8915 116.8935,-358.8915 116.8935,-358.8915 122.0267,-364.3596 111.9722,-363.5114 127.1599,-369.8278 127.1599,-369.8278"/>
</a>
</g>
<text text-anchor="middle" x="183.75" y="-408.6" font-family="Times,serif" font-size="14.00" fill="#000000"> </text>
</g>
<!-- DEMO_PRODUCTS -->
<g id="node4" class="node">
<title>DEMO_PRODUCTS</title>
<g id="a_node4"><a xlink:title="[DEMO_PRODUCTS]&#10;row_count=50&#10;source_count=50&#10;extract_count=50">
<path fill="#00ff00" stroke="#000000" d="M240.3394,-166.7C240.3394,-166.7 353.6606,-166.7 353.6606,-166.7 359.6606,-166.7 365.6606,-172.7 365.6606,-178.7 365.6606,-178.7 365.6606,-196.3 365.6606,-196.3 365.6606,-202.3 359.6606,-208.3 353.6606,-208.3 353.6606,-208.3 240.3394,-208.3 240.3394,-208.3 234.3394,-208.3 228.3394,-202.3 228.3394,-196.3 228.3394,-196.3 228.3394,-178.7 228.3394,-178.7 228.3394,-172.7 234.3394,-166.7 240.3394,-166.7"/>
<text text-anchor="middle" x="297" y="-191.7" font-family="Times,serif" font-size="14.00" fill="#000000">DEMO_PRODUCTS</text>
<text text-anchor="middle" x="297" y="-174.9" font-family="Times,serif" font-size="14.00" fill="#000000">@prd #1</text>
</a>
</g>
</g>
<!-- DEMO_ORDER_ITEMS -->
<g id="node12" class="node">
<title>DEMO_ORDER_ITEMS</title>
<g id="a_node12"><a xlink:title="[DEMO_ORDER_ITEMS]&#10;source_count=302&#10;extract_count=302">
<path fill="#0000ff" stroke="#ffffff" d="M507.6788,-16.5C507.6788,-16.5 644.3212,-16.5 644.3212,-16.5 650.3212,-16.5 656.3212,-22.5 656.3212,-28.5 656.3212,-28.5 656.3212,-46.1 656.3212,-46.1 656.3212,-52.1 650.3212,-58.1 644.3212,-58.1 644.3212,-58.1 507.6788,-58.1 507.6788,-58.1 501.6788,-58.1 495.6788,-52.1 495.6788,-46.1 495.6788,-46.1 495.6788,-28.5 495.6788,-28.5 495.6788,-22.5 501.6788,-16.5 507.6788,-16.5"/>
<text text-anchor="middle" x="576" y="-41.5" font-family="Times,serif" font-size="14.00" fill="#ffffff">DEMO_ORDER_ITEMS</text>
<text text-anchor="middle" x="576" y="-24.7" font-family="Times,serif" font-size="14.00" fill="#ffffff">@oit #4,1</text>
</a>
</g>
</g>
<!-- DEMO_PRODUCTS&#45;&gt;DEMO_ORDER_ITEMS -->
<g id="edge29" class="edge">
<title>DEMO_PRODUCTS-&gt;DEMO_ORDER_ITEMS</title>
<g id="a_edge29"><a xlink:title="[DEMO_OIT_PRD_FK]&#10;extract_count=50">
<path fill="none" stroke="#000000" d="M335.7938,-166.6153C384.6913,-140.2913 468.936,-94.9381 523.5431,-65.5402"/>
<polygon fill="#000000" stroke="#000000" points="523.8793,-65.3593 540.2867,-64.1923 530.4832,-61.8041 537.087,-58.2489 537.087,-58.2489 537.087,-58.2489 530.4832,-61.8041 533.8873,-52.3054 523.8793,-65.3593 523.8793,-65.3593"/>
</a>
</g>
<text text-anchor="middle" x="467.75" y="-108.2" font-family="Times,serif" font-size="14.00" fill="#000000"> </text>
</g>
<!-- DEMO_STORES -->
<g id="node5" class="node">
<title>DEMO_STORES</title>
<g id="a_node5"><a xlink:title="[DEMO_STORES]&#10;row_count=10&#10;source_count=10&#10;extract_count=10">
<path fill="#00ff00" stroke="#000000" d="M603.838,-316.9C603.838,-316.9 696.162,-316.9 696.162,-316.9 702.162,-316.9 708.162,-322.9 708.162,-328.9 708.162,-328.9 708.162,-346.5 708.162,-346.5 708.162,-352.5 702.162,-358.5 696.162,-358.5 696.162,-358.5 603.838,-358.5 603.838,-358.5 597.838,-358.5 591.838,-352.5 591.838,-346.5 591.838,-346.5 591.838,-328.9 591.838,-328.9 591.838,-322.9 597.838,-316.9 603.838,-316.9"/>
<text text-anchor="middle" x="650" y="-341.9" font-family="Times,serif" font-size="14.00" fill="#000000">DEMO_STORES</text>
<text text-anchor="middle" x="650" y="-325.1" font-family="Times,serif" font-size="14.00" fill="#000000">@sto #1</text>
</a>
</g>
</g>
<!-- DEMO_ORDERS -->
<g id="node8" class="node">
<title>DEMO_ORDERS</title>
<g id="a_node8"><a xlink:title="[DEMO_ORDERS]&#10;source_count=108&#10;extract_count=108">
<path fill="#0000ff" stroke="#ffffff" d="M590.284,-166.7C590.284,-166.7 685.716,-166.7 685.716,-166.7 691.716,-166.7 697.716,-172.7 697.716,-178.7 697.716,-178.7 697.716,-196.3 697.716,-196.3 697.716,-202.3 691.716,-208.3 685.716,-208.3 685.716,-208.3 590.284,-208.3 590.284,-208.3 584.284,-208.3 578.284,-202.3 578.284,-196.3 578.284,-196.3 578.284,-178.7 578.284,-178.7 578.284,-172.7 584.284,-166.7 590.284,-166.7"/>
<text text-anchor="middle" x="638" y="-191.7" font-family="Times,serif" font-size="14.00" fill="#ffffff">DEMO_ORDERS</text>
<text text-anchor="middle" x="638" y="-174.9" font-family="Times,serif" font-size="14.00" fill="#ffffff">@ord #3</text>
</a>
</g>
</g>
<!-- DEMO_STORES&#45;&gt;DEMO_ORDERS -->
<g id="edge17" class="edge">
<title>DEMO_STORES-&gt;DEMO_ORDERS</title>
<g id="a_edge17"><a xlink:title="[DEMO_ORD_STO_FK]&#10;extract_count=10">
<path fill="none" stroke="#000000" d="M648.3315,-316.8153C646.4168,-292.8505 643.2422,-253.1144 640.9164,-224.0034"/>
<polygon fill="#000000" stroke="#000000" points="640.8877,-223.6439 646.4216,-208.1539 640.2904,-216.1677 639.6931,-208.6915 639.6931,-208.6915 639.6931,-208.6915 640.2904,-216.1677 632.9645,-209.2291 640.8877,-223.6439 640.8877,-223.6439"/>
</a>
</g>
<text text-anchor="middle" x="646.75" y="-258.4" font-family="Times,serif" font-size="14.00" fill="#000000"> </text>
</g>
<!-- DEMO_ORG_ENTITIES&#45;&gt;DEMO_ORG_ENTITIES -->
<!-- DEMO_ORG_ENTITIES&#45;&gt;DEMO_ORG_ENTITIES -->
<!-- DEMO_ORG_ENTITIES&#45;&gt;DEMO_ORG_ENTITIES -->
<g id="edge3" class="edge">
<title>DEMO_ORG_ENTITIES-&gt;DEMO_ORG_ENTITIES</title>
<g id="a_edge3"><a xlink:title="[DEMO_OEN_OEN_FK]&#10;min_rows=4&#10;max_rows=6&#10;level_count=5&#10;extract_count=906">
<path fill="none" stroke="#000000" d="M178.1087,-342.1931C207.7821,-342.3149 232.0905,-340.8172 232.0905,-337.7 232.0905,-335.1308 215.5769,-333.6617 193.1566,-333.2928"/>
<polygon fill="#00ff00" stroke="#000000" points="193.1385,-328.0427 178.1087,-333.2069 193.0784,-338.5425 193.1385,-328.0427"/>
</a>
</g>
<text text-anchor="middle" x="233.8405" y="-333.5" font-family="Times,serif" font-size="14.00" fill="#000000"> </text>
</g>
<!-- DEMO_ORG_ENTITIES&#45;&gt;DEMO_ORG_ENTITIES -->
<!-- DEMO_ORG_ENTITIES&#45;&gt;DEMO_ORG_ENTITIES -->
<!-- DEMO_ORG_ENTITIES&#45;&gt;DEMO_ORG_ENTITIES -->
<g id="edge6" class="edge">
<title>DEMO_ORG_ENTITIES-&gt;DEMO_ORG_ENTITIES</title>
<g id="a_edge6"><a xlink:title="[DEMO_OEN_OEN_FK]&#10;extract_count=0">
<path fill="none" stroke="#000000" d="M178.1396,-345.8858C232.766,-348.2333 286.0905,-345.5047 286.0905,-337.7 286.0905,-330.627 242.2957,-327.7229 193.4261,-328.9878"/>
<polygon fill="#000000" stroke="#000000" points="193.1307,-328.9979 177.9072,-322.7682 185.6351,-329.2561 178.1396,-329.5142 178.1396,-329.5142 178.1396,-329.5142 185.6351,-329.2561 178.3719,-336.2602 193.1307,-328.9979 193.1307,-328.9979"/>
</a>
</g>
<text text-anchor="middle" x="287.8405" y="-333.5" font-family="Times,serif" font-size="14.00" fill="#000000"> </text>
</g>
<!-- DEMO_PER_ASSIGNMENTS -->
<g id="node9" class="node">
<title>DEMO_PER_ASSIGNMENTS</title>
<g id="a_node9"><a xlink:title="[DEMO_PER_ASSIGNMENTS]&#10;source_count=190&#10;extract_count=190">
<path fill="#0000ff" stroke="#ffffff" d="M27.5666,-166.7C27.5666,-166.7 198.4334,-166.7 198.4334,-166.7 204.4334,-166.7 210.4334,-172.7 210.4334,-178.7 210.4334,-178.7 210.4334,-196.3 210.4334,-196.3 210.4334,-202.3 204.4334,-208.3 198.4334,-208.3 198.4334,-208.3 27.5666,-208.3 27.5666,-208.3 21.5666,-208.3 15.5666,-202.3 15.5666,-196.3 15.5666,-196.3 15.5666,-178.7 15.5666,-178.7 15.5666,-172.7 21.5666,-166.7 27.5666,-166.7"/>
<text text-anchor="middle" x="113" y="-191.7" font-family="Times,serif" font-size="14.00" fill="#ffffff">DEMO_PER_ASSIGNMENTS</text>
<text text-anchor="middle" x="113" y="-174.9" font-family="Times,serif" font-size="14.00" fill="#ffffff">@pas #3</text>
</a>
</g>
</g>
<!-- DEMO_ORG_ENTITIES&#45;&gt;DEMO_PER_ASSIGNMENTS -->
<g id="edge18" class="edge">
<title>DEMO_ORG_ENTITIES-&gt;DEMO_PER_ASSIGNMENTS</title>
<g id="a_edge18"><a xlink:title="[DEMO_PAS_OEN_FK]&#10;extract_count=0">
<path fill="none" stroke="#000000" d="M99.2247,-316.8153C101.7776,-292.8505 106.0105,-253.1144 109.1115,-224.0034"/>
<polygon fill="#ff0000" stroke="#000000" points="114.3741,-224.1632 110.7426,-208.6915 103.9332,-223.051 114.3741,-224.1632"/>
</a>
</g>
<text text-anchor="middle" x="107.75" y="-258.4" font-family="Times,serif" font-size="14.00" fill="#000000"> </text>
</g>
<!-- DEMO_ORG_ENTITIES&#45;&gt;DEMO_PER_ASSIGNMENTS -->
<g id="edge19" class="edge">
<title>DEMO_ORG_ENTITIES-&gt;DEMO_PER_ASSIGNMENTS</title>
<g id="a_edge19"><a xlink:title="[DEMO_PAS_OEN_FK]&#10;extract_count=190&#10;where_clause=&quot;oet_cd != 'INST'&quot;">
<path fill="none" stroke="#000000" d="M94.7443,-316.7715C93.1814,-298.0634 91.9528,-269.9551 95.5,-245.8 96.6031,-238.2883 98.4653,-230.4012 100.5737,-222.9409"/>
<polygon fill="#000000" stroke="#000000" points="100.6164,-222.8039 111.5267,-210.4942 102.8496,-215.644 105.0829,-208.4842 105.0829,-208.4842 105.0829,-208.4842 102.8496,-215.644 98.6391,-206.4743 100.6164,-222.8039 100.6164,-222.8039"/>
</a>
</g>
<text text-anchor="middle" x="96.75" y="-258.4" font-family="Times,serif" font-size="14.00" fill="#000000"> </text>
</g>
<!-- DEMO_PERSONS&#45;&gt;DEMO_PERSONS -->
<!-- DEMO_PERSONS&#45;&gt;DEMO_PERSONS -->
<!-- DEMO_PERSONS&#45;&gt;DEMO_PERSONS -->
<g id="edge11" class="edge">
<title>DEMO_PERSONS-&gt;DEMO_PERSONS</title>
<g id="a_edge11"><a xlink:title="[DEMO_PER_PER_FK]&#10;extract_count=0">
<path fill="none" stroke="#000000" d="M448.0977,-342.1206C476.8429,-342.572 501.8303,-341.0984 501.8303,-337.7 501.8303,-334.9122 485.016,-333.4197 463.106,-333.2225"/>
<polygon fill="#ff0000" stroke="#000000" points="463.0777,-327.9725 448.0977,-333.2794 463.1175,-338.4724 463.0777,-327.9725"/>
</a>
</g>
<text text-anchor="middle" x="503.5803" y="-333.5" font-family="Times,serif" font-size="14.00" fill="#000000"> </text>
</g>
<!-- DEMO_PERSONS&#45;&gt;DEMO_PERSONS -->
<!-- DEMO_PERSONS&#45;&gt;DEMO_PERSONS -->
<!-- DEMO_PERSONS&#45;&gt;DEMO_PERSONS -->
<g id="edge14" class="edge">
<title>DEMO_PERSONS-&gt;DEMO_PERSONS</title>
<g id="a_edge14"><a xlink:title="[DEMO_PER_PER_FK]&#10;extract_count=6&#10;where_clause=&quot;manager_flag='Y'&quot;&#10;src_filter=&quot;manager_flag IS NULL&quot;">
<path fill="none" stroke="#000000" d="M448.0768,-345.3267C500.7706,-348.586 555.8303,-346.0438 555.8303,-337.7 555.8303,-330.1548 510.8051,-327.3538 463.2203,-329.2969"/>
<polygon fill="#000000" stroke="#000000" points="463.0571,-329.3052 447.7311,-323.3321 455.5669,-329.6892 448.0768,-330.0733 448.0768,-330.0733 448.0768,-330.0733 455.5669,-329.6892 448.4224,-336.8144 463.0571,-329.3052 463.0571,-329.3052"/>
</a>
</g>
<text text-anchor="middle" x="557.5803" y="-333.5" font-family="Times,serif" font-size="14.00" fill="#000000"> </text>
</g>
<!-- DEMO_PERSONS&#45;&gt;DEMO_ORDERS -->
<g id="edge15" class="edge">
<title>DEMO_PERSONS-&gt;DEMO_ORDERS</title>
<g id="a_edge15"><a xlink:title="[DEMO_ORD_PER_FK]&#10;min_rows=0&#10;max_rows=5&#10;extract_count=108">
<path fill="none" stroke="#000000" d="M405.8248,-316.5972C431.0875,-292.0335 475.9162,-251.6682 521,-226.8 525.5353,-224.2983 543.3344,-218.0804 563.7312,-211.3101"/>
<polygon fill="#00ff00" stroke="#000000" points="565.5265,-216.2464 578.1361,-206.5737 562.2467,-206.2718 565.5265,-216.2464"/>
</a>
</g>
<text text-anchor="middle" x="490.75" y="-258.4" font-family="Times,serif" font-size="14.00" fill="#000000"> </text>
</g>
<!-- DEMO_PERSONS&#45;&gt;DEMO_ORDERS -->
<g id="edge16" class="edge">
<title>DEMO_PERSONS-&gt;DEMO_ORDERS</title>
<g id="a_edge16"><a xlink:title="[DEMO_ORD_PER_FK]&#10;extract_count=38">
<path fill="none" stroke="#000000" d="M430.0414,-316.8345C450.9575,-306.5009 475.8238,-293.2783 497,-279.4 528.0826,-259.0294 530.8899,-247.1286 562,-226.8 567.8288,-222.9912 574.0711,-219.2596 580.3801,-215.7046"/>
<polygon fill="#000000" stroke="#000000" points="580.545,-215.6153 596.949,-214.4022 587.1388,-212.0415 593.7326,-208.4678 593.7326,-208.4678 593.7326,-208.4678 587.1388,-212.0415 590.5162,-202.5333 580.545,-215.6153 580.545,-215.6153"/>
</a>
</g>
<text text-anchor="middle" x="538.75" y="-258.4" font-family="Times,serif" font-size="14.00" fill="#000000"> </text>
</g>
<!-- DEMO_PERSONS&#45;&gt;DEMO_PER_ASSIGNMENTS -->
<g id="edge20" class="edge">
<title>DEMO_PERSONS-&gt;DEMO_PER_ASSIGNMENTS</title>
<g id="a_edge20"><a xlink:title="[DEMO_PAS_PER_FK]&#10;extract_count=190&#10;gen_view_name=DEMO_RANDOM_DATE_HISTORY">
<path fill="none" stroke="#000000" d="M343.8309,-316.7696C332.498,-310.9106 320.2347,-304.4804 309,-298.4 258.5571,-271.0997 201.562,-238.6696 162.0895,-215.9543"/>
<polygon fill="#00ff00" stroke="#000000" points="164.5151,-211.2928 148.8979,-208.3492 159.2708,-220.3893 164.5151,-211.2928"/>
</a>
</g>
<text text-anchor="middle" x="274.75" y="-258.4" font-family="Times,serif" font-size="14.00" fill="#000000"> </text>
</g>
<!-- DEMO_PERSONS&#45;&gt;DEMO_PER_ASSIGNMENTS -->
<g id="edge21" class="edge">
<title>DEMO_PERSONS-&gt;DEMO_PER_ASSIGNMENTS</title>
<g id="a_edge21"><a xlink:title="[DEMO_PAS_PER_FK]&#10;extract_count=50">
<path fill="none" stroke="#000000" d="M366.1358,-316.8283C346.5886,-296.287 314.2848,-265.2514 281,-245.8 258.4952,-232.6483 232.5613,-221.8303 207.908,-213.2371"/>
<polygon fill="#000000" stroke="#000000" points="207.7986,-213.2005 195.7211,-202.0337 200.6874,-210.8171 193.5761,-208.4338 193.5761,-208.4338 193.5761,-208.4338 200.6874,-210.8171 191.4311,-214.8339 207.7986,-213.2005 207.7986,-213.2005"/>
</a>
</g>
<text text-anchor="middle" x="327.75" y="-258.4" font-family="Times,serif" font-size="14.00" fill="#000000"> </text>
</g>
<!-- DEMO_PER_CLOCKINGS -->
<g id="node10" class="node">
<title>DEMO_PER_CLOCKINGS</title>
<g id="a_node10"><a xlink:title="[DEMO_PER_CLOCKINGS]&#10;source_count=5000&#10;extract_count=5000">
<path fill="#0000ff" stroke="#ffffff" d="M395.5112,-166.7C395.5112,-166.7 548.4888,-166.7 548.4888,-166.7 554.4888,-166.7 560.4888,-172.7 560.4888,-178.7 560.4888,-178.7 560.4888,-196.3 560.4888,-196.3 560.4888,-202.3 554.4888,-208.3 548.4888,-208.3 548.4888,-208.3 395.5112,-208.3 395.5112,-208.3 389.5112,-208.3 383.5112,-202.3 383.5112,-196.3 383.5112,-196.3 383.5112,-178.7 383.5112,-178.7 383.5112,-172.7 389.5112,-166.7 395.5112,-166.7"/>
<text text-anchor="middle" x="472" y="-191.7" font-family="Times,serif" font-size="14.00" fill="#ffffff">DEMO_PER_CLOCKINGS</text>
<text text-anchor="middle" x="472" y="-174.9" font-family="Times,serif" font-size="14.00" fill="#ffffff">@pcl #3</text>
</a>
</g>
</g>
<!-- DEMO_PERSONS&#45;&gt;DEMO_PER_CLOCKINGS -->
<g id="edge22" class="edge">
<title>DEMO_PERSONS-&gt;DEMO_PER_CLOCKINGS</title>
<g id="a_edge22"><a xlink:title="[DEMO_PCL_PER_FK]&#10;extract_count=5000&#10;gen_view_name=DEMO_RANDOM_TIME_CLOCKINGS">
<path fill="none" stroke="#000000" d="M389.1016,-316.8518C393.5515,-297.4449 401.9029,-268.2242 415.5,-245.8 421.2122,-236.3795 428.7035,-227.2766 436.3548,-219.1757"/>
<polygon fill="#00ff00" stroke="#000000" points="440.188,-222.7676 447.1095,-208.4618 432.7775,-215.3289 440.188,-222.7676"/>
</a>
</g>
<text text-anchor="middle" x="416.75" y="-258.4" font-family="Times,serif" font-size="14.00" fill="#000000"> </text>
</g>
<!-- DEMO_PERSONS&#45;&gt;DEMO_PER_CLOCKINGS -->
<g id="edge23" class="edge">
<title>DEMO_PERSONS-&gt;DEMO_PER_CLOCKINGS</title>
<g id="a_edge23"><a xlink:title="[DEMO_PCL_PER_FK]&#10;extract_count=50">
<path fill="none" stroke="#000000" d="M397.2998,-316.666C403.7706,-305.5859 411.8286,-291.7657 419,-279.4 430.0999,-260.2604 442.453,-238.8472 452.439,-221.5087"/>
<polygon fill="#000000" stroke="#000000" points="452.5471,-221.3209 465.8806,-211.6885 456.2888,-214.8209 460.0306,-208.3209 460.0306,-208.3209 460.0306,-208.3209 456.2888,-214.8209 454.1806,-204.9533 452.5471,-221.3209 452.5471,-221.3209"/>
</a>
</g>
<text text-anchor="middle" x="438.75" y="-258.4" font-family="Times,serif" font-size="14.00" fill="#000000"> </text>
</g>
<!-- DEMO_PERSONS&#45;&gt;DEMO_PER_CREDIT_CARDS -->
<g id="edge25" class="edge">
<title>DEMO_PERSONS-&gt;DEMO_PER_CREDIT_CARDS</title>
<g id="a_edge25"><a xlink:title="[DEMO_PCC_PER_FK]&#10;min_rows=2&#10;max_rows=4&#10;extract_count=145">
<path fill="none" stroke="#000000" d="M447.9895,-321.0744C478.5693,-311.4578 515.0733,-297.6142 545,-279.4 563.8349,-267.9366 562.3136,-256.665 581.5,-245.8 607.5045,-231.074 617.0956,-234.3911 646,-226.8 665.4733,-221.6858 686.2942,-216.578 706.4502,-211.8182"/>
<polygon fill="#00ff00" stroke="#000000" points="707.929,-216.864 721.339,-208.3355 705.5375,-206.64 707.929,-216.864"/>
</a>
</g>
<text text-anchor="middle" x="582.75" y="-258.4" font-family="Times,serif" font-size="14.00" fill="#000000"> </text>
</g>
<!-- DEMO_PERSONS&#45;&gt;DEMO_PER_CREDIT_CARDS -->
<g id="edge26" class="edge">
<title>DEMO_PERSONS-&gt;DEMO_PER_CREDIT_CARDS</title>
<g id="a_edge26"><a xlink:title="[DEMO_PCC_PER_FK]&#10;extract_count=50">
<path fill="none" stroke="#000000" d="M448.0985,-324.6626C488.4098,-315.0484 541.1518,-300.0426 585,-279.4 609.057,-268.0746 610.599,-257.4511 634.5,-245.8 661.227,-232.7713 691.548,-221.7071 719.6488,-212.8331"/>
<polygon fill="#000000" stroke="#000000" points="719.771,-212.7956 736.0915,-214.8462 726.9408,-210.5945 734.1105,-208.3934 734.1105,-208.3934 734.1105,-208.3934 726.9408,-210.5945 732.1295,-201.9406 719.771,-212.7956 719.771,-212.7956"/>
</a>
</g>
<text text-anchor="middle" x="635.75" y="-258.4" font-family="Times,serif" font-size="14.00" fill="#000000"> </text>
</g>
<!-- DEMO_ORDERS&#45;&gt;DEMO_ORDER_ITEMS -->
<g id="edge27" class="edge">
<title>DEMO_ORDERS-&gt;DEMO_ORDER_ITEMS</title>
<g id="a_edge27"><a xlink:title="[DEMO_OIT_ORD_FK]&#10;min_rows=1&#10;max_rows=5&#10;extract_count=302&#10;post_gen_code=&quot;UPDATE demo_orders ord SET total_price = (SELECT NVL(SUM(oit.price),0) FROM demo_order_items oit WHERE oit.ord_id = ord.ord_id)&quot;">
<path fill="none" stroke="#000000" d="M625.5662,-166.6217C619.3613,-155.7015 612.0221,-141.9783 606.5,-129.2 598.5972,-110.9127 591.4751,-89.8627 586.1045,-72.5268"/>
<polygon fill="#00ff00" stroke="#000000" points="591.1213,-70.9787 581.7764,-58.1243 581.0655,-74.0006 591.1213,-70.9787"/>
</a>
</g>
<text text-anchor="middle" x="607.75" y="-108.2" font-family="Times,serif" font-size="14.00" fill="#000000"> </text>
</g>
<!-- DEMO_ORDERS&#45;&gt;DEMO_ORDER_ITEMS -->
<g id="edge28" class="edge">
<title>DEMO_ORDERS-&gt;DEMO_ORDER_ITEMS</title>
<g id="a_edge28"><a xlink:title="[DEMO_OIT_ORD_FK]&#10;extract_count=108">
<path fill="none" stroke="#000000" d="M633.1039,-166.5679C628.3262,-147.6132 620.2822,-119.1378 610,-95.6 606.4382,-87.4464 601.9978,-79.0002 597.5135,-71.1525"/>
<polygon fill="#000000" stroke="#000000" points="597.5127,-71.151 595.6225,-54.8111 593.6694,-64.7105 589.8261,-58.2701 589.8261,-58.2701 589.8261,-58.2701 593.6694,-64.7105 584.0297,-61.729 597.5127,-71.151 597.5127,-71.151"/>
</a>
</g>
<text text-anchor="middle" x="623.75" y="-108.2" font-family="Times,serif" font-size="14.00" fill="#000000"> </text>
</g>
<!-- DEMO_PER_TRANSACTIONS -->
<g id="node13" class="node">
<title>DEMO_PER_TRANSACTIONS</title>
<g id="a_node13"><a xlink:title="[DEMO_PER_TRANSACTIONS]&#10;source_count=112&#10;extract_count=112">
<path fill="#0000ff" stroke="#ffffff" d="M686.2903,-16.5C686.2903,-16.5 865.7097,-16.5 865.7097,-16.5 871.7097,-16.5 877.7097,-22.5 877.7097,-28.5 877.7097,-28.5 877.7097,-46.1 877.7097,-46.1 877.7097,-52.1 871.7097,-58.1 865.7097,-58.1 865.7097,-58.1 686.2903,-58.1 686.2903,-58.1 680.2903,-58.1 674.2903,-52.1 674.2903,-46.1 674.2903,-46.1 674.2903,-28.5 674.2903,-28.5 674.2903,-22.5 680.2903,-16.5 686.2903,-16.5"/>
<text text-anchor="middle" x="776" y="-41.5" font-family="Times,serif" font-size="14.00" fill="#ffffff">DEMO_PER_TRANSACTIONS</text>
<text text-anchor="middle" x="776" y="-24.7" font-family="Times,serif" font-size="14.00" fill="#ffffff">@ptr #4,2</text>
</a>
</g>
</g>
<!-- DEMO_ORDERS&#45;&gt;DEMO_PER_TRANSACTIONS -->
<g id="edge30" class="edge">
<title>DEMO_ORDERS-&gt;DEMO_PER_TRANSACTIONS</title>
<g id="a_edge30"><a xlink:title="[DEMO_PTR_ORD_FK]&#10;min_rows=0&#10;max_rows=2&#10;extract_count=112">
<path fill="none" stroke="#000000" d="M651.6913,-166.5653C664.6374,-147.357 685.0737,-118.4971 705.5,-95.6 713.7697,-86.33 716.5533,-84.6672 726,-76.6 729.4975,-73.6132 733.1807,-70.5579 736.8965,-67.5354"/>
<polygon fill="#00ff00" stroke="#000000" points="740.245,-71.58 748.6894,-58.1169 733.6924,-63.3755 740.245,-71.58"/>
</a>
</g>
<text text-anchor="middle" x="706.75" y="-108.2" font-family="Times,serif" font-size="14.00" fill="#000000"> </text>
</g>
<!-- DEMO_ORDERS&#45;&gt;DEMO_PER_TRANSACTIONS -->
<g id="edge31" class="edge">
<title>DEMO_ORDERS-&gt;DEMO_PER_TRANSACTIONS</title>
<g id="a_edge31"><a xlink:title="[DEMO_PTR_ORD_FK]&#10;extract_count=76">
<path fill="none" stroke="#000000" d="M666.7349,-166.6029C680.2586,-156.113 696.1898,-142.7693 709,-129.2 725.9324,-111.2643 742.2937,-88.9497 754.6093,-70.8007"/>
<polygon fill="#000000" stroke="#000000" points="754.703,-70.6593 768.6207,-61.8922 758.8496,-64.4098 762.9962,-58.1603 762.9962,-58.1603 762.9962,-58.1603 758.8496,-64.4098 757.3717,-54.4284 754.703,-70.6593 754.703,-70.6593"/>
</a>
</g>
<text text-anchor="middle" x="737.75" y="-108.2" font-family="Times,serif" font-size="14.00" fill="#000000"> </text>
</g>
<!-- DEMO_PER_CREDIT_CARDS&#45;&gt;DEMO_PER_TRANSACTIONS -->
<g id="edge32" class="edge">
<title>DEMO_PER_CREDIT_CARDS-&gt;DEMO_PER_TRANSACTIONS</title>
<g id="a_edge32"><a xlink:title="[DEMO_PTR_PCC_FK]&#10;extract_count=0">
<path fill="none" stroke="#000000" d="M805.3342,-166.6652C800.1526,-155.7564 794.2507,-142.0303 790.5,-129.2 785.2452,-111.2246 781.776,-90.6804 779.5528,-73.5815"/>
<polygon fill="#ff0000" stroke="#000000" points="784.7391,-72.73 777.7855,-58.4398 774.3099,-73.9473 784.7391,-72.73"/>
</a>
</g>
<text text-anchor="middle" x="791.75" y="-108.2" font-family="Times,serif" font-size="14.00" fill="#000000"> </text>
</g>
<!-- DEMO_PER_CREDIT_CARDS&#45;&gt;DEMO_PER_TRANSACTIONS -->
<g id="edge33" class="edge">
<title>DEMO_PER_CREDIT_CARDS-&gt;DEMO_PER_TRANSACTIONS</title>
<g id="a_edge33"><a xlink:title="[DEMO_PTR_PCC_FK]&#10;extract_count=72&#10;where_clause=&quot;per_id=PARENT per_id&quot;">
<path fill="none" stroke="#000000" d="M811.4004,-166.598C807.1915,-147.9074 800.6278,-119.8098 794,-95.6 791.9739,-88.199 789.6532,-80.3186 787.3669,-72.8226"/>
<polygon fill="#000000" stroke="#000000" points="787.2894,-72.5736 789.272,-56.2447 785.0584,-65.4131 782.8275,-58.2526 782.8275,-58.2526 782.8275,-58.2526 785.0584,-65.4131 776.383,-60.2604 787.2894,-72.5736 787.2894,-72.5736"/>
</a>
</g>
<text text-anchor="middle" x="803.75" y="-108.2" font-family="Times,serif" font-size="14.00" fill="#000000"> </text>
</g>
<!-- DEMO_DUAL -->
<g id="node14" class="node">
<title>DEMO_DUAL</title>
<g id="a_node14"><a xlink:title="[DEMO_DUAL]">
<path fill="#d3d3d3" stroke="#000000" d="M28.4586,-469.9C28.4586,-469.9 107.5414,-469.9 107.5414,-469.9 113.5414,-469.9 119.5414,-475.9 119.5414,-481.9 119.5414,-481.9 119.5414,-493.9 119.5414,-493.9 119.5414,-499.9 113.5414,-505.9 107.5414,-505.9 107.5414,-505.9 28.4586,-505.9 28.4586,-505.9 22.4586,-505.9 16.4586,-499.9 16.4586,-493.9 16.4586,-493.9 16.4586,-481.9 16.4586,-481.9 16.4586,-475.9 22.4586,-469.9 28.4586,-469.9"/>
<text text-anchor="middle" x="68" y="-483.8" font-family="Times,serif" font-size="14.00" fill="#000000">DEMO_DUAL</text>
</a>
</g>
</g>
<!-- BTABLE -->
<g id="node15" class="node">
<title>BTABLE</title>
<path fill="#00ff00" stroke="#000000" d="M984.1234,-467.1C984.1234,-467.1 1081.8766,-467.1 1081.8766,-467.1 1087.8766,-467.1 1093.8766,-473.1 1093.8766,-479.1 1093.8766,-479.1 1093.8766,-496.7 1093.8766,-496.7 1093.8766,-502.7 1087.8766,-508.7 1081.8766,-508.7 1081.8766,-508.7 984.1234,-508.7 984.1234,-508.7 978.1234,-508.7 972.1234,-502.7 972.1234,-496.7 972.1234,-496.7 972.1234,-479.1 972.1234,-479.1 972.1234,-473.1 978.1234,-467.1 984.1234,-467.1"/>
<text text-anchor="middle" x="1033" y="-492.1" font-family="Times,serif" font-size="14.00" fill="#000000">B-TABLE</text>
<text text-anchor="middle" x="1033" y="-475.3" font-family="Times,serif" font-size="14.00" fill="#000000"> Base/driving table</text>
</g>
<!-- PTABLE -->
<g id="node16" class="node">
<title>PTABLE</title>
<path fill="#0000ff" stroke="#ffffff" d="M972.4782,-316.9C972.4782,-316.9 1093.5218,-316.9 1093.5218,-316.9 1099.5218,-316.9 1105.5218,-322.9 1105.5218,-328.9 1105.5218,-328.9 1105.5218,-346.5 1105.5218,-346.5 1105.5218,-352.5 1099.5218,-358.5 1093.5218,-358.5 1093.5218,-358.5 972.4782,-358.5 972.4782,-358.5 966.4782,-358.5 960.4782,-352.5 960.4782,-346.5 960.4782,-346.5 960.4782,-328.9 960.4782,-328.9 960.4782,-322.9 966.4782,-316.9 972.4782,-316.9"/>
<text text-anchor="middle" x="1033" y="-341.9" font-family="Times,serif" font-size="14.00" fill="#ffffff">P-TABLE</text>
<text text-anchor="middle" x="1033" y="-325.1" font-family="Times,serif" font-size="14.00" fill="#ffffff">Generated from master</text>
</g>
<!-- BTABLE&#45;&gt;PTABLE -->
<g id="edge34" class="edge">
<title>BTABLE-&gt;PTABLE</title>
<path fill="none" stroke="#000000" d="M1033,-467.0153C1033,-443.0505 1033,-403.3144 1033,-374.2034"/>
<polygon fill="#00ff00" stroke="#000000" points="1038.2501,-373.8915 1033,-358.8915 1027.7501,-373.8915 1038.2501,-373.8915"/>
<text text-anchor="middle" x="1059.6315" y="-417" font-family="Times,serif" font-size="14.00" fill="#000000"> B-Cons</text>
<text text-anchor="middle" x="1059.6315" y="-400.2" font-family="Times,serif" font-size="14.00" fill="#000000"> (driving)</text>
</g>
<!-- NTABLE -->
<g id="node17" class="node">
<title>NTABLE</title>
<path fill="#ff0000" stroke="#ffffff" d="M995.7966,-166.7C995.7966,-166.7 1070.2034,-166.7 1070.2034,-166.7 1076.2034,-166.7 1082.2034,-172.7 1082.2034,-178.7 1082.2034,-178.7 1082.2034,-196.3 1082.2034,-196.3 1082.2034,-202.3 1076.2034,-208.3 1070.2034,-208.3 1070.2034,-208.3 995.7966,-208.3 995.7966,-208.3 989.7966,-208.3 983.7966,-202.3 983.7966,-196.3 983.7966,-196.3 983.7966,-178.7 983.7966,-178.7 983.7966,-172.7 989.7966,-166.7 995.7966,-166.7"/>
<text text-anchor="middle" x="1033" y="-191.7" font-family="Times,serif" font-size="14.00" fill="#ffffff">N-TABLE</text>
<text text-anchor="middle" x="1033" y="-174.9" font-family="Times,serif" font-size="14.00" fill="#ffffff"> Not generated</text>
</g>
<!-- PTABLE&#45;&gt;NTABLE -->
<g id="edge35" class="edge">
<title>PTABLE-&gt;NTABLE</title>
<path fill="none" stroke="#000000" d="M1033,-301.5677C1033,-272.5476 1033,-232.7901 1033,-208.6915"/>
<polygon fill="#000000" stroke="#000000" points="1033.0001,-301.8153 1026.25,-316.8153 1033,-309.3153 1033,-316.8153 1033,-316.8153 1033,-316.8153 1033,-309.3153 1039.75,-316.8154 1033.0001,-301.8153 1033.0001,-301.8153"/>
<text text-anchor="middle" x="1065.438" y="-266.8" font-family="Times,serif" font-size="14.00" fill="#000000"> P-Cons</text>
<text text-anchor="middle" x="1065.438" y="-250" font-family="Times,serif" font-size="14.00" fill="#000000"> (reference)</text>
</g>
<!-- XTABLE -->
<g id="node18" class="node">
<title>XTABLE</title>
<path fill="#c0c0c0" stroke="#000000" d="M996.3713,-16.5C996.3713,-16.5 1069.6287,-16.5 1069.6287,-16.5 1075.6287,-16.5 1081.6287,-22.5 1081.6287,-28.5 1081.6287,-28.5 1081.6287,-46.1 1081.6287,-46.1 1081.6287,-52.1 1075.6287,-58.1 1069.6287,-58.1 1069.6287,-58.1 996.3713,-58.1 996.3713,-58.1 990.3713,-58.1 984.3713,-52.1 984.3713,-46.1 984.3713,-46.1 984.3713,-28.5 984.3713,-28.5 984.3713,-22.5 990.3713,-16.5 996.3713,-16.5"/>
<text text-anchor="middle" x="1033" y="-41.5" font-family="Times,serif" font-size="14.00" fill="#000000">X-TABLE</text>
<text text-anchor="middle" x="1033" y="-24.7" font-family="Times,serif" font-size="14.00" fill="#000000"> Not in dataset</text>
</g>
<!-- NTABLE&#45;&gt;XTABLE -->
<g id="edge36" class="edge">
<title>NTABLE-&gt;XTABLE</title>
<path fill="none" stroke="#000000" d="M1033,-166.6153C1033,-142.6505 1033,-102.9144 1033,-73.8034"/>
<polygon fill="#ff0000" stroke="#000000" points="1038.2501,-73.4915 1033,-58.4915 1027.7501,-73.4915 1038.2501,-73.4915"/>
<text text-anchor="middle" x="1062.9355" y="-116.6" font-family="Times,serif" font-size="14.00" fill="#000000"> N-Cons</text>
<text text-anchor="middle" x="1062.9355" y="-99.8" font-family="Times,serif" font-size="14.00" fill="#000000"> (not used)</text>
</g>
</g>
</svg>