<?xml version="1.0" encoding="UTF-8" standalone="no"?><!DOCTYPE svg PUBLIC "-//W3C//DTD SVG 1.1//EN" "http://www.w3.org/Graphics/SVG/1.1/DTD/svg11.dtd"><!-- Generated by graphviz version 2.40.1 (20161225.0304)
 --><!-- Title: ds11_graph Pages: 1 --><svg xmlns="http://www.w3.org/2000/svg" xmlns:xlink="http://www.w3.org/1999/xlink" width="1181pt" height="956pt" viewBox="0.00 0.00 1181.00 956.20">
<g id="graph0" class="graph" transform="scale(1 1) rotate(0) translate(4 952.2)">
<title>ds11_graph</title>
<polygon fill="#ffffff" stroke="transparent" points="-4,4 -4,-952.2 1177,-952.2 1177,4 -4,4"/>
<g id="clust1" class="cluster">
<title>cluster_main</title>
<polygon fill="none" stroke="#000000" points="8,-28.8 8,-931.8 1023,-931.8 1023,-28.8 8,-28.8"/>
<text text-anchor="start" x="369.501" y="-916.2" font-family="Times,serif" font-weight="bold" font-size="14.00" fill="#000000">Data Set: DEMO_DATA_SUB (id: 11 - type: SUB)</text>
</g>
<g id="clust2" class="cluster">
<title>cluster_legend</title>
<polygon fill="none" stroke="#000000" points="1031,-8 1031,-940.2 1165,-940.2 1165,-8 1031,-8"/>
<text text-anchor="start" x="1077.0091" y="-924.6" font-family="Times,serif" font-weight="bold" font-size="14.00" fill="#000000">Legend</text>
</g>
<!-- DEMO_COUNTRIES -->
<g id="node1" class="node">
<title>DEMO_COUNTRIES</title>
<path fill="#ff0000" stroke="#ffffff" d="M92.8752,-636.7C92.8752,-636.7 259.1248,-636.7 259.1248,-636.7 265.1248,-636.7 271.1248,-642.7 271.1248,-648.7 271.1248,-648.7 271.1248,-674.3 271.1248,-674.3 271.1248,-680.3 265.1248,-686.3 259.1248,-686.3 259.1248,-686.3 92.8752,-686.3 92.8752,-686.3 86.8752,-686.3 80.8752,-680.3 80.8752,-674.3 80.8752,-674.3 80.8752,-648.7 80.8752,-648.7 80.8752,-642.7 86.8752,-636.7 92.8752,-636.7"/>
<text text-anchor="middle" x="176" y="-669.7" font-family="Times,serif" font-size="14.00" fill="#ffffff">DEMO_COUNTRIES@cnt #1</text>
<polyline fill="none" stroke="#ffffff" points="80.8752,-661.5 271.1248,-661.5 "/>
<text text-anchor="middle" x="176" y="-644.9" font-family="Times,serif" font-size="14.00" fill="#ffffff">Stats: 0 / 27 row extracted</text>
</g>
<!-- DEMO_CREDIT_CARD_TYPES -->
<g id="node2" class="node">
<title>DEMO_CREDIT_CARD_TYPES</title>
<path fill="#ff0000" stroke="#ffffff" d="M480.4341,-37.3C480.4341,-37.3 713.5659,-37.3 713.5659,-37.3 719.5659,-37.3 725.5659,-43.3 725.5659,-49.3 725.5659,-49.3 725.5659,-74.9 725.5659,-74.9 725.5659,-80.9 719.5659,-86.9 713.5659,-86.9 713.5659,-86.9 480.4341,-86.9 480.4341,-86.9 474.4341,-86.9 468.4341,-80.9 468.4341,-74.9 468.4341,-74.9 468.4341,-49.3 468.4341,-49.3 468.4341,-43.3 474.4341,-37.3 480.4341,-37.3"/>
<text text-anchor="middle" x="597" y="-70.3" font-family="Times,serif" font-size="14.00" fill="#ffffff">DEMO_CREDIT_CARD_TYPES@cct #1</text>
<polyline fill="none" stroke="#ffffff" points="468.4341,-62.1 725.5659,-62.1 "/>
<text text-anchor="middle" x="597" y="-45.5" font-family="Times,serif" font-size="14.00" fill="#ffffff">Stats: 0 / 4 row extracted</text>
</g>
<!-- DEMO_ORG_ENTITIES -->
<g id="node3" class="node">
<title>DEMO_ORG_ENTITIES</title>
<path fill="#0000ff" stroke="#ffffff" d="M751.6059,-436.9C751.6059,-436.9 940.3941,-436.9 940.3941,-436.9 946.3941,-436.9 952.3941,-442.9 952.3941,-448.9 952.3941,-448.9 952.3941,-474.5 952.3941,-474.5 952.3941,-480.5 946.3941,-486.5 940.3941,-486.5 940.3941,-486.5 751.6059,-486.5 751.6059,-486.5 745.6059,-486.5 739.6059,-480.5 739.6059,-474.5 739.6059,-474.5 739.6059,-448.9 739.6059,-448.9 739.6059,-442.9 745.6059,-436.9 751.6059,-436.9"/>
<text text-anchor="middle" x="846" y="-469.9" font-family="Times,serif" font-size="14.00" fill="#ffffff">DEMO_ORG_ENTITIES@oen #1</text>
<polyline fill="none" stroke="#ffffff" points="739.6059,-461.7 952.3941,-461.7 "/>
<text text-anchor="middle" x="846" y="-445.1" font-family="Times,serif" font-size="14.00" fill="#ffffff">Stats: 144 / 767 rows extracted</text>
</g>
<!-- DEMO_ORG_ENTITIES&#45;&gt;DEMO_ORG_ENTITIES -->
<!-- DEMO_ORG_ENTITIES&#45;&gt;DEMO_ORG_ENTITIES -->
<!-- DEMO_ORG_ENTITIES&#45;&gt;DEMO_ORG_ENTITIES -->
<g id="edge3" class="edge">
<title>DEMO_ORG_ENTITIES-&gt;DEMO_ORG_ENTITIES</title>
<path fill="none" stroke="#000000" d="M952.4285,-473.6531C982.8989,-473.1844 1006.3941,-469.2 1006.3941,-461.7 1006.3941,-455.4891 990.2813,-451.6891 967.4377,-450.3001"/>
<polygon fill="#0000ff" stroke="#000000" points="967.6117,-445.0531 952.4285,-449.7469 967.2249,-455.546 967.6117,-445.0531"/>
<text text-anchor="middle" x="1008.1441" y="-457.5" font-family="Times,serif" font-size="14.00" fill="#000000"> </text>
<g id="a_edge3-headlabel"><a xlink:title=" &#10;74&#10; ">
<text text-anchor="middle" x="959.4285" y="-487.5469" font-family="Times,serif" font-size="14.00" fill="#000000"> </text>
<text text-anchor="middle" x="959.4285" y="-470.7469" font-family="Times,serif" font-size="14.00" fill="#000000">74</text>
<text text-anchor="middle" x="959.4285" y="-453.9469" font-family="Times,serif" font-size="14.00" fill="#000000"> </text>
</a>
</g>
</g>
<!-- DEMO_ORG_ENTITY_TYPES -->
<g id="node4" class="node">
<title>DEMO_ORG_ENTITY_TYPES</title>
<path fill="#ff0000" stroke="#ffffff" d="M752.7167,-237.1C752.7167,-237.1 977.2833,-237.1 977.2833,-237.1 983.2833,-237.1 989.2833,-243.1 989.2833,-249.1 989.2833,-249.1 989.2833,-274.7 989.2833,-274.7 989.2833,-280.7 983.2833,-286.7 977.2833,-286.7 977.2833,-286.7 752.7167,-286.7 752.7167,-286.7 746.7167,-286.7 740.7167,-280.7 740.7167,-274.7 740.7167,-274.7 740.7167,-249.1 740.7167,-249.1 740.7167,-243.1 746.7167,-237.1 752.7167,-237.1"/>
<text text-anchor="middle" x="865" y="-270.1" font-family="Times,serif" font-size="14.00" fill="#ffffff">DEMO_ORG_ENTITY_TYPES@oet #1</text>
<polyline fill="none" stroke="#ffffff" points="740.7167,-261.9 989.2833,-261.9 "/>
<text text-anchor="middle" x="865" y="-245.3" font-family="Times,serif" font-size="14.00" fill="#ffffff">Stats: 0 / 5 row extracted</text>
</g>
<!-- DEMO_ORG_ENTITIES&#45;&gt;DEMO_ORG_ENTITY_TYPES -->
<g id="edge4" class="edge">
<title>DEMO_ORG_ENTITIES-&gt;DEMO_ORG_ENTITY_TYPES</title>
<path fill="none" stroke="#000000" d="M848.3679,-436.7992C851.5838,-402.9816 857.3693,-342.1429 861.1974,-301.8871"/>
<polygon fill="#ff0000" stroke="#000000" points="866.4384,-302.2297 862.6321,-286.8 855.9856,-301.2356 866.4384,-302.2297"/>
<text text-anchor="middle" x="858.75" y="-357.6" font-family="Times,serif" font-size="14.00" fill="#000000"> </text>
</g>
<!-- DEMO_PERSONS -->
<g id="node5" class="node">
<title>DEMO_PERSONS</title>
<path fill="#00ff00" stroke="#000000" d="M434.4919,-824.1C434.4919,-824.1 585.5081,-824.1 585.5081,-824.1 591.5081,-824.1 597.5081,-830.1 597.5081,-836.1 597.5081,-836.1 597.5081,-886.5 597.5081,-886.5 597.5081,-892.5 591.5081,-898.5 585.5081,-898.5 585.5081,-898.5 434.4919,-898.5 434.4919,-898.5 428.4919,-898.5 422.4919,-892.5 422.4919,-886.5 422.4919,-886.5 422.4919,-836.1 422.4919,-836.1 422.4919,-830.1 428.4919,-824.1 434.4919,-824.1"/>
<text text-anchor="middle" x="510" y="-881.9" font-family="Times,serif" font-size="14.00" fill="#000000">DEMO_PERSONS@per #1</text>
<polyline fill="none" stroke="#000000" points="422.4919,-873.7 597.5081,-873.7 "/>
<text text-anchor="middle" x="510" y="-857.1" font-family="Times,serif" font-size="14.00" fill="#000000">Config: filter</text>
<polyline fill="none" stroke="#000000" points="422.4919,-848.9 597.5081,-848.9 "/>
<text text-anchor="middle" x="510" y="-832.3" font-family="Times,serif" font-size="14.00" fill="#000000">Stats: 22 / 50 rows extracted</text>
</g>
<!-- DEMO_PERSONS&#45;&gt;DEMO_COUNTRIES -->
<g id="edge5" class="edge">
<title>DEMO_PERSONS-&gt;DEMO_COUNTRIES</title>
<path fill="none" stroke="#000000" d="M447.569,-823.9535C385.2094,-786.6498 290.2995,-729.8743 230.7818,-694.2707"/>
<polygon fill="#ff0000" stroke="#000000" points="233.1175,-689.5503 217.5498,-686.3552 227.7272,-698.5611 233.1175,-689.5503"/>
<text text-anchor="middle" x="371.75" y="-757.2" font-family="Times,serif" font-size="14.00" fill="#000000"> </text>
</g>
<!-- DEMO_PERSONS&#45;&gt;DEMO_PERSONS -->
<!-- DEMO_PERSONS&#45;&gt;DEMO_PERSONS -->
<!-- DEMO_PERSONS&#45;&gt;DEMO_PERSONS -->
<g id="edge8" class="edge">
<title>DEMO_PERSONS-&gt;DEMO_PERSONS</title>
<path fill="none" stroke="#000000" d="M597.7505,-867.2996C627.5535,-867.3311 651.5081,-865.3313 651.5081,-861.3 651.5081,-857.9774 635.2348,-856.0347 612.8265,-855.4721"/>
<polygon fill="#00ff00" stroke="#000000" points="612.8094,-850.2216 597.7505,-855.3004 612.6897,-860.7209 612.8094,-850.2216"/>
<text text-anchor="middle" x="653.2581" y="-857.1" font-family="Times,serif" font-size="14.00" fill="#000000"> </text>
<g id="a_edge8-headlabel"><a xlink:title=" &#10;8&#10; ">
<text text-anchor="middle" x="601.2505" y="-893.1004" font-family="Times,serif" font-size="14.00" fill="#000000"> </text>
<text text-anchor="middle" x="601.2505" y="-876.3004" font-family="Times,serif" font-size="14.00" fill="#000000">8</text>
<text text-anchor="middle" x="601.2505" y="-859.5004" font-family="Times,serif" font-size="14.00" fill="#000000"> </text>
</a>
</g>
</g>
<!-- DEMO_PERSONS&#45;&gt;DEMO_PERSONS -->
<!-- DEMO_PERSONS&#45;&gt;DEMO_PERSONS -->
<!-- DEMO_PERSONS&#45;&gt;DEMO_PERSONS -->
<g id="edge11" class="edge">
<title>DEMO_PERSONS-&gt;DEMO_PERSONS</title>
<path fill="none" stroke="#000000" d="M597.707,-872.4156C652.8293,-875.1771 705.5081,-871.4719 705.5081,-861.3 705.5081,-852.0619 662.0569,-848.1577 612.7865,-849.5874"/>
<polygon fill="#0000ff" stroke="#000000" points="612.4875,-844.3451 597.707,-850.1844 612.903,-854.8368 612.4875,-844.3451"/>
<text text-anchor="middle" x="707.2581" y="-857.1" font-family="Times,serif" font-size="14.00" fill="#000000"> </text>
<g id="a_edge11-headlabel"><a xlink:title=" &#10;4&#10; ">
<text text-anchor="middle" x="601.207" y="-837.5844" font-family="Times,serif" font-size="14.00" fill="#000000"> </text>
<text text-anchor="middle" x="601.207" y="-820.7844" font-family="Times,serif" font-size="14.00" fill="#000000">4</text>
<text text-anchor="middle" x="601.207" y="-803.9844" font-family="Times,serif" font-size="14.00" fill="#000000"> </text>
</a>
</g>
</g>
<!-- DEMO_ORDERS -->
<g id="node8" class="node">
<title>DEMO_ORDERS</title>
<path fill="#0000ff" stroke="#ffffff" d="M300.9919,-636.7C300.9919,-636.7 459.0081,-636.7 459.0081,-636.7 465.0081,-636.7 471.0081,-642.7 471.0081,-648.7 471.0081,-648.7 471.0081,-674.3 471.0081,-674.3 471.0081,-680.3 465.0081,-686.3 459.0081,-686.3 459.0081,-686.3 300.9919,-686.3 300.9919,-686.3 294.9919,-686.3 288.9919,-680.3 288.9919,-674.3 288.9919,-674.3 288.9919,-648.7 288.9919,-648.7 288.9919,-642.7 294.9919,-636.7 300.9919,-636.7"/>
<text text-anchor="middle" x="380" y="-669.7" font-family="Times,serif" font-size="14.00" fill="#ffffff">DEMO_ORDERS@ord #2</text>
<polyline fill="none" stroke="#ffffff" points="288.9919,-661.5 471.0081,-661.5 "/>
<text text-anchor="middle" x="380" y="-644.9" font-family="Times,serif" font-size="14.00" fill="#ffffff">Stats: 27 / 110 rows extracted</text>
</g>
<!-- DEMO_PERSONS&#45;&gt;DEMO_ORDERS -->
<g id="edge12" class="edge">
<title>DEMO_PERSONS-&gt;DEMO_ORDERS</title>
<path fill="none" stroke="#000000" d="M451.2522,-823.9029C435.2555,-811.1584 419.3306,-795.6584 408.3394,-778.2 393.8297,-755.1527 386.7488,-725.2415 383.2934,-701.4716"/>
<polygon fill="#00ff00" stroke="#000000" points="388.4967,-700.7689 381.4689,-686.515 378.0739,-702.0404 388.4967,-700.7689"/>
<g id="a_edge12-label"><a xlink:title=" 50% ">
<text text-anchor="middle" x="424.3303" y="-757.2" font-family="Times,serif" font-size="14.00" fill="#000000"> 50% </text>
</a>
</g>
<g id="a_edge12-headlabel"><a xlink:title=" &#10;19&#10; ">
<text text-anchor="middle" x="374.4689" y="-724.315" font-family="Times,serif" font-size="14.00" fill="#000000"> </text>
<text text-anchor="middle" x="374.4689" y="-707.515" font-family="Times,serif" font-size="14.00" fill="#000000">19</text>
<text text-anchor="middle" x="374.4689" y="-690.715" font-family="Times,serif" font-size="14.00" fill="#000000"> </text>
</a>
</g>
</g>
<!-- DEMO_PER_ASSIGNMENTS -->
<g id="node9" class="node">
<title>DEMO_PER_ASSIGNMENTS</title>
<path fill="#0000ff" stroke="#ffffff" d="M783.0407,-636.7C783.0407,-636.7 1002.9593,-636.7 1002.9593,-636.7 1008.9593,-636.7 1014.9593,-642.7 1014.9593,-648.7 1014.9593,-648.7 1014.9593,-674.3 1014.9593,-674.3 1014.9593,-680.3 1008.9593,-686.3 1002.9593,-686.3 1002.9593,-686.3 783.0407,-686.3 783.0407,-686.3 777.0407,-686.3 771.0407,-680.3 771.0407,-674.3 771.0407,-674.3 771.0407,-648.7 771.0407,-648.7 771.0407,-642.7 777.0407,-636.7 783.0407,-636.7"/>
<text text-anchor="middle" x="893" y="-669.7" font-family="Times,serif" font-size="14.00" fill="#ffffff">DEMO_PER_ASSIGNMENTS@pas #2</text>
<polyline fill="none" stroke="#ffffff" points="771.0407,-661.5 1014.9593,-661.5 "/>
<text text-anchor="middle" x="893" y="-644.9" font-family="Times,serif" font-size="14.00" fill="#ffffff">Stats: 70 / 199 rows extracted</text>
</g>
<!-- DEMO_PERSONS&#45;&gt;DEMO_PER_ASSIGNMENTS -->
<g id="edge16" class="edge">
<title>DEMO_PERSONS-&gt;DEMO_PER_ASSIGNMENTS</title>
<path fill="none" stroke="#000000" d="M597.6086,-851.7699C649.1036,-843.2204 713.9102,-827.1639 765,-797.2 807.1657,-772.4701 844.106,-729.7286 867.3247,-698.8115"/>
<polygon fill="#00ff00" stroke="#000000" points="871.8026,-701.5818 876.4107,-686.3723 863.3236,-695.3885 871.8026,-701.5818"/>
<text text-anchor="middle" x="829.75" y="-757.2" font-family="Times,serif" font-size="14.00" fill="#000000"> </text>
<g id="a_edge16-headlabel"><a xlink:title=" &#10;70&#10; ">
<text text-anchor="middle" x="869.4107" y="-724.1723" font-family="Times,serif" font-size="14.00" fill="#000000"> </text>
<text text-anchor="middle" x="869.4107" y="-707.3723" font-family="Times,serif" font-size="14.00" fill="#000000">70</text>
<text text-anchor="middle" x="869.4107" y="-690.5723" font-family="Times,serif" font-size="14.00" fill="#000000"> </text>
</a>
</g>
</g>
<!-- DEMO_PER_CLOCKINGS -->
<g id="node10" class="node">
<title>DEMO_PER_CLOCKINGS</title>
<path fill="#0000ff" stroke="#ffffff" d="M540.7623,-636.7C540.7623,-636.7 741.2377,-636.7 741.2377,-636.7 747.2377,-636.7 753.2377,-642.7 753.2377,-648.7 753.2377,-648.7 753.2377,-674.3 753.2377,-674.3 753.2377,-680.3 747.2377,-686.3 741.2377,-686.3 741.2377,-686.3 540.7623,-686.3 540.7623,-686.3 534.7623,-686.3 528.7623,-680.3 528.7623,-674.3 528.7623,-674.3 528.7623,-648.7 528.7623,-648.7 528.7623,-642.7 534.7623,-636.7 540.7623,-636.7"/>
<text text-anchor="middle" x="641" y="-669.7" font-family="Times,serif" font-size="14.00" fill="#ffffff">DEMO_PER_CLOCKINGS@pcl #2</text>
<polyline fill="none" stroke="#ffffff" points="528.7623,-661.5 753.2377,-661.5 "/>
<text text-anchor="middle" x="641" y="-644.9" font-family="Times,serif" font-size="14.00" fill="#ffffff">Stats: 1800 / 5000 rows extracted</text>
</g>
<!-- DEMO_PERSONS&#45;&gt;DEMO_PER_CLOCKINGS -->
<g id="edge18" class="edge">
<title>DEMO_PERSONS-&gt;DEMO_PER_CLOCKINGS</title>
<path fill="none" stroke="#000000" d="M555.3744,-824.0022C563.8703,-815.7336 572.204,-806.6118 579,-797.2 600.5287,-767.3846 617.2483,-728.8999 627.8709,-700.5336"/>
<polygon fill="#00ff00" stroke="#000000" points="632.8436,-702.2203 633.0001,-686.3288 622.9677,-698.6542 632.8436,-702.2203"/>
<text text-anchor="middle" x="609.75" y="-757.2" font-family="Times,serif" font-size="14.00" fill="#000000"> </text>
<g id="a_edge18-headlabel"><a xlink:title=" &#10;1800&#10; ">
<text text-anchor="middle" x="619.0001" y="-724.1288" font-family="Times,serif" font-size="14.00" fill="#000000"> </text>
<text text-anchor="middle" x="619.0001" y="-707.3288" font-family="Times,serif" font-size="14.00" fill="#000000">1800</text>
<text text-anchor="middle" x="619.0001" y="-690.5288" font-family="Times,serif" font-size="14.00" fill="#000000"> </text>
</a>
</g>
</g>
<!-- DEMO_PER_CREDIT_CARDS -->
<g id="node11" class="node">
<title>DEMO_PER_CREDIT_CARDS</title>
<path fill="#0000ff" stroke="#ffffff" d="M483.5407,-237.1C483.5407,-237.1 710.4593,-237.1 710.4593,-237.1 716.4593,-237.1 722.4593,-243.1 722.4593,-249.1 722.4593,-249.1 722.4593,-274.7 722.4593,-274.7 722.4593,-280.7 716.4593,-286.7 710.4593,-286.7 710.4593,-286.7 483.5407,-286.7 483.5407,-286.7 477.5407,-286.7 471.5407,-280.7 471.5407,-274.7 471.5407,-274.7 471.5407,-249.1 471.5407,-249.1 471.5407,-243.1 477.5407,-237.1 483.5407,-237.1"/>
<text text-anchor="middle" x="597" y="-270.1" font-family="Times,serif" font-size="14.00" fill="#ffffff">DEMO_PER_CREDIT_CARDS@pcc #2</text>
<polyline fill="none" stroke="#ffffff" points="471.5407,-261.9 722.4593,-261.9 "/>
<text text-anchor="middle" x="597" y="-245.3" font-family="Times,serif" font-size="14.00" fill="#ffffff">Stats: 57 / 159 rows extracted</text>
</g>
<!-- DEMO_PERSONS&#45;&gt;DEMO_PER_CREDIT_CARDS -->
<g id="edge21" class="edge">
<title>DEMO_PERSONS-&gt;DEMO_PER_CREDIT_CARDS</title>
<path fill="none" stroke="#000000" d="M497.9588,-823.7735C483.9897,-772.8351 467.3454,-680.6843 505,-615.4 552.7158,-532.6719 643.2842,-590.5281 691,-507.8 731.2074,-438.0898 671.6359,-347.9443 630.5213,-298.4527"/>
<polygon fill="#00ff00" stroke="#000000" points="634.2785,-294.7684 620.538,-286.7832 626.2998,-301.5942 634.2785,-294.7684"/>
<text text-anchor="middle" x="655.75" y="-557.4" font-family="Times,serif" font-size="14.00" fill="#000000"> </text>
<g id="a_edge21-headlabel"><a xlink:title=" &#10;57&#10; ">
<text text-anchor="middle" x="613.538" y="-324.5832" font-family="Times,serif" font-size="14.00" fill="#000000"> </text>
<text text-anchor="middle" x="613.538" y="-307.7832" font-family="Times,serif" font-size="14.00" fill="#000000">57</text>
<text text-anchor="middle" x="613.538" y="-290.9832" font-family="Times,serif" font-size="14.00" fill="#000000"> </text>
</a>
</g>
</g>
<!-- DEMO_PRODUCTS -->
<g id="node6" class="node">
<title>DEMO_PRODUCTS</title>
<path fill="#0000ff" stroke="#ffffff" d="M37.8128,-237.1C37.8128,-237.1 200.1872,-237.1 200.1872,-237.1 206.1872,-237.1 212.1872,-243.1 212.1872,-249.1 212.1872,-249.1 212.1872,-274.7 212.1872,-274.7 212.1872,-280.7 206.1872,-286.7 200.1872,-286.7 200.1872,-286.7 37.8128,-286.7 37.8128,-286.7 31.8128,-286.7 25.8128,-280.7 25.8128,-274.7 25.8128,-274.7 25.8128,-249.1 25.8128,-249.1 25.8128,-243.1 31.8128,-237.1 37.8128,-237.1"/>
<text text-anchor="middle" x="119" y="-270.1" font-family="Times,serif" font-size="14.00" fill="#ffffff">DEMO_PRODUCTS@prd #1</text>
<polyline fill="none" stroke="#ffffff" points="25.8128,-261.9 212.1872,-261.9 "/>
<text text-anchor="middle" x="119" y="-245.3" font-family="Times,serif" font-size="14.00" fill="#ffffff">Stats: 41 / 50 rows extracted</text>
</g>
<!-- DEMO_STORES -->
<g id="node7" class="node">
<title>DEMO_STORES</title>
<path fill="#000000" stroke="#ffffff" d="M251.4919,-436.9C251.4919,-436.9 402.5081,-436.9 402.5081,-436.9 408.5081,-436.9 414.5081,-442.9 414.5081,-448.9 414.5081,-448.9 414.5081,-474.5 414.5081,-474.5 414.5081,-480.5 408.5081,-486.5 402.5081,-486.5 402.5081,-486.5 251.4919,-486.5 251.4919,-486.5 245.4919,-486.5 239.4919,-480.5 239.4919,-474.5 239.4919,-474.5 239.4919,-448.9 239.4919,-448.9 239.4919,-442.9 245.4919,-436.9 251.4919,-436.9"/>
<text text-anchor="middle" x="327" y="-469.9" font-family="Times,serif" font-size="14.00" fill="#ffffff">DEMO_STORES@sto #1</text>
<polyline fill="none" stroke="#ffffff" points="239.4919,-461.7 414.5081,-461.7 "/>
<text text-anchor="middle" x="327" y="-445.1" font-family="Times,serif" font-size="14.00" fill="#ffffff">Stats: 10 / 10 rows extracted</text>
</g>
<!-- DEMO_ORDERS&#45;&gt;DEMO_PERSONS -->
<g id="edge13" class="edge">
<title>DEMO_ORDERS-&gt;DEMO_PERSONS</title>
<path fill="none" stroke="#000000" d="M399.3535,-686.4955C411.6917,-702.7573 427.7855,-724.5876 441,-744.6 455.0435,-765.8678 469.5515,-790.0226 481.6185,-810.8171"/>
<polygon fill="#0000ff" stroke="#000000" points="477.1343,-813.5506 489.1665,-823.9328 486.2349,-808.3133 477.1343,-813.5506"/>
<text text-anchor="middle" x="463.75" y="-757.2" font-family="Times,serif" font-size="14.00" fill="#000000"> </text>
<g id="a_edge13-headlabel"><a xlink:title=" &#10;0&#10; ">
<text text-anchor="middle" x="485.6665" y="-811.3328" font-family="Times,serif" font-size="14.00" fill="#000000"> </text>
<text text-anchor="middle" x="485.6665" y="-794.5328" font-family="Times,serif" font-size="14.00" fill="#000000">0</text>
<text text-anchor="middle" x="485.6665" y="-777.7328" font-family="Times,serif" font-size="14.00" fill="#000000"> </text>
</a>
</g>
</g>
<!-- DEMO_ORDERS&#45;&gt;DEMO_STORES -->
<g id="edge14" class="edge">
<title>DEMO_ORDERS-&gt;DEMO_STORES</title>
<path fill="none" stroke="#000000" d="M373.3947,-636.5992C364.3843,-602.6316 348.1424,-541.4028 337.4654,-501.1527"/>
<polygon fill="#ff0000" stroke="#000000" points="342.5257,-499.7525 333.6051,-486.6 332.3767,-502.4447 342.5257,-499.7525"/>
<text text-anchor="middle" x="358.75" y="-557.4" font-family="Times,serif" font-size="14.00" fill="#000000"> </text>
</g>
<!-- DEMO_ORDER_ITEMS -->
<g id="node12" class="node">
<title>DEMO_ORDER_ITEMS</title>
<path fill="#0000ff" stroke="#ffffff" d="M28.0919,-436.9C28.0919,-436.9 209.9081,-436.9 209.9081,-436.9 215.9081,-436.9 221.9081,-442.9 221.9081,-448.9 221.9081,-448.9 221.9081,-474.5 221.9081,-474.5 221.9081,-480.5 215.9081,-486.5 209.9081,-486.5 209.9081,-486.5 28.0919,-486.5 28.0919,-486.5 22.0919,-486.5 16.0919,-480.5 16.0919,-474.5 16.0919,-474.5 16.0919,-448.9 16.0919,-448.9 16.0919,-442.9 22.0919,-436.9 28.0919,-436.9"/>
<text text-anchor="middle" x="119" y="-469.9" font-family="Times,serif" font-size="14.00" fill="#ffffff">DEMO_ORDER_ITEMS@oit #3</text>
<polyline fill="none" stroke="#ffffff" points="16.0919,-461.7 221.9081,-461.7 "/>
<text text-anchor="middle" x="119" y="-445.1" font-family="Times,serif" font-size="14.00" fill="#ffffff">Stats: 64 / 324 rows extracted</text>
</g>
<!-- DEMO_ORDERS&#45;&gt;DEMO_ORDER_ITEMS -->
<g id="edge23" class="edge">
<title>DEMO_ORDERS-&gt;DEMO_ORDER_ITEMS</title>
<path fill="none" stroke="#000000" d="M347.4719,-636.5992C301.1408,-601.132 215.9843,-535.9432 163.7389,-495.9484"/>
<polygon fill="#00ff00" stroke="#000000" points="166.6291,-491.5492 151.5271,-486.6 160.2465,-499.8867 166.6291,-491.5492"/>
<text text-anchor="middle" x="272.75" y="-557.4" font-family="Times,serif" font-size="14.00" fill="#000000"> </text>
<g id="a_edge23-headlabel"><a xlink:title=" &#10;64&#10; ">
<text text-anchor="middle" x="144.5271" y="-524.4" font-family="Times,serif" font-size="14.00" fill="#000000"> </text>
<text text-anchor="middle" x="144.5271" y="-507.6" font-family="Times,serif" font-size="14.00" fill="#000000">64</text>
<text text-anchor="middle" x="144.5271" y="-490.8" font-family="Times,serif" font-size="14.00" fill="#000000"> </text>
</a>
</g>
</g>
<!-- DEMO_PER_TRANSACTIONS -->
<g id="node13" class="node">
<title>DEMO_PER_TRANSACTIONS</title>
<path fill="#0000ff" stroke="#ffffff" d="M444.3184,-436.9C444.3184,-436.9 669.6816,-436.9 669.6816,-436.9 675.6816,-436.9 681.6816,-442.9 681.6816,-448.9 681.6816,-448.9 681.6816,-474.5 681.6816,-474.5 681.6816,-480.5 675.6816,-486.5 669.6816,-486.5 669.6816,-486.5 444.3184,-486.5 444.3184,-486.5 438.3184,-486.5 432.3184,-480.5 432.3184,-474.5 432.3184,-474.5 432.3184,-448.9 432.3184,-448.9 432.3184,-442.9 438.3184,-436.9 444.3184,-436.9"/>
<text text-anchor="middle" x="557" y="-469.9" font-family="Times,serif" font-size="14.00" fill="#ffffff">DEMO_PER_TRANSACTIONS@ptr #3</text>
<polyline fill="none" stroke="#ffffff" points="432.3184,-461.7 681.6816,-461.7 "/>
<text text-anchor="middle" x="557" y="-445.1" font-family="Times,serif" font-size="14.00" fill="#ffffff">Stats: 31 / 118 rows extracted</text>
</g>
<!-- DEMO_ORDERS&#45;&gt;DEMO_PER_TRANSACTIONS -->
<g id="edge26" class="edge">
<title>DEMO_ORDERS-&gt;DEMO_PER_TRANSACTIONS</title>
<path fill="none" stroke="#000000" d="M402.0593,-636.5992C432.9478,-601.7318 489.2831,-538.1398 524.8431,-497.9991"/>
<polygon fill="#00ff00" stroke="#000000" points="528.9245,-501.3093 534.9414,-486.6 521.065,-494.3466 528.9245,-501.3093"/>
<text text-anchor="middle" x="484.75" y="-557.4" font-family="Times,serif" font-size="14.00" fill="#000000"> </text>
<g id="a_edge26-headlabel"><a xlink:title=" &#10;18&#10; ">
<text text-anchor="middle" x="527.9414" y="-524.4" font-family="Times,serif" font-size="14.00" fill="#000000"> </text>
<text text-anchor="middle" x="527.9414" y="-507.6" font-family="Times,serif" font-size="14.00" fill="#000000">18</text>
<text text-anchor="middle" x="527.9414" y="-490.8" font-family="Times,serif" font-size="14.00" fill="#000000"> </text>
</a>
</g>
</g>
<!-- DEMO_PER_ASSIGNMENTS&#45;&gt;DEMO_ORG_ENTITIES -->
<g id="edge15" class="edge">
<title>DEMO_PER_ASSIGNMENTS-&gt;DEMO_ORG_ENTITIES</title>
<path fill="none" stroke="#000000" d="M887.1424,-636.5992C879.1697,-602.7066 864.8125,-541.673 855.3434,-501.4196"/>
<polygon fill="#0000ff" stroke="#000000" points="860.4027,-499.9993 851.8574,-486.6 850.1817,-502.4037 860.4027,-499.9993"/>
<text text-anchor="middle" x="874.75" y="-557.4" font-family="Times,serif" font-size="14.00" fill="#000000"> </text>
<g id="a_edge15-headlabel"><a xlink:title=" &#10;70&#10; ">
<text text-anchor="middle" x="844.8574" y="-524.4" font-family="Times,serif" font-size="14.00" fill="#000000"> </text>
<text text-anchor="middle" x="844.8574" y="-507.6" font-family="Times,serif" font-size="14.00" fill="#000000">70</text>
<text text-anchor="middle" x="844.8574" y="-490.8" font-family="Times,serif" font-size="14.00" fill="#000000"> </text>
</a>
</g>
</g>
<!-- DEMO_PER_ASSIGNMENTS&#45;&gt;DEMO_PERSONS -->
<g id="edge17" class="edge">
<title>DEMO_PER_ASSIGNMENTS-&gt;DEMO_PERSONS</title>
<path fill="none" stroke="#000000" d="M845.3546,-686.3552C782.8656,-718.9539 672.1386,-776.717 595.087,-816.9126"/>
<polygon fill="#ff0000" stroke="#000000" points="592.461,-812.361 581.5901,-823.9535 597.3175,-821.6704 592.461,-812.361"/>
<text text-anchor="middle" x="734.75" y="-757.2" font-family="Times,serif" font-size="14.00" fill="#000000"> </text>
</g>
<!-- DEMO_PER_CLOCKINGS&#45;&gt;DEMO_PERSONS -->
<g id="edge19" class="edge">
<title>DEMO_PER_CLOCKINGS-&gt;DEMO_PERSONS</title>
<path fill="none" stroke="#000000" d="M623.7503,-686.4645C612.4624,-702.9 597.459,-724.9339 584.5,-744.6 570.1652,-766.3541 554.6144,-790.6061 541.4468,-811.3415"/>
<polygon fill="#ff0000" stroke="#000000" points="536.9755,-808.5894 533.3821,-824.0701 545.8451,-814.2091 536.9755,-808.5894"/>
<text text-anchor="middle" x="585.75" y="-757.2" font-family="Times,serif" font-size="14.00" fill="#000000"> </text>
</g>
<!-- DEMO_PER_CREDIT_CARDS&#45;&gt;DEMO_CREDIT_CARD_TYPES -->
<g id="edge20" class="edge">
<title>DEMO_PER_CREDIT_CARDS-&gt;DEMO_CREDIT_CARD_TYPES</title>
<path fill="none" stroke="#000000" d="M597,-236.9992C597,-203.1816 597,-142.3429 597,-102.0871"/>
<polygon fill="#ff0000" stroke="#000000" points="602.2501,-102 597,-87 591.7501,-102.0001 602.2501,-102"/>
<text text-anchor="middle" x="598.75" y="-157.8" font-family="Times,serif" font-size="14.00" fill="#000000"> </text>
</g>
<!-- DEMO_PER_CREDIT_CARDS&#45;&gt;DEMO_PERSONS -->
<g id="edge22" class="edge">
<title>DEMO_PER_CREDIT_CARDS-&gt;DEMO_PERSONS</title>
<path fill="none" stroke="#000000" d="M627.8547,-286.8466C644.9729,-302.0871 665.4729,-322.8621 679,-345 717.1012,-407.3548 720.6262,-437.1396 702,-507.8 692.8075,-542.6728 690.5981,-556.4282 662,-578.4 610.283,-618.1339 560.9212,-564.6172 520,-615.4 496.9541,-643.9998 500.353,-745.0968 505.0708,-808.4128"/>
<polygon fill="#0000ff" stroke="#000000" points="499.8583,-809.0935 506.2834,-823.629 510.3251,-808.2593 499.8583,-809.0935"/>
<text text-anchor="middle" x="691.75" y="-557.4" font-family="Times,serif" font-size="14.00" fill="#000000"> </text>
<g id="a_edge22-headlabel"><a xlink:title=" &#10;0&#10; ">
<text text-anchor="middle" x="502.7834" y="-811.029" font-family="Times,serif" font-size="14.00" fill="#000000"> </text>
<text text-anchor="middle" x="502.7834" y="-794.229" font-family="Times,serif" font-size="14.00" fill="#000000">0</text>
<text text-anchor="middle" x="502.7834" y="-777.429" font-family="Times,serif" font-size="14.00" fill="#000000"> </text>
</a>
</g>
</g>
<!-- DEMO_PER_CREDIT_CARDS&#45;&gt;DEMO_PER_TRANSACTIONS -->
<g id="edge28" class="edge">
<title>DEMO_PER_CREDIT_CARDS-&gt;DEMO_PER_TRANSACTIONS</title>
<path fill="none" stroke="#000000" d="M592.015,-286.8C585.2298,-320.6922 573.0109,-381.7257 564.9521,-421.9795"/>
<polygon fill="#00ff00" stroke="#000000" points="559.782,-421.0604 561.9852,-436.7992 570.0777,-423.1217 559.782,-421.0604"/>
<text text-anchor="middle" x="581.75" y="-357.6" font-family="Times,serif" font-size="14.00" fill="#000000"> </text>
<g id="a_edge28-headlabel"><a xlink:title=" &#10;13&#10; ">
<text text-anchor="middle" x="554.9852" y="-424.1992" font-family="Times,serif" font-size="14.00" fill="#000000"> </text>
<text text-anchor="middle" x="554.9852" y="-407.3992" font-family="Times,serif" font-size="14.00" fill="#000000">13</text>
<text text-anchor="middle" x="554.9852" y="-390.5992" font-family="Times,serif" font-size="14.00" fill="#000000"> </text>
</a>
</g>
</g>
<!-- DEMO_ORDER_ITEMS&#45;&gt;DEMO_PRODUCTS -->
<g id="edge25" class="edge">
<title>DEMO_ORDER_ITEMS-&gt;DEMO_PRODUCTS</title>
<path fill="none" stroke="#000000" d="M119,-436.7992C119,-402.9816 119,-342.1429 119,-301.8871"/>
<polygon fill="#0000ff" stroke="#000000" points="124.2501,-301.8 119,-286.8 113.7501,-301.8001 124.2501,-301.8"/>
<text text-anchor="middle" x="120.75" y="-357.6" font-family="Times,serif" font-size="14.00" fill="#000000"> </text>
<g id="a_edge25-headlabel"><a xlink:title=" &#10;41&#10; ">
<text text-anchor="middle" x="112" y="-324.6" font-family="Times,serif" font-size="14.00" fill="#000000"> </text>
<text text-anchor="middle" x="112" y="-307.8" font-family="Times,serif" font-size="14.00" fill="#000000">41</text>
<text text-anchor="middle" x="112" y="-291" font-family="Times,serif" font-size="14.00" fill="#000000"> </text>
</a>
</g>
</g>
<!-- DEMO_ORDER_ITEMS&#45;&gt;DEMO_ORDERS -->
<g id="edge24" class="edge">
<title>DEMO_ORDER_ITEMS-&gt;DEMO_ORDERS</title>
<path fill="none" stroke="#000000" d="M136.2948,-486.9577C154.6833,-512.4322 185.726,-551.7083 219.5,-578.4 235.4354,-590.9938 276.2997,-612.102 312.8041,-629.8923"/>
<polygon fill="#ff0000" stroke="#000000" points="310.7306,-634.7211 326.5203,-636.5235 315.3008,-625.2679 310.7306,-634.7211"/>
<text text-anchor="middle" x="220.75" y="-557.4" font-family="Times,serif" font-size="14.00" fill="#000000"> </text>
</g>
<!-- DEMO_PER_TRANSACTIONS&#45;&gt;DEMO_ORDERS -->
<g id="edge27" class="edge">
<title>DEMO_PER_TRANSACTIONS-&gt;DEMO_ORDERS</title>
<path fill="none" stroke="#000000" d="M515.4765,-486.5451C492.9028,-501.4603 465.5784,-521.9482 445.5,-544.8 425.0849,-568.035 408.1898,-598.6628 396.6744,-622.7113"/>
<polygon fill="#0000ff" stroke="#000000" points="391.8956,-620.5374 390.3733,-636.3565 401.4283,-624.9394 391.8956,-620.5374"/>
<text text-anchor="middle" x="446.75" y="-557.4" font-family="Times,serif" font-size="14.00" fill="#000000"> </text>
<g id="a_edge27-headlabel"><a xlink:title=" &#10;8&#10; ">
<text text-anchor="middle" x="386.8733" y="-623.7565" font-family="Times,serif" font-size="14.00" fill="#000000"> </text>
<text text-anchor="middle" x="386.8733" y="-606.9565" font-family="Times,serif" font-size="14.00" fill="#000000">8</text>
<text text-anchor="middle" x="386.8733" y="-590.1565" font-family="Times,serif" font-size="14.00" fill="#000000"> </text>
</a>
</g>
</g>
<!-- DEMO_PER_TRANSACTIONS&#45;&gt;DEMO_PER_CREDIT_CARDS -->
<g id="edge29" class="edge">
<title>DEMO_PER_TRANSACTIONS-&gt;DEMO_PER_CREDIT_CARDS</title>
<path fill="none" stroke="#000000" d="M556.7424,-436.8124C556.9797,-412.9786 558.6173,-376.1416 565.5,-345 568.7766,-330.1749 574.1886,-314.4682 579.6103,-300.7483"/>
<polygon fill="#0000ff" stroke="#000000" points="584.5077,-302.6436 585.3965,-286.7762 574.8067,-298.6261 584.5077,-302.6436"/>
<text text-anchor="middle" x="566.75" y="-357.6" font-family="Times,serif" font-size="14.00" fill="#000000"> </text>
<g id="a_edge29-headlabel"><a xlink:title=" &#10;0&#10; ">
<text text-anchor="middle" x="581.8965" y="-324.5762" font-family="Times,serif" font-size="14.00" fill="#000000"> </text>
<text text-anchor="middle" x="581.8965" y="-307.7762" font-family="Times,serif" font-size="14.00" fill="#000000">0</text>
<text text-anchor="middle" x="581.8965" y="-290.9762" font-family="Times,serif" font-size="14.00" fill="#000000"> </text>
</a>
</g>
</g>
<!-- DEMO_DUAL -->
<g id="node14" class="node">
<title>DEMO_DUAL</title>
<path fill="#d3d3d3" stroke="#000000" d="M171.4586,-843.3C171.4586,-843.3 250.5414,-843.3 250.5414,-843.3 256.5414,-843.3 262.5414,-849.3 262.5414,-855.3 262.5414,-855.3 262.5414,-867.3 262.5414,-867.3 262.5414,-873.3 256.5414,-879.3 250.5414,-879.3 250.5414,-879.3 171.4586,-879.3 171.4586,-879.3 165.4586,-879.3 159.4586,-873.3 159.4586,-867.3 159.4586,-867.3 159.4586,-855.3 159.4586,-855.3 159.4586,-849.3 165.4586,-843.3 171.4586,-843.3"/>
<text text-anchor="middle" x="211" y="-857.2" font-family="Times,serif" font-size="14.00" fill="#000000">DEMO_DUAL</text>
</g>
<!-- BTABLE -->
<g id="node15" class="node">
<title>BTABLE</title>
<path fill="#00ff00" stroke="#000000" d="M1050.8734,-815.7C1050.8734,-815.7 1145.1266,-815.7 1145.1266,-815.7 1151.1266,-815.7 1157.1266,-821.7 1157.1266,-827.7 1157.1266,-827.7 1157.1266,-894.9 1157.1266,-894.9 1157.1266,-900.9 1151.1266,-906.9 1145.1266,-906.9 1145.1266,-906.9 1050.8734,-906.9 1050.8734,-906.9 1044.8734,-906.9 1038.8734,-900.9 1038.8734,-894.9 1038.8734,-894.9 1038.8734,-827.7 1038.8734,-827.7 1038.8734,-821.7 1044.8734,-815.7 1050.8734,-815.7"/>
<text text-anchor="middle" x="1098" y="-890.3" font-family="Times,serif" font-size="14.00" fill="#000000">B-TABLE</text>
<text text-anchor="middle" x="1098" y="-873.5" font-family="Times,serif" font-size="14.00" fill="#000000">Base/driving table</text>
<polyline fill="none" stroke="#000000" points="1038.8734,-865.3 1157.1266,-865.3 "/>
<text text-anchor="middle" x="1098" y="-848.7" font-family="Times,serif" font-size="14.00" fill="#000000">Configuration</text>
<polyline fill="none" stroke="#000000" points="1038.8734,-840.5 1157.1266,-840.5 "/>
<text text-anchor="middle" x="1098" y="-823.9" font-family="Times,serif" font-size="14.00" fill="#000000">Statistics</text>
</g>
<!-- PTABLE -->
<g id="node16" class="node">
<title>PTABLE</title>
<path fill="#0000ff" stroke="#ffffff" d="M1050.8825,-615.9C1050.8825,-615.9 1145.1175,-615.9 1145.1175,-615.9 1151.1175,-615.9 1157.1175,-621.9 1157.1175,-627.9 1157.1175,-627.9 1157.1175,-695.1 1157.1175,-695.1 1157.1175,-701.1 1151.1175,-707.1 1145.1175,-707.1 1145.1175,-707.1 1050.8825,-707.1 1050.8825,-707.1 1044.8825,-707.1 1038.8825,-701.1 1038.8825,-695.1 1038.8825,-695.1 1038.8825,-627.9 1038.8825,-627.9 1038.8825,-621.9 1044.8825,-615.9 1050.8825,-615.9"/>
<text text-anchor="middle" x="1098" y="-690.5" font-family="Times,serif" font-size="14.00" fill="#ffffff">P-TABLE</text>
<text text-anchor="middle" x="1098" y="-673.7" font-family="Times,serif" font-size="14.00" fill="#ffffff">Partially extracted</text>
<polyline fill="none" stroke="#ffffff" points="1038.8825,-665.5 1157.1175,-665.5 "/>
<text text-anchor="middle" x="1098" y="-648.9" font-family="Times,serif" font-size="14.00" fill="#ffffff">Configuration</text>
<polyline fill="none" stroke="#ffffff" points="1038.8825,-640.7 1157.1175,-640.7 "/>
<text text-anchor="middle" x="1098" y="-624.1" font-family="Times,serif" font-size="14.00" fill="#ffffff">Statistics</text>
</g>
<!-- BTABLE&#45;&gt;PTABLE -->
<g id="edge30" class="edge">
<title>BTABLE-&gt;PTABLE</title>
<path fill="none" stroke="#000000" d="M1098,-815.4618C1098,-787.7951 1098,-752.212 1098,-722.2247"/>
<polygon fill="#00ff00" stroke="#000000" points="1103.2501,-722.1248 1098,-707.1249 1092.7501,-722.1249 1103.2501,-722.1248"/>
<text text-anchor="middle" x="1124.6315" y="-765.6" font-family="Times,serif" font-size="14.00" fill="#000000"> B-Cons</text>
<text text-anchor="middle" x="1124.6315" y="-748.8" font-family="Times,serif" font-size="14.00" fill="#000000"> (driving)</text>
<text text-anchor="middle" x="1073.8941" y="-711.3249" font-family="Times,serif" font-size="14.00" fill="#000000">   # rows</text>
</g>
<!-- NTABLE -->
<g id="node17" class="node">
<title>NTABLE</title>
<path fill="#ff0000" stroke="#ffffff" d="M1057.3513,-416.1C1057.3513,-416.1 1128.6487,-416.1 1128.6487,-416.1 1134.6487,-416.1 1140.6487,-422.1 1140.6487,-428.1 1140.6487,-428.1 1140.6487,-495.3 1140.6487,-495.3 1140.6487,-501.3 1134.6487,-507.3 1128.6487,-507.3 1128.6487,-507.3 1057.3513,-507.3 1057.3513,-507.3 1051.3513,-507.3 1045.3513,-501.3 1045.3513,-495.3 1045.3513,-495.3 1045.3513,-428.1 1045.3513,-428.1 1045.3513,-422.1 1051.3513,-416.1 1057.3513,-416.1"/>
<text text-anchor="middle" x="1093" y="-490.7" font-family="Times,serif" font-size="14.00" fill="#ffffff">N-TABLE</text>
<text text-anchor="middle" x="1093" y="-473.9" font-family="Times,serif" font-size="14.00" fill="#ffffff"> Not extracted</text>
<polyline fill="none" stroke="#ffffff" points="1045.3513,-465.7 1140.6487,-465.7 "/>
<text text-anchor="middle" x="1093" y="-449.1" font-family="Times,serif" font-size="14.00" fill="#ffffff">Configuration</text>
<polyline fill="none" stroke="#ffffff" points="1045.3513,-440.9 1140.6487,-440.9 "/>
<text text-anchor="middle" x="1093" y="-424.3" font-family="Times,serif" font-size="14.00" fill="#ffffff">Statistics</text>
</g>
<!-- PTABLE&#45;&gt;NTABLE -->
<g id="edge31" class="edge">
<title>PTABLE-&gt;NTABLE</title>
<path fill="none" stroke="#000000" d="M1096.8529,-615.6618C1096.1605,-587.9951 1095.2701,-552.412 1094.5196,-522.4247"/>
<polygon fill="#0000ff" stroke="#000000" points="1099.7655,-522.1888 1094.1418,-507.3249 1089.2688,-522.4515 1099.7655,-522.1888"/>
<text text-anchor="middle" x="1126.8794" y="-565.8" font-family="Times,serif" font-size="14.00" fill="#000000"> P-Cons</text>
<text text-anchor="middle" x="1126.8794" y="-549" font-family="Times,serif" font-size="14.00" fill="#000000"> (integrity) </text>
<text text-anchor="middle" x="1070.0359" y="-511.5249" font-family="Times,serif" font-size="14.00" fill="#000000">   # rows</text>
</g>
<!-- FTABLE -->
<g id="node18" class="node">
<title>FTABLE</title>
<path fill="#000000" stroke="#ffffff" d="M1053.068,-216.3C1053.068,-216.3 1132.932,-216.3 1132.932,-216.3 1138.932,-216.3 1144.932,-222.3 1144.932,-228.3 1144.932,-228.3 1144.932,-295.5 1144.932,-295.5 1144.932,-301.5 1138.932,-307.5 1132.932,-307.5 1132.932,-307.5 1053.068,-307.5 1053.068,-307.5 1047.068,-307.5 1041.068,-301.5 1041.068,-295.5 1041.068,-295.5 1041.068,-228.3 1041.068,-228.3 1041.068,-222.3 1047.068,-216.3 1053.068,-216.3"/>
<text text-anchor="middle" x="1093" y="-290.9" font-family="Times,serif" font-size="14.00" fill="#ffffff">F-TABLE</text>
<text text-anchor="middle" x="1093" y="-274.1" font-family="Times,serif" font-size="14.00" fill="#ffffff"> Fully extracted</text>
<polyline fill="none" stroke="#ffffff" points="1041.068,-265.9 1144.932,-265.9 "/>
<text text-anchor="middle" x="1093" y="-249.3" font-family="Times,serif" font-size="14.00" fill="#ffffff">Configuration</text>
<polyline fill="none" stroke="#ffffff" points="1041.068,-241.1 1144.932,-241.1 "/>
<text text-anchor="middle" x="1093" y="-224.5" font-family="Times,serif" font-size="14.00" fill="#ffffff">Statistics</text>
</g>
<!-- NTABLE&#45;&gt;FTABLE -->
<g id="edge32" class="edge">
<title>NTABLE-&gt;FTABLE</title>
<path fill="none" stroke="#000000" d="M1093,-415.8618C1093,-388.1951 1093,-352.612 1093,-322.6247"/>
<polygon fill="#ff0000" stroke="#000000" points="1098.2501,-322.5248 1093,-307.5249 1087.7501,-322.5249 1098.2501,-322.5248"/>
<text text-anchor="middle" x="1122.9355" y="-366" font-family="Times,serif" font-size="14.00" fill="#000000"> N-Cons</text>
<text text-anchor="middle" x="1122.9355" y="-349.2" font-family="Times,serif" font-size="14.00" fill="#000000"> (not used)</text>
</g>
<!-- XTABLE -->
<g id="node19" class="node">
<title>XTABLE</title>
<path fill="#c0c0c0" stroke="#000000" d="M1056.3713,-16.5C1056.3713,-16.5 1129.6287,-16.5 1129.6287,-16.5 1135.6287,-16.5 1141.6287,-22.5 1141.6287,-28.5 1141.6287,-28.5 1141.6287,-95.7 1141.6287,-95.7 1141.6287,-101.7 1135.6287,-107.7 1129.6287,-107.7 1129.6287,-107.7 1056.3713,-107.7 1056.3713,-107.7 1050.3713,-107.7 1044.3713,-101.7 1044.3713,-95.7 1044.3713,-95.7 1044.3713,-28.5 1044.3713,-28.5 1044.3713,-22.5 1050.3713,-16.5 1056.3713,-16.5"/>
<text text-anchor="middle" x="1093" y="-91.1" font-family="Times,serif" font-size="14.00" fill="#000000">X-TABLE</text>
<text text-anchor="middle" x="1093" y="-74.3" font-family="Times,serif" font-size="14.00" fill="#000000"> Not in dataset</text>
<polyline fill="none" stroke="#000000" points="1044.3713,-66.1 1141.6287,-66.1 "/>
<text text-anchor="middle" x="1093" y="-49.5" font-family="Times,serif" font-size="14.00" fill="#000000">Configuration</text>
<polyline fill="none" stroke="#000000" points="1044.3713,-41.3 1141.6287,-41.3 "/>
<text text-anchor="middle" x="1093" y="-24.7" font-family="Times,serif" font-size="14.00" fill="#000000">Statistics</text>
</g>
<!-- FTABLE&#45;&gt;XTABLE -->
<g id="edge33" class="edge">
<title>FTABLE-&gt;XTABLE</title>
<path fill="none" stroke="#000000" d="M1093,-200.9439C1093,-170.9279 1093,-135.3508 1093,-107.7249"/>
<polygon fill="#000000" stroke="#000000" points="1093.0001,-201.0618 1086.25,-216.0618 1093,-208.5618 1093,-216.0618 1093,-216.0618 1093,-216.0618 1093,-208.5618 1099.75,-216.0619 1093.0001,-201.0618 1093.0001,-201.0618"/>
<text text-anchor="middle" x="1114.9632" y="-166.2" font-family="Times,serif" font-size="14.00" fill="#000000"> foreign</text>
<text text-anchor="middle" x="1114.9632" y="-149.4" font-family="Times,serif" font-size="14.00" fill="#000000"> key</text>
<text text-anchor="middle" x="1117.1059" y="-203.4618" font-family="Times,serif" font-size="14.00" fill="#000000">   # rows</text>
</g>
</g>
</svg>