<?xml version="1.0" encoding="UTF-8" standalone="no"?><!DOCTYPE svg PUBLIC "-//W3C//DTD SVG 1.1//EN" "http://www.w3.org/Graphics/SVG/1.1/DTD/svg11.dtd"><!-- Generated by graphviz version 2.40.1 (20161225.0304)
 --><!-- Title: ds11_graph Pages: 1 --><svg xmlns="http://www.w3.org/2000/svg" xmlns:xlink="http://www.w3.org/1999/xlink" width="981pt" height="832pt" viewBox="0.00 0.00 981.00 832.20">
<g id="graph0" class="graph" transform="scale(1 1) rotate(0) translate(4 828.2)">
<title>ds11_graph</title>
<polygon fill="#ffffff" stroke="transparent" points="-4,4 -4,-828.2 977,-828.2 977,4 -4,4"/>
<g id="clust1" class="cluster">
<title>cluster_main</title>
<polygon fill="none" stroke="#000000" points="8,-20.4 8,-807.8 823,-807.8 823,-20.4 8,-20.4"/>
<text text-anchor="start" x="269.501" y="-792.2" font-family="Times,serif" font-weight="bold" font-size="14.00" fill="#000000">Data Set: DEMO_DATA_SUB (id: 11 - type: SUB)</text>
</g>
<g id="clust2" class="cluster">
<title>cluster_legend</title>
<polygon fill="none" stroke="#000000" points="831,-8 831,-816.2 965,-816.2 965,-8 831,-8"/>
<text text-anchor="start" x="877.0091" y="-800.6" font-family="Times,serif" font-weight="bold" font-size="14.00" fill="#000000">Legend</text>
</g>
<!-- DEMO_COUNTRIES -->
<g id="node1" class="node">
<title>DEMO_COUNTRIES</title>
<path fill="#ff0000" stroke="#ffffff" d="M93.6241,-553.9C93.6241,-553.9 212.3759,-553.9 212.3759,-553.9 218.3759,-553.9 224.3759,-559.9 224.3759,-565.9 224.3759,-565.9 224.3759,-583.5 224.3759,-583.5 224.3759,-589.5 218.3759,-595.5 212.3759,-595.5 212.3759,-595.5 93.6241,-595.5 93.6241,-595.5 87.6241,-595.5 81.6241,-589.5 81.6241,-583.5 81.6241,-583.5 81.6241,-565.9 81.6241,-565.9 81.6241,-559.9 87.6241,-553.9 93.6241,-553.9"/>
<text text-anchor="middle" x="153" y="-578.9" font-family="Times,serif" font-size="14.00" fill="#ffffff">DEMO_COUNTRIES</text>
<text text-anchor="middle" x="153" y="-562.1" font-family="Times,serif" font-size="14.00" fill="#ffffff">@cnt #1</text>
</g>
<!-- DEMO_CREDIT_CARD_TYPES -->
<g id="node2" class="node">
<title>DEMO_CREDIT_CARD_TYPES</title>
<path fill="#ff0000" stroke="#ffffff" d="M376.7903,-28.9C376.7903,-28.9 563.2097,-28.9 563.2097,-28.9 569.2097,-28.9 575.2097,-34.9 575.2097,-40.9 575.2097,-40.9 575.2097,-58.5 575.2097,-58.5 575.2097,-64.5 569.2097,-70.5 563.2097,-70.5 563.2097,-70.5 376.7903,-70.5 376.7903,-70.5 370.7903,-70.5 364.7903,-64.5 364.7903,-58.5 364.7903,-58.5 364.7903,-40.9 364.7903,-40.9 364.7903,-34.9 370.7903,-28.9 376.7903,-28.9"/>
<text text-anchor="middle" x="470" y="-53.9" font-family="Times,serif" font-size="14.00" fill="#ffffff">DEMO_CREDIT_CARD_TYPES</text>
<text text-anchor="middle" x="470" y="-37.1" font-family="Times,serif" font-size="14.00" fill="#ffffff">@cct #1</text>
</g>
<!-- DEMO_ORG_ENTITIES -->
<g id="node3" class="node">
<title>DEMO_ORG_ENTITIES</title>
<path fill="#0000ff" stroke="#ffffff" d="M601.9095,-378.9C601.9095,-378.9 740.0905,-378.9 740.0905,-378.9 746.0905,-378.9 752.0905,-384.9 752.0905,-390.9 752.0905,-390.9 752.0905,-408.5 752.0905,-408.5 752.0905,-414.5 746.0905,-420.5 740.0905,-420.5 740.0905,-420.5 601.9095,-420.5 601.9095,-420.5 595.9095,-420.5 589.9095,-414.5 589.9095,-408.5 589.9095,-408.5 589.9095,-390.9 589.9095,-390.9 589.9095,-384.9 595.9095,-378.9 601.9095,-378.9"/>
<text text-anchor="middle" x="671" y="-403.9" font-family="Times,serif" font-size="14.00" fill="#ffffff">DEMO_ORG_ENTITIES</text>
<text text-anchor="middle" x="671" y="-387.1" font-family="Times,serif" font-size="14.00" fill="#ffffff">@oen #1</text>
</g>
<!-- DEMO_ORG_ENTITIES&#45;&gt;DEMO_ORG_ENTITIES -->
<!-- DEMO_ORG_ENTITIES&#45;&gt;DEMO_ORG_ENTITIES -->
<!-- DEMO_ORG_ENTITIES&#45;&gt;DEMO_ORG_ENTITIES -->
<g id="edge3" class="edge">
<title>DEMO_ORG_ENTITIES-&gt;DEMO_ORG_ENTITIES</title>
<path fill="none" stroke="#000000" d="M752.1087,-409.4351C781.7821,-409.6989 806.0905,-406.4539 806.0905,-399.7 806.0905,-394.1333 789.5769,-390.9503 767.1566,-390.151"/>
<polygon fill="#0000ff" stroke="#000000" points="767.1725,-384.9009 752.1087,-389.9649 767.0426,-395.4001 767.1725,-384.9009"/>
<text text-anchor="middle" x="807.8405" y="-395.5" font-family="Times,serif" font-size="14.00" fill="#000000"> </text>
</g>
<!-- DEMO_ORG_ENTITY_TYPES -->
<g id="node4" class="node">
<title>DEMO_ORG_ENTITY_TYPES</title>
<path fill="#ff0000" stroke="#ffffff" d="M600.4656,-203.9C600.4656,-203.9 777.5344,-203.9 777.5344,-203.9 783.5344,-203.9 789.5344,-209.9 789.5344,-215.9 789.5344,-215.9 789.5344,-233.5 789.5344,-233.5 789.5344,-239.5 783.5344,-245.5 777.5344,-245.5 777.5344,-245.5 600.4656,-245.5 600.4656,-245.5 594.4656,-245.5 588.4656,-239.5 588.4656,-233.5 588.4656,-233.5 588.4656,-215.9 588.4656,-215.9 588.4656,-209.9 594.4656,-203.9 600.4656,-203.9"/>
<text text-anchor="middle" x="689" y="-228.9" font-family="Times,serif" font-size="14.00" fill="#ffffff">DEMO_ORG_ENTITY_TYPES</text>
<text text-anchor="middle" x="689" y="-212.1" font-family="Times,serif" font-size="14.00" fill="#ffffff">@oet #1</text>
</g>
<!-- DEMO_ORG_ENTITIES&#45;&gt;DEMO_ORG_ENTITY_TYPES -->
<g id="edge4" class="edge">
<title>DEMO_ORG_ENTITIES-&gt;DEMO_ORG_ENTITY_TYPES</title>
<path fill="none" stroke="#000000" d="M673.1712,-378.5909C676.1795,-349.3435 681.6572,-296.0886 685.313,-260.5458"/>
<polygon fill="#ff0000" stroke="#000000" points="690.5367,-261.07 686.8491,-245.6115 680.0918,-259.9956 690.5367,-261.07"/>
<text text-anchor="middle" x="682.75" y="-308" font-family="Times,serif" font-size="14.00" fill="#000000"> </text>
</g>
<!-- DEMO_PERSONS -->
<g id="node5" class="node">
<title>DEMO_PERSONS</title>
<path fill="#00ff00" stroke="#000000" d="M332.0358,-724.9C332.0358,-724.9 481.9642,-724.9 481.9642,-724.9 487.9642,-724.9 493.9642,-730.9 493.9642,-736.9 493.9642,-736.9 493.9642,-762.5 493.9642,-762.5 493.9642,-768.5 487.9642,-774.5 481.9642,-774.5 481.9642,-774.5 332.0358,-774.5 332.0358,-774.5 326.0358,-774.5 320.0358,-768.5 320.0358,-762.5 320.0358,-762.5 320.0358,-736.9 320.0358,-736.9 320.0358,-730.9 326.0358,-724.9 332.0358,-724.9"/>
<text text-anchor="middle" x="407" y="-757.9" font-family="Times,serif" font-size="14.00" fill="#000000">DEMO_PERSONS@per #1</text>
<polyline fill="none" stroke="#000000" points="320.0358,-749.7 493.9642,-749.7 "/>
<text text-anchor="middle" x="407" y="-733.1" font-family="Times,serif" font-size="14.00" fill="#000000">Config: filter</text>
</g>
<!-- DEMO_PERSONS&#45;&gt;DEMO_COUNTRIES -->
<g id="edge5" class="edge">
<title>DEMO_PERSONS-&gt;DEMO_COUNTRIES</title>
<path fill="none" stroke="#000000" d="M362.6801,-724.8669C348.2853,-716.5597 332.3336,-707.0952 318,-698 272.4178,-669.0764 223.2181,-631.389 190.5178,-605.3314"/>
<polygon fill="#ff0000" stroke="#000000" points="193.399,-600.912 178.4148,-595.617 186.8265,-609.1006 193.399,-600.912"/>
<text text-anchor="middle" x="289.75" y="-658" font-family="Times,serif" font-size="14.00" fill="#000000"> </text>
</g>
<!-- DEMO_PERSONS&#45;&gt;DEMO_PERSONS -->
<!-- DEMO_PERSONS&#45;&gt;DEMO_PERSONS -->
<!-- DEMO_PERSONS&#45;&gt;DEMO_PERSONS -->
<g id="edge8" class="edge">
<title>DEMO_PERSONS-&gt;DEMO_PERSONS</title>
<path fill="none" stroke="#000000" d="M494.0678,-754.5743C523.9163,-754.6129 547.9642,-752.9881 547.9642,-749.7 547.9642,-746.9899 531.6276,-745.4097 509.1714,-744.9595"/>
<polygon fill="#00ff00" stroke="#000000" points="509.1138,-739.7089 494.0678,-744.8257 509.0206,-750.2085 509.1138,-739.7089"/>
<text text-anchor="middle" x="549.7142" y="-745.5" font-family="Times,serif" font-size="14.00" fill="#000000"> </text>
</g>
<!-- DEMO_PERSONS&#45;&gt;DEMO_PERSONS -->
<!-- DEMO_PERSONS&#45;&gt;DEMO_PERSONS -->
<!-- DEMO_PERSONS&#45;&gt;DEMO_PERSONS -->
<g id="edge11" class="edge">
<title>DEMO_PERSONS-&gt;DEMO_PERSONS</title>
<path fill="none" stroke="#000000" d="M494.2097,-758.721C549.2705,-760.9843 601.9642,-757.9773 601.9642,-749.7 601.9642,-742.1825 558.5007,-739.0121 509.2741,-740.1889"/>
<polygon fill="#0000ff" stroke="#000000" points="509.031,-734.944 494.2097,-740.679 509.3725,-745.4384 509.031,-734.944"/>
<text text-anchor="middle" x="603.7142" y="-745.5" font-family="Times,serif" font-size="14.00" fill="#000000"> </text>
</g>
<!-- DEMO_ORDERS -->
<g id="node8" class="node">
<title>DEMO_ORDERS</title>
<path fill="#0000ff" stroke="#ffffff" d="M254.284,-553.9C254.284,-553.9 349.716,-553.9 349.716,-553.9 355.716,-553.9 361.716,-559.9 361.716,-565.9 361.716,-565.9 361.716,-583.5 361.716,-583.5 361.716,-589.5 355.716,-595.5 349.716,-595.5 349.716,-595.5 254.284,-595.5 254.284,-595.5 248.284,-595.5 242.284,-589.5 242.284,-583.5 242.284,-583.5 242.284,-565.9 242.284,-565.9 242.284,-559.9 248.284,-553.9 254.284,-553.9"/>
<text text-anchor="middle" x="302" y="-578.9" font-family="Times,serif" font-size="14.00" fill="#ffffff">DEMO_ORDERS</text>
<text text-anchor="middle" x="302" y="-562.1" font-family="Times,serif" font-size="14.00" fill="#ffffff">@ord #2</text>
</g>
<!-- DEMO_PERSONS&#45;&gt;DEMO_ORDERS -->
<g id="edge12" class="edge">
<title>DEMO_PERSONS-&gt;DEMO_ORDERS</title>
<path fill="none" stroke="#000000" d="M356.0368,-724.8127C338.1882,-713.4105 319.9644,-698.1196 309.3394,-679 297.9424,-658.4913 296.1831,-632.1038 297.2347,-611.0021"/>
<polygon fill="#00ff00" stroke="#000000" points="302.4915,-611.1395 298.5117,-595.7537 292.0281,-610.2632 302.4915,-611.1395"/>
<g id="a_edge12-label"><a xlink:title=" 50% ">
<text text-anchor="middle" x="325.3303" y="-658" font-family="Times,serif" font-size="14.00" fill="#000000"> 50% </text>
</a>
</g>
</g>
<!-- DEMO_PER_ASSIGNMENTS -->
<g id="node9" class="node">
<title>DEMO_PER_ASSIGNMENTS</title>
<path fill="#0000ff" stroke="#ffffff" d="M632.5666,-553.9C632.5666,-553.9 803.4334,-553.9 803.4334,-553.9 809.4334,-553.9 815.4334,-559.9 815.4334,-565.9 815.4334,-565.9 815.4334,-583.5 815.4334,-583.5 815.4334,-589.5 809.4334,-595.5 803.4334,-595.5 803.4334,-595.5 632.5666,-595.5 632.5666,-595.5 626.5666,-595.5 620.5666,-589.5 620.5666,-583.5 620.5666,-583.5 620.5666,-565.9 620.5666,-565.9 620.5666,-559.9 626.5666,-553.9 632.5666,-553.9"/>
<text text-anchor="middle" x="718" y="-578.9" font-family="Times,serif" font-size="14.00" fill="#ffffff">DEMO_PER_ASSIGNMENTS</text>
<text text-anchor="middle" x="718" y="-562.1" font-family="Times,serif" font-size="14.00" fill="#ffffff">@pas #2</text>
</g>
<!-- DEMO_PERSONS&#45;&gt;DEMO_PER_ASSIGNMENTS -->
<g id="edge16" class="edge">
<title>DEMO_PERSONS-&gt;DEMO_PER_ASSIGNMENTS</title>
<path fill="none" stroke="#000000" d="M494.1913,-740.989C533.9969,-733.9278 580.3252,-721.1438 617,-698 652.2334,-675.7658 680.959,-637.0352 698.6444,-608.9033"/>
<polygon fill="#00ff00" stroke="#000000" points="703.3698,-611.2349 706.641,-595.6829 694.3854,-605.8005 703.3698,-611.2349"/>
<text text-anchor="middle" x="673.75" y="-658" font-family="Times,serif" font-size="14.00" fill="#000000"> </text>
</g>
<!-- DEMO_PER_CLOCKINGS -->
<g id="node10" class="node">
<title>DEMO_PER_CLOCKINGS</title>
<path fill="#0000ff" stroke="#ffffff" d="M437.5112,-553.9C437.5112,-553.9 590.4888,-553.9 590.4888,-553.9 596.4888,-553.9 602.4888,-559.9 602.4888,-565.9 602.4888,-565.9 602.4888,-583.5 602.4888,-583.5 602.4888,-589.5 596.4888,-595.5 590.4888,-595.5 590.4888,-595.5 437.5112,-595.5 437.5112,-595.5 431.5112,-595.5 425.5112,-589.5 425.5112,-583.5 425.5112,-583.5 425.5112,-565.9 425.5112,-565.9 425.5112,-559.9 431.5112,-553.9 437.5112,-553.9"/>
<text text-anchor="middle" x="514" y="-578.9" font-family="Times,serif" font-size="14.00" fill="#ffffff">DEMO_PER_CLOCKINGS</text>
<text text-anchor="middle" x="514" y="-562.1" font-family="Times,serif" font-size="14.00" fill="#ffffff">@pcl #2</text>
</g>
<!-- DEMO_PERSONS&#45;&gt;DEMO_PER_CLOCKINGS -->
<g id="edge18" class="edge">
<title>DEMO_PERSONS-&gt;DEMO_PER_CLOCKINGS</title>
<path fill="none" stroke="#000000" d="M439.4301,-724.8463C448.2276,-716.967 457.1914,-707.7481 464,-698 482.8189,-671.0562 496.1638,-635.9765 504.3066,-610.1267"/>
<polygon fill="#00ff00" stroke="#000000" points="509.3404,-611.6178 508.6043,-595.7426 499.2798,-608.6118 509.3404,-611.6178"/>
<text text-anchor="middle" x="492.75" y="-658" font-family="Times,serif" font-size="14.00" fill="#000000"> </text>
</g>
<!-- DEMO_PER_CREDIT_CARDS -->
<g id="node11" class="node">
<title>DEMO_PER_CREDIT_CARDS</title>
<path fill="#0000ff" stroke="#ffffff" d="M381.4516,-203.9C381.4516,-203.9 558.5484,-203.9 558.5484,-203.9 564.5484,-203.9 570.5484,-209.9 570.5484,-215.9 570.5484,-215.9 570.5484,-233.5 570.5484,-233.5 570.5484,-239.5 564.5484,-245.5 558.5484,-245.5 558.5484,-245.5 381.4516,-245.5 381.4516,-245.5 375.4516,-245.5 369.4516,-239.5 369.4516,-233.5 369.4516,-233.5 369.4516,-215.9 369.4516,-215.9 369.4516,-209.9 375.4516,-203.9 381.4516,-203.9"/>
<text text-anchor="middle" x="470" y="-228.9" font-family="Times,serif" font-size="14.00" fill="#ffffff">DEMO_PER_CREDIT_CARDS</text>
<text text-anchor="middle" x="470" y="-212.1" font-family="Times,serif" font-size="14.00" fill="#ffffff">@pcc #2</text>
</g>
<!-- DEMO_PERSONS&#45;&gt;DEMO_PER_CREDIT_CARDS -->
<g id="edge21" class="edge">
<title>DEMO_PERSONS-&gt;DEMO_PER_CREDIT_CARDS</title>
<path fill="none" stroke="#000000" d="M399.335,-724.6675C388.3182,-683.8252 372.3927,-601.3605 402,-541 436.4047,-470.8589 506.5953,-503.5411 541,-433.4 570.1108,-374.0515 527.6204,-299.785 496.8946,-257.7464"/>
<polygon fill="#00ff00" stroke="#000000" points="500.8818,-254.3157 487.6334,-245.5382 492.5164,-260.6617 500.8818,-254.3157"/>
<text text-anchor="middle" x="509.75" y="-483" font-family="Times,serif" font-size="14.00" fill="#000000"> </text>
</g>
<!-- DEMO_PRODUCTS -->
<g id="node6" class="node">
<title>DEMO_PRODUCTS</title>
<path fill="#0000ff" stroke="#ffffff" d="M39.3394,-203.9C39.3394,-203.9 152.6606,-203.9 152.6606,-203.9 158.6606,-203.9 164.6606,-209.9 164.6606,-215.9 164.6606,-215.9 164.6606,-233.5 164.6606,-233.5 164.6606,-239.5 158.6606,-245.5 152.6606,-245.5 152.6606,-245.5 39.3394,-245.5 39.3394,-245.5 33.3394,-245.5 27.3394,-239.5 27.3394,-233.5 27.3394,-233.5 27.3394,-215.9 27.3394,-215.9 27.3394,-209.9 33.3394,-203.9 39.3394,-203.9"/>
<text text-anchor="middle" x="96" y="-228.9" font-family="Times,serif" font-size="14.00" fill="#ffffff">DEMO_PRODUCTS</text>
<text text-anchor="middle" x="96" y="-212.1" font-family="Times,serif" font-size="14.00" fill="#ffffff">@prd #1</text>
</g>
<!-- DEMO_STORES -->
<g id="node7" class="node">
<title>DEMO_STORES</title>
<path fill="#000000" stroke="#ffffff" d="M205.838,-378.9C205.838,-378.9 298.162,-378.9 298.162,-378.9 304.162,-378.9 310.162,-384.9 310.162,-390.9 310.162,-390.9 310.162,-408.5 310.162,-408.5 310.162,-414.5 304.162,-420.5 298.162,-420.5 298.162,-420.5 205.838,-420.5 205.838,-420.5 199.838,-420.5 193.838,-414.5 193.838,-408.5 193.838,-408.5 193.838,-390.9 193.838,-390.9 193.838,-384.9 199.838,-378.9 205.838,-378.9"/>
<text text-anchor="middle" x="252" y="-403.9" font-family="Times,serif" font-size="14.00" fill="#ffffff">DEMO_STORES</text>
<text text-anchor="middle" x="252" y="-387.1" font-family="Times,serif" font-size="14.00" fill="#ffffff">@sto #1</text>
</g>
<!-- DEMO_ORDERS&#45;&gt;DEMO_PERSONS -->
<g id="edge13" class="edge">
<title>DEMO_ORDERS-&gt;DEMO_PERSONS</title>
<path fill="none" stroke="#000000" d="M314.5506,-595.6176C331.676,-624.16 362.6717,-675.8194 384.0197,-711.3994"/>
<polygon fill="#0000ff" stroke="#000000" points="379.7367,-714.4655 391.9561,-724.6268 388.7404,-709.0632 379.7367,-714.4655"/>
<text text-anchor="middle" x="365.75" y="-658" font-family="Times,serif" font-size="14.00" fill="#000000"> </text>
</g>
<!-- DEMO_ORDERS&#45;&gt;DEMO_STORES -->
<g id="edge14" class="edge">
<title>DEMO_ORDERS-&gt;DEMO_STORES</title>
<path fill="none" stroke="#000000" d="M295.9688,-553.5909C287.5748,-524.2118 272.2595,-470.6083 262.1047,-435.0666"/>
<polygon fill="#ff0000" stroke="#000000" points="267.1436,-433.5921 257.9747,-420.6115 257.0476,-436.4767 267.1436,-433.5921"/>
<text text-anchor="middle" x="282.75" y="-483" font-family="Times,serif" font-size="14.00" fill="#000000"> </text>
</g>
<!-- DEMO_ORDER_ITEMS -->
<g id="node12" class="node">
<title>DEMO_ORDER_ITEMS</title>
<path fill="#0000ff" stroke="#ffffff" d="M27.6788,-378.9C27.6788,-378.9 164.3212,-378.9 164.3212,-378.9 170.3212,-378.9 176.3212,-384.9 176.3212,-390.9 176.3212,-390.9 176.3212,-408.5 176.3212,-408.5 176.3212,-414.5 170.3212,-420.5 164.3212,-420.5 164.3212,-420.5 27.6788,-420.5 27.6788,-420.5 21.6788,-420.5 15.6788,-414.5 15.6788,-408.5 15.6788,-408.5 15.6788,-390.9 15.6788,-390.9 15.6788,-384.9 21.6788,-378.9 27.6788,-378.9"/>
<text text-anchor="middle" x="96" y="-403.9" font-family="Times,serif" font-size="14.00" fill="#ffffff">DEMO_ORDER_ITEMS</text>
<text text-anchor="middle" x="96" y="-387.1" font-family="Times,serif" font-size="14.00" fill="#ffffff">@oit #3</text>
</g>
<!-- DEMO_ORDERS&#45;&gt;DEMO_ORDER_ITEMS -->
<g id="edge23" class="edge">
<title>DEMO_ORDERS-&gt;DEMO_ORDER_ITEMS</title>
<path fill="none" stroke="#000000" d="M277.1516,-553.5909C241.0173,-522.8943 173.7528,-465.7521 132.1358,-430.3979"/>
<polygon fill="#00ff00" stroke="#000000" points="135.4468,-426.3219 120.6159,-420.6115 128.6487,-434.3242 135.4468,-426.3219"/>
<text text-anchor="middle" x="218.75" y="-483" font-family="Times,serif" font-size="14.00" fill="#000000"> </text>
</g>
<!-- DEMO_PER_TRANSACTIONS -->
<g id="node13" class="node">
<title>DEMO_PER_TRANSACTIONS</title>
<path fill="#0000ff" stroke="#ffffff" d="M340.2903,-378.9C340.2903,-378.9 519.7097,-378.9 519.7097,-378.9 525.7097,-378.9 531.7097,-384.9 531.7097,-390.9 531.7097,-390.9 531.7097,-408.5 531.7097,-408.5 531.7097,-414.5 525.7097,-420.5 519.7097,-420.5 519.7097,-420.5 340.2903,-420.5 340.2903,-420.5 334.2903,-420.5 328.2903,-414.5 328.2903,-408.5 328.2903,-408.5 328.2903,-390.9 328.2903,-390.9 328.2903,-384.9 334.2903,-378.9 340.2903,-378.9"/>
<text text-anchor="middle" x="430" y="-403.9" font-family="Times,serif" font-size="14.00" fill="#ffffff">DEMO_PER_TRANSACTIONS</text>
<text text-anchor="middle" x="430" y="-387.1" font-family="Times,serif" font-size="14.00" fill="#ffffff">@ptr #3</text>
</g>
<!-- DEMO_ORDERS&#45;&gt;DEMO_PER_TRANSACTIONS -->
<g id="edge26" class="edge">
<title>DEMO_ORDERS-&gt;DEMO_PER_TRANSACTIONS</title>
<path fill="none" stroke="#000000" d="M328.335,-553.8577C338.6009,-544.989 350.0303,-534.131 359,-523 381.259,-495.3777 400.8882,-459.9434 413.8331,-434.155"/>
<polygon fill="#00ff00" stroke="#000000" points="418.6011,-436.3556 420.4814,-420.575 409.1706,-431.7387 418.6011,-436.3556"/>
<text text-anchor="middle" x="394.75" y="-483" font-family="Times,serif" font-size="14.00" fill="#000000"> </text>
</g>
<!-- DEMO_PER_ASSIGNMENTS&#45;&gt;DEMO_ORG_ENTITIES -->
<g id="edge15" class="edge">
<title>DEMO_PER_ASSIGNMENTS-&gt;DEMO_ORG_ENTITIES</title>
<path fill="none" stroke="#000000" d="M712.3307,-553.5909C704.4757,-524.3435 690.1729,-471.0886 680.6272,-435.5458"/>
<polygon fill="#0000ff" stroke="#000000" points="685.5773,-433.7364 676.6162,-420.6115 675.4367,-436.4599 685.5773,-433.7364"/>
<text text-anchor="middle" x="699.75" y="-483" font-family="Times,serif" font-size="14.00" fill="#000000"> </text>
</g>
<!-- DEMO_PER_ASSIGNMENTS&#45;&gt;DEMO_PERSONS -->
<g id="edge17" class="edge">
<title>DEMO_PER_ASSIGNMENTS-&gt;DEMO_PERSONS</title>
<path fill="none" stroke="#000000" d="M680.739,-595.6668C627.0911,-625.8545 527.6182,-681.828 464.5022,-717.3435"/>
<polygon fill="#ff0000" stroke="#000000" points="461.7264,-712.8813 451.2284,-724.8126 466.8755,-722.032 461.7264,-712.8813"/>
<text text-anchor="middle" x="591.75" y="-658" font-family="Times,serif" font-size="14.00" fill="#000000"> </text>
</g>
<!-- DEMO_PER_CLOCKINGS&#45;&gt;DEMO_PERSONS -->
<g id="edge19" class="edge">
<title>DEMO_PER_CLOCKINGS-&gt;DEMO_PERSONS</title>
<path fill="none" stroke="#000000" d="M500.2454,-595.6003C491.1053,-609.6031 478.915,-628.5003 468.5,-645.4 455.1234,-667.1055 440.617,-691.6559 429.054,-711.4833"/>
<polygon fill="#ff0000" stroke="#000000" points="424.3889,-709.0623 421.3915,-724.6693 433.4673,-714.3379 424.3889,-709.0623"/>
<text text-anchor="middle" x="469.75" y="-658" font-family="Times,serif" font-size="14.00" fill="#000000"> </text>
</g>
<!-- DEMO_PER_CREDIT_CARDS&#45;&gt;DEMO_CREDIT_CARD_TYPES -->
<g id="edge20" class="edge">
<title>DEMO_PER_CREDIT_CARDS-&gt;DEMO_CREDIT_CARD_TYPES</title>
<path fill="none" stroke="#000000" d="M470,-203.5909C470,-174.4753 470,-121.5679 470,-86.0272"/>
<polygon fill="#ff0000" stroke="#000000" points="475.2501,-85.6115 470,-70.6115 464.7501,-85.6116 475.2501,-85.6115"/>
<text text-anchor="middle" x="471.75" y="-133" font-family="Times,serif" font-size="14.00" fill="#000000"> </text>
</g>
<!-- DEMO_PER_CREDIT_CARDS&#45;&gt;DEMO_PERSONS -->
<g id="edge22" class="edge">
<title>DEMO_PER_CREDIT_CARDS-&gt;DEMO_PERSONS</title>
<path fill="none" stroke="#000000" d="M493.6235,-245.5647C507.166,-258.6702 523.5059,-276.6083 534,-295.4 564.1044,-349.308 563.7397,-373.2039 550,-433.4 542.2501,-467.3536 541.7226,-480.5212 516,-504 481.3067,-535.667 444.6928,-503.0589 417,-541 398.1038,-566.8891 400.5308,-656.486 403.8463,-709.4979"/>
<polygon fill="#0000ff" stroke="#000000" points="398.6221,-710.0566 404.8811,-724.6643 409.0977,-709.3417 398.6221,-710.0566"/>
<text text-anchor="middle" x="541.75" y="-483" font-family="Times,serif" font-size="14.00" fill="#000000"> </text>
</g>
<!-- DEMO_PER_CREDIT_CARDS&#45;&gt;DEMO_PER_TRANSACTIONS -->
<g id="edge28" class="edge">
<title>DEMO_PER_CREDIT_CARDS-&gt;DEMO_PER_TRANSACTIONS</title>
<path fill="none" stroke="#000000" d="M465.2202,-245.6115C458.5599,-274.7504 446.3906,-327.991 438.2484,-363.6134"/>
<polygon fill="#00ff00" stroke="#000000" points="433.0494,-362.7982 434.8249,-378.5909 443.2854,-365.1379 433.0494,-362.7982"/>
<text text-anchor="middle" x="454.75" y="-308" font-family="Times,serif" font-size="14.00" fill="#000000"> </text>
</g>
<!-- DEMO_ORDER_ITEMS&#45;&gt;DEMO_PRODUCTS -->
<g id="edge25" class="edge">
<title>DEMO_ORDER_ITEMS-&gt;DEMO_PRODUCTS</title>
<path fill="none" stroke="#000000" d="M96,-378.5909C96,-349.4753 96,-296.5679 96,-261.0272"/>
<polygon fill="#0000ff" stroke="#000000" points="101.2501,-260.6115 96,-245.6115 90.7501,-260.6116 101.2501,-260.6115"/>
<text text-anchor="middle" x="97.75" y="-308" font-family="Times,serif" font-size="14.00" fill="#000000"> </text>
</g>
<!-- DEMO_ORDER_ITEMS&#45;&gt;DEMO_ORDERS -->
<g id="edge24" class="edge">
<title>DEMO_ORDER_ITEMS-&gt;DEMO_ORDERS</title>
<path fill="none" stroke="#000000" d="M107.5566,-420.6186C120.8961,-443.3249 144.6154,-479.6003 172.5,-504 184.6899,-514.6665 216.4415,-532.0491 245.4518,-546.9087"/>
<polygon fill="#ff0000" stroke="#000000" points="243.1867,-551.6463 258.9401,-553.7421 247.932,-542.2798 243.1867,-551.6463"/>
<text text-anchor="middle" x="173.75" y="-483" font-family="Times,serif" font-size="14.00" fill="#000000"> </text>
</g>
<!-- DEMO_PER_TRANSACTIONS&#45;&gt;DEMO_ORDERS -->
<g id="edge27" class="edge">
<title>DEMO_PER_TRANSACTIONS-&gt;DEMO_ORDERS</title>
<path fill="none" stroke="#000000" d="M408.8176,-420.7342C395.6454,-434.3261 378.7538,-452.7182 365.5,-470.4 348.8671,-492.5899 332.6523,-519.3358 320.7712,-540.1877"/>
<polygon fill="#0000ff" stroke="#000000" points="316.0348,-537.9007 313.2864,-553.5535 325.1961,-543.031 316.0348,-537.9007"/>
<text text-anchor="middle" x="366.75" y="-483" font-family="Times,serif" font-size="14.00" fill="#000000"> </text>
</g>
<!-- DEMO_PER_TRANSACTIONS&#45;&gt;DEMO_PER_CREDIT_CARDS -->
<g id="edge29" class="edge">
<title>DEMO_PER_TRANSACTIONS-&gt;DEMO_PER_CREDIT_CARDS</title>
<path fill="none" stroke="#000000" d="M429.6528,-378.5801C429.7811,-357.2644 431.3019,-323.563 438.5,-295.4 441.6003,-283.27 446.6164,-270.6044 451.7431,-259.3999"/>
<polygon fill="#0000ff" stroke="#000000" points="456.575,-261.4678 458.3946,-245.6801 447.1268,-256.8872 456.575,-261.4678"/>
<text text-anchor="middle" x="439.75" y="-308" font-family="Times,serif" font-size="14.00" fill="#000000"> </text>
</g>
<!-- DEMO_DUAL -->
<g id="node14" class="node">
<title>DEMO_DUAL</title>
<path fill="#d3d3d3" stroke="#000000" d="M119.4586,-731.7C119.4586,-731.7 198.5414,-731.7 198.5414,-731.7 204.5414,-731.7 210.5414,-737.7 210.5414,-743.7 210.5414,-743.7 210.5414,-755.7 210.5414,-755.7 210.5414,-761.7 204.5414,-767.7 198.5414,-767.7 198.5414,-767.7 119.4586,-767.7 119.4586,-767.7 113.4586,-767.7 107.4586,-761.7 107.4586,-755.7 107.4586,-755.7 107.4586,-743.7 107.4586,-743.7 107.4586,-737.7 113.4586,-731.7 119.4586,-731.7"/>
<text text-anchor="middle" x="159" y="-745.6" font-family="Times,serif" font-size="14.00" fill="#000000">DEMO_DUAL</text>
</g>
<!-- BTABLE -->
<g id="node15" class="node">
<title>BTABLE</title>
<path fill="#00ff00" stroke="#000000" d="M850.8734,-716.5C850.8734,-716.5 945.1266,-716.5 945.1266,-716.5 951.1266,-716.5 957.1266,-722.5 957.1266,-728.5 957.1266,-728.5 957.1266,-770.9 957.1266,-770.9 957.1266,-776.9 951.1266,-782.9 945.1266,-782.9 945.1266,-782.9 850.8734,-782.9 850.8734,-782.9 844.8734,-782.9 838.8734,-776.9 838.8734,-770.9 838.8734,-770.9 838.8734,-728.5 838.8734,-728.5 838.8734,-722.5 844.8734,-716.5 850.8734,-716.5"/>
<text text-anchor="middle" x="898" y="-766.3" font-family="Times,serif" font-size="14.00" fill="#000000">B-TABLE</text>
<text text-anchor="middle" x="898" y="-749.5" font-family="Times,serif" font-size="14.00" fill="#000000">Base/driving table</text>
<polyline fill="none" stroke="#000000" points="838.8734,-741.3 957.1266,-741.3 "/>
<text text-anchor="middle" x="898" y="-724.7" font-family="Times,serif" font-size="14.00" fill="#000000">Configuration</text>
</g>
<!-- PTABLE -->
<g id="node16" class="node">
<title>PTABLE</title>
<path fill="#0000ff" stroke="#ffffff" d="M850.8825,-541.5C850.8825,-541.5 945.1175,-541.5 945.1175,-541.5 951.1175,-541.5 957.1175,-547.5 957.1175,-553.5 957.1175,-553.5 957.1175,-595.9 957.1175,-595.9 957.1175,-601.9 951.1175,-607.9 945.1175,-607.9 945.1175,-607.9 850.8825,-607.9 850.8825,-607.9 844.8825,-607.9 838.8825,-601.9 838.8825,-595.9 838.8825,-595.9 838.8825,-553.5 838.8825,-553.5 838.8825,-547.5 844.8825,-541.5 850.8825,-541.5"/>
<text text-anchor="middle" x="898" y="-591.3" font-family="Times,serif" font-size="14.00" fill="#ffffff">P-TABLE</text>
<text text-anchor="middle" x="898" y="-574.5" font-family="Times,serif" font-size="14.00" fill="#ffffff">Partially extracted</text>
<polyline fill="none" stroke="#ffffff" points="838.8825,-566.3 957.1175,-566.3 "/>
<text text-anchor="middle" x="898" y="-549.7" font-family="Times,serif" font-size="14.00" fill="#ffffff">Configuration</text>
</g>
<!-- BTABLE&#45;&gt;PTABLE -->
<g id="edge30" class="edge">
<title>BTABLE-&gt;PTABLE</title>
<path fill="none" stroke="#000000" d="M898,-716.3719C898,-689.9766 898,-652.7384 898,-623.0638"/>
<polygon fill="#00ff00" stroke="#000000" points="903.2501,-622.904 898,-607.904 892.7501,-622.904 903.2501,-622.904"/>
<text text-anchor="middle" x="924.6315" y="-666.4" font-family="Times,serif" font-size="14.00" fill="#000000"> B-Cons</text>
<text text-anchor="middle" x="924.6315" y="-649.6" font-family="Times,serif" font-size="14.00" fill="#000000"> (driving)</text>
</g>
<!-- NTABLE -->
<g id="node17" class="node">
<title>NTABLE</title>
<path fill="#ff0000" stroke="#ffffff" d="M857.3513,-366.5C857.3513,-366.5 928.6487,-366.5 928.6487,-366.5 934.6487,-366.5 940.6487,-372.5 940.6487,-378.5 940.6487,-378.5 940.6487,-420.9 940.6487,-420.9 940.6487,-426.9 934.6487,-432.9 928.6487,-432.9 928.6487,-432.9 857.3513,-432.9 857.3513,-432.9 851.3513,-432.9 845.3513,-426.9 845.3513,-420.9 845.3513,-420.9 845.3513,-378.5 845.3513,-378.5 845.3513,-372.5 851.3513,-366.5 857.3513,-366.5"/>
<text text-anchor="middle" x="893" y="-416.3" font-family="Times,serif" font-size="14.00" fill="#ffffff">N-TABLE</text>
<text text-anchor="middle" x="893" y="-399.5" font-family="Times,serif" font-size="14.00" fill="#ffffff"> Not extracted</text>
<polyline fill="none" stroke="#ffffff" points="845.3513,-391.3 940.6487,-391.3 "/>
<text text-anchor="middle" x="893" y="-374.7" font-family="Times,serif" font-size="14.00" fill="#ffffff">Configuration</text>
</g>
<!-- PTABLE&#45;&gt;NTABLE -->
<g id="edge31" class="edge">
<title>PTABLE-&gt;NTABLE</title>
<path fill="none" stroke="#000000" d="M897.0478,-541.3719C896.2936,-514.9766 895.2297,-477.7384 894.3818,-448.0638"/>
<polygon fill="#0000ff" stroke="#000000" points="899.625,-447.7479 893.9487,-432.904 889.1293,-448.0478 899.625,-447.7479"/>
<text text-anchor="middle" x="926.8794" y="-491.4" font-family="Times,serif" font-size="14.00" fill="#000000"> P-Cons</text>
<text text-anchor="middle" x="926.8794" y="-474.6" font-family="Times,serif" font-size="14.00" fill="#000000"> (integrity) </text>
</g>
<!-- FTABLE -->
<g id="node18" class="node">
<title>FTABLE</title>
<path fill="#000000" stroke="#ffffff" d="M853.068,-191.5C853.068,-191.5 932.932,-191.5 932.932,-191.5 938.932,-191.5 944.932,-197.5 944.932,-203.5 944.932,-203.5 944.932,-245.9 944.932,-245.9 944.932,-251.9 938.932,-257.9 932.932,-257.9 932.932,-257.9 853.068,-257.9 853.068,-257.9 847.068,-257.9 841.068,-251.9 841.068,-245.9 841.068,-245.9 841.068,-203.5 841.068,-203.5 841.068,-197.5 847.068,-191.5 853.068,-191.5"/>
<text text-anchor="middle" x="893" y="-241.3" font-family="Times,serif" font-size="14.00" fill="#ffffff">F-TABLE</text>
<text text-anchor="middle" x="893" y="-224.5" font-family="Times,serif" font-size="14.00" fill="#ffffff"> Fully extracted</text>
<polyline fill="none" stroke="#ffffff" points="841.068,-216.3 944.932,-216.3 "/>
<text text-anchor="middle" x="893" y="-199.7" font-family="Times,serif" font-size="14.00" fill="#ffffff">Configuration</text>
</g>
<!-- NTABLE&#45;&gt;FTABLE -->
<g id="edge32" class="edge">
<title>NTABLE-&gt;FTABLE</title>
<path fill="none" stroke="#000000" d="M893,-366.3719C893,-339.9766 893,-302.7384 893,-273.0638"/>
<polygon fill="#ff0000" stroke="#000000" points="898.2501,-272.904 893,-257.904 887.7501,-272.904 898.2501,-272.904"/>
<text text-anchor="middle" x="922.9355" y="-316.4" font-family="Times,serif" font-size="14.00" fill="#000000"> N-Cons</text>
<text text-anchor="middle" x="922.9355" y="-299.6" font-family="Times,serif" font-size="14.00" fill="#000000"> (not used)</text>
</g>
<!-- XTABLE -->
<g id="node19" class="node">
<title>XTABLE</title>
<path fill="#c0c0c0" stroke="#000000" d="M856.3713,-16.5C856.3713,-16.5 929.6287,-16.5 929.6287,-16.5 935.6287,-16.5 941.6287,-22.5 941.6287,-28.5 941.6287,-28.5 941.6287,-70.9 941.6287,-70.9 941.6287,-76.9 935.6287,-82.9 929.6287,-82.9 929.6287,-82.9 856.3713,-82.9 856.3713,-82.9 850.3713,-82.9 844.3713,-76.9 844.3713,-70.9 844.3713,-70.9 844.3713,-28.5 844.3713,-28.5 844.3713,-22.5 850.3713,-16.5 856.3713,-16.5"/>
<text text-anchor="middle" x="893" y="-66.3" font-family="Times,serif" font-size="14.00" fill="#000000">X-TABLE</text>
<text text-anchor="middle" x="893" y="-49.5" font-family="Times,serif" font-size="14.00" fill="#000000"> Not in dataset</text>
<polyline fill="none" stroke="#000000" points="844.3713,-41.3 941.6287,-41.3 "/>
<text text-anchor="middle" x="893" y="-24.7" font-family="Times,serif" font-size="14.00" fill="#000000">Configuration</text>
</g>
<!-- FTABLE&#45;&gt;XTABLE -->
<g id="edge33" class="edge">
<title>FTABLE-&gt;XTABLE</title>
<path fill="none" stroke="#000000" d="M893,-176.1965C893,-146.4983 893,-109.2652 893,-82.904"/>
<polygon fill="#000000" stroke="#000000" points="893.0001,-176.3719 886.25,-191.3719 893,-183.8719 893,-191.3719 893,-191.3719 893,-191.3719 893,-183.8719 899.75,-191.372 893.0001,-176.3719 893.0001,-176.3719"/>
<text text-anchor="middle" x="914.9632" y="-141.4" font-family="Times,serif" font-size="14.00" fill="#000000"> foreign</text>
<text text-anchor="middle" x="914.9632" y="-124.6" font-family="Times,serif" font-size="14.00" fill="#000000"> key</text>
</g>
</g>
</svg>