<?xml version="1.0" encoding="UTF-8" standalone="no"?><!DOCTYPE svg PUBLIC "-//W3C//DTD SVG 1.1//EN" "http://www.w3.org/Graphics/SVG/1.1/DTD/svg11.dtd"><!-- Generated by graphviz version 2.40.1 (20161225.0304)
 --><!-- Title: ds_graph Pages: 1 --><svg xmlns="http://www.w3.org/2000/svg" xmlns:xlink="http://www.w3.org/1999/xlink" width="836pt" height="407pt" viewBox="0.00 0.00 836.00 407.20">
<g id="graph0" class="graph" transform="scale(1 1) rotate(0) translate(4 403.2)">
<title>ds_graph</title>
<polygon fill="#ffffff" stroke="transparent" points="-4,4 -4,-403.2 832,-403.2 832,4 -4,4"/>
<g id="clust1" class="cluster">
<title>cluster_main</title>
<polygon fill="none" stroke="#000000" points="8,-8 8,-391.2 493,-391.2 493,-8 8,-8"/>
<text text-anchor="start" x="172.9358" y="-375.6" font-family="Times,serif" font-weight="bold" font-size="14.00" fill="#000000">Masked tables and columns</text>
</g>
<g id="clust2" class="cluster">
<title>cluster_legend</title>
<polygon fill="none" stroke="#000000" points="501,-216.2 501,-349.2 820,-349.2 820,-216.2 501,-216.2"/>
<text text-anchor="start" x="639.5091" y="-333.6" font-family="Times,serif" font-weight="bold" font-size="14.00" fill="#000000">Legend</text>
</g>
<!-- DEMO_PERSONS -->
<g id="node1" class="node">
<title>DEMO_PERSONS</title>
<g id="a_node1"><a xlink:title="[]&#10;table_alias=per&#10;[PER_ID]&#10;msk_id=737&#10;sensitive_flag=Y&#10;locked_flag=Y&#10;msk_type=SQL&#10;params=&quot;per_id+100&quot;&#10;[FIRST_NAME]&#10;msk_id=738&#10;locked_flag=Y&#10;msk_type=SHUFFLE&#10;shuffle_group=1&#10;[LAST_NAME]&#10;msk_id=739&#10;locked_flag=Y&#10;msk_type=TOKENIZE&#10;params=&quot;ds_utility_krn.random_value_from_table(p_tab_name=&gt;'DEMO_PERSONS',p_col_name=&gt;'LAST_NAME',p_cycle=&gt;'Y')&quot;&#10;options=&quot;enforce_uniqueness=true, encrypt_tokenized_values=false&quot;&#10;[FULL_NAME]&#10;msk_id=740&#10;locked_flag=Y&#10;msk_type=SQL&#10;params=&quot;:first_name||' '||:last_name&quot;&#10;[GENDER]&#10;msk_id=741&#10;locked_flag=Y&#10;msk_type=SHUFFLE&#10;shuffle_group=1&#10;partition_bitmap=1&#10;[NATIONALITY]&#10;msk_id=743&#10;locked_flag=Y&#10;msk_type=SQL&#10;params=&quot;ds_utility_krn.random_value_from_table(p_tab_name=&gt;'DEMO_COUNTRIES',p_col_name=&gt;'CNT_CD',p_seed=&gt;rowid)&quot;&#10;[TITLE]&#10;msk_id=744&#10;locked_flag=Y&#10;msk_type=SQL&#10;params=&quot;'XXXX'&quot;&#10;options=&quot;mask_null_values=true&quot;">
<path fill="#d3d3d3" stroke="#000000" d="M28.3271,-182.7C28.3271,-182.7 313.6729,-182.7 313.6729,-182.7 319.6729,-182.7 325.6729,-188.7 325.6729,-194.7 325.6729,-194.7 325.6729,-345.9 325.6729,-345.9 325.6729,-351.9 319.6729,-357.9 313.6729,-357.9 313.6729,-357.9 28.3271,-357.9 28.3271,-357.9 22.3271,-357.9 16.3271,-351.9 16.3271,-345.9 16.3271,-345.9 16.3271,-194.7 16.3271,-194.7 16.3271,-188.7 22.3271,-182.7 28.3271,-182.7"/>
<text text-anchor="middle" x="171" y="-341.3" font-family="Times,serif" font-size="14.00" fill="#000000">DEMO_PERSONS@per</text>
<polyline fill="none" stroke="#000000" points="16.3271,-333.1 325.6729,-333.1 "/>
<text text-anchor="middle" x="30.5487" y="-316.5" font-family="Times,serif" font-size="14.00" fill="#000000">PI</text>
<text text-anchor="middle" x="30.5487" y="-299.7" font-family="Times,serif" font-size="14.00" fill="#000000">-</text>
<text text-anchor="middle" x="30.5487" y="-282.9" font-family="Times,serif" font-size="14.00" fill="#000000">-</text>
<text text-anchor="middle" x="30.5487" y="-266.1" font-family="Times,serif" font-size="14.00" fill="#000000">-</text>
<text text-anchor="middle" x="30.5487" y="-249.3" font-family="Times,serif" font-size="14.00" fill="#000000">-</text>
<text text-anchor="middle" x="30.5487" y="-232.5" font-family="Times,serif" font-size="14.00" fill="#000000">FI</text>
<text text-anchor="middle" x="30.5487" y="-215.7" font-family="Times,serif" font-size="14.00" fill="#000000">-</text>
<polyline fill="none" stroke="#000000" points="44.7703,-207.5 44.7703,-333.1 "/>
<text text-anchor="middle" x="86.2114" y="-316.5" font-family="Times,serif" font-size="14.00" fill="#000000">*per_id</text>
<text text-anchor="middle" x="86.2114" y="-299.7" font-family="Times,serif" font-size="14.00" fill="#000000">*first_name</text>
<text text-anchor="middle" x="86.2114" y="-282.9" font-family="Times,serif" font-size="14.00" fill="#000000">*last_name</text>
<text text-anchor="middle" x="86.2114" y="-266.1" font-family="Times,serif" font-size="14.00" fill="#000000">*full_name</text>
<text text-anchor="middle" x="86.2114" y="-249.3" font-family="Times,serif" font-size="14.00" fill="#000000">*gender</text>
<text text-anchor="middle" x="86.2114" y="-232.5" font-family="Times,serif" font-size="14.00" fill="#000000">*nationality</text>
<text text-anchor="middle" x="86.2114" y="-215.7" font-family="Times,serif" font-size="14.00" fill="#000000">title</text>
<polyline fill="none" stroke="#000000" points="127.6525,-207.5 127.6525,-333.1 "/>
<text text-anchor="middle" x="149.4558" y="-316.5" font-family="Times,serif" font-size="14.00" fill="#000000">N9,0</text>
<text text-anchor="middle" x="149.4558" y="-299.7" font-family="Times,serif" font-size="14.00" fill="#000000">C30</text>
<text text-anchor="middle" x="149.4558" y="-282.9" font-family="Times,serif" font-size="14.00" fill="#000000">C30</text>
<text text-anchor="middle" x="149.4558" y="-266.1" font-family="Times,serif" font-size="14.00" fill="#000000">C61</text>
<text text-anchor="middle" x="149.4558" y="-249.3" font-family="Times,serif" font-size="14.00" fill="#000000">C1</text>
<text text-anchor="middle" x="149.4558" y="-232.5" font-family="Times,serif" font-size="14.00" fill="#000000">C3</text>
<text text-anchor="middle" x="149.4558" y="-215.7" font-family="Times,serif" font-size="14.00" fill="#000000">C4</text>
<polyline fill="none" stroke="#000000" points="171.2591,-207.5 171.2591,-333.1 "/>
<text text-anchor="middle" x="248.466" y="-316.5" font-family="Times,serif" font-size="14.00" fill="#000000">SQL (expression)</text>
<text text-anchor="middle" x="248.466" y="-299.7" font-family="Times,serif" font-size="14.00" fill="#000000">SHUFFLE (grp 1)</text>
<text text-anchor="middle" x="248.466" y="-282.9" font-family="Times,serif" font-size="14.00" fill="#000000">TOKENIZE (random)</text>
<text text-anchor="middle" x="248.466" y="-266.1" font-family="Times,serif" font-size="14.00" fill="#000000">SQL (expression)</text>
<text text-anchor="middle" x="248.466" y="-249.3" font-family="Times,serif" font-size="14.00" fill="#000000">SHUFFLE (grp 1 part 1)</text>
<text text-anchor="middle" x="248.466" y="-232.5" font-family="Times,serif" font-size="14.00" fill="#000000">SQL (random)</text>
<text text-anchor="middle" x="248.466" y="-215.7" font-family="Times,serif" font-size="14.00" fill="#000000">SQL (expression)</text>
<polyline fill="none" stroke="#000000" points="16.3271,-207.5 325.6729,-207.5 "/>
<text text-anchor="middle" x="171" y="-190.9" font-family="Times,serif" font-size="14.00" fill="#000000">Stats: 50 rows</text>
</a>
</g>
</g>
<!-- DEMO_PERSONS&#45;&gt;DEMO_PERSONS -->
<!-- DEMO_PERSONS&#45;&gt;DEMO_PERSONS -->
<!-- DEMO_PERSONS&#45;&gt;DEMO_PERSONS -->
<g id="edge3" class="edge">
<title>DEMO_PERSONS-&gt;DEMO_PERSONS</title>
<path fill="none" stroke="#000000" d="M325.704,-289.4168C357.1529,-287.3344 379.6729,-280.9621 379.6729,-270.3 379.6729,-261.4288 364.0828,-255.5273 340.7311,-252.5956"/>
<polygon fill="#000000" stroke="#000000" points="340.6381,-252.587 326.3357,-244.4628 333.171,-251.8851 325.704,-251.1832 325.704,-251.1832 325.704,-251.1832 333.171,-251.8851 325.0722,-257.9036 340.6381,-252.587 340.6381,-252.587"/>
<text text-anchor="middle" x="429.431" y="-266.1" font-family="Times,serif" font-size="14.00" fill="#000000">demo_per_per_fk</text>
</g>
<!-- DEMO_PER_CREDIT_CARDS -->
<g id="node2" class="node">
<title>DEMO_PER_CREDIT_CARDS</title>
<g id="a_node2"><a xlink:title="[]&#10;table_alias=pcc&#10;[CREDIT_CARD_NUMBER]&#10;msk_id=749&#10;locked_flag=Y&#10;msk_type=SQL&#10;params=&quot;ds_masker_krn.encrypt_credit_card_number(credit_card_number)&quot;">
<path fill="#d3d3d3" stroke="#000000" d="M32.6251,-16.5C32.6251,-16.5 309.3749,-16.5 309.3749,-16.5 315.3749,-16.5 321.3749,-22.5 321.3749,-28.5 321.3749,-28.5 321.3749,-78.9 321.3749,-78.9 321.3749,-84.9 315.3749,-90.9 309.3749,-90.9 309.3749,-90.9 32.6251,-90.9 32.6251,-90.9 26.6251,-90.9 20.6251,-84.9 20.6251,-78.9 20.6251,-78.9 20.6251,-28.5 20.6251,-28.5 20.6251,-22.5 26.6251,-16.5 32.6251,-16.5"/>
<text text-anchor="middle" x="171" y="-74.3" font-family="Times,serif" font-size="14.00" fill="#000000">DEMO_PER_CREDIT_CARDS@pcc</text>
<polyline fill="none" stroke="#000000" points="20.6251,-66.1 321.3749,-66.1 "/>
<text text-anchor="middle" x="34.8467" y="-49.5" font-family="Times,serif" font-size="14.00" fill="#000000">PI</text>
<polyline fill="none" stroke="#000000" points="49.0683,-41.3 49.0683,-66.1 "/>
<text text-anchor="middle" x="116.9316" y="-49.5" font-family="Times,serif" font-size="14.00" fill="#000000">*credit_card_number</text>
<polyline fill="none" stroke="#000000" points="184.7949,-41.3 184.7949,-66.1 "/>
<text text-anchor="middle" x="204.4632" y="-49.5" font-family="Times,serif" font-size="14.00" fill="#000000">C40</text>
<polyline fill="none" stroke="#000000" points="224.1315,-41.3 224.1315,-66.1 "/>
<text text-anchor="middle" x="272.7532" y="-49.5" font-family="Times,serif" font-size="14.00" fill="#000000">SQL (encrypt)</text>
<polyline fill="none" stroke="#000000" points="20.6251,-41.3 321.3749,-41.3 "/>
<text text-anchor="middle" x="171" y="-24.7" font-family="Times,serif" font-size="14.00" fill="#000000">Stats: 159 rows</text>
</a>
</g>
</g>
<!-- DEMO_PERSONS&#45;&gt;DEMO_PER_CREDIT_CARDS -->
<g id="edge4" class="edge">
<title>DEMO_PERSONS-&gt;DEMO_PER_CREDIT_CARDS</title>
<path fill="none" stroke="#000000" d="M171,-182.5127C171,-156.5966 171,-129.0538 171,-106.1172"/>
<polygon fill="#000000" stroke="#000000" points="171.0001,-106.0504 177.75,-91.0504 171,-98.5504 171,-91.0504 171,-91.0504 171,-91.0504 171,-98.5504 164.25,-91.0505 171.0001,-106.0504 171.0001,-106.0504"/>
<text text-anchor="middle" x="221.5351" y="-132.6" font-family="Times,serif" font-size="14.00" fill="#000000">demo_pcc_per_fk</text>
</g>
<!-- XTABLE -->
<g id="node3" class="node">
<title>XTABLE</title>
<path fill="#c0c0c0" stroke="#000000" d="M520.7752,-224.7C520.7752,-224.7 739.2248,-224.7 739.2248,-224.7 745.2248,-224.7 751.2248,-230.7 751.2248,-236.7 751.2248,-236.7 751.2248,-303.9 751.2248,-303.9 751.2248,-309.9 745.2248,-315.9 739.2248,-315.9 739.2248,-315.9 520.7752,-315.9 520.7752,-315.9 514.7752,-315.9 508.7752,-309.9 508.7752,-303.9 508.7752,-303.9 508.7752,-236.7 508.7752,-236.7 508.7752,-230.7 514.7752,-224.7 520.7752,-224.7"/>
<text text-anchor="middle" x="630" y="-299.3" font-family="Times,serif" font-size="14.00" fill="#000000">X-TABLE</text>
<text text-anchor="middle" x="630" y="-282.5" font-family="Times,serif" font-size="14.00" fill="#000000"> Masked table</text>
<polyline fill="none" stroke="#000000" points="508.7752,-274.3 751.2248,-274.3 "/>
<text text-anchor="middle" x="529.6048" y="-257.7" font-family="Times,serif" font-size="14.00" fill="#000000">keys</text>
<polyline fill="none" stroke="#000000" points="550.4344,-249.5 550.4344,-274.3 "/>
<text text-anchor="middle" x="583.8969" y="-257.7" font-family="Times,serif" font-size="14.00" fill="#000000">col name</text>
<polyline fill="none" stroke="#000000" points="617.3594,-249.5 617.3594,-274.3 "/>
<text text-anchor="middle" x="647.7146" y="-257.7" font-family="Times,serif" font-size="14.00" fill="#000000">col type</text>
<polyline fill="none" stroke="#000000" points="678.0698,-249.5 678.0698,-274.3 "/>
<text text-anchor="middle" x="714.6473" y="-257.7" font-family="Times,serif" font-size="14.00" fill="#000000">mask type</text>
<polyline fill="none" stroke="#000000" points="508.7752,-249.5 751.2248,-249.5 "/>
<text text-anchor="middle" x="630" y="-232.9" font-family="Times,serif" font-size="14.00" fill="#000000">Statistics</text>
</g>
<!-- XTABLE&#45;&gt;XTABLE -->
<g id="edge5" class="edge">
<title>XTABLE-&gt;XTABLE</title>
<path fill="none" stroke="#000000" d="M764.9434,-279.1838C767.7,-276.6579 769.2248,-273.6966 769.2248,-270.3 769.2248,-263.0539 762.2851,-257.7892 751.252,-254.5058"/>
<polygon fill="#000000" stroke="#000000" points="764.643,-279.3353 748.2105,-280.0683 757.9475,-282.7148 751.252,-286.0942 751.252,-286.0942 751.252,-286.0942 757.9475,-282.7148 754.2935,-292.1202 764.643,-279.3353 764.643,-279.3353"/>
<text text-anchor="middle" x="791.188" y="-274.5" font-family="Times,serif" font-size="14.00" fill="#000000"> foreign</text>
<text text-anchor="middle" x="791.188" y="-257.7" font-family="Times,serif" font-size="14.00" fill="#000000"> key</text>
</g>
</g>
</svg>